<?xml version="1.0" encoding="UTF-8"?>
<svg id="Layer_1" xmlns="http://www.w3.org/2000/svg" version="1.1" viewBox="0 0 595.28 841.89">
  <!-- Generator: Adobe Illustrator 29.7.1, SVG Export Plug-In . SVG Version: 2.1.1 Build 8)  -->
  <defs>
    <style>
      .st0 {
        fill: #8da602;
      }

      .st1 {
        fill: #aaa;
      }

      .st2 {
        fill: #fff4e1;
      }

      .st3 {
        fill: #717c0a;
      }

      .st4 {
        fill: #fba610;
      }

      .st5 {
        fill: #fff;
        stroke: #000;
        stroke-miterlimit: 10;
      }

      .st6 {
        fill: #233974;
      }

      .st7 {
        fill: #5f1f02;
      }

      .st8 {
        fill: #2a51a3;
      }

      .st9 {
        fill: #ffd31e;
      }

      .st10 {
        fill: #fca710;
      }

      .st11 {
        fill: #2b51a3;
      }
    </style>
  </defs>
  <rect class="st5" width="513.73" height="841.89"/>
  <rect class="st6" x="513.73" width="81.54" height="841.89"/>
  <g>
    <path class="st8" d="M217.53,94.01c-1.14-1.58-1.12-15.58-.32-17.58,1.36-3.41,9.25-2.86,12.51-2.41,11.88,1.64,11.69,19.92.07,21.34-2.33.28-10.96.45-12.26-1.35Z"/>
    <path class="st8" d="M207.94,48.09c1.91-.44,8.1-.33,10.14,0,9.28,1.55,11.78,14.42,3.85,19.76-3.31,2.23-14.61,3.76-16.42-.26-.55-1.21-.56-14.52-.26-16.42.25-1.61,1.06-2.72,2.69-3.09h0Z"/>
    <path class="st8" d="M256.07,87.25c7.17-.91,9.26,7.78,1.44,8.67-2.75.31-6.89-.02-9.53-.87-9.31-3-9.32-16.83-.58-20.21,3.92-1.51,16.29-2.02,14.91,4.48-.4,1.91-7.13,7.17-6.25,7.93h.01Z"/>
    <path class="st8" d="M256.07,61.25c6.81-1.17,8.95,7.65,1.97,8.62-9.62,1.34-19.7-3.09-16.72-14.41,2-7.59,17.23-10.39,20.47-4.81,2.66,4.58-7.16,9.35-5.71,10.61h-.01Z"/>
    <path class="st8" d="M307.34,75.84c2.42,2.55-.41,6.45-2.74,7.94,3.95.86,5.6,7.04,2.71,9.65s-15.37,3.28-18,.16c-2.17-2.58-.17-6.88,3.15-6.92-10.01-9.66.64-14.2,10.55-12.57.76.12,3.9,1.3,4.32,1.74,0,0,.01,0,.01,0Z"/>
    <path class="st8" d="M266.15,85.76c.65-.96,9-9.33,10.02-10.06,3.23-2.3,8.34-2.72,9.69,1.7.54,1.75.56,12.75.14,14.64-1.06,4.71-11.42,4.3-15.19,3.88-5.99-.67-8-5.23-4.65-10.16,0,0-.01,0-.01,0Z"/>
    <path class="st8" d="M268.61,48.09c1.88-.42,11.75-.42,13.62,0,4.33.97,5.36,7.59,1.86,10.29-.82.63-2.41.74-2.91,1.71-1.23,2.42,1.17,5.71-2.04,8.36-2.43,2-5.97,1.87-8.08-.54-2.21-2.53-.34-5.7-1.42-7.83-.48-.94-2.29-1.19-3.23-1.97-3.17-2.68-1.97-9.1,2.18-10.03h.02Z"/>
    <path class="st11" d="M230.23,49.28c2.61-2.61,7.58-1.01,8.38,2.56.43,1.91.43,12.29,0,14.2-1.13,5.06-8.5,4.84-9.58,0-.49-2.19-.41-10.72-.14-13.18.11-.96.69-2.94,1.33-3.58h0Z"/>
    <path class="st11" d="M208.53,74.08c8.23-1.8,7.21,12.3,6.26,17.25-1.15,5.97-8.77,4.92-9.55.82-.4-2.1-.33-12.16.02-14.4.27-1.71,1.55-3.3,3.27-3.68h0Z"/>
  </g>
  <g>
    <path d="M145.14,249.32h-11.32v-37.99h-9.38v-11.39h30.15v11.39h-9.45v37.99h0Z"/>
    <path d="M184.2,249.32v-18.56h-14.2v18.56h-11.32v-49.18h11.32v19.3h14.2v-19.3h11.32v49.18h-11.32,0Z"/>
    <path d="M228.89,218.9v11.32h-16.42v7.77h20.23v11.32h-31.56v-49.11l31.56-.07v11.32h-20.23v7.44h16.42Z"/>
    <path d="M249.8,236.65c-.4.07-.67.07-.87.13-.2.07-.47.07-.87.07s-.74,0-.94.07v12.4h-11.32v-49.04h11.32c2.88.07,5.56.6,7.91,1.54,2.55,1,4.69,2.35,6.5,3.95,1.88,1.74,3.35,3.69,4.35,5.76,1,2.28,1.54,4.62,1.54,7.04,0,2.68-.54,5.09-1.67,7.3-1.14,2.28-2.68,4.22-4.69,5.9l10.85,17.55h-13.33l-7.91-12.73c-.2,0-.54,0-.87.07h0ZM250.6,224.86c.87-.27,1.88-.74,2.88-1.47.87-.6,1.47-1.34,1.94-2.21.47-.74.67-1.61.67-2.61s-.2-1.88-.67-2.61c-.47-.8-1.14-1.54-1.94-2.14-1.01-.67-1.94-1.21-2.88-1.54-1.14-.33-2.34-.54-3.48-.6v13.87c1.27-.07,2.41-.33,3.48-.67v-.02Z"/>
    <path d="M297.97,218.9v11.32h-16.42v7.77h20.23v11.32h-31.56v-49.11l31.56-.07v11.32h-20.23v7.44h16.42Z"/>
    <path d="M335.36,200.07v49.25h-11.32v-49.25h11.32Z"/>
    <path d="M350.77,249.65c-1.54-.47-3.02-1.14-4.42-2.01-2.34-1.54-4.22-3.55-5.63-6.1-1.34-2.48-2.01-5.23-2.01-8.11h11.32c0,1.34.27,2.35.87,3.08.67.87,1.21,1.34,1.54,1.54.74.47,1.61.8,2.61.87.87.07,1.81-.13,2.75-.54.6-.27,1.14-.6,1.54-1,.47-.54.74-.94.87-1.21.13-.2.27-.54.33-1.07.07-.2.07-.54.07-.87s0-.67-.07-.87c-.07-.54-.2-.94-.33-1.14-.13-.27-.4-.67-.87-1.21-.33-.33-.87-.67-1.54-1-.33-.13-.8-.33-1.54-.6l-1.81-.6c-1-.33-2.21-.74-3.48-1.21-1.21-.47-2.41-1.07-3.62-1.81-1.61-1.07-2.95-2.28-3.95-3.69s-1.81-3.02-2.28-4.76c-.47-1.81-.67-3.55-.47-5.29.13-1.81.6-3.48,1.47-5.16.74-1.47,1.74-2.81,3.02-3.95,1.14-1.14,2.48-2.01,4.02-2.68,1.54-.6,3.08-1,4.76-1.14,1.74-.13,3.48,0,5.16.47,1.74.4,3.28,1,4.62,1.88,1.41.87,2.61,1.88,3.62,3.15s1.74,2.61,2.28,4.15.8,3.15.8,4.76h-11.32c0-1-.33-1.74-.94-2.14-.67-.4-1.27-.67-1.74-.8h-.07c-.07-.07-.2-.07-.27-.13h-.27c-.33-.07-.74-.07-1.14,0-.2.07-.67.2-1.34.47-.47.27-.8.67-1.07,1.21-.33.74-.4,1.47-.2,2.21.2.74.6,1.41,1.34,1.88.6.33,1.34.67,2.08.94.6.27,1.41.54,2.41.87.47.13,1.27.4,2.35.74.47.2,1.27.47,2.34.94,3.01,1.41,5.29,3.35,6.97,5.9,1.68,2.61,2.48,5.49,2.48,8.64s-.8,5.96-2.48,8.58c-1.67,2.55-3.95,4.49-6.97,5.9-1.14.54-2.28.94-3.55,1.21-1.34.2-2.55.33-3.62.33-1.54,0-3.08-.2-4.62-.6v-.03Z"/>
    <path d="M418.3,249.32l-16.08-28.68v28.68h-11.32v-49.04h12.33l16.01,28.61v-28.74h11.32v49.18h-12.26Z"/>
    <path d="M458.5,200.07c3.28,0,6.5.67,9.58,1.94,3.01,1.27,5.63,3.01,7.84,5.23,2.28,2.28,4.02,4.89,5.29,7.84,1.27,3.08,1.94,6.3,1.94,9.58s-.67,6.5-1.94,9.58c-1.21,2.88-2.95,5.43-5.29,7.77s-4.89,4.02-7.84,5.29c-3.08,1.27-6.3,1.94-9.58,1.94s-6.5-.67-9.58-1.94c-2.88-1.21-5.43-2.95-7.77-5.29-2.35-2.34-4.09-4.89-5.29-7.77-1.27-3.08-1.94-6.3-1.94-9.58s.67-6.5,1.94-9.58c1.27-2.95,3.01-5.56,5.29-7.84,2.21-2.21,4.82-3.95,7.77-5.23,3.08-1.27,6.3-1.94,9.58-1.94ZM458.5,237.93c1.88,0,3.62-.33,5.16-1.07,1.61-.67,3.01-1.61,4.22-2.81,1.14-1.14,2.14-2.55,2.88-4.22.67-1.61,1-3.35,1-5.16s-.33-3.55-1-5.16c-.74-1.68-1.74-3.08-2.88-4.22s-2.55-2.14-4.22-2.88c-1.61-.67-3.35-1-5.16-1s-3.55.33-5.16,1c-1.68.74-3.08,1.74-4.22,2.88-1.21,1.21-2.14,2.61-2.81,4.22-.74,1.54-1.07,3.28-1.07,5.16s.33,3.62,1.07,5.16c.67,1.61,1.61,3.02,2.81,4.22s2.61,2.14,4.22,2.81c1.54.74,3.28,1.07,5.16,1.07Z"/>
    <path d="M152.99,316.32h-11.32v-1.21c-2.48.87-5.09,1.27-7.77,1.27-6.83,0-12.66-2.41-17.49-7.24-4.76-4.76-7.17-10.59-7.17-17.42s2.41-12.66,7.17-17.49c4.82-4.76,10.65-7.17,17.49-7.17s12.6,2.41,17.42,7.17l-8.04,8.04c-2.61-2.61-5.7-3.89-9.38-3.89s-6.83,1.27-9.45,3.89-3.89,5.76-3.89,9.45,1.27,6.83,3.89,9.45c2.35,2.34,5.16,3.62,8.44,3.82s6.16-.6,8.78-2.48v-4.76h-10.59v-11.32h21.91v29.88h0Z"/>
    <path d="M180.66,267.07c3.28,0,6.5.67,9.58,1.94,3.01,1.27,5.63,3.01,7.84,5.23,2.28,2.28,4.02,4.89,5.29,7.84,1.27,3.08,1.94,6.3,1.94,9.58s-.67,6.5-1.94,9.58c-1.21,2.88-2.95,5.43-5.29,7.77s-4.89,4.02-7.84,5.29c-3.08,1.27-6.3,1.94-9.58,1.94s-6.5-.67-9.58-1.94c-2.88-1.21-5.43-2.95-7.77-5.29-2.35-2.34-4.09-4.89-5.29-7.77-1.27-3.08-1.94-6.3-1.94-9.58s.67-6.5,1.94-9.58c1.27-2.95,3.02-5.56,5.29-7.84,2.21-2.21,4.82-3.95,7.77-5.23,3.08-1.27,6.3-1.94,9.58-1.94ZM180.66,304.93c1.88,0,3.62-.33,5.16-1.07,1.61-.67,3.02-1.61,4.22-2.81,1.14-1.14,2.14-2.55,2.88-4.22.67-1.61,1.01-3.35,1.01-5.16s-.34-3.55-1.01-5.16c-.74-1.68-1.74-3.08-2.88-4.22s-2.55-2.14-4.22-2.88c-1.61-.67-3.35-1-5.16-1s-3.55.33-5.16,1c-1.67.74-3.08,1.74-4.22,2.88-1.21,1.21-2.14,2.61-2.81,4.22-.74,1.54-1.07,3.28-1.07,5.16s.33,3.62,1.07,5.16c.67,1.61,1.61,3.02,2.81,4.22s2.61,2.14,4.22,2.81c1.54.74,3.28,1.07,5.16,1.07Z"/>
    <path d="M232.51,267.07c3.28,0,6.5.67,9.58,1.94,3.01,1.27,5.63,3.01,7.84,5.23,2.28,2.28,4.02,4.89,5.29,7.84,1.27,3.08,1.94,6.3,1.94,9.58s-.67,6.5-1.94,9.58c-1.21,2.88-2.95,5.43-5.29,7.77s-4.89,4.02-7.84,5.29c-3.08,1.27-6.3,1.94-9.58,1.94s-6.5-.67-9.58-1.94c-2.88-1.21-5.43-2.95-7.77-5.29-2.35-2.34-4.09-4.89-5.29-7.77-1.27-3.08-1.94-6.3-1.94-9.58s.67-6.5,1.94-9.58c1.27-2.95,3.02-5.56,5.29-7.84,2.21-2.21,4.82-3.95,7.77-5.23,3.08-1.27,6.3-1.94,9.58-1.94h0ZM232.51,304.93c1.88,0,3.62-.33,5.16-1.07,1.61-.67,3.02-1.61,4.22-2.81,1.14-1.14,2.14-2.55,2.88-4.22.67-1.61,1.01-3.35,1.01-5.16s-.33-3.55-1.01-5.16c-.74-1.68-1.74-3.08-2.88-4.22s-2.55-2.14-4.22-2.88c-1.61-.67-3.35-1-5.16-1s-3.55.33-5.16,1c-1.67.74-3.08,1.74-4.22,2.88-1.21,1.21-2.14,2.61-2.81,4.22-.74,1.54-1.07,3.28-1.07,5.16s.33,3.62,1.07,5.16c.67,1.61,1.61,3.02,2.81,4.22s2.61,2.14,4.22,2.81c1.54.74,3.28,1.07,5.16,1.07Z"/>
    <path d="M281.09,269.28c2.88,1.41,5.36,3.22,7.5,5.43,2.08,2.21,3.75,4.76,5.02,7.77,1.21,2.95,1.81,6.1,1.81,9.45s-.6,6.37-1.81,9.25-2.88,5.43-4.96,7.64c-2.14,2.21-4.62,3.95-7.5,5.23-2.81,1.27-5.9,2.08-9.31,2.28h-11.32v-49.45h11.32v.07c3.42.2,6.5,1,9.25,2.34h0ZM276.73,303.52c1.41-.74,2.75-1.67,3.89-2.81,1.14-1.21,2.01-2.55,2.55-3.95.6-1.61.94-3.22.94-4.82s-.33-3.35-.94-5.02c-.6-1.54-1.47-2.95-2.61-4.22-1.14-1.27-2.48-2.28-3.89-3.02-1.47-.74-3.08-1.21-4.82-1.41v26.67c1.67-.2,3.35-.67,4.89-1.41h-.01Z"/>
    <path d="M339.44,285.9v11.32h-14.54v19.1h-11.32v-49.18h29.68v11.32h-18.36v7.44h14.54Z"/>
    <path d="M369.12,267.07c3.28,0,6.5.67,9.58,1.94,3.01,1.27,5.63,3.01,7.84,5.23,2.28,2.28,4.02,4.89,5.29,7.84,1.27,3.08,1.94,6.3,1.94,9.58s-.67,6.5-1.94,9.58c-1.21,2.88-2.95,5.43-5.29,7.77s-4.89,4.02-7.84,5.29c-3.08,1.27-6.3,1.94-9.58,1.94s-6.5-.67-9.58-1.94c-2.88-1.21-5.43-2.95-7.77-5.29-2.35-2.34-4.09-4.89-5.29-7.77-1.27-3.08-1.94-6.3-1.94-9.58s.67-6.5,1.94-9.58c1.27-2.95,3.01-5.56,5.29-7.84s4.82-3.95,7.77-5.23c3.08-1.27,6.3-1.94,9.58-1.94ZM369.12,304.93c1.88,0,3.62-.33,5.16-1.07,1.61-.67,3.01-1.61,4.22-2.81,1.14-1.14,2.14-2.55,2.88-4.22.67-1.61,1-3.35,1-5.16s-.33-3.55-1-5.16c-.74-1.68-1.74-3.08-2.88-4.22s-2.55-2.14-4.22-2.88c-1.61-.67-3.35-1-5.16-1s-3.55.33-5.16,1c-1.68.74-3.08,1.74-4.22,2.88-1.21,1.21-2.14,2.61-2.81,4.22-.74,1.54-1.07,3.28-1.07,5.16s.33,3.62,1.07,5.16c.67,1.61,1.61,3.02,2.81,4.22s2.61,2.14,4.22,2.81c1.54.74,3.28,1.07,5.16,1.07Z"/>
    <path d="M420.98,267.07c3.28,0,6.5.67,9.58,1.94,3.01,1.27,5.63,3.01,7.84,5.23,2.28,2.28,4.02,4.89,5.29,7.84,1.27,3.08,1.94,6.3,1.94,9.58s-.67,6.5-1.94,9.58c-1.21,2.88-2.95,5.43-5.29,7.77s-4.89,4.02-7.84,5.29c-3.08,1.27-6.3,1.94-9.58,1.94s-6.5-.67-9.58-1.94c-2.88-1.21-5.43-2.95-7.77-5.29-2.35-2.34-4.09-4.89-5.29-7.77-1.27-3.08-1.94-6.3-1.94-9.58s.67-6.5,1.94-9.58c1.27-2.95,3.01-5.56,5.29-7.84s4.82-3.95,7.77-5.23c3.08-1.27,6.3-1.94,9.58-1.94ZM420.98,304.93c1.88,0,3.62-.33,5.16-1.07,1.61-.67,3.01-1.61,4.22-2.81,1.14-1.14,2.14-2.55,2.88-4.22.67-1.61,1-3.35,1-5.16s-.33-3.55-1-5.16c-.74-1.68-1.74-3.08-2.88-4.22s-2.55-2.14-4.22-2.88c-1.61-.67-3.35-1-5.16-1s-3.55.33-5.16,1c-1.68.74-3.08,1.74-4.22,2.88-1.21,1.21-2.14,2.61-2.81,4.22-.74,1.54-1.07,3.28-1.07,5.16s.33,3.62,1.07,5.16c.67,1.61,1.61,3.02,2.81,4.22s2.61,2.14,4.22,2.81c1.54.74,3.28,1.07,5.16,1.07Z"/>
    <path d="M469.56,269.28c2.88,1.41,5.36,3.22,7.5,5.43,2.08,2.21,3.75,4.76,5.02,7.77,1.21,2.95,1.81,6.1,1.81,9.45s-.6,6.37-1.81,9.25-2.88,5.43-4.96,7.64c-2.14,2.21-4.62,3.95-7.5,5.23-2.81,1.27-5.9,2.08-9.31,2.28h-11.32v-49.45h11.32v.07c3.42.2,6.5,1,9.25,2.34h0ZM465.2,303.52c1.41-.74,2.75-1.67,3.89-2.81,1.14-1.21,2.01-2.55,2.55-3.95.6-1.61.94-3.22.94-4.82s-.33-3.35-.94-5.02c-.6-1.54-1.47-2.95-2.61-4.22-1.14-1.27-2.48-2.28-3.89-3.02-1.47-.74-3.08-1.21-4.82-1.41v26.67c1.68-.2,3.35-.67,4.89-1.41h-.01Z"/>
    <path d="M288.26,334.07c3.28,0,6.5.67,9.58,1.94,3.02,1.27,5.63,3.01,7.84,5.23,2.28,2.28,4.02,4.89,5.29,7.84,1.27,3.08,1.94,6.3,1.94,9.58s-.67,6.5-1.94,9.58c-1.21,2.88-2.95,5.43-5.29,7.77s-4.89,4.02-7.84,5.29c-3.08,1.27-6.3,1.94-9.58,1.94s-6.5-.67-9.58-1.94c-2.88-1.21-5.43-2.95-7.77-5.29-2.35-2.34-4.09-4.89-5.29-7.77-1.27-3.08-1.94-6.3-1.94-9.58s.67-6.5,1.94-9.58c1.27-2.95,3.02-5.56,5.29-7.84,2.21-2.21,4.82-3.95,7.77-5.23,3.08-1.27,6.3-1.94,9.58-1.94ZM288.26,371.93c1.88,0,3.62-.33,5.16-1.07,1.61-.67,3.02-1.61,4.22-2.81s2.14-2.55,2.88-4.22c.67-1.61,1-3.35,1-5.16s-.33-3.55-1-5.16c-.74-1.68-1.74-3.08-2.88-4.22s-2.55-2.14-4.22-2.88c-1.61-.67-3.35-1-5.16-1s-3.55.33-5.16,1c-1.67.74-3.08,1.74-4.22,2.88-1.21,1.21-2.14,2.61-2.81,4.22-.74,1.54-1.07,3.28-1.07,5.16s.33,3.62,1.07,5.16c.67,1.61,1.61,3.02,2.81,4.22s2.61,2.14,4.22,2.81c1.54.74,3.28,1.07,5.16,1.07Z"/>
    <path d="M330.26,370.65c-.4.07-.67.07-.87.13s-.47.07-.87.07-.74,0-.94.07v12.4h-11.32v-49.04h11.32c2.88.07,5.56.6,7.91,1.54,2.55,1,4.69,2.35,6.5,3.95,1.88,1.74,3.35,3.69,4.36,5.76,1,2.28,1.54,4.62,1.54,7.04,0,2.68-.54,5.09-1.67,7.3-1.14,2.28-2.68,4.22-4.69,5.9l10.85,17.55h-13.33l-7.91-12.73c-.2,0-.54,0-.87.07h-.01ZM331.07,358.86c.87-.27,1.88-.74,2.88-1.47.87-.6,1.47-1.34,1.94-2.21.47-.74.67-1.61.67-2.61s-.2-1.88-.67-2.61c-.47-.8-1.14-1.54-1.94-2.14-1-.67-1.94-1.21-2.88-1.54-1.14-.33-2.34-.54-3.48-.6v13.87c1.27-.07,2.41-.33,3.48-.67v-.02Z"/>
    <path d="M401.82,359.33c1.21,2.21,1.81,4.62,1.81,7.24,0,2.35-.47,4.56-1.47,6.5-1,2.01-2.34,3.82-4.02,5.36-1.67,1.47-3.69,2.68-6.03,3.55s-4.76,1.34-7.3,1.34h-14.41v-49.38l13.07.07c2.14,0,4.09.33,5.83,1.07,1.88.74,3.48,1.74,4.82,2.88,1.41,1.27,2.48,2.68,3.28,4.29.74,1.74,1.14,3.48,1.14,5.29,0,2.28-.54,4.35-1.67,6.16,2.08,1.54,3.75,3.42,4.96,5.63h-.01ZM386.21,349.01c.67-.47,1-.94,1-1.47,0-.47-.33-.94-1-1.47-.74-.47-1.61-.74-2.75-.74h-1.74v4.49h1.81c1.14-.07,2.01-.33,2.68-.8h0ZM387.68,371.46c.8-.27,1.61-.67,2.41-1.14.6-.47,1.14-1.01,1.61-1.74.4-.6.6-1.27.6-2.01s-.2-1.41-.6-2.08c-.47-.74-1-1.27-1.61-1.74-.74-.47-1.54-.87-2.41-1.21-.94-.27-1.88-.4-2.88-.4h-3.08v10.79h3.08c1.01,0,2.01-.13,2.88-.47h0Z"/>
    <path d="M414.82,383.32h-11.99l16.75-49.18h10.72l15.88,49.18h-11.93l-1.94-5.96h-15.48l-2.01,5.96ZM420.71,366.03h7.97l-3.89-11.93-4.09,11.93h.01Z"/>
    <path d="M469.56,336.28c2.88,1.41,5.36,3.22,7.5,5.43,2.08,2.21,3.75,4.76,5.02,7.77,1.21,2.95,1.81,6.1,1.81,9.45s-.6,6.37-1.81,9.25-2.88,5.43-4.96,7.64c-2.14,2.21-4.62,3.95-7.5,5.23-2.81,1.27-5.9,2.08-9.31,2.28h-11.32v-49.45h11.32v.07c3.42.2,6.5,1,9.25,2.34h0ZM465.2,370.52c1.41-.74,2.75-1.67,3.89-2.81,1.14-1.21,2.01-2.55,2.55-3.95.6-1.61.94-3.22.94-4.82s-.33-3.35-.94-5.02c-.6-1.54-1.47-2.95-2.61-4.22-1.14-1.27-2.48-2.28-3.89-3.02-1.47-.74-3.08-1.21-4.82-1.41v26.67c1.68-.2,3.35-.67,4.89-1.41h-.01Z"/>
    <path d="M324.17,419.9v11.32h-14.54v19.1h-11.32v-49.18h29.68v11.32h-18.36v7.44h14.54Z"/>
    <path d="M353.85,401.07c3.28,0,6.5.67,9.58,1.94,3.01,1.27,5.63,3.01,7.84,5.23,2.28,2.28,4.02,4.89,5.29,7.84,1.27,3.08,1.94,6.3,1.94,9.58s-.67,6.5-1.94,9.58c-1.21,2.88-2.95,5.43-5.29,7.77s-4.89,4.02-7.84,5.29c-3.08,1.27-6.3,1.94-9.58,1.94s-6.5-.67-9.58-1.94c-2.88-1.21-5.43-2.95-7.77-5.29s-4.09-4.89-5.29-7.77c-1.27-3.08-1.94-6.3-1.94-9.58s.67-6.5,1.94-9.58c1.27-2.95,3.01-5.56,5.29-7.84s4.82-3.95,7.77-5.23c3.08-1.27,6.3-1.94,9.58-1.94ZM353.85,438.93c1.88,0,3.62-.33,5.16-1.07,1.61-.67,3.01-1.61,4.22-2.81,1.14-1.14,2.14-2.55,2.88-4.22.67-1.61,1-3.35,1-5.16s-.33-3.55-1-5.16c-.74-1.68-1.74-3.08-2.88-4.22s-2.55-2.14-4.22-2.88c-1.61-.67-3.35-1-5.16-1s-3.55.33-5.16,1c-1.68.74-3.08,1.74-4.22,2.88-1.21,1.21-2.14,2.61-2.81,4.22-.74,1.54-1.07,3.28-1.07,5.16s.33,3.62,1.07,5.16c.67,1.61,1.61,3.01,2.81,4.22s2.61,2.14,4.22,2.81c1.54.74,3.28,1.07,5.16,1.07Z"/>
    <path d="M405.71,401.07c3.28,0,6.5.67,9.58,1.94,3.01,1.27,5.63,3.01,7.84,5.23,2.28,2.28,4.02,4.89,5.29,7.84,1.27,3.08,1.94,6.3,1.94,9.58s-.67,6.5-1.94,9.58c-1.21,2.88-2.95,5.43-5.29,7.77s-4.89,4.02-7.84,5.29c-3.08,1.27-6.3,1.94-9.58,1.94s-6.5-.67-9.58-1.94c-2.88-1.21-5.43-2.95-7.77-5.29s-4.09-4.89-5.29-7.77c-1.27-3.08-1.94-6.3-1.94-9.58s.67-6.5,1.94-9.58c1.27-2.95,3.01-5.56,5.29-7.84s4.82-3.95,7.77-5.23c3.08-1.27,6.3-1.94,9.58-1.94ZM405.71,438.93c1.88,0,3.62-.33,5.16-1.07,1.61-.67,3.01-1.61,4.22-2.81,1.14-1.14,2.14-2.55,2.88-4.22.67-1.61,1-3.35,1-5.16s-.33-3.55-1-5.16c-.74-1.68-1.74-3.08-2.88-4.22s-2.55-2.14-4.22-2.88c-1.61-.67-3.35-1-5.16-1s-3.55.33-5.16,1c-1.68.74-3.08,1.74-4.22,2.88-1.21,1.21-2.14,2.61-2.81,4.22-.74,1.54-1.07,3.28-1.07,5.16s.33,3.62,1.07,5.16c.67,1.61,1.61,3.01,2.81,4.22s2.61,2.14,4.22,2.81c1.54.74,3.28,1.07,5.16,1.07Z"/>
    <path d="M454.28,403.28c2.88,1.41,5.36,3.22,7.5,5.43,2.08,2.21,3.75,4.76,5.03,7.77,1.21,2.95,1.81,6.1,1.81,9.45s-.6,6.37-1.81,9.25-2.88,5.43-4.96,7.64c-2.14,2.21-4.62,3.95-7.5,5.23-2.81,1.27-5.9,2.08-9.31,2.28h-11.32v-49.45h11.32v.07c3.42.2,6.5,1,9.25,2.34h-.01ZM449.92,437.52c1.41-.74,2.75-1.68,3.89-2.81,1.14-1.21,2.01-2.55,2.55-3.95.6-1.61.94-3.22.94-4.82s-.33-3.35-.94-5.02c-.6-1.54-1.47-2.95-2.61-4.22-1.14-1.27-2.48-2.28-3.89-3.02-1.47-.74-3.08-1.21-4.82-1.41v26.67c1.68-.2,3.35-.67,4.89-1.41h-.01Z"/>
    <path d="M479.67,448.58c-1.14,1.14-2.55,1.74-4.15,1.74s-2.95-.6-4.09-1.74-1.74-2.55-1.74-4.09.6-3.01,1.74-4.15,2.48-1.67,4.09-1.67,3.02.54,4.15,1.67,1.67,2.48,1.67,4.15-.54,2.95-1.67,4.09Z"/>
    <path d="M220.85,517.32h-11.32v-37.99h-9.38v-11.39h30.15v11.39h-9.45v37.99h0Z"/>
    <path d="M259.91,517.32v-18.56h-14.2v18.56h-11.32v-49.18h11.32v19.3h14.2v-19.3h11.32v49.18h-11.32Z"/>
    <path d="M304.6,486.9v11.32h-16.42v7.77h20.23v11.32h-31.56v-49.11l31.56-.07v11.32h-20.23v7.44h16.42Z"/>
    <path d="M321.35,467.74l10.12,21.37,8.64-21.37h12.26l-20.17,49.58h-12.26l5.7-13.94-16.82-35.64h12.53Z"/>
    <path d="M379.11,517.32h-11.99l16.75-49.18h10.72l15.88,49.18h-11.93l-1.94-5.96h-15.48l-2.01,5.96ZM385,500.03h7.97l-3.89-11.93-4.09,11.93h.01Z"/>
    <path d="M427.81,504.65c-.4.07-.67.07-.87.13s-.47.07-.87.07-.74,0-.94.07v12.4h-11.32v-49.04h11.32c2.88.07,5.56.6,7.91,1.54,2.55,1,4.69,2.34,6.5,3.95,1.88,1.74,3.35,3.68,4.36,5.76,1,2.28,1.54,4.62,1.54,7.04,0,2.68-.54,5.09-1.67,7.3-1.14,2.28-2.68,4.22-4.69,5.9l10.85,17.55h-13.33l-7.91-12.73c-.2,0-.54,0-.87.07h-.01ZM428.62,492.86c.87-.27,1.88-.74,2.88-1.47.87-.6,1.47-1.34,1.94-2.21.47-.74.67-1.61.67-2.61s-.2-1.88-.67-2.61c-.47-.8-1.14-1.54-1.94-2.14-1-.67-1.94-1.21-2.88-1.54-1.14-.33-2.34-.54-3.48-.6v13.87c1.27-.07,2.41-.33,3.48-.67v-.02Z"/>
    <path d="M475.99,486.9v11.32h-16.42v7.77h20.23v11.32h-31.56v-49.11l31.56-.07v11.32h-20.23v7.44h16.42Z"/>
    <path d="M92.75,575.07c-.87,1.94-2.01,3.62-3.42,5.03-1.47,1.47-3.15,2.61-5.09,3.42-1.88.87-3.95,1.27-6.16,1.27s-4.29-.4-6.16-1.27c-1.94-.8-3.62-1.94-5.03-3.42-1.47-1.41-2.61-3.08-3.42-5.03-.87-1.88-1.27-3.95-1.27-6.16h10.45c0,1.54.54,2.75,1.61,3.75,1,1.07,2.28,1.61,3.82,1.61s2.75-.54,3.82-1.61c1.01-1,1.54-2.28,1.54-3.75v-34.44h10.52v34.44c0,2.14-.4,4.22-1.21,6.16Z"/>
    <path d="M111.38,582.91c-2.21-.87-4.15-2.14-5.96-3.89-1.81-1.81-3.15-3.82-4.09-6.03-.94-2.08-1.47-4.49-1.54-7.17v-30.75h11.32v30.69c0,1.94.74,3.69,2.21,5.16,1.41,1.41,3.15,2.08,5.23,2.08,1,0,1.94-.2,2.81-.6.87-.4,1.68-.94,2.35-1.61s1.21-1.47,1.54-2.34c.33-.94.54-1.88.54-2.88v-30.49h11.32v30.42c.07,2.48-.4,4.89-1.34,7.24-1.07,2.41-2.41,4.42-3.95,5.96-1.68,1.67-3.62,3.01-5.9,4.02-2.28,1.01-4.69,1.54-7.24,1.61h-.2c-2.55,0-4.89-.47-7.1-1.41h0Z"/>
    <path d="M151.58,584.65c-1.54-.47-3.01-1.14-4.42-2.01-2.35-1.54-4.22-3.55-5.63-6.1-1.34-2.48-2.01-5.23-2.01-8.11h11.32c0,1.34.27,2.34.87,3.08.67.87,1.21,1.34,1.54,1.54.74.47,1.61.8,2.61.87.87.07,1.81-.13,2.75-.54.6-.27,1.14-.6,1.54-1,.47-.54.74-.94.87-1.21.13-.2.27-.54.33-1.07.07-.2.07-.54.07-.87s0-.67-.07-.87c-.07-.54-.2-.94-.33-1.14-.13-.27-.4-.67-.87-1.21-.33-.33-.87-.67-1.54-1.01-.33-.13-.8-.33-1.54-.6l-1.81-.6c-1-.34-2.21-.74-3.48-1.21-1.21-.47-2.41-1.07-3.62-1.81-1.61-1.07-2.95-2.28-3.95-3.68-1-1.41-1.81-3.02-2.28-4.76-.47-1.81-.67-3.55-.47-5.29.13-1.81.6-3.48,1.47-5.16.74-1.47,1.74-2.81,3.02-3.95,1.14-1.14,2.48-2.01,4.02-2.68,1.54-.6,3.08-1,4.76-1.14,1.74-.13,3.48,0,5.16.47,1.74.4,3.28,1,4.62,1.88,1.41.87,2.61,1.88,3.62,3.15s1.74,2.61,2.28,4.15.8,3.15.8,4.76h-11.32c0-1.01-.33-1.74-.94-2.14-.67-.4-1.27-.67-1.74-.8h-.07c-.07-.07-.2-.07-.27-.13h-.27c-.33-.07-.74-.07-1.14,0-.2.07-.67.2-1.34.47-.47.27-.8.67-1.07,1.21-.33.74-.4,1.47-.2,2.21.2.74.6,1.41,1.34,1.88.6.33,1.34.67,2.08.94.6.27,1.41.54,2.41.87.47.13,1.27.4,2.34.74.47.2,1.27.47,2.35.94,3.02,1.41,5.29,3.35,6.97,5.9,1.67,2.61,2.48,5.49,2.48,8.64s-.8,5.96-2.48,8.58c-1.68,2.55-3.95,4.49-6.97,5.9-1.14.54-2.28.94-3.55,1.21-1.34.2-2.55.34-3.62.34-1.54,0-3.08-.2-4.62-.6v-.04Z"/>
    <path d="M193.19,584.32h-11.32v-37.99h-9.38v-11.39h30.15v11.39h-9.45v37.99h0Z"/>
  </g>
  <g>
    <path class="st6" d="M257.48,575.65c-5.98.99-12.1,2.17-18.55,3.55-1.21,8.57-2.13,17.14-2.73,25.51l-16.4,4.23,8.81-68.94,32.84-4.73-.6,17.92c-5.88.39-11.81,1.08-17.8,2.07-.41,1.77-.72,3.55-1.02,5.22l-.94,5.32,16.7-3.64-.31,13.49h0Z"/>
    <path class="st6" d="M299.49,597.12c-6.87,9.36-14.2,14.08-22.18,14.08s-13.35-4.73-15.92-14.18c-2.11-7.58-2.15-15.76-.19-24.62s5.68-17.14,11.25-24.72c6.87-9.36,14.3-14.08,22.28-14.08s13.35,4.73,15.92,14.18c2.09,7.68,2.13,15.86.19,24.62-2.06,8.86-5.78,17.14-11.35,24.72ZM298.49,565.9c-.78-5.61-2.96-8.37-6.4-8.37s-7.1,2.86-10.59,8.67c-2.67,4.53-4.53,8.96-5.5,13.29-.91,4.04-.83,7.49.15,10.34,1.26,3.45,3.82,5.12,7.66,5.12,3.64,0,6.73-1.87,9.48-5.71,2.21-3.05,3.72-6.6,4.63-10.64.94-4.23,1.1-8.47.57-12.7h0Z"/>
    <path class="st6" d="M352.18,597.12c-6.87,9.36-14.2,14.08-22.18,14.08s-13.35-4.73-15.92-14.18c-2.11-7.58-2.15-15.76-.19-24.62s5.68-17.14,11.25-24.72c6.87-9.36,14.3-14.08,22.28-14.08s13.35,4.73,15.92,14.18c2.09,7.68,2.13,15.86.19,24.62-2.06,8.86-5.78,17.14-11.35,24.72ZM351.18,565.9c-.78-5.61-2.96-8.37-6.4-8.37s-7.1,2.86-10.59,8.67c-2.67,4.53-4.53,8.96-5.5,13.29-.91,4.04-.83,7.49.15,10.34,1.26,3.45,3.82,5.12,7.66,5.12,3.64,0,6.73-1.87,9.48-5.71,2.21-3.05,3.72-6.6,4.63-10.64.94-4.23,1.1-8.47.57-12.7h0Z"/>
    <path class="st6" d="M393.88,594.07c-8.98,8.47-19.2,13.39-30.59,14.87l1.63-12.61,3.06-22.36c1.11-7.98,2-15.27,2.87-21.86l1.39-11.23c7.23-2.46,13.45-3.64,18.67-3.64,5.81,0,10.18,1.48,13.28,4.53,5.97,5.81,8.08,13.4,6.33,22.75-2.08,11.23-7.56,21.08-16.63,29.55h-.01ZM386.57,556.74c-.62,2.95-1.14,5.91-1.66,8.86-1.65,9.36-2.93,18.32-3.74,26.79,7.59-7.29,12.29-14.97,14.22-23.14,1.9-7.98-.78-12.9-8.82-12.51h0Z"/>
    <path class="st6" d="M452.51,582.15c-.54,3.05-1.78,6.21-3.75,9.55-3.75,6.21-9.2,11.42-16.25,15.66-3.65,2.26-7.39,3.35-11.03,3.35-3.25,0-6.54-.89-9.87-2.66,1.46-3.84,3.83-9.45,7.04-17.04,2.12,1.38,4.36,2.07,6.63,2.07,1.08,0,2.2-.2,3.34-.49,5.68-1.48,8.7-3.55,9.05-6.11.33-1.87-.97-2.86-3.83-2.86-1.67,0-4.3.39-7.79,1.18-3.47.69-6.1,1.08-7.87,1.08-6.99,0-9.88-3.74-8.58-11.13,1.22-6.89,5.41-14.48,12.5-22.85,8.28-9.55,15.37-14.58,21.47-15.07,7.28-.49,10.28,6.5,9.18,21.08l-7.18,2.76-7.1,2.86c-.15-3.05-1.07-4.53-2.75-4.53-2.36,0-4.67,1.38-6.82,4.04-1.11,1.28-1.75,2.66-1.97,3.94-.43,2.46.72,3.74,3.57,3.74,1.28,0,2.89-.2,4.83-.59,2.86-.59,5.38-.89,7.44-.89,5.42,0,8.53,1.87,9.56,5.51.57,2.36.63,4.83.17,7.39h0Z"/>
    <path class="st6" d="M469.69,609.23c-2.36,1.67-4.92,2.76-7.65,3.15-2.73.39-4.92,0-6.77-1.28-2.04-1.28-2.78-3.25-2.31-5.91.45-2.56,1.93-4.83,4.45-6.79,2.38-1.77,4.94-2.86,7.66-3.25,2.71-.3,4.91.1,6.75,1.38,2.02,1.38,2.86,3.35,2.41,5.91-.45,2.56-1.93,4.83-4.55,6.8h0ZM494.06,538.62c-5.29,10.44-8.99,18.02-11,22.75-3.14,7.19-5.81,15.07-8.02,23.74l-13.47-.69,12.31-49.14,20.19,3.35h-.01Z"/>
  </g>
  <g>
    <path d="M278.52,743.84c-.46.19-1.79,1.18-2.19,1.58-1.33,1.31-3.01,8.77-2.4,10.58.91,2.69,5.78,5.2,7.66,7.49,3.5,4.26,5.23,8.26,9.62,12.41,35.65,33.72,108.76,2.08,137.54-28.3,25.58-27,41.22-93.6,5.97-118.31-.98-.69-4.93-2.59-5.29-3.22-.55-.93-.5-5.43-.78-6.94-1.16-6.31-3.79-14.04-7.61-19.23-2.28-3.11-4.13-4.28-8.15-3.23-4.47,1.17-15.56,6.43-18.06,10.33-3.31,5.16,2.49,8.53,5.38,11.75,3.51,3.91,6.94,8.65,8.76,13.62-1.46.38-2.99.96-4.36,1.6-7.58,3.52-16.28,11.13-20.86,18.12s-4.93,11.7-13.08,16.67c-12.35,7.54-27.56,10.79-41.71,7.31-17.25-4.25-24.67-18.93-45.12-14.44-1.24.27-2.24,1.25-3.88,1.25-2.76,0-3.82-2.74-7.96-1.1-1.04.41-4.15,4.12-4.79,5.21-2.59,4.41,1.26,5.48,2.01,8.34.36,1.4-.37,4.76-.02,6.87.46,2.76,1.45,5.68,2.82,8.11-3.73,1.64-7.93-1.71-11.6.2-1.05.55-4.92,6.85-5.07,8.2-.33,3.07,2.84,5.48,3.66,8.18.43,1.41.18,3.13.45,4.56,2.23,11.8,11.87,22.09,22.14,27.65,1.68.91,3.68,1.39,5.2,2.61-2.52.93-5.88,1.15-8.29,2.15v-.02Z"/>
    <path class="st9" d="M410.71,636.24c-20.15,17.61-4.63,36.16-13.86,55.05-9.95,20.37-35,33.61-55.87,39.96-4.87,1.48-12.75,3.84-17.61,4.56-4.23.62-9.68-.11-14.35.52-9.8,1.33-13.37,2.89-20.99,8.65-.79.33-1.51.71-2.13,1.14,1.59,3.75,1.11,7.07.09,10.85l.63.66.54,1.19c12.19,9.09,21.79,11.81,36.47,11.71l.48-.61c.3.42.52.9.43,1.44.4.72,10.19-.19,11.64-.57l.22-.8c4.28-2.27,11.28-3.02,16.33-4.59,51.55-16.01,99.89-73.92,69.77-128.24l-.92-.46c-3.2.81-6.49.14-9.59-.79l-1.28.34h0Z"/>
    <path class="st10" d="M425.2,636.45c.1.18.07.5.18.68l.43.25c32.77,59.5-28.42,124.13-86.09,133.54-1.06.17-3.25.69-3.32-.94-.99.52-10.75,1.24-11.51.8-.23-.13-.41-.63-.78-.85-.49.21-.64.59-.45,1.14-12.93,2.24-27.53-2.12-37.22-11.41l-1.16-.23c-.89-.99-2.34.02-1.52,1.12,1.37,1.42,2.06,3.46,3.2,5.04,30.95,42.98,101.99,12.79,133.7-14.99,13.42-11.76,22.42-28.31,27.14-45.38,6.44-23.3,6.71-57.94-15.44-73.13l-.92-.2c-1.77,1.57-3.72,2.82-5.85,3.75l-.4.84v-.03Z"/>
    <path class="st9" d="M275.18,692.72c-3.25,2.69-2.97,8.61-1.58,12.34,4.2,11.24,21.1,18.65,32.36,20.07,25.91,3.27,61.34-7.56,77.1-29.2,3.54-4.86,4.72-9.7,5.17-15.55.38-4.95.42-10.47.13-15.34-.28-.16-.57-.15-.87-.02-1.86,8.55-1.9,13.6-9.5,19.5-14.31,11.11-45.88,17.91-63.72,15.09-15.2-2.4-21.56-12.3-39.09-6.88h0Z"/>
    <path class="st10" d="M387.49,665.01c.74.61.41,2.58.37,3.51-.53,12.95,1.08,19.78-7.94,30.3-16.9,19.73-55.11,30.91-80.1,24.38-12.61-3.29-32.71-14.89-24.64-30.49-1.16.36-2.5.85-3.63,1.3l-.25.43c-.18.07-.53.18-.68.18l-.82.53c-.48,3.8-1.95,6.94-4.82,9.46l.15.82c.04.33.1.66.21.97s.21.59.39.82c7.51,9.42,17.24,15.16,27.45,20.09-10.87-2.99-21.22-10.32-27.59-19.75l-1.12-.51-.43-.25c.85-.3.9-.68.07-1.1-.52-1.03-1.99-.37-1.6.78.29,1.22.1,2.81.34,4.07,2.02,10.71,11.24,20.77,20.73,25.67,1.05.54,4.83,2.27,5.78,2.37,1.46.15,5.92-2.58,7.89-3.23,2.78-.93,6.18-1.68,9.07-1.98-.87-1.03-4.59-.76-4.55-2.24,0-.27.37-.64.69-.73.53-.14,5.13.96,6.26,1.08,12.72,1.39,20.45-.19,32.71-3.98,19.69-6.08,43.33-18.89,52.55-38.18,4.19-8.77,1.96-16.12,1.96-25.22,0-8.6,1.62-17.94,6.86-24.92-1.72.44-3.59,2.19-4.89,3.43-6.39,6.11-8.61,14.08-10.43,22.39h0Z"/>
    <path class="st9" d="M279.61,666.66l-.75.42c-.57,2.97-3.09,5.11-5.75,6.27l-.21.83c.24.62-.01,1.81-.06,2.54-.11,1.93,2.61,3.42,2.38.83,1.39-1.52,1.85,1.18,2.39,2.27l1.74,1.91c12.59,5.79,27.23,8.52,41.14,9.17,18.56.86,39.55-1.57,52.24-16.48.73-.86,2.71-3.28.84-3.25-16.66,10.71-39.19,13.42-56.93,3.96-3.36-1.79-6.42-4.5-9.75-6.33-8.8-4.83-17.78-6.06-27.27-2.12v-.02Z"/>
    <path class="st10" d="M277.61,679.81c.81,1.64,3.68,7.26,5.29,7.82.68.24,3.61-.02,4.8.12,9.85,1.11,17.79,6.98,27.13,8.46,16.75,2.67,47.26-3.99,60.81-14.23,9.66-7.31,6.74-17.06,11.03-27.05l-.29-.46c-3.43,6.54-6.36,12.53-12.82,16.68.66.11-.49,1.62-.61,1.79-16.44,22.87-61.74,19.24-85.48,11.32-3.38-1.13-6.95-2.38-9.85-4.45h0Z"/>
    <path class="st3" d="M432.37,632.06c-1.1-.76-6.3-3.66-6.52-4.27-.19-7.33-1.79-15.65-5.33-22.13-.17-.32-.15-1.11-.76-.65-.44.34-1.58,2.82-2.17,3.6-1.23,1.61-2.76,2.88-4.35,4.1,2.71,5.27,4.56,11.56,7.36,16.72,1.25,2.3,3.23,4.64,4.61,7.02,2.82-.69,4.88-2.8,7.16-4.39h0Z"/>
    <path class="st0" d="M410.71,636.24c3.85,1.2,7.79,2.2,11.79.91-1.29-2.33-2.49-4.69-4.19-6.76l-6.95-16.7c-2.88,1.4-6.12,1.92-9.3,1.69,3.73,4.9,8.58,10.33,10.66,16.23,1.04,2.95-.04,2.91-2,4.63h-.01Z"/>
    <path class="st0" d="M283.76,760.53c.22-.68.87-.96,1.52-1.12.31-.44.24-1.02-.21-1.71.68.37,1.2.34,1.55-.08.17-2.29,1.2-4.25,1.07-6.68-.09-1.65-.63-3.67-1.26-5.18.8-.02,1.07-.38,1.61-.78-2.18.97-8.57,1.28-9.53,3.43-.31.69-1.36,6.19-1.15,6.67.57,1.32,5.18,4.18,6.42,5.46h-.02Z"/>
    <path class="st0" d="M262.51,706.48c.41-.56,1.1-.54,1.6-.78.35.94.97.73,1.01-.26.26-.16,2.33-2.43,2.68-2.87,1.9-2.44,2.22-5.02,2.82-7.94-1.86-.05-7.17-1.97-8.52-.86-.27.22-3.16,4.68-3.22,5-.27,1.48,3.1,5.48,3.63,7.71h0Z"/>
    <path class="st0" d="M272.9,674.18c3.12-1.12,6.5-4.07,6.71-7.52-.92-.45-4.78-2.17-5.48-2.11s-4.19,4.25-4.21,4.88c-.07,1.57,2.52,3.53,2.98,4.75Z"/>
    <path class="st4" d="M272.83,676.72c-.1,1.58-.52,2.84-.25,4.58.41,2.61,1.37,5.52,2.74,7.77l4.74-1.23c-2.41-3.03-4.16-6.45-4.84-10.3-.22.25-.1.84-.33.81-.44-.06-1.93-1.06-2.05-1.63h-.01Z"/>
    <path class="st3" d="M425.8,637.38l-.43-.25c.14.24.41.23.43.25Z"/>
    <path class="st0" d="M271.3,694.45c.16-.06.25-.25.25-.43-.15.06-.26.25-.25.43Z"/>
    <path class="st2" d="M364.84,724.72c-.7-.04-9.02,4.19-10.65,4.84-8.75,3.52-19.21,6.55-28.44,8.53-7.68,1.64-24.83.61-29.96,6.15-2.3,2.48-.79,6.78,2.77,5.96,18.5-7.65,39.86-10.19,57.95-18.41,1.52-.69,8.39-4.25,9.03-5.3.4-.66.11-1.72-.7-1.77h0Z"/>
    <path class="st2" d="M411.3,643.75c-5.14.48-6.74,9.82-7.2,13.98-.6,5.38-.49,16.24.76,21.39.5,2.09,2.17,3.49,4.2,2.16,1.53-1,.98-7.3,1.15-9.35.26-3.14.71-6.73,1.37-9.8.77-3.62,4.28-11.75,3.82-14.69-.31-1.97-1.98-3.89-4.1-3.69Z"/>
    <path class="st7" d="M285.27,759.42c6.31,7.15,18.74,12.18,28.15,12.82,1.69.12,9.57.12,10.56-.52.63-.41.31-1.24.13-1.8-.52-.31-10.03-.36-12.08-.67-11.58-1.72-16.19-5.62-25.41-11.62-2.22-1.45-3.03-.12-1.34,1.79h-.01Z"/>
    <path class="st2" d="M343.22,700.33c-11.79,1.68-24.46,3.37-36.14.28-3.7-.98-10.27-4.9-12.38.58-1.22,3.17,1.88,3.94,4.27,4.44,11.94,2.49,30.13,1.75,41.58-2.42,1.16-.42,2.88-1.41,2.66-2.87h.01Z"/>
    <path class="st7" d="M264.11,705.7c-.09.33-.2.79-.07,1.1l.43.25c4.91,8.55,15.74,16.45,24.89,19.83.66.24,5.01,2.16,4.91.41-.04-.8-8.1-4.21-9.41-4.94-7.68-4.27-14.14-10.18-19.72-16.91-.23.14-.72.13-1.01.26h-.02Z"/>
    <path class="st0" d="M264.46,707.05l-.43-.25c.16.39.41.23.43.25Z"/>
    <path class="st2" d="M286.28,669.71c-.72,1.38.29,2.06,1.31,2.64,2.21,1.26,15.99,3.69,18.46,3.25,6.09-1.08-2.23-5.52-4.33-6.32-3.15-1.2-13.59-3.13-15.43.43h-.01Z"/>
  </g>
  <ellipse class="st1" cx="388.55" cy="808.88" rx="46.38" ry="6.78"/>
</svg>