<?xml version="1.0" encoding="UTF-8"?>
<svg id="Layer_1" data-name="Layer 1" xmlns="http://www.w3.org/2000/svg" viewBox="0 0 667.38 590.83">
  <defs>
    <style>
      .cls-1 {
        fill: #9f9f9f;
      }
    </style>
  </defs>
  <g>
    <path class="cls-1 arrow-line" d="M643.87,145.45c-4.55-11.21-20.07-4.45-17.09,6.69,9.95,37.18-7.98,78.36-35.84,103.4-32.36,29.07-77.02,40.55-119.28,44.89-6.37.66-12.76,1.14-19.16,1.44,7.56-22.42,1.67-46.66-19.94-62.83-30.45-22.79-76.46-24.85-112.37-17.44-24.9,5.13-63.59,22.47-47.32,54.78,15.47,30.7,71.35,38.87,101.48,44.44,10.84,2,21.79,3.53,32.81,4.58-27.8,21.8-68.31,31.19-100.56,39.41-69.03,17.62-140.71,25.48-211.91,22.65,39.19-20.84,77.17-43.06,113.35-69.35,6.83-4.96.44-17.47-7.44-13.36-47.67,24.85-95.54,50.21-144.91,71.63-12.08,5.24-10.72,20.01-.34,25.94,39.5,22.55,83.12,44.58,127.2,56.29,3.88,1.03,5.75-4.67,2.92-6.87-23.47-18.21-49.33-34.39-75.43-49.79,72.17,3.06,144.2-3.46,214.65-21.29,39.32-9.94,84.56-22.26,112.7-53.64,21.95.28,43.93-1.41,65.47-5.19,45.98-8.06,92.94-26.44,123-63.77,25.64-31.85,33.48-74.43,18.01-112.61ZM65.9,402.46c.02-1.18.03-2.37.05-3.55,1.94.19,3.88.37,5.83.54-1.96,1-3.92,2.01-5.88,3.01ZM357.19,293.77c-15.24-3.33-48.47-7.77-59.43-20.49-18.87-21.89,15.56-28.2,24.89-29.99,8.78-1.68,17.74-2.64,26.68-2.81,35.26-.69,103.93,18.12,78.73,61.72-23.81-.48-47.58-3.32-70.87-8.43Z"/>
    <path class="cls-1 arrow-line" d="M71.78,399.45c-1.96,1-3.92,2.01-5.88,3.01.02-1.18.03-2.37.05-3.55,1.94.19,3.88.37,5.83.54Z"/>
  </g>
  <path class="cls-1 arrow-line" d="M607.97,130.71c-12.51-16.72,13.46-36.1,25.94-19.41,12.51,16.73-13.46,36.11-25.94,19.41Z"/>
</svg>