<?xml version="1.0" encoding="UTF-8"?>
<svg id="Layer_1" xmlns="http://www.w3.org/2000/svg" version="1.1" viewBox="0 0 800 800">
  <!-- Generator: Adobe Illustrator 29.7.1, SVG Export Plug-In . SVG Version: 2.1.1 Build 8)  -->
  <defs>
    <style>
      .st0 {
        isolation: isolate;
      }

      .st1 {
        fill: #f4931e;
      }

      .st2 {
        fill: #455566;
      }

      .st3 {
        fill: #748699;
      }
    </style>
  </defs>
  <g>
    <path class="st1" d="M544.42,278.31l-7.61,28.4s-5.87-35.5-72.15-35.5h-140.85c-39.22,0-71.01-31.79-71.01-71.01h234.44c43.13,0,68.74,34.97,57.18,78.11Z"/>
    <path class="st2" d="M536.81,306.71h-.01c-.37-.77-12.98-24.85-64.33-24.85.26-.95.38-1.87.38-2.76,0-1.7-.45-3.24-1.29-4.5h0c-1.39-2.09-3.82-3.39-6.89-3.39,66.28,0,72.15,35.5,72.15,35.5h0Z"/>
    <path class="st3" d="M536.81,306.71c-8.41,31.37-40.66,56.81-72.03,56.81h-63.91l-22.84,85.21h-71.01l41.87-156.22h110.06c5.88,0,11.93-4.77,13.51-10.65,51.35,0,63.97,24.09,64.33,24.84h.02Z"/>
  </g>
  <g class="st0">
    <g class="st0">
      <path d="M132.09,515.88h42.09l-1.53,10.74h-29.65l-1.7,12.53h25.48l-1.53,10.74h-25.48l-1.96,13.72h29.65l-1.45,10.65h-42.18l8.26-58.37Z"/>
    </g>
    <g class="st0">
      <path d="M229.57,565.38h-28.37l-6.13,8.95-13.72-.08,41.07-58.37,24.54,58.37h-13.72l-3.66-8.86ZM224.8,554.3l-5.79-14.4-9.88,14.4h15.68Z"/>
    </g>
    <g class="st0">
      <path d="M268.35,556.94c11.25,8.35,28.37,10.31,29.74.94,1.11-8.01-35.02-4.6-31.01-26.33,3.15-17.81,29.06-22.83,46.86-8.86l-7.16,10.14c-11.08-9.54-25.82-8.35-27.18-.43-1.79,9.88,33.83,5.62,31.19,24.79-2.56,18.49-23.43,25.22-48.99,12.1l6.56-12.36Z"/>
    </g>
    <g class="st0">
      <path d="M349.63,551.75l-16.19-35.87h14.49l9.97,21.81,16.1-21.81h14.49l-26.33,36.04-3.15,22.32h-12.52l3.15-22.49Z"/>
    </g>
    <g class="st0">
      <path d="M409.37,515.88h27.18c14.23,0,20.02,10.39,18.57,20.88-1.62,11.25-10.31,20.88-24.45,20.88h-14.57l-2.3,16.62h-12.7l8.26-58.37ZM431.52,546.72c5.37,0,10.48-4.26,11.33-9.97.85-5.88-3.15-9.97-8.61-9.97h-13.8l-2.81,19.94h13.89Z"/>
    </g>
    <g class="st0">
      <path d="M508.38,565.38h-28.37l-6.13,8.95-13.72-.08,41.07-58.37,24.54,58.37h-13.72l-3.66-8.86ZM503.61,554.3l-5.79-14.4-9.88,14.4h15.68Z"/>
    </g>
    <g class="st0">
      <path d="M552.69,515.88h26.07c14.14,0,20.02,10.39,18.49,20.88-1.11,8.35-6.31,15.76-14.49,19l10.31,18.4h-14.48l-9.37-16.53h-9.97l-2.3,16.62h-12.52l8.26-58.37ZM560.79,546.72h12.87c5.37,0,10.57-4.26,11.33-9.97.85-5.88-3.15-9.97-8.52-9.97h-12.87l-2.81,19.94Z"/>
      <path d="M623.84,515.88h12.44l-2.81,20.19,22.07-20.19h16.62l-29.14,27.78,25.73,30.59h-17.47l-18.58-21.56-1.79,1.7-2.81,19.85h-12.53l8.26-58.37Z"/>
    </g>
  </g>
</svg>