<?xml version="1.0" encoding="UTF-8"?>
<svg id="Layer_1" xmlns="http://www.w3.org/2000/svg" xmlns:xlink="http://www.w3.org/1999/xlink" version="1.1" viewBox="0 0 800 800">
  <!-- Generator: Adobe Illustrator 29.7.1, SVG Export Plug-In . SVG Version: 2.1.1 Build 8)  -->
  <defs>
    <style>
      .st0 {
        fill: url(#linear-gradient2);
      }

      .st1 {
        fill: url(#linear-gradient1);
      }

      .st2 {
        fill: url(#linear-gradient9);
      }

      .st3 {
        fill: url(#linear-gradient3);
      }

      .st4 {
        fill: url(#linear-gradient6);
      }

      .st5 {
        fill: url(#linear-gradient8);
      }

      .st6 {
        fill: url(#linear-gradient7);
      }

      .st7 {
        fill: url(#linear-gradient5);
      }

      .st8 {
        fill: url(#linear-gradient4);
      }

      .st9 {
        fill: url(#linear-gradient);
      }

      .st10 {
        isolation: isolate;
      }

      .st11 {
        fill: none;
        stroke: #000;
        stroke-miterlimit: 10;
        stroke-width: 2px;
      }

      .st12 {
        fill: #a15385;
      }
    </style>
    <linearGradient id="linear-gradient" x1="276.46" y1="539.32" x2="338.99" y2="539.32" gradientTransform="translate(0 800) scale(1 -1)" gradientUnits="userSpaceOnUse">
      <stop offset="0" stop-color="#553147"/>
      <stop offset=".03" stop-color="#643853"/>
      <stop offset=".1" stop-color="#7f4369"/>
      <stop offset=".17" stop-color="#924c78"/>
      <stop offset=".24" stop-color="#9d5181"/>
      <stop offset=".32" stop-color="#a15385"/>
      <stop offset=".48" stop-color="#9d5181"/>
      <stop offset=".63" stop-color="#914b78"/>
      <stop offset=".79" stop-color="#7d4368"/>
      <stop offset=".94" stop-color="#623651"/>
      <stop offset="1" stop-color="#553147"/>
    </linearGradient>
    <linearGradient id="linear-gradient1" x1="347.54" y1="618.24" x2="396.62" y2="618.24" gradientTransform="translate(0 800) scale(1 -1)" gradientUnits="userSpaceOnUse">
      <stop offset="0" stop-color="#d99f26"/>
      <stop offset=".53" stop-color="#d38906"/>
      <stop offset="1" stop-color="#9a6a29"/>
    </linearGradient>
    <linearGradient id="linear-gradient2" x1="337.78" y1="666.11" x2="386.86" y2="666.11" gradientTransform="translate(0 800) scale(1 -1)" gradientUnits="userSpaceOnUse">
      <stop offset="0" stop-color="#d99f26"/>
      <stop offset=".53" stop-color="#d38906"/>
      <stop offset="1" stop-color="#9a6a29"/>
    </linearGradient>
    <linearGradient id="linear-gradient3" x1="395.69" y1="707.84" x2="428.05" y2="675.48" gradientTransform="translate(0 800) scale(1 -1)" gradientUnits="userSpaceOnUse">
      <stop offset="0" stop-color="#d99f26"/>
      <stop offset=".53" stop-color="#d38906"/>
      <stop offset="1" stop-color="#9a6a29"/>
    </linearGradient>
    <linearGradient id="linear-gradient4" x1="285.4" y1="561.96" x2="354.67" y2="561.96" gradientTransform="translate(0 800) scale(1 -1)" gradientUnits="userSpaceOnUse">
      <stop offset="0" stop-color="#553147"/>
      <stop offset=".03" stop-color="#643853"/>
      <stop offset=".1" stop-color="#7f4369"/>
      <stop offset=".17" stop-color="#924c78"/>
      <stop offset=".24" stop-color="#9d5181"/>
      <stop offset=".32" stop-color="#a15385"/>
      <stop offset=".48" stop-color="#9d5181"/>
      <stop offset=".63" stop-color="#914b78"/>
      <stop offset=".79" stop-color="#7d4368"/>
      <stop offset=".94" stop-color="#623651"/>
      <stop offset="1" stop-color="#553147"/>
    </linearGradient>
    <linearGradient id="linear-gradient5" x1="375.4" y1="514.32" x2="455.2" y2="514.32" gradientTransform="translate(0 800) scale(1 -1)" gradientUnits="userSpaceOnUse">
      <stop offset="0" stop-color="#553147"/>
      <stop offset=".03" stop-color="#643853"/>
      <stop offset=".1" stop-color="#7f4369"/>
      <stop offset=".17" stop-color="#924c78"/>
      <stop offset=".24" stop-color="#9d5181"/>
      <stop offset=".32" stop-color="#a15385"/>
      <stop offset=".48" stop-color="#9d5181"/>
      <stop offset=".63" stop-color="#914b78"/>
      <stop offset=".79" stop-color="#7d4368"/>
      <stop offset=".94" stop-color="#623651"/>
      <stop offset="1" stop-color="#553147"/>
    </linearGradient>
    <linearGradient id="linear-gradient6" x1="349.2" y1="471.73" x2="438.55" y2="471.73" gradientTransform="translate(0 800) scale(1 -1)" gradientUnits="userSpaceOnUse">
      <stop offset="0" stop-color="#553147"/>
      <stop offset=".03" stop-color="#643853"/>
      <stop offset=".1" stop-color="#7f4369"/>
      <stop offset=".17" stop-color="#924c78"/>
      <stop offset=".24" stop-color="#9d5181"/>
      <stop offset=".32" stop-color="#a15385"/>
      <stop offset=".48" stop-color="#9d5181"/>
      <stop offset=".63" stop-color="#914b78"/>
      <stop offset=".79" stop-color="#7d4368"/>
      <stop offset=".94" stop-color="#623651"/>
      <stop offset="1" stop-color="#553147"/>
    </linearGradient>
    <linearGradient id="linear-gradient7" x1="364.35" y1="466.66" x2="415.22" y2="466.66" gradientTransform="translate(0 800) scale(1 -1)" gradientUnits="userSpaceOnUse">
      <stop offset="0" stop-color="#553147"/>
      <stop offset=".03" stop-color="#643853"/>
      <stop offset=".1" stop-color="#7f4369"/>
      <stop offset=".17" stop-color="#924c78"/>
      <stop offset=".24" stop-color="#9d5181"/>
      <stop offset=".32" stop-color="#a15385"/>
      <stop offset=".48" stop-color="#9d5181"/>
      <stop offset=".63" stop-color="#914b78"/>
      <stop offset=".79" stop-color="#7d4368"/>
      <stop offset=".94" stop-color="#623651"/>
      <stop offset="1" stop-color="#553147"/>
    </linearGradient>
    <linearGradient id="linear-gradient8" x1="303.89" y1="368.34" x2="425.86" y2="368.34" gradientTransform="translate(0 800) scale(1 -1)" gradientUnits="userSpaceOnUse">
      <stop offset="0" stop-color="#553147"/>
      <stop offset=".03" stop-color="#643853"/>
      <stop offset=".1" stop-color="#7f4369"/>
      <stop offset=".17" stop-color="#924c78"/>
      <stop offset=".24" stop-color="#9d5181"/>
      <stop offset=".32" stop-color="#a15385"/>
      <stop offset=".48" stop-color="#9d5181"/>
      <stop offset=".63" stop-color="#914b78"/>
      <stop offset=".79" stop-color="#7d4368"/>
      <stop offset=".94" stop-color="#623651"/>
      <stop offset="1" stop-color="#553147"/>
    </linearGradient>
    <linearGradient id="linear-gradient9" x1="375.64" y1="622.36" x2="500.67" y2="459.55" gradientTransform="translate(0 800) scale(1 -1)" gradientUnits="userSpaceOnUse">
      <stop offset="0" stop-color="#553147"/>
      <stop offset=".03" stop-color="#643853"/>
      <stop offset=".1" stop-color="#7f4369"/>
      <stop offset=".17" stop-color="#924c78"/>
      <stop offset=".24" stop-color="#9d5181"/>
      <stop offset=".32" stop-color="#a15385"/>
      <stop offset=".48" stop-color="#9d5181"/>
      <stop offset=".63" stop-color="#914b78"/>
      <stop offset=".79" stop-color="#7d4368"/>
      <stop offset=".94" stop-color="#623651"/>
      <stop offset="1" stop-color="#553147"/>
    </linearGradient>
  </defs>
  <path class="st12" d="M395.08,604.97h0s-.05.11-.12.23c0-.02.02-.05.03-.07.02-.05.05-.09.07-.13,0-.01.01-.02.02-.03h0Z"/>
  <g>
    <g>
      <path class="st12" d="M326.21,312.85l.05-.06s-.06.11-.13.22c-.07.1-.1.17-.14.22.03-.06.09-.16.15-.29.01,0,.02-.02.02-.03.02-.05.03-.07.05-.07h0Z"/>
      <path class="st9" d="M344.8,274.97c-11.4-.94-23.23-3.8-33.21-8.42-7.47-3.46-14.28-8.38-17.54-15.06-1.76-3.61-2.29-7.41-1.87-11.27.24-2.23.76-4.47,1.56-6.62.25-.66,1.48-2.95,1.2-2.71-.48.4-3.81,5.62-1.49,2.4.9-1.26,10.04-13.83,8.1-14.75s-11.19,12.72-11.49,13.14c-10.64,14.79-26.86,37.19-11.42,53.65,8.54,9.1,23.03,13.58,36.23,16.05,3.4.64,6.87,1.2,10.35,1.49,1.26.1,3.84-3.26,4.07-3.52,2.7-3.05,5.15-6.35,7.42-9.63.71-1.03,8.87-14.69,8.1-14.75h-.01Z"/>
      <path class="st1" d="M396.4,178.14c-6.23-5.26-13.61-8.97-20.53-13.52-2.94-1.94-6.83-4.26-8.58-7.13-.37-.6-4.68,4.21-4.07,3.52-2.7,3.05-5.15,6.35-7.42,9.63s-4.55,6.63-6.43,10.1c-.58,1.08-2.38,3.49-1.67,4.65,1.74,2.86,5.64,5.2,8.58,7.13,6.92,4.56,14.3,8.26,20.53,13.52,1.06.89,10.76-12.1,11.49-13.14,2.29-3.29,4.55-6.63,6.43-10.1.43-.8,2.57-3.89,1.67-4.65h0Z"/>
      <path class="st0" d="M386.64,130.27c-6.23-5.26-13.61-8.97-20.53-13.52-2.94-1.94-6.83-4.26-8.58-7.13-.37-.6-4.68,4.21-4.07,3.52-2.7,3.05-5.15,6.35-7.42,9.63s-4.55,6.63-6.43,10.1c-.58,1.08-2.38,3.49-1.67,4.65,1.74,2.86,5.64,5.2,8.58,7.13,6.92,4.56,14.3,8.26,20.53,13.52,1.06.89,10.76-12.1,11.49-13.14,2.29-3.29,4.55-6.63,6.43-10.1.43-.8,2.57-3.89,1.67-4.65h0Z"/>
      <path class="st3" d="M432.86,101.17c-6.23-5.26-13.61-8.97-20.53-13.52-2.94-1.94-6.83-4.26-8.58-7.13-.37-.6-4.68,4.21-4.07,3.52-2.7,3.05-5.15,6.35-7.42,9.63s-4.55,6.63-6.43,10.1c-.58,1.08-2.38,3.49-1.67,4.65,1.74,2.86,5.64,5.2,8.58,7.13,6.92,4.56,14.3,8.26,20.53,13.52,1.06.89,10.76-12.1,11.49-13.14,2.29-3.29,4.55-6.63,6.43-10.1.43-.8,2.57-3.89,1.67-4.65h0Z"/>
      <path class="st8" d="M284.72,212.68c-1.54,3.08-2.58,6.7-1.8,10.02.82,3.52,3.46,5.07,6.92,6.78,9.15,4.53,18.86,8.35,28.4,12.28,8.2,3.37,17.28,6.2,21.9,13.18,6.01,9.08,2.4,20.26-2.62,29.04.16-.28-2.54,4.24-1.67,4.65s4.28-3.76,4.07-3.52c5.4-6.11,9.95-12.89,13.85-19.72,5.74-10.05,11.63-21.97,8.32-33.26-2.45-8.33-10.07-12.44-18.82-16.04-9.77-4.01-19.59-7.97-29.16-12.31-7.08-3.21-14.5-6.9-10.76-14.38,2.96-5.9-5.34,3.28-5.83,3.9-4.88,6.14-9.39,12.58-12.79,19.37h-.01Z"/>
      <path class="st7" d="M389.43,220.73c-3.48,9.37-2.95,19.76.94,29,3.08,7.32,8.72,13.51,14.19,19.72,5.16,5.85,10.45,11.63,15.62,17.48,12.24,13.84,24.67,28.19,33.66,43.68,4.25,7.32,6.6,15.3,6,23.43-.24,3.2-.85,6.44-1.96,9.51-.17.48-1.01,3.36-1.52,3.47.69-.16,3.35-5.4,3.68-5.88-.89,1.27-10.05,13.82-8.1,14.75s11.19-12.72,11.49-13.14c7.55-10.76,15.26-22.51,16.2-35.18,1.05-14.17-6.57-26.29-15.12-38.12-8.51-11.77-18.08-22.98-27.93-34.01-8.47-9.49-18.88-19.02-24.78-29.82-3.48-6.37-5.14-13.3-4.83-20.28.09-2.09.34-4.19.79-6.25.18-.84,1.52-4.91.31-1.64,2.23-5.99-5.17,3.07-5.83,3.9-4.66,5.86-10.27,12.58-12.79,19.37h-.02Z"/>
      <path class="st4" d="M460.3,362.63c-33.18-5.11-73.25-21.78-82.1-50.74-1.86-6.08-2.11-12.38-1.21-18.59.54-3.76,1.47-7.51,2.79-11.14.6-1.66,1.31-3.3,2.05-4.92-.25.56,1.4-2.9,1.05-2.21-.08.16,2.08-3.74.88-1.69.51-.88,6.39-10.71,1.19-6.1-5.75,5.1-10.37,12.57-14.01,18.79-8.14,13.93-15.52,28.98-14.05,44.75.97,10.41,5.62,20.13,13.57,28.27,13.74,14.09,34.64,22.76,55.2,28.18,4.93,1.3,9.96,2.51,15.06,3.29,3.14.48,10.2-11.29,11.49-13.14.7-1,9.18-14.58,8.1-14.75h-.01Z"/>
      <path class="st6" d="M374.61,284.44c27.02,15.28,41.4,44.54,38.59,70.81-.77,7.15-2.55,14.28-5.32,21.09-1.45,3.57-3.11,7.05-5.02,10.47.28-.51.83-1.36-.75,1.26.82-1.37-.33.52-.56.87,1.43-2.16-.22.32-.45.63,1.7-2.25-1.69,2.18-1.75,2.26-2.67,3.47-5.14,7.15-7.37,10.83-.35.58-3.97,5.75-3.49,6.89.54,1.27,1.09.24,2.29-.79,2.66-2.26,4.62-5.34,6.63-7.96,20.99-27.32,41.18-59.53,34.65-92.86-3.29-16.81-13.49-32.39-28.08-44.41-3.03-2.49-6.25-4.97-9.79-6.97-1.55-.88-22.83,26.06-19.58,27.89h0Z"/>
      <path class="st5" d="M443.41,475.59c-6.5,26.39-22.9,50.79-39.49,73.68-1.91,2.63-4,5.72-6.63,7.96-1.21,1.03-1.75,2.06-2.3.79-.49-1.15,3.13-6.32,3.48-6.89,2.15-3.55,4.58-6.98,7.03-10.36.03-.04.06-.07.08-.1-.01.02-.02.04-.05.05.24-.4,1.58-2.34,2.03-2.96.08-.1.12-.15.13-.18h0c.52-.82,1.37-2.14,1.65-2.54.02-.02.03-.04.05-.07,0,0,.01,0,.01-.02.01,0,.02-.02.02-.04.96-1.55,2.41-4.04,3.46-5.96,3.01-5.5,5.63-11.16,7.73-16.93,3.83-10.49,6.01-21.63,5.14-32.59-1.44-18.08-12.72-31.98-29.31-43.24-18.34-12.43-37.24-24.3-55.57-36.76-17.31-11.78-34.91-23.7-36.64-43.47-1.21-13.79,6.21-26.48,14.26-38.15.28-.41,10.73-12.29,11.45-13.09-.26.44-2.12,3.62-3.04,6.63-.01.04-.03.08-.05.12-.05.14-.08.29-.12.42-.07.25-.13.48-.17.72-.89,2.44-1.81,5.26-2.26,8.25-1.44,9.51,1.11,18.95,7.24,27.12,6.34,8.44,15.99,14.69,25.13,20.97,9.28,6.39,18.73,12.62,28.2,18.82,9.34,6.12,18.72,12.2,27.98,18.4,7.86,5.28,15.53,10.56,21.21,17.56,12.39,15.25,13.65,34.33,9.33,51.87h.02Z"/>
      <path class="st2" d="M429.79,165.21c-7.72,13.98-6.32,30.16.92,44.09,7.05,13.56,19.5,25.18,30.45,36.71,8.81,9.28,17.96,18.35,26.69,27.67,7,7.48,12.85,15.59,16.27,24.64,5,13.26,4.6,27.37,1.7,40.93-2.36,11-6.39,21.69-11.27,32.1-2.82,6.01-6.13,12.23-9.41,17.82-1.53,2.62-4.33,7.16-5.23,8.57-2.87,4.48-4.72,7.2-7.1,10.64-.88,1.27-10.06,13.82-8.1,14.75s11.19-12.72,11.49-13.14c17.84-25.66,34.69-52.36,44.72-80.86,5.47-15.54,8.59-31.88,5.71-48.01-1.89-10.62-6.77-20.57-14.03-29.47-3.55-4.35-7.59-8.4-11.56-12.49-12.12-12.45-24.2-24.93-35.78-37.72-10.81-11.95-20.02-25-20.84-40.25-.23-4.27.15-8.58,1.26-12.76.18-.68.38-1.35.6-2.02.35-1.1-.27.94.22-.56.72-2.19-.37.63-.45.76-.15.28,2.54-4.24,1.67-4.65s-4.28,3.76-4.07,3.52c-5.38,6.08-10.07,12.88-13.85,19.72h-.01Z"/>
    </g>
    <g>
      <g class="st10">
        <g class="st10">
          <path class="st12" d="M276.25,599.12c-2.49,2.88-5.03,5.91-7.64,9.09-2.6,3.18-5.15,6.35-7.64,9.53-2.49,3.18-4.87,6.25-7.16,9.23-2.29,2.98-4.38,5.73-6.27,8.26.59.16,1.4.26,2.43.3,1.03.04,2.43.06,4.2.06,2.29,0,4.52-.16,6.69-.47,2.17-.32,4.18-.9,6.04-1.75,1.85-.85,3.49-2.02,4.91-3.52,1.42-1.5,2.55-3.41,3.37-5.74h1.18l-4.5,13.26c-3.47-.08-6.94-.14-10.39-.18-3.45-.04-6.92-.06-10.39-.06-1.82,0-3.62.02-5.42.06-1.8.04-3.6.1-5.42.18l-.47-.71,28.83-36.46h-7.93c-1.74,0-3.47.15-5.21.44-1.74.3-3.33.82-4.79,1.57-1.46.75-2.7,1.77-3.73,3.05-1.03,1.28-1.72,2.91-2.07,4.88h-.83c-.04-.71-.03-1.42.03-2.13.06-.71.09-1.4.09-2.07,0-1.26.06-2.52.18-3.76.12-1.24.28-2.5.47-3.76,1.22.04,2.52.08,3.88.12,1.36.04,2.7.07,4.02.09,1.32.02,2.59.03,3.82.03h3.37c2.72,0,5.38-.02,7.96-.06,2.58-.04,5.24-.1,7.96-.18l.41.71Z"/>
          <path class="st12" d="M303.65,620.01l-3.91,10.71c-.12.32-.23.59-.33.83-.1.24-.15.49-.15.77,0,.71.21,1.32.62,1.83.41.51.92.94,1.51,1.27s1.2.6,1.83.8c.63.2,1.16.34,1.6.41v.71c-1.18-.08-2.37-.14-3.55-.18-1.18-.04-2.39-.06-3.61-.06s-2.34.02-3.46.06c-1.12.04-2.32.1-3.58.18v-.71c1.22-.28,2.24-.7,3.05-1.27.81-.57,1.49-1.25,2.04-2.04.55-.79,1.04-1.66,1.45-2.6.41-.95.82-1.93,1.21-2.96l10.24-25.16c.12-.28.23-.53.33-.77.1-.24.15-.45.15-.65s-.07-.49-.21-.89c-.14-.39-.31-.75-.5-1.07,1.03-.2,1.91-.45,2.66-.77.75-.32,1.58-.65,2.49-1.01l12.31,33.86c.55,1.54,1.32,2.75,2.31,3.64.99.89,2.45,1.45,4.38,1.69v.71c-1.58-.08-3.13-.14-4.65-.18-1.52-.04-3.11-.06-4.76-.06h-2.78c-.79,0-1.5,0-2.13.03-.63.02-1.23.05-1.81.09-.57.04-1.19.08-1.86.12v-.71c1.66-.2,3.05-.62,4.17-1.27s1.69-1.53,1.69-2.63c0-.32-.07-.63-.21-.95-.14-.32-.25-.61-.33-.89l-3.85-10.89h-12.37ZM310.04,603.2l-5.8,15.03h11.13l-5.33-15.03Z"/>
          <path class="st12" d="M379.89,608c0-1.66-.05-3.03-.15-4.11-.1-1.08-.35-1.96-.77-2.63-.41-.67-1.04-1.16-1.86-1.48-.83-.32-1.95-.53-3.37-.65v-.71c1.66.08,3.26.14,4.82.18,1.56.04,3.17.06,4.82.06,1.3,0,2.6-.02,3.91-.06s2.58-.1,3.85-.18v.71c-1.38.12-2.47.34-3.26.65-.79.32-1.38.81-1.78,1.48-.39.67-.64,1.55-.74,2.63-.1,1.09-.15,2.46-.15,4.11v19.77c0,1.66.05,3.03.15,4.11.1,1.09.35,1.96.77,2.63.41.67,1.04,1.16,1.86,1.48.83.32,1.97.53,3.43.65v.71c-1.5-.08-3-.14-4.5-.18-1.5-.04-3-.06-4.5-.06s-2.9.02-4.32.06c-1.42.04-2.84.1-4.26.18v-.71c1.42-.12,2.52-.33,3.31-.65.79-.32,1.39-.81,1.81-1.48.41-.67.67-1.55.77-2.63.1-1.08.15-2.46.15-4.11v-10.65h-21.96v10.65c0,1.66.05,3.03.15,4.11.1,1.09.35,1.96.77,2.63.41.67,1.04,1.16,1.86,1.48.83.32,1.97.53,3.43.65v.71c-1.5-.08-3-.14-4.5-.18-1.5-.04-3-.06-4.5-.06s-2.9.02-4.32.06c-1.42.04-2.84.1-4.26.18v-.71c1.42-.12,2.52-.33,3.31-.65.79-.32,1.39-.81,1.81-1.48.41-.67.67-1.55.77-2.63.1-1.08.15-2.46.15-4.11v-19.77c0-1.66-.05-3.03-.15-4.11-.1-1.08-.35-1.96-.77-2.63-.41-.67-1.04-1.16-1.86-1.48-.83-.32-1.95-.53-3.37-.65v-.71c1.66.08,3.26.14,4.82.18,1.56.04,3.17.06,4.82.06,1.3,0,2.6-.02,3.91-.06s2.58-.1,3.85-.18v.71c-1.38.12-2.47.34-3.26.65-.79.32-1.38.81-1.78,1.48-.39.67-.64,1.55-.74,2.63-.1,1.09-.15,2.46-.15,4.11v7.22h21.96v-7.22Z"/>
          <path class="st12" d="M449.08,637.12h-10.65c-2.49-2.72-4.79-5.51-6.9-8.38-2.11-2.86-4-5.89-5.65-9.09-.4,0-.9-.04-1.51-.12-.61-.08-1.24-.17-1.89-.27-.65-.1-1.28-.22-1.89-.36-.61-.14-1.12-.27-1.51-.38v9.23c0,1.66.05,3.03.15,4.11.1,1.09.35,1.96.77,2.63.41.67,1.04,1.16,1.86,1.48.83.32,1.97.53,3.43.65v.71c-1.5-.08-3-.14-4.5-.18-1.5-.04-3-.06-4.5-.06s-2.9.02-4.32.06c-1.42.04-2.84.1-4.26.18v-.71c1.42-.12,2.52-.33,3.31-.65.79-.32,1.39-.81,1.81-1.48.41-.67.67-1.55.77-2.63.1-1.08.15-2.46.15-4.11v-19.77c0-1.66-.05-3.03-.15-4.11-.1-1.08-.36-1.96-.77-2.63-.41-.67-1.02-1.16-1.81-1.48-.79-.32-1.89-.53-3.31-.65v-.71c1.26.08,2.52.14,3.79.18,1.26.04,2.53.06,3.79.06.55,0,1.24-.03,2.07-.09.83-.06,1.71-.13,2.63-.21.93-.08,1.86-.15,2.81-.21s1.79-.09,2.54-.09c1.7,0,3.43.22,5.21.65,1.78.43,3.37,1.12,4.79,2.07,1.42.95,2.58,2.15,3.49,3.61.91,1.46,1.36,3.2,1.36,5.21,0,1.38-.25,2.6-.74,3.67-.49,1.07-1.15,1.99-1.98,2.78-.83.79-1.8,1.44-2.93,1.95s-2.3.89-3.52,1.12c.55.95,1.2,2.01,1.95,3.2.75,1.18,1.59,2.39,2.52,3.61.93,1.22,1.91,2.44,2.96,3.64,1.04,1.2,2.15,2.29,3.31,3.26s2.36,1.78,3.58,2.43c1.22.65,2.47,1.04,3.73,1.15v.71ZM419.07,616.52c1.78.67,3.61,1.01,5.5,1.01,3.08,0,5.46-.71,7.16-2.13,1.7-1.42,2.54-3.73,2.54-6.93,0-1.3-.25-2.48-.74-3.52-.49-1.04-1.17-1.95-2.04-2.72-.87-.77-1.87-1.36-2.99-1.78-1.12-.42-2.3-.62-3.52-.62-.99,0-1.95.04-2.9.12-.95.08-1.87.26-2.78.53-.08,1.89-.14,3.81-.18,5.74-.04,1.93-.06,4.03-.06,6.27v4.03Z"/>
          <path class="st12" d="M472.87,620.01l-3.91,10.71c-.12.32-.23.59-.33.83-.1.24-.15.49-.15.77,0,.71.21,1.32.62,1.83.41.51.92.94,1.51,1.27s1.2.6,1.83.8c.63.2,1.16.34,1.6.41v.71c-1.18-.08-2.37-.14-3.55-.18-1.18-.04-2.39-.06-3.61-.06s-2.34.02-3.46.06c-1.12.04-2.32.1-3.58.18v-.71c1.22-.28,2.24-.7,3.05-1.27.81-.57,1.49-1.25,2.04-2.04.55-.79,1.04-1.66,1.45-2.6.42-.95.82-1.93,1.21-2.96l10.24-25.16c.12-.28.23-.53.33-.77.1-.24.15-.45.15-.65s-.07-.49-.21-.89c-.14-.39-.31-.75-.5-1.07,1.03-.2,1.91-.45,2.66-.77.75-.32,1.58-.65,2.49-1.01l12.31,33.86c.55,1.54,1.32,2.75,2.31,3.64s2.45,1.45,4.38,1.69v.71c-1.58-.08-3.13-.14-4.65-.18-1.52-.04-3.11-.06-4.76-.06h-2.78c-.79,0-1.5,0-2.13.03-.63.02-1.23.05-1.81.09-.57.04-1.19.08-1.86.12v-.71c1.66-.2,3.05-.62,4.17-1.27,1.12-.65,1.69-1.53,1.69-2.63,0-.32-.07-.63-.21-.95-.14-.32-.25-.61-.33-.89l-3.85-10.89h-12.37ZM479.27,603.2l-5.8,15.03h11.13l-5.33-15.03Z"/>
          <path class="st12" d="M549.11,608c0-1.66-.05-3.03-.15-4.11-.1-1.08-.36-1.96-.77-2.63-.41-.67-1.04-1.16-1.86-1.48-.83-.32-1.95-.53-3.37-.65v-.71c1.66.08,3.26.14,4.82.18,1.56.04,3.17.06,4.82.06,1.3,0,2.6-.02,3.91-.06,1.3-.04,2.58-.1,3.85-.18v.71c-1.38.12-2.47.34-3.25.65-.79.32-1.38.81-1.78,1.48-.39.67-.64,1.55-.74,2.63-.1,1.09-.15,2.46-.15,4.11v19.77c0,1.66.05,3.03.15,4.11.1,1.09.35,1.96.77,2.63.41.67,1.04,1.16,1.86,1.48.83.32,1.97.53,3.43.65v.71c-1.5-.08-3-.14-4.5-.18-1.5-.04-3-.06-4.5-.06s-2.9.02-4.32.06c-1.42.04-2.84.1-4.26.18v-.71c1.42-.12,2.52-.33,3.31-.65.79-.32,1.39-.81,1.81-1.48.41-.67.67-1.55.77-2.63.1-1.08.15-2.46.15-4.11v-10.65h-21.96v10.65c0,1.66.05,3.03.15,4.11.1,1.09.36,1.96.77,2.63.42.67,1.04,1.16,1.86,1.48.83.32,1.97.53,3.43.65v.71c-1.5-.08-3-.14-4.5-.18-1.5-.04-3-.06-4.5-.06s-2.9.02-4.32.06c-1.42.04-2.84.1-4.26.18v-.71c1.42-.12,2.52-.33,3.31-.65.79-.32,1.39-.81,1.8-1.48.42-.67.67-1.55.77-2.63.1-1.08.15-2.46.15-4.11v-19.77c0-1.66-.05-3.03-.15-4.11-.1-1.08-.35-1.96-.77-2.63-.41-.67-1.04-1.16-1.86-1.48-.83-.32-1.95-.53-3.37-.65v-.71c1.66.08,3.26.14,4.82.18,1.56.04,3.17.06,4.82.06,1.3,0,2.6-.02,3.91-.06,1.3-.04,2.58-.1,3.85-.18v.71c-1.38.12-2.47.34-3.26.65-.79.32-1.38.81-1.78,1.48-.39.67-.64,1.55-.74,2.63-.1,1.09-.15,2.46-.15,4.11v7.22h21.96v-7.22Z"/>
        </g>
      </g>
      <line class="st11" x1="211.37" y1="660.32" x2="588.63" y2="660.32"/>
      <g class="st10">
        <g class="st10">
          <path d="M290.5,704.41l-.12-7.13h1.08c.44,2.13,1.09,3.61,1.95,4.45.86.84,2.04,1.26,3.56,1.26,1.05,0,1.91-.21,2.57-.64.66-.43.99-1.12.99-2.09,0-.66-.12-1.21-.35-1.66-.23-.44-.68-.89-1.35-1.35-.66-.46-1.64-1-2.94-1.64-1.27-.63-2.31-1.25-3.11-1.84s-1.39-1.25-1.78-1.97c-.39-.72-.58-1.59-.58-2.61,0-1.71.61-3.01,1.84-3.89,1.23-.88,2.73-1.33,4.5-1.33,1.05,0,1.91.12,2.57.35.66.23,1.26.48,1.78.72h.04l.7-.87h.83l.12,6.34h-1.12c-.44-1.96-1.06-3.31-1.86-4.04-.8-.73-1.84-1.1-3.11-1.1-.94,0-1.73.22-2.38.66-.65.44-.97,1.13-.97,2.07,0,.8.37,1.52,1.12,2.15.75.64,1.99,1.39,3.73,2.28,1.27.66,2.33,1.3,3.19,1.93.86.62,1.5,1.3,1.95,2.03.44.73.66,1.61.66,2.63,0,1.3-.32,2.34-.95,3.13-.64.79-1.49,1.36-2.55,1.72-1.06.36-2.22.54-3.46.54s-2.13-.12-2.84-.37c-.7-.25-1.33-.48-1.88-.7h-.08l-.87.95h-.87Z"/>
          <path d="M355.17,697.95l.79.58c-.53,1.11-1.13,2.11-1.8,3.02s-1.51,1.63-2.51,2.15-2.24.79-3.73.79c-1.71,0-3.19-.41-4.43-1.24-1.24-.83-2.2-1.98-2.86-3.46s-.99-3.17-.99-5.08c0-2.18.37-4.07,1.1-5.68.73-1.6,1.79-2.84,3.19-3.73,1.39-.88,3.09-1.33,5.08-1.33s3.5.43,4.62,1.28c1.12.86,1.68,1.89,1.68,3.11,0,.61-.14,1.07-.43,1.39-.29.32-.73.48-1.31.48s-1.07-.16-1.39-.48c-.32-.32-.57-.71-.77-1.18-.19-.47-.39-.94-.6-1.41s-.5-.86-.87-1.18-.92-.48-1.64-.48c-1.68,0-3,.62-3.96,1.84-.95,1.23-1.43,3.03-1.43,5.41,0,2.51.52,4.58,1.55,6.19,1.04,1.62,2.62,2.42,4.74,2.42,1.35,0,2.45-.28,3.29-.83.84-.55,1.73-1.42,2.67-2.61Z"/>
          <path d="M396.39,704.37c-1.6,0-2.82-.44-3.67-1.33-.84-.88-1.26-1.99-1.26-3.31,0-1.1.25-2.04.77-2.8.51-.76,1.19-1.4,2.03-1.93.84-.52,1.75-.97,2.73-1.33.98-.36,1.94-.66,2.88-.91.94-.25,1.77-.48,2.49-.7v-1.82c0-1.79-.31-3.07-.93-3.83s-1.55-1.14-2.8-1.14-1.95.25-2.28.75-.5,1.37-.5,2.61c0,.64-.16,1.11-.48,1.43-.32.32-.77.48-1.35.48-.41,0-.81-.16-1.18-.48-.37-.32-.56-.82-.56-1.51,0-.77.3-1.5.89-2.2.59-.69,1.44-1.26,2.53-1.7,1.09-.44,2.38-.66,3.87-.66,2.26,0,3.87.53,4.81,1.57.94,1.05,1.41,2.65,1.41,4.81v9.4c0,.86.1,1.41.29,1.66.19.25.51.37.95.37.39,0,.74-.1,1.06-.29s.61-.44.89-.75l.62.66c-.69.99-1.35,1.72-1.97,2.17-.62.46-1.46.68-2.51.68-.97,0-1.59-.28-1.88-.83s-.5-1.34-.64-2.36l-.25-.5v-7.17c-1.24.3-2.42.66-3.52,1.08s-2,.95-2.69,1.62c-.69.66-1.04,1.53-1.04,2.61s.28,1.84.83,2.44c.55.61,1.27.91,2.15.91.72,0,1.47-.18,2.26-.54.79-.36,1.55-.87,2.3-1.53l.33,1.49h-.5c-.64.55-1.25,1.05-1.84,1.49-.59.44-1.23.78-1.91,1.01s-1.46.35-2.34.35Z"/>
          <path d="M454.48,704.08h-10.36v-1.2c.91,0,1.58-.08,2.01-.23.43-.15.7-.43.83-.83.12-.4.19-.99.19-1.76v-11.39c0-.75-.06-1.3-.19-1.68-.12-.37-.56-.56-1.31-.56-.41,0-.84.03-1.28.08v-1.16l5.14-1.24h.99v4.27h.12c.72-1.02,1.35-1.86,1.91-2.53.55-.66,1.1-1.16,1.64-1.49.54-.33,1.14-.5,1.8-.5.8,0,1.4.21,1.8.62.4.42.6.98.6,1.7,0,.77-.19,1.34-.56,1.7-.37.36-.79.54-1.26.54-.44,0-.84-.12-1.18-.35-.35-.23-.64-.47-.89-.7-.25-.23-.46-.35-.62-.35-.47,0-1.01.36-1.62,1.08-.61.72-1.16,1.49-1.66,2.32v9.45c0,.86.11,1.51.33,1.95.22.44.61.73,1.18.87.57.14,1.36.21,2.38.21v1.2Z"/>
        </g>
        <g class="st10">
          <path d="M506.44,704.08h-11.14v-1.2c1.02,0,1.77-.09,2.26-.27s.81-.53.97-1.06c.17-.52.25-1.33.25-2.4v-13.17c0-1.58.03-2.87.1-3.87.07-1.01.2-1.86.39-2.55.19-.69.47-1.35.83-1.99.55-.97,1.25-1.71,2.09-2.24.84-.52,1.98-.79,3.42-.79.91,0,1.71.11,2.4.33.69.22,1.24.55,1.64.97.4.43.6.96.6,1.59s-.17,1.06-.5,1.35-.73.43-1.2.43c-.53,0-.95-.17-1.28-.52-.33-.34-.65-.71-.95-1.1-.28-.39-.57-.74-.89-1.06-.32-.32-.73-.48-1.22-.48-.77,0-1.3.35-1.57,1.06-.28.7-.41,1.93-.41,3.67v18.35c0,1.08.11,1.88.33,2.4.22.53.63.88,1.24,1.06.61.18,1.49.27,2.65.27v1.2ZM507.27,686.43h-11.64v-1.74h11.64v1.74Z"/>
        </g>
      </g>
    </g>
  </g>
</svg>