<?xml version="1.0" encoding="UTF-8"?>
<svg id="Layer_1" xmlns="http://www.w3.org/2000/svg" version="1.1" viewBox="0 0 800 800">
  <!-- Generator: Adobe Illustrator 29.7.1, SVG Export Plug-In . SVG Version: 2.1.1 Build 8)  -->
  <defs>
    <style>
      .st0 {
        fill: #2c1111;
      }

      .st1 {
        isolation: isolate;
      }
    </style>
  </defs>
  <g>
    <path class="st0" d="M520.07,297.63c-.71,6.25-1.56,12.38-2.53,18.34-2.54,15.65-18.74,25.03-33.59,19.46-16.74-6.29-33.59-13.59-48.66-21.68-33-17.68-57.56-39.18-54.1-62.12,0-10.66,6.5-18.71,15.67-25.79,13.14-10.1,31.74-18.17,44.54-28.87,8.99-7.52,15.11-16.36,14.42-28.16-2.01-24.2-21.95-41.85-43.02-53.88-5.42-3.1-2.41-11.35,3.73-10.22,98.25,18.04,112.29,115.11,103.52,192.94l.02-.02Z"/>
    <path class="st0" d="M416.24,412.47c-29.05-.98-61.7-9.55-92.37-29.77-10-6.6-18.41-15.42-24.26-25.88-47.09-84.16-12.13-208.94,47.41-244.98l.12-.07c7.23-4.39,16.11-5.13,23.94-1.92,1.12.46,2.25.94,3.39,1.45,19.07,8.46,39.66,23.78,39.94,50.41v.69c.13,28.31-10.41,40.86-23.45,49.97-20.87,14.58-48.15,20.28-48.36,67.66-.15,33,43.28,75.9,82.67,108.02,10.15,8.27,4.05,24.88-9.03,24.44v-.02Z"/>
  </g>
  <g>
    <g class="st1">
      <g class="st1">
        <path class="st0" d="M218.6,590.72c.03,1.24-1,2.28-2.25,2.28h-29.73c-1.22,0-2.18-.99-2.23-2.19-.67-18.75-10.06-28.43-24.85-29.38v29.35c0,1.24-1.01,2.24-2.24,2.24h-27.7c-1.24,0-2.24-1.01-2.24-2.24v-111.85c0-1.24,1-2.24,2.24-2.24h54.42c18.77,0,33.98,13.17,34,41.05,0,16.4-5.31,27.67-13.47,34.21,8.36,9.53,13.59,22.48,14.05,38.78ZM159.53,530.95c0,.58.5,1.04,1.12,1.04h13.09c6.53,0,11.81-4.99,11.81-13.24s-5.28-13.24-11.81-13.24h-13.09c-.62,0-1.12.47-1.12,1.04v24.4Z"/>
        <path class="st0" d="M300.89,478.15l40.58,109.45c.09.25.13.5.13.77v.72c-.01,1.23-1.01,2.23-2.24,2.23h-28.14c-.93,0-1.77-.58-2.09-1.46l-6.09-16.47h-36.61l-6.17,16.48c-.32.87-1.16,1.46-2.09,1.46h-28.15c-1.24,0-2.24-1.01-2.24-2.24v-.72c0-.27.04-.53.13-.78l40.57-109.44c.32-.87,1.16-1.46,2.09-1.46h28.23c.93,0,1.77.58,2.09,1.46ZM292.61,545.25l-7.92-21.17-7.85,21.17h15.77Z"/>
        <path class="st0" d="M435.77,591.31h-82.76c-1.24,0-2.24-1.01-2.24-2.24v-2.37c0-.36.08-.69.23-1.01l41.06-81.64h-39.06c-1.24,0-2.24-1.01-2.24-2.24v-22.89c0-1.24,1-2.24,2.24-2.24h82.73c1.24,0,2.24,1.01,2.24,2.24v2.38c0,.35-.08.69-.23,1.01l-41.05,81.62h39.06c1.24,0,2.24,1.01,2.24,2.24v22.89c0,1.24-1.01,2.24-2.23,2.24Z"/>
        <path class="st0" d="M520.18,478.15l40.58,109.45c.09.25.13.5.13.77v.72c-.01,1.23-1.01,2.23-2.24,2.23h-28.14c-.93,0-1.77-.58-2.09-1.46l-6.09-16.47h-36.62l-6.17,16.48c-.33.87-1.16,1.46-2.09,1.46h-28.15c-1.24,0-2.24-1.01-2.24-2.24v-.72c0-.27.04-.53.13-.78l40.57-109.44c.32-.87,1.16-1.46,2.09-1.46h28.23c.93,0,1.77.58,2.09,1.46ZM511.89,545.25l-7.92-21.17-7.85,21.17h15.77Z"/>
        <path class="st0" d="M669.3,589.04c.03,1.24-1,2.27-2.24,2.27h-28.91c-1.22,0-2.19-.99-2.23-2.21-.62-26.19-12.39-39.12-33.68-40.41v40.38c0,1.24-1.01,2.24-2.24,2.24h-27.71c-1.24,0-2.24-1.01-2.24-2.24v-110.15c0-1.24,1-2.24,2.24-2.24h27.69c1.24,0,2.24,1.01,2.24,2.24v40.38c21.29-1.29,33.07-14.22,33.68-40.41.03-1.22,1.01-2.21,2.23-2.21h28.91c1.24,0,2.26,1.03,2.24,2.27-.6,28.54-12.6,45.49-26.61,55.04,14,9.55,26,26.5,26.62,55.04Z"/>
      </g>
    </g>
    <g class="st1">
      <g class="st1">
        <path d="M170.86,667.65l4.46,4c-5.45,4.97-11.21,7.45-17.3,7.45-6.5,0-12.05-2.29-16.63-6.88-4.59-4.59-6.88-10.13-6.88-16.63s2.29-12.03,6.88-16.63c4.59-4.6,10.13-6.91,16.63-6.91,6.08,0,11.85,2.48,17.3,7.45l-4.46,4.06c-4.11-3.65-8.38-5.47-12.84-5.47-4.82,0-8.94,1.71-12.36,5.12s-5.14,7.54-5.14,12.38,1.71,8.99,5.14,12.4,7.54,5.12,12.36,5.12c4.45,0,8.73-1.82,12.84-5.47Z"/>
        <path d="M233.78,638.87c4.6,4.6,6.91,10.16,6.91,16.66s-2.3,12.06-6.91,16.66c-4.6,4.6-10.16,6.91-16.66,6.91s-12.06-2.3-16.66-6.91c-4.6-4.6-6.91-10.16-6.91-16.66s2.3-12.06,6.91-16.66c4.6-4.6,10.16-6.91,16.66-6.91s12.06,2.3,16.66,6.91ZM217.12,637.97c-4.85,0-8.99,1.71-12.42,5.14s-5.14,7.56-5.14,12.42,1.72,9,5.15,12.43c3.43,3.43,7.57,5.15,12.4,5.15s8.99-1.72,12.42-5.15c3.42-3.43,5.14-7.58,5.14-12.43s-1.71-8.99-5.14-12.42-7.56-5.14-12.42-5.14Z"/>
        <path d="M282.58,632.56v5.96h-16.2v14.07h16.2v5.96h-16.2v20.06h-5.96v-46.05h22.16Z"/>
        <path d="M324.45,632.56v5.96h-16.2v14.07h16.2v5.96h-16.2v20.06h-5.96v-46.05h22.16Z"/>
        <path d="M368.96,632.56v5.96h-18.85v14.07h18.85v5.96h-18.85v14.07h18.85v5.99h-24.81v-46.05h24.81Z"/>
        <path d="M413.46,632.56v5.96h-18.85v14.07h18.85v5.96h-18.85v14.07h18.85v5.99h-24.81v-46.05h24.81Z"/>
        <path d="M496.7,660.74c.19.69.29,1.36.29,2.01,0,1.29-.34,2.5-1.01,3.66-1.04,1.82-2.72,3.08-5.07,3.77-.42,1.4-1.5,2.96-3.22,4.69-2.8,2.82-6.19,4.23-10.16,4.23s-7.33-1.41-10.15-4.22-4.22-6.2-4.22-10.17,1.37-7.37,4.12-10.3c1.65-1.61,3.17-2.5,4.55-2.68-2.97-2.99-4.46-5.98-4.46-8.95s1.05-5.46,3.15-7.57c2.1-2.11,4.64-3.17,7.61-3.17s5.52,1.05,7.63,3.14c1.19,1.15,2.19,2.98,2.99,5.5l-5.41,2.13c-.65-1.76-1.25-2.92-1.78-3.45-.94-.92-2.08-1.38-3.42-1.38s-2.46.47-3.4,1.4c-.94.93-1.41,2.07-1.41,3.41s.49,2.57,1.48,3.63c.99,1.06,1.9,1.75,2.73,2.07.83.33,2.54.5,5.11.52v5.73l-3.51.03c-3.4.67-5.92,1.91-7.58,3.73-1.66,1.81-2.49,3.89-2.49,6.23s.83,4.34,2.48,5.99c1.65,1.65,3.64,2.47,5.99,2.47s4.82-1.36,7.48-4.09c-.54-.44-1.49-1.37-2.85-2.79-.5-.46-.89-.79-1.18-.98-.27-.17-.49-.26-.66-.26h-.03c-.19.02-.33.12-.4.32-.04.08-.06.15-.06.23,0,.13.04.28.12.43l-4.89,3.31c-.4-.59-.71-1.27-.92-2.01-.15-.59-.23-1.18-.23-1.76,0-1.09.29-2.15.86-3.17.9-1.55,2.21-2.56,3.91-3.02.59-.17,1.19-.26,1.78-.26,1.09,0,2.14.29,3.14.86.84.48,1.81,1.38,2.89,2.69,1.08,1.31,2.1,2.03,3.04,2.14.13.02.26.03.37.03.73,0,1.25-.33,1.55-1.01.08-.17.12-.35.12-.55,0-.61-.44-1.29-1.32-2.01l2.94-5.09c1.78,1.04,2.95,2.55,3.51,4.55Z"/>
      </g>
      <g class="st1">
        <path d="M561,638.52v40.09h-5.99v-40.09h-10.73v-5.96h27.46v5.96h-10.73Z"/>
        <path d="M614.09,632.56v5.96h-18.85v14.07h18.85v5.96h-18.85v14.07h18.85v5.99h-24.81v-46.05h24.81Z"/>
        <path d="M650.88,632.56l16.75,46.05h-6.33l-5.93-16.29h-12.2l-5.9,16.29h-6.36l16.75-46.05h3.22ZM653.21,656.36l-3.94-10.79-3.91,10.79h7.86Z"/>
      </g>
    </g>
  </g>
</svg>