<?xml version="1.0" encoding="UTF-8"?>
<svg id="Layer_1" xmlns="http://www.w3.org/2000/svg" version="1.1" viewBox="0 0 800 800">
  <!-- Generator: Adobe Illustrator 29.7.1, SVG Export Plug-In . SVG Version: 2.1.1 Build 8)  -->
  <defs>
    <style>
      .st0 {
        fill: #13a89e;
      }

      .st1 {
        isolation: isolate;
      }

      .st2 {
        fill: #fff;
      }
    </style>
  </defs>
  <g>
    <path d="M261.48,437.03v1.14c-.02,1.97-1.6,3.56-3.57,3.56H83.33c-1.99.01-3.57-1.59-3.57-3.56v-1.14c0-.43.07-.85.2-1.25l64.76-174.71c.52-1.4,1.86-2.33,3.34-2.33h45.07c1.48,0,2.82.93,3.34,2.33l64.78,174.74c.15.38.21.8.21,1.23h.02Z"/>
    <path d="M420.39,440.78c.05,1.98-1.59,3.65-3.59,3.65h-47.46c-1.95,0-3.48-1.57-3.56-3.5-1.07-29.93-16.07-45.39-39.67-46.91v46.86c0,1.98-1.61,3.57-3.57,3.57h-44.23c-1.98,0-3.57-1.61-3.57-3.57v-178.56c0-1.98,1.59-3.57,3.57-3.57h86.89c29.97,0,54.26,21.03,54.27,65.53,0,26.18-8.47,44.18-21.5,54.61,13.35,15.21,21.69,35.88,22.43,61.9h0ZM326.09,345.35c0,.93.8,1.66,1.79,1.66h20.89c10.42,0,18.85-7.97,18.85-21.14s-8.44-21.14-18.85-21.14h-20.89c-.98,0-1.79.75-1.79,1.66v38.96h0Z"/>
    <path d="M552.53,262.31v36.51c0,1.97-1.59,3.57-3.57,3.57h-62.56v26.02h54.34c1.97,0,3.57,1.59,3.57,3.57v36.51c0,1.97-1.59,3.57-3.57,3.57h-54.34v66.08c0,1.97-1.59,3.57-3.57,3.57h-44.21c-1.97,0-3.57-1.59-3.57-3.57v-175.84c0-1.98,1.59-3.57,3.57-3.57h110.35c1.97,0,3.57,1.59,3.57,3.57h-.01Z"/>
    <path d="M656.61,261.06l64.78,174.74c.14.39.21.8.21,1.23v1.14c-.02,1.97-1.61,3.56-3.57,3.56h-44.93c-1.48,0-2.82-.93-3.34-2.32l-9.72-26.29h-58.45l-9.85,26.31c-.52,1.39-1.86,2.32-3.34,2.32h-44.94c-1.98,0-3.57-1.61-3.57-3.57v-1.14c0-.43.07-.84.21-1.25l64.76-174.72c.52-1.39,1.86-2.32,3.34-2.32h45.07c1.48,0,2.82.93,3.34,2.32h0ZM643.39,368.19l-12.65-33.79-12.53,33.79h25.18Z"/>
    <g>
      <path class="st2" d="M218.82,425.68l-7.65-16.95-2.93-6.49-17.22-38.2c-.12-.28-.18-.58-.18-.88l.48-22.88c.02-1.11.93-2,2.04-2h1.17c1.16,0,2.08-.96,2.04-2.12l-.37-9.44c-.04-1.09-.94-1.96-2.04-1.96h-47.11c-1.1,0-2,.86-2.04,1.96l-.37,9.44c-.04,1.16.88,2.12,2.04,2.12h1.17c1.11,0,2.02.89,2.04,2l.48,22.88c0,.3-.06.6-.18.88l-14.21,31.52-1.84,4.09-11.74,26.03c-3.65,8.1,2.27,17.27,11.16,17.27h74.09c8.89,0,14.81-9.17,11.16-17.27h0ZM214.52,435.14c-1.53,2.37-4.03,3.73-6.85,3.73h-74.09c-2.82,0-5.32-1.36-6.85-3.73-1.53-2.37-1.74-5.21-.58-7.78l12.42-27.55,2-4.44c8.63-.12,18.57,1.11,27.95,5.48,1.44.67,2.88,1.42,4.29,2.25,10.67,6.27,23.25,7.16,34.14,6.13l8.17,18.13c1.16,2.57.95,5.41-.58,7.78h-.02Z"/>
      <path class="st0" d="M214.52,435.14c-1.53,2.37-4.03,3.73-6.85,3.73h-74.09c-2.82,0-5.32-1.36-6.85-3.73-1.53-2.37-1.74-5.21-.58-7.78l12.42-27.55,2-4.44c8.63-.12,18.57,1.11,27.95,5.48,1.44.67,2.88,1.42,4.29,2.25,10.67,6.27,23.25,7.16,34.14,6.13l8.17,18.13c1.16,2.57.95,5.41-.58,7.78h-.02Z"/>
      <circle class="st0" cx="185.92" cy="391.11" r="7.25"/>
      <circle class="st0" cx="161.25" cy="371.9" r="6.19"/>
      <circle class="st0" cx="164.88" cy="388.71" r="3.63"/>
      <circle class="st0" cx="177.24" cy="357.81" r="2.2"/>
      <circle class="st0" cx="180.87" cy="375.53" r="3.63"/>
    </g>
  </g>
  <g class="st1">
    <g class="st1">
      <path d="M89.52,481.52c2.24,0,4.16.79,5.76,2.38,1.6,1.59,2.39,3.5,2.39,5.74s-1.16,4.37-3.47,6.32c2.04.42,3.97,1.62,5.77,3.61,2.92,2.94,4.38,6.48,4.38,10.64s-1.46,7.72-4.38,10.75c-2.72,2.81-5.96,4.24-9.74,4.29v.03h-8.48v-43.77h7.77ZM84.21,483.99v11.19h5.94c1.37-.13,2.53-.64,3.5-1.53,1.11-1.02,1.67-2.35,1.67-3.99s-.56-3-1.67-4.06c-1.11-1.07-2.49-1.6-4.13-1.6h-5.31ZM84.21,497.8v25.03h6.02v.03c3.05-.2,5.67-1.45,7.88-3.75,2.42-2.5,3.64-5.46,3.64-8.89s-1.21-6.35-3.64-8.78c-2.43-2.42-5.35-3.64-8.78-3.64h-5.12Z"/>
      <path d="M141.93,481.52v43.77h-2.46v-43.77h2.46Z"/>
      <path d="M216.35,487.47c4.39,4.39,6.58,9.68,6.58,15.88s-2.19,11.49-6.58,15.88c-4.39,4.39-9.68,6.58-15.88,6.58s-11.49-2.19-15.88-6.58-6.58-9.68-6.58-15.88,2.19-11.49,6.58-15.88,9.68-6.58,15.88-6.58,11.49,2.19,15.88,6.58ZM200.47,483.41c-5.51,0-10.21,1.95-14.1,5.84-3.89,3.89-5.84,8.59-5.84,14.1s1.95,10.21,5.84,14.11c3.89,3.9,8.59,5.85,14.1,5.85s10.21-1.95,14.1-5.85c3.89-3.9,5.84-8.61,5.84-14.11s-1.95-10.21-5.84-14.1c-3.89-3.89-8.59-5.84-14.1-5.84Z"/>
    </g>
    <g class="st1">
      <path d="M269.27,511.29h-5.17v14h-5.66v-43.77h12.42c3.52.47,6.49,1.92,8.92,4.35,2.9,2.92,4.35,6.42,4.35,10.5s-1.45,7.64-4.35,10.56c-2.01,2.01-3.54,3.14-4.6,3.39l9.71,14.96h-6.87l-8.75-14ZM264.1,487.21v18.38h5.17c2.52,0,4.67-.9,6.47-2.69,1.8-1.8,2.69-3.97,2.69-6.52s-.9-4.7-2.69-6.48c-1.8-1.79-3.95-2.68-6.47-2.68h-5.17Z"/>
      <path d="M342.06,481.52v5.66h-17.92v13.38h17.92v5.66h-17.92v13.38h17.92v5.69h-23.58v-43.77h23.58Z"/>
      <path d="M388.73,502.83c-3.1-1.04-5.61-2.52-7.54-4.45-1.92-1.92-2.89-4.31-2.89-7.15s1-5.19,3-7.19c2-2.01,4.42-3.01,7.26-3.01s5.22.99,7.22,2.98c1.13,1.09,2.08,2.84,2.84,5.22l-5.14,2.02c-.62-1.68-1.19-2.77-1.7-3.28-.89-.88-1.97-1.31-3.23-1.31s-2.36.44-3.25,1.33c-.89.88-1.34,1.97-1.34,3.24s.45,2.36,1.34,3.25c1,.98,2.39,1.89,4.16,2.71,3.43,1.11,6.34,2.86,8.73,5.25,2.68,2.64,4.02,5.85,4.02,9.63s-1.34,7-4.01,9.67c-2.67,2.67-5.89,4.01-9.64,4.01s-6.99-1.34-9.66-4.02c-2.13-2.13-3.48-5.08-4.05-8.84l5.5-2c.35,3.23,1.19,5.52,2.54,6.87,1.57,1.57,3.46,2.35,5.66,2.35s4.09-.78,5.66-2.35,2.35-3.46,2.35-5.69-.78-4.09-2.35-5.66c-1.5-1.5-3.33-2.69-5.5-3.58Z"/>
      <path d="M459.3,481.52v5.66h-17.92v13.38h17.92v5.66h-17.92v13.38h17.92v5.69h-23.58v-43.77h23.58Z"/>
      <path d="M511.08,481.52l15.92,43.77h-6.02l-5.63-15.48h-11.6l-5.61,15.48h-6.04l15.92-43.77h3.06ZM513.3,504.15l-3.75-10.26-3.72,10.26h7.47Z"/>
      <path d="M571.31,511.29h-5.17v14h-5.66v-43.77h12.42c3.52.47,6.49,1.92,8.92,4.35,2.9,2.92,4.35,6.42,4.35,10.5s-1.45,7.64-4.35,10.56c-2.01,2.01-3.54,3.14-4.6,3.39l9.71,14.96h-6.87l-8.75-14ZM566.14,487.21v18.38h5.17c2.52,0,4.67-.9,6.47-2.69,1.8-1.8,2.69-3.97,2.69-6.52s-.9-4.7-2.69-6.48c-1.8-1.79-3.95-2.68-6.47-2.68h-5.17Z"/>
      <path d="M654.38,514.87l4.24,3.8c-5.18,4.72-10.66,7.08-16.44,7.08-6.18,0-11.45-2.18-15.81-6.54s-6.54-9.63-6.54-15.81,2.18-11.43,6.54-15.81c4.36-4.38,9.63-6.56,15.81-6.56,5.78,0,11.26,2.36,16.44,7.08l-4.24,3.86c-3.9-3.46-7.97-5.2-12.2-5.2-4.58,0-8.49,1.62-11.75,4.87s-4.88,7.17-4.88,11.76,1.63,8.54,4.88,11.79c3.25,3.25,7.17,4.87,11.75,4.87,4.23,0,8.3-1.73,12.2-5.2Z"/>
      <path d="M699.11,507.18v18.11h-5.66v-43.77h5.66v20h13.51v-20h5.66v43.77h-5.66v-18.11h-13.51Z"/>
    </g>
  </g>
</svg>