<?xml version="1.0" encoding="UTF-8"?>
<svg id="Layer_1" data-name="Layer 1" xmlns="http://www.w3.org/2000/svg" xmlns:xlink="http://www.w3.org/1999/xlink" viewBox="0 0 800 800">
  <defs>
    <style>
      .cls-1 {
        fill: url(#linear-gradient-4);
      }

      .cls-2 {
        fill: url(#linear-gradient-3);
      }

      .cls-3 {
        fill: url(#linear-gradient-2);
      }

      .cls-4 {
        fill: url(#linear-gradient-10);
        filter: url(#drop-shadow-8);
      }

      .cls-5 {
        letter-spacing: .8em;
      }

      .cls-6 {
        letter-spacing: .85em;
      }

      .cls-7 {
        font-family: STIXTwoTextRoman-Medium, 'STIX Two Text';
        font-size: 41.43px;
        font-variation-settings: 'wght' 500;
        font-weight: 500;
      }

      .cls-8 {
        fill: url(#linear-gradient-9);
        filter: url(#drop-shadow-7);
      }

      .cls-9 {
        fill: url(#linear-gradient-6);
        filter: url(#drop-shadow-4);
      }

      .cls-10 {
        fill: url(#linear-gradient-7);
        filter: url(#drop-shadow-5);
      }

      .cls-11 {
        fill: url(#linear-gradient-8);
        filter: url(#drop-shadow-6);
      }

      .cls-12 {
        fill: url(#linear-gradient-5);
        filter: url(#drop-shadow-3);
      }

      .cls-13 {
        filter: url(#drop-shadow-1);
      }

      .cls-13, .cls-14, .cls-15 {
        fill: #a15385;
      }

      .cls-14 {
        font-family: Cochin, Cochin;
        font-size: 59.19px;
        letter-spacing: .2em;
      }

      .cls-16 {
        fill: none;
        stroke: #000;
        stroke-miterlimit: 10;
        stroke-width: 2px;
      }

      .cls-17 {
        fill: url(#linear-gradient);
        filter: url(#drop-shadow-2);
      }
    </style>
    <filter id="drop-shadow-1" x="319" y="300" width="20" height="20" filterUnits="userSpaceOnUse">
      <feOffset dx="3" dy="-3"/>
      <feGaussianBlur result="blur" stdDeviation="3"/>
      <feFlood flood-color="#000" flood-opacity=".35"/>
      <feComposite in2="blur" operator="in"/>
      <feComposite in="SourceGraphic"/>
    </filter>
    <linearGradient id="linear-gradient" x1="276.46" y1="233.88" x2="338.99" y2="233.88" gradientUnits="userSpaceOnUse">
      <stop offset="0" stop-color="#553147"/>
      <stop offset=".03" stop-color="#643853"/>
      <stop offset=".1" stop-color="#7f4369"/>
      <stop offset=".17" stop-color="#924c78"/>
      <stop offset=".24" stop-color="#9d5181"/>
      <stop offset=".32" stop-color="#a15385"/>
      <stop offset=".48" stop-color="#9d5181"/>
      <stop offset=".63" stop-color="#914b78"/>
      <stop offset=".79" stop-color="#7d4368"/>
      <stop offset=".94" stop-color="#623651"/>
      <stop offset="1" stop-color="#553147"/>
    </linearGradient>
    <filter id="drop-shadow-2" x="266" y="206" width="91" height="103" filterUnits="userSpaceOnUse">
      <feOffset dx="3" dy="-3"/>
      <feGaussianBlur result="blur-2" stdDeviation="3"/>
      <feFlood flood-color="#000" flood-opacity=".35"/>
      <feComposite in2="blur-2" operator="in"/>
      <feComposite in="SourceGraphic"/>
    </filter>
    <linearGradient id="linear-gradient-2" x1="347.54" y1="181.76" x2="396.62" y2="181.76" gradientUnits="userSpaceOnUse">
      <stop offset="0" stop-color="#d99f26"/>
      <stop offset=".53" stop-color="#d38906"/>
      <stop offset="1" stop-color="#9a6a29"/>
    </linearGradient>
    <linearGradient id="linear-gradient-3" x1="337.78" y1="133.89" x2="386.85" y2="133.89" xlink:href="#linear-gradient-2"/>
    <linearGradient id="linear-gradient-4" x1="395.69" y1="92.16" x2="428.05" y2="124.52" xlink:href="#linear-gradient-2"/>
    <linearGradient id="linear-gradient-5" x1="285.4" y1="210.17" x2="354.67" y2="210.17" xlink:href="#linear-gradient"/>
    <filter id="drop-shadow-3" x="276" y="175" width="100" height="120" filterUnits="userSpaceOnUse">
      <feOffset dx="3" dy="-3"/>
      <feGaussianBlur result="blur-3" stdDeviation="3"/>
      <feFlood flood-color="#000" flood-opacity=".35"/>
      <feComposite in2="blur-3" operator="in"/>
      <feComposite in="SourceGraphic"/>
    </filter>
    <linearGradient id="linear-gradient-6" x1="375.4" y1="260.07" x2="455.2" y2="260.07" xlink:href="#linear-gradient"/>
    <filter id="drop-shadow-4" x="381" y="183" width="111" height="199" filterUnits="userSpaceOnUse">
      <feOffset dx="3" dy="-3"/>
      <feGaussianBlur result="blur-4" stdDeviation="3"/>
      <feFlood flood-color="#000" flood-opacity=".35"/>
      <feComposite in2="blur-4" operator="in"/>
      <feComposite in="SourceGraphic"/>
    </filter>
    <linearGradient id="linear-gradient-7" x1="349.2" y1="304.71" x2="438.55" y2="304.71" xlink:href="#linear-gradient"/>
    <filter id="drop-shadow-5" x="350" y="254" width="123" height="143" filterUnits="userSpaceOnUse">
      <feOffset dx="3" dy="-3"/>
      <feGaussianBlur result="blur-5" stdDeviation="3"/>
      <feFlood flood-color="#000" flood-opacity=".35"/>
      <feComposite in2="blur-5" operator="in"/>
      <feComposite in="SourceGraphic"/>
    </filter>
    <linearGradient id="linear-gradient-8" x1="364.35" y1="310.01" x2="415.22" y2="310.01" xlink:href="#linear-gradient"/>
    <filter id="drop-shadow-6" x="368" y="244" width="78" height="173" filterUnits="userSpaceOnUse">
      <feOffset dx="3" dy="-3"/>
      <feGaussianBlur result="blur-6" stdDeviation="3"/>
      <feFlood flood-color="#000" flood-opacity=".35"/>
      <feComposite in2="blur-6" operator="in"/>
      <feComposite in="SourceGraphic"/>
    </filter>
    <linearGradient id="linear-gradient-9" x1="303.89" y1="413.05" x2="425.86" y2="413.05" xlink:href="#linear-gradient"/>
    <filter id="drop-shadow-7" x="298" y="292" width="160" height="273" filterUnits="userSpaceOnUse">
      <feOffset dx="3" dy="-3"/>
      <feGaussianBlur result="blur-7" stdDeviation="3"/>
      <feFlood flood-color="#000" flood-opacity=".35"/>
      <feComposite in2="blur-7" operator="in"/>
      <feComposite in="SourceGraphic"/>
    </filter>
    <linearGradient id="linear-gradient-10" x1="374.7" y1="178.37" x2="499.73" y2="341.18" xlink:href="#linear-gradient"/>
    <filter id="drop-shadow-8" x="418" y="129" width="122" height="301" filterUnits="userSpaceOnUse">
      <feOffset dx="3" dy="-3"/>
      <feGaussianBlur result="blur-8" stdDeviation="3"/>
      <feFlood flood-color="#000" flood-opacity=".35"/>
      <feComposite in2="blur-8" operator="in"/>
      <feComposite in="SourceGraphic"/>
    </filter>
  </defs>
  <path class="cls-15" d="M395.08,604.97h0s-.05.11-.12.23c0-.02.02-.05.03-.07.02-.05.05-.09.07-.13,0-.01.01-.02.02-.03Z"/>
  <g>
    <g>
      <path class="cls-13" d="M326.21,312.85s.05-.06.05-.06c-.01.04-.06.11-.13.22-.07.1-.1.17-.14.22.03-.06.09-.16.15-.29.01,0,.02-.02.02-.03.02-.05.03-.07.05-.07Z"/>
      <path class="cls-17" d="M344.8,274.97c-11.4-.94-23.23-3.8-33.21-8.42-7.47-3.46-14.28-8.38-17.54-15.06-1.76-3.61-2.29-7.41-1.87-11.27.24-2.23.76-4.47,1.56-6.62.25-.66,1.48-2.95,1.2-2.71-.48.4-3.81,5.62-1.49,2.4.9-1.26,10.04-13.83,8.1-14.75s-11.19,12.72-11.49,13.14c-10.64,14.79-26.86,37.19-11.42,53.65,8.54,9.1,23.03,13.58,36.23,16.05,3.4.64,6.87,1.2,10.35,1.49,1.26.1,3.84-3.26,4.07-3.52,2.7-3.05,5.15-6.35,7.42-9.63.71-1.03,8.87-14.69,8.1-14.75h0Z"/>
      <path class="cls-3" d="M396.4,178.14c-6.23-5.26-13.61-8.97-20.53-13.52-2.94-1.94-6.83-4.26-8.58-7.13-.37-.6-4.68,4.21-4.07,3.52-2.7,3.05-5.15,6.35-7.42,9.63s-4.55,6.63-6.43,10.1c-.58,1.08-2.38,3.49-1.67,4.65,1.74,2.86,5.64,5.2,8.58,7.13,6.92,4.56,14.3,8.26,20.53,13.52,1.06.89,10.76-12.1,11.49-13.14,2.29-3.29,4.55-6.63,6.43-10.1.43-.8,2.57-3.89,1.67-4.65h0Z"/>
      <path class="cls-2" d="M386.64,130.27c-6.23-5.26-13.61-8.97-20.53-13.52-2.94-1.94-6.83-4.26-8.58-7.13-.37-.6-4.68,4.21-4.07,3.52-2.7,3.05-5.15,6.35-7.42,9.63s-4.55,6.63-6.43,10.1c-.58,1.08-2.38,3.49-1.67,4.65,1.74,2.86,5.64,5.2,8.58,7.13,6.92,4.56,14.3,8.26,20.53,13.52,1.06.89,10.76-12.1,11.49-13.14,2.29-3.29,4.55-6.63,6.43-10.1.43-.8,2.57-3.89,1.67-4.65h0Z"/>
      <path class="cls-1" d="M432.86,101.17c-6.23-5.26-13.61-8.97-20.53-13.52-2.94-1.94-6.83-4.26-8.58-7.13-.37-.6-4.68,4.21-4.07,3.52-2.7,3.05-5.15,6.35-7.42,9.63s-4.55,6.63-6.43,10.1c-.58,1.08-2.38,3.49-1.67,4.65,1.74,2.86,5.64,5.2,8.58,7.13,6.92,4.56,14.3,8.26,20.53,13.52,1.06.89,10.76-12.1,11.49-13.14,2.29-3.29,4.55-6.63,6.43-10.1.43-.8,2.57-3.89,1.67-4.65h0Z"/>
      <path class="cls-12" d="M284.72,212.68c-1.54,3.08-2.58,6.7-1.8,10.02.82,3.52,3.46,5.07,6.92,6.78,9.15,4.53,18.86,8.35,28.4,12.28,8.2,3.37,17.28,6.2,21.9,13.18,6.01,9.08,2.4,20.26-2.62,29.04.16-.28-2.54,4.24-1.67,4.65s4.28-3.76,4.07-3.52c5.4-6.11,9.95-12.89,13.85-19.72,5.74-10.05,11.63-21.97,8.32-33.26-2.45-8.33-10.07-12.44-18.82-16.04-9.77-4.01-19.59-7.97-29.16-12.31-7.08-3.21-14.5-6.9-10.76-14.38,2.96-5.9-5.34,3.28-5.83,3.9-4.88,6.14-9.39,12.58-12.79,19.37h0Z"/>
      <path class="cls-9" d="M389.43,220.73c-3.48,9.37-2.95,19.76.94,29,3.08,7.32,8.72,13.51,14.19,19.72,5.16,5.85,10.45,11.63,15.62,17.48,12.24,13.84,24.67,28.19,33.66,43.68,4.25,7.32,6.6,15.3,6,23.43-.24,3.2-.85,6.44-1.96,9.51-.17.48-1.01,3.36-1.52,3.47.69-.16,3.35-5.4,3.68-5.88-.89,1.27-10.05,13.82-8.1,14.75s11.19-12.72,11.49-13.14c7.55-10.76,15.26-22.51,16.2-35.18,1.05-14.17-6.57-26.29-15.12-38.12-8.51-11.77-18.08-22.98-27.93-34.01-8.47-9.49-18.88-19.02-24.78-29.82-3.48-6.37-5.14-13.3-4.83-20.28.09-2.09.34-4.19.79-6.25.18-.84,1.52-4.91.31-1.64,2.23-5.99-5.17,3.07-5.83,3.9-4.66,5.86-10.27,12.58-12.79,19.37h0Z"/>
      <path class="cls-10" d="M460.3,362.63c-33.18-5.11-73.25-21.78-82.1-50.74-1.86-6.08-2.11-12.38-1.21-18.59.54-3.76,1.47-7.51,2.79-11.14.6-1.66,1.31-3.3,2.05-4.92-.25.56,1.4-2.9,1.05-2.21-.08.16,2.08-3.74.88-1.69.51-.88,6.39-10.71,1.19-6.1-5.75,5.1-10.37,12.57-14.01,18.79-8.14,13.93-15.52,28.98-14.05,44.75.97,10.41,5.62,20.13,13.57,28.27,13.74,14.09,34.64,22.76,55.2,28.18,4.93,1.3,9.96,2.51,15.06,3.29,3.14.48,10.2-11.29,11.49-13.14.7-1,9.18-14.58,8.1-14.75h0Z"/>
      <path class="cls-11" d="M374.61,284.44c27.02,15.28,41.4,44.54,38.59,70.81-.77,7.15-2.55,14.28-5.32,21.09-1.45,3.57-3.11,7.05-5.02,10.47.28-.51.83-1.36-.75,1.26.82-1.37-.33.52-.56.87,1.43-2.16-.22.32-.45.63,1.7-2.25-1.69,2.18-1.75,2.26-2.67,3.47-5.14,7.15-7.37,10.83-.35.58-3.97,5.75-3.49,6.89.54,1.27,1.09.24,2.29-.79,2.66-2.26,4.62-5.34,6.63-7.96,20.99-27.32,41.18-59.53,34.65-92.86-3.29-16.81-13.49-32.39-28.08-44.41-3.03-2.49-6.25-4.97-9.79-6.97-1.55-.88-22.83,26.06-19.58,27.89h0Z"/>
      <path class="cls-8" d="M443.41,475.59c-6.5,26.39-22.9,50.79-39.49,73.68-1.91,2.63-4,5.72-6.63,7.96-1.21,1.03-1.75,2.06-2.3.79-.49-1.15,3.13-6.32,3.48-6.89,2.15-3.55,4.58-6.98,7.03-10.36.03-.04.06-.07.08-.1-.01.02-.02.04-.05.05.24-.4,1.58-2.34,2.03-2.96.08-.1.12-.15.13-.18h0c.52-.82,1.37-2.14,1.65-2.54.02-.02.03-.04.05-.07,0,0,.01,0,.01-.02.01,0,.02-.02.02-.04.96-1.55,2.41-4.04,3.46-5.96,3.01-5.5,5.63-11.16,7.73-16.93,3.83-10.49,6.01-21.63,5.14-32.59-1.44-18.08-12.72-31.98-29.31-43.24-18.34-12.43-37.24-24.3-55.57-36.76-17.31-11.78-34.91-23.7-36.64-43.47-1.21-13.79,6.21-26.48,14.26-38.15.28-.41,10.73-12.29,11.45-13.09-.26.44-2.12,3.62-3.04,6.63-.01.04-.03.08-.05.12-.05.14-.08.29-.12.42-.07.25-.13.48-.17.72-.89,2.44-1.81,5.26-2.26,8.25-1.44,9.51,1.11,18.95,7.24,27.12,6.34,8.44,15.99,14.69,25.13,20.97,9.28,6.39,18.73,12.62,28.2,18.82,9.34,6.12,18.72,12.2,27.98,18.4,7.86,5.28,15.53,10.56,21.21,17.56,12.39,15.25,13.65,34.33,9.33,51.87Z"/>
      <path class="cls-4" d="M429.79,165.21c-7.72,13.98-6.32,30.16.92,44.09,7.05,13.56,19.5,25.18,30.45,36.71,8.81,9.28,17.96,18.35,26.69,27.67,7,7.48,12.85,15.59,16.27,24.64,5,13.26,4.6,27.37,1.7,40.93-2.36,11-6.39,21.69-11.27,32.1-2.82,6.01-6.13,12.23-9.41,17.82-1.53,2.62-4.33,7.16-5.23,8.57-2.87,4.48-4.72,7.2-7.1,10.64-.88,1.27-10.06,13.82-8.1,14.75s11.19-12.72,11.49-13.14c17.84-25.66,34.69-52.36,44.72-80.86,5.47-15.54,8.59-31.88,5.71-48.01-1.89-10.62-6.77-20.57-14.03-29.47-3.55-4.35-7.59-8.4-11.56-12.49-12.12-12.45-24.2-24.93-35.78-37.72-10.81-11.95-20.02-25-20.84-40.25-.23-4.27.15-8.58,1.26-12.76.18-.68.38-1.35.6-2.02.35-1.1-.27.94.22-.56.72-2.19-.37.63-.45.76-.15.28,2.54-4.24,1.67-4.65s-4.28,3.76-4.07,3.52c-5.38,6.08-10.07,12.88-13.85,19.72h0Z"/>
    </g>
    <g>
      <text class="cls-14" transform="translate(237.24 637.12)"><tspan x="0" y="0">ZAHRAH</tspan></text>
      <line class="cls-16" x1="211.37" y1="660.32" x2="588.63" y2="660.32"/>
      <text class="cls-7" transform="translate(288.76 704.08)"><tspan class="cls-5" x="0" y="0">scar</tspan><tspan class="cls-6" x="205.79" y="0">f</tspan></text>
    </g>
  </g>
</svg>