<?xml version="1.0" encoding="UTF-8"?>
<svg id="Layer_1" data-name="Layer 1" xmlns="http://www.w3.org/2000/svg" viewBox="0 0 1080 1080">
  <defs>
    <style>
      .cls-1 {
        fill: #a4d5f3;
      }

      .cls-2 {
        fill: #282929;
      }

      .cls-3 {
        fill: #ad2325;
      }

      .cls-4 {
        fill: #f18d21;
      }

      .cls-5 {
        fill: #f6be23;
      }

      .cls-6 {
        fill: #ac2224;
      }

      .cls-7 {
        fill: #d5d5d6;
      }

      .cls-8 {
        fill: #222323;
      }

      .cls-9 {
        fill: #2f406f;
      }

      .cls-10 {
        fill: #bebdbd;
      }

      .cls-11 {
        fill: #231f20;
      }

      .cls-12 {
        fill: #bebebf;
      }

      .cls-13 {
        fill: #cfe4c2;
      }

      .cls-14 {
        fill: #196baf;
      }

      .cls-15 {
        fill: #c5292f;
      }

      .cls-16 {
        fill: #bdbdbe;
      }

      .cls-17 {
        fill: #fbcb2f;
      }

      .cls-18 {
        fill: #bdbebf;
      }

      .cls-19 {
        fill: #cf2429;
      }

      .cls-20 {
        fill: #adadb1;
      }

      .cls-21 {
        fill: #ac2124;
      }

      .cls-22 {
        fill: #bebbbc;
      }

      .cls-23 {
        fill: #bebdbe;
      }

      .cls-24 {
        fill: #831819;
      }

      .cls-25 {
        fill: #9a1e20;
      }

      .cls-26 {
        fill: #9a1f21;
      }

      .cls-27 {
        fill: #fdfcfc;
      }

      .cls-28 {
        fill: #f0ecec;
      }

      .cls-29 {
        fill: #9a1f20;
      }

      .cls-30 {
        fill: #3288bd;
      }

      .cls-31 {
        fill: #c03034;
      }

      .cls-32 {
        fill: #d3dfba;
      }

      .cls-33 {
        fill: #eae5e7;
      }

      .cls-34 {
        fill: #258ac8;
      }

      .cls-35 {
        fill: #1d447e;
      }

      .cls-36 {
        fill: #d02229;
      }

      .cls-37 {
        fill: #286130;
      }

      .cls-38 {
        fill: #71c6e8;
      }

      .cls-39 {
        fill: #212a5b;
      }

      .cls-40 {
        fill: #fcdf67;
      }

      .cls-41 {
        fill: #4f893e;
      }

      .cls-42 {
        fill: #cf2329;
      }

      .cls-43 {
        fill: #4988b4;
      }

      .cls-44 {
        fill: #1c4e91;
      }

      .cls-45 {
        fill: #fbca2e;
      }

      .cls-46 {
        fill: #fdfefe;
      }

      .cls-47 {
        fill: #a5ce84;
      }

      .cls-48 {
        fill: #fdfbfa;
      }

      .cls-49 {
        fill: #cf2328;
      }

      .cls-50 {
        fill: #ad2225;
      }

      .cls-51 {
        fill: #1f3d6c;
      }

      .cls-52 {
        fill: #204474;
      }

      .cls-53 {
        fill: #8c332d;
      }

      .cls-54 {
        fill: #eebe20;
      }

      .cls-55 {
        fill: #ce282b;
      }

      .cls-56 {
        fill: #9b2021;
      }

      .cls-57 {
        fill: #1b441f;
      }

      .cls-58 {
        fill: #ad2224;
      }

      .cls-59 {
        fill: #d4d4d5;
      }

      .cls-60 {
        fill: #4a8b40;
      }

      .cls-61 {
        fill: #ffeea9;
      }

      .cls-62 {
        fill: #d3d2d2;
      }
    </style>
  </defs>
  <g>
    <g>
      <path class="cls-9" d="M810.75,817.59c-3.56,1.4-6.96-2.3-5.31-5.75,9.07-18.96,8.98-36.76,9.46-54.45.41-15.22-.19-30.39.14-45.6,1.16-53.1,38.8-84.59,95.91-79.91,4.18.34,5.33,5.93,1.63,7.89-3.92,2.09-7.53,4.09-10.94,6.37-26.3,17.57-35.29,42.91-41.08,69.73-4.89,22.66-6.03,45.83-15.84,67.84-6.61,14.84-16.21,26.91-33.97,33.87Z"/>
      <path class="cls-44" d="M452.22,899.9c.81-1.39,2.3-2.79,2.41-4.34.48-6.46-1.49-13.77,7.35-16.14,7.67-2.06,12.43,1.71,16.4,7.87,5.74,8.9,9.65,8.66,11.82-1.98,1.27-6.23,5.59-9.14,11.47-9.13,7.16.02,10.08,5.53,12.5,11.51,7.74,19.18-8.56,38.84-34.71,40.58-15.07,1.01-28.8-3.42-40.17-15.5-6.5-6.9-12.23-14.74-5.09-21.96,7.91-8,8.73,6.56,14.3,8.09,1.11.3,2.22.6,3.72,1.01Z"/>
      <path class="cls-34" d="M529.29,787.45c.79,2.41-1.65,4.59-3.97,3.56-15.85-7.09-30.91-8.3-46.2-7.6-24.4,1.12-48.76,3.08-73.17,4.11-47.06,1.97-79.22-18.69-89.7-55.12-1.24-4.3-6.65-5.66-9.76-2.45-6.16,6.36-12.7,12.97-20.95,15.96-28.44,10.29-53.83,4.6-75.75-15.15-9.26-8.35-17.53-17.82-25.9-27.17-5.11-5.7-9.14-12.29-11.94-19.42-.04-.11-.09-.23-.13-.34-5.48-14.01-5.33-29.61.46-43.49.04-.09.07-.17.11-.26,0,0,0,0,0,0,18.31,31.06,33.33,62.93,67.1,76.54,26.77,10.79,47.61,1.75,74.91-34.49.8-1.05,1.6-2.13,2.41-3.23h.04c18.03,32.55,32.71,45.26,60.47,53.41,1.07.31,2.17.62,3.28.92,17.17,4.66,34.79,5.87,52.37,7.68,13.61,1.39,27.37,2.14,40.75,4.84h0c5.44,1.76,10.97,3.3,16.59,4.63h0c2.16.79,4.3,1.67,6.42,2.65,15.25,7.03,26.89,17.1,32.56,34.41Z"/>
      <path class="cls-8" d="M490.31,750.39c-5.62-1.33-11.15-2.87-16.59-4.63,5.61,1.14,11.15,2.61,16.59,4.63Z"/>
      <path class="cls-14" d="M579.41,928.52c-15.91-4.08-29.29-23.25-38.41-40.68-12.93-24.7-40.08-38.55-67.61-34.15-.34.05-.68.11-1.02.17-23.74,3.95-47.52,7.61-71.35,10.92-59.2,8.26-99.98-29.01-98.36-86.83.15-5.32,6.52-7.92,10.31-4.18,36.98,36.54,59.07,43.87,112.43,41.27,19.93-.98,39.73-.14,59.4,3.71,30.86,6.04,45.6,34.71,45.7,34.65,35.28,53.23,83.74,59.28,137.52,46.04,4.56-1.12,7.47,4.67,3.85,7.66-22.07,18.25-63.6,28.82-92.45,21.41Z"/>
      <path class="cls-38" d="M417.41,718.02c2.06,1.42.59,4.66-1.83,4.04-6.03-1.54-11.68-3.26-16.98-5.12-58.55-20.5-74.05-58.18-77.56-70-.59-1.99-3.33-2.48-4.41-.7,0,.01-.02.02-.02.04-32.92,56.07-70.01,57.37-108.75,4.08-12.9-17.75-20.75-38.23-31.15-59.37-2.02-4.11-7.91-4.03-9.85.11-3.06,6.53-6.04,12.88-8.97,19.14-1.53,3.26-6.35,2.62-6.98-.93-3.99-22.5-6.06-45.66-6.06-69.31,0-5.27.1-10.51.31-15.73.69-17.51,7.44-34.32,19.57-46.96,1.23-1.28,2.48-2.52,3.77-3.74,40.86-38.58,112.14-50.71,157.74-19.81-14.42,0-28.83.06-43.25-.02-29.61-.14-50.65,14.32-62.54,40.29-14.19,31-13.98,63.41-.72,94.74,16.54,39.1,51.78,45.64,81.77,15.63,8.15-8.15,14.75-17.85,23.27-28.62l2.18.57c9.93,58.63,43.47,109.22,90.49,141.67Z"/>
      <path class="cls-35" d="M712.36,678.1c.61-2.64-2.78-4.29-4.49-2.19-38.62,47.35-81.16,73.75-133.04,79.64-12.19,1.39-25.34,6.37-22.72,21.86,3.25,19.25,18.63,16.4,31.83,13.54,55.19-11.94,113.4-47.71,128.42-112.86Z"/>
      <path class="cls-30" d="M403.8,903.49c-.09,0-.19.02-.28.02-10.95.88-21.95-1.21-31.88-5.9-38.53-18.18-73.64-42.38-104.12-71.42-10.71-10.2-16.95-24.34-16.93-39.13,0-.09,0-.19,0-.28.04-11.5,10.19-18.25,22.64-17.52,10.5.62,9.39,7.35,9.73,16.71,3.1,84.51,89.12,106.39,121.09,114.14,1.88.46,1.68,3.21-.25,3.37Z"/>
      <path class="cls-1" d="M237.82,484.31c26.29-3.14,47.16,2.55,65.23,18.41,10.28,9.02,21.43,8.91,28.6-3.66,7.35-12.89,2.1-23.15-10.9-29.02-27.09-12.22-62.46-9.32-82.92,14.27Z"/>
      <path class="cls-62" d="M916.94,739.48c-.44,1.07-.88,2.14-1.32,3.21.44-1.07.88-2.14,1.32-3.21Z"/>
      <path class="cls-2" d="M903.71,775.95l.3.57s-.53-.23-.55-.19c-.01.03.24-.38.24-.38Z"/>
      <path class="cls-52" d="M737.73,645.59c-.4-4.21,4.49-6.73,7.74-4.03,33.12,27.52,56.94,91.96,49.93,139.75-7.66,52.2-45.81,99.04-96.45,119.35-4.96,1.99-8.88-4.48-4.83-7.95,10.59-9.08,21.44-17.45,29.66-28.36,3.05-4.05-1.59-9.4-6.03-6.96-23.7,13.01-47.03,26.34-75.37,25.25-30-1.15-56.13-11.87-82.25-30.45-3.37-2.4-2.19-7.69,1.88-8.45,35.89-6.68,68.24-15.38,97.35-33.15,42.23-25.79,70.61-61.53,78.31-111.59.78-5.05,2.26-30.07.06-53.4Z"/>
      <path class="cls-51" d="M808.48,650.73c-3.84,11.42-5.09,23.11-6.22,37.95-14.03-12.93-19.62-31.26-14.62-43.8,2.35-5.9,5.5-12.72,13.33-11.26,9.66,1.81,9.78,10.32,7.51,17.11Z"/>
    </g>
    <g>
      <path class="cls-11" d="M827.96,493.87c0,2.37,0,4.88-.02,7.51-.02,2.64-.02,5.05-.02,7.25,0,2.55,0,4.66.02,6.33.01,1.67.02,4.92.02,9.76-.5.15-2.45.31-5.84.48s-6.05.26-7.95.26c-6.15,0-11.83-.61-17.03-1.82-5.2-1.22-10.39-3.45-15.58-6.7-3.69-2.37-6.64-5.38-8.83-9.01-2.2-3.63-3.3-7.78-3.3-12.44s1-8.39,3.01-11.91c2.01-3.52,5.03-6.64,9.07-9.36,4.1-2.78,9.14-4.95,15.12-6.5,5.98-1.55,12.95-2.33,20.92-2.33.76,0,1.42,0,1.98.02.56.02,1.16.02,1.8.02l3.03,19.91h-4.22c-1.11,0-3.13.07-6.04.22-2.92.15-5.68.54-8.28,1.19-3.6.85-6.45,2.22-8.53,4.11s-3.12,4.09-3.12,6.61c0,2.08.48,3.89,1.45,5.43s2.14,2.75,3.52,3.63c.56.38,1.38.81,2.48,1.27,1.1.47,2.23.82,3.41,1.05v-4.7c0-2.49-.03-5.92-.09-10.28h23.03Z"/>
      <path class="cls-11" d="M903.43,495.41c0,4.6-.87,8.88-2.61,12.83-1.74,3.96-4.46,7.51-8.15,10.68-2.9,2.49-6.39,4.39-10.46,5.69s-8.42,1.96-13.05,1.96-8.91-.62-12.92-1.87c-4.01-1.24-7.54-3.14-10.59-5.69-3.57-3.05-6.28-6.57-8.13-10.57s-2.77-8.34-2.77-13.03.82-8.7,2.46-12.48,4.12-7.18,7.43-10.2c3.05-2.75,6.61-4.85,10.68-6.28,4.07-1.44,8.63-2.15,13.67-2.15,4.78,0,9.19.64,13.25,1.93,4.06,1.29,7.7,3.33,10.92,6.11,3.52,3.05,6.11,6.51,7.78,10.39,1.67,3.88,2.5,8.11,2.5,12.68ZM878.69,495.56c0-1.85-.3-3.73-.9-5.66-.6-1.92-1.59-3.46-2.97-4.6-.67-.59-1.49-1.08-2.46-1.47-.97-.4-2.08-.59-3.34-.59s-2.27.2-3.21.59c-.94.4-1.86,1.02-2.77,1.87-1.14,1.12-2.02,2.57-2.64,4.36-.62,1.79-.92,3.57-.92,5.33,0,1.88.29,3.71.88,5.48.59,1.78,1.52,3.27,2.81,4.47.76.73,1.64,1.3,2.64,1.7,1,.4,2.12.59,3.38.59,1.11,0,2.16-.2,3.14-.59.98-.4,1.87-.95,2.66-1.65,1.26-1.14,2.19-2.65,2.79-4.51.6-1.86.9-3.63.9-5.31Z"/>
      <path class="cls-11" d="M502.97,601.6l-23.07,4.35-5.19-26.89h-.44c-.35,1.08-1.05,3.35-2.11,6.81s-2.33,7.81-3.82,13.05h-17.4c-1.7-6.06-3.03-10.56-4-13.49s-1.67-5.05-2.11-6.37h-.44c-.47,2.26-1.18,5.97-2.13,11.14-.95,5.17-1.9,10.42-2.83,15.75l-22.54-4.35c3.28-15.15,5.81-27.38,7.58-36.69,1.77-9.32,2.92-15.25,3.45-17.8l23.47-2.07c.53,1.76,1.54,5.21,3.05,10.37,1.51,5.16,3.23,10.93,5.16,17.31h.44c1.76-5.21,3.64-10.88,5.65-17.01,2.01-6.12,3.19-9.68,3.54-10.68l24.57,2.07c.26,1.49,1.13,6.88,2.59,16.17,1.46,9.29,3.66,22.06,6.59,38.32Z"/>
      <path class="cls-11" d="M573.61,599.82l-24.18,6.48c-.47-1.79-1-3.82-1.6-6.11-.6-2.29-1.06-4.03-1.38-5.23h-16.2c-.17.7-.6,2.39-1.29,5.08-.69,2.68-1.24,4.77-1.65,6.26l-23.44-6.48c.82-2.02,3.75-9.33,8.79-21.94,5.04-12.61,9.26-23.23,12.66-31.87h27.03c3.93,10.02,8.31,21.12,13.14,33.32,4.83,12.2,7.54,19.03,8.13,20.49ZM542.74,581.17c-.61-2.22-1.32-4.92-2.13-8.08-.81-3.16-1.54-5.97-2.2-8.43l-.26-.03c-.62,2.38-1.38,5.31-2.27,8.82-.9,3.5-1.57,6.08-2.01,7.72v.04s8.88,0,8.88,0v-.04Z"/>
      <path class="cls-11" d="M628.69,604.81c-2.11,0-6.34,0-12.7-.02-6.36-.01-11.13-.02-14.33-.02-3.49,0-7.01,0-10.57.02s-7.52.02-11.89.02c0-4.75.01-10.3.04-16.68.03-6.37.04-11.23.04-14.57,0-6.88-.02-12.79-.04-17.73-.03-4.94-.04-8.23-.04-9.87h24.13c0,3.25-.02,6.68-.04,10.28-.03,3.6-.04,7.69-.04,12.26,0,2.84.01,6.01.04,9.51.03,3.5.04,5.84.04,7.01,1.49,0,3.08,0,4.77.02,1.68.02,3.2.02,4.55.02,2.02,0,4.79,0,8.31-.02,3.52-.01,6.09-.02,7.73-.02v19.78Z"/>
      <path class="cls-11" d="M699.73,599.82l-24.18,6.48c-.47-1.79-1-3.82-1.6-6.11s-1.06-4.03-1.38-5.23h-16.2c-.17.7-.6,2.39-1.29,5.08-.69,2.68-1.24,4.77-1.65,6.26l-23.43-6.48c.82-2.02,3.75-9.33,8.79-21.94,5.04-12.61,9.26-23.23,12.66-31.87h27.03c3.93,10.02,8.31,21.12,13.14,33.32,4.83,12.2,7.54,19.03,8.13,20.49ZM668.86,581.17c-.61-2.22-1.32-4.92-2.13-8.08-.81-3.16-1.54-5.97-2.2-8.43l-.26-.03c-.62,2.38-1.38,5.31-2.27,8.82s-1.57,6.08-2.01,7.72v.04s8.88,0,8.88,0v-.04Z"/>
      <path class="cls-11" d="M762.59,550.98c-1.29,2.23-4.15,7.06-8.59,14.5-4.44,7.44-8.21,13.87-11.32,19.29,0,4.22,0,7.75.02,10.59.01,2.84.02,5.99.02,9.45h-24.13c0-2.75,0-5.5.02-8.24.01-2.74.02-6.58.02-11.54-2.96-5.24-6.52-11.38-10.68-18.41s-7.24-12.25-9.23-15.64l23.73-6.46c1.61,3.28,3.12,6.36,4.53,9.23s2.84,5.74,4.31,8.61h.09c2.14-4.42,3.87-8,5.21-10.74,1.33-2.74,2.47-5.11,3.41-7.1l22.59,6.46Z"/>
      <path class="cls-11" d="M818.9,586.79c0,3.52-1.02,6.48-3.05,8.9-2.04,2.42-4.81,4.45-8.33,6.09-3.02,1.41-6.99,2.42-11.91,3.05-4.92.63-9.51.95-13.75.95-3.9,0-7.05-.04-9.47-.13s-4.23-.16-5.43-.22l-2.68-19.03c.32.03,1.94.09,4.86.18,2.92.09,4.83.13,5.73.13h4.04c1.52,0,3-.04,4.44-.13,1.96-.15,3.21-.43,3.74-.86s.79-.9.79-1.43c0-.64-.34-1.17-1.01-1.58s-1.93-.97-3.78-1.67c-1-.38-2.48-.99-4.46-1.82-1.98-.84-3.54-1.6-4.68-2.31-2.7-1.64-4.64-3.55-5.84-5.74-1.2-2.18-1.8-4.59-1.8-7.23,0-1.67.31-3.29.92-4.86s1.46-2.91,2.55-4.02c2.9-3.05,7.18-5.44,12.83-7.19,5.65-1.74,12.58-2.61,20.79-2.61,3.6,0,6.33.03,8.17.09s3.15.12,3.91.18l2.64,19.03c-1.35-.06-2.63-.12-3.84-.18-1.22-.06-2.73-.09-4.55-.09-1.64,0-3.07.02-4.28.07-1.22.04-2.56.11-4.02.2-1.41.09-2.45.29-3.12.59-.67.31-1.01.75-1.01,1.34,0,.67.39,1.23,1.17,1.67.78.44,1.97.98,3.58,1.63,1.55.62,3.11,1.24,4.68,1.87,1.57.63,3.1,1.38,4.59,2.26,2.58,1.55,4.49,3.38,5.74,5.49,1.25,2.11,1.87,4.57,1.87,7.38Z"/>
      <path class="cls-11" d="M852.32,604.81h-24.13c0-3.46.01-7.68.04-12.66s.04-11.28.04-18.9c0-3.49-.01-7.68-.04-12.59s-.04-9.81-.04-14.7h24.13c0,3.78-.01,8.08-.04,12.9-.03,4.82-.04,9.62-.04,14.39,0,7.5.01,13.29.04,17.36s.04,8.8.04,14.19Z"/>
      <path class="cls-11" d="M927.66,599.82l-24.18,6.48c-.47-1.79-1-3.82-1.6-6.11s-1.06-4.03-1.38-5.23h-16.2c-.17.7-.6,2.39-1.29,5.08-.69,2.68-1.24,4.77-1.65,6.26l-23.43-6.48c.82-2.02,3.75-9.33,8.79-21.94,5.04-12.61,9.26-23.23,12.66-31.87h27.03c3.93,10.02,8.31,21.12,13.14,33.32,4.83,12.2,7.54,19.03,8.13,20.49ZM896.79,581.17c-.61-2.22-1.32-4.92-2.13-8.08-.81-3.16-1.54-5.97-2.2-8.43l-.26-.03c-.62,2.38-1.38,5.31-2.27,8.82s-1.57,6.08-2.01,7.72v.04s8.88,0,8.88,0v-.04Z"/>
    </g>
    <g>
      <path class="cls-54" d="M722.23,224.38l-38.31,66.35c-3.09-1.57-5.19-6.78-6.28-16.57-.53-4.7-5.12-3-8.21-1.94-4.45,1.51-8.73,3.59-13.24,4.79-1.57.42-3.63-1.06-5.46-1.67,10.37-21.4-22.52-16.17-19.19-29.55,2.7-10.87-1.72-12.45-8.48-15.78-9.6-4.73-11.6-11.55-1.94-17.64,10.09-6.36,8.2-11.15,1.04-18.32-8.16-8.16-6.69-15.5,5.79-14.95,19.04.84,17.97-7.34,7.94-20.87,2.41-.1,4.73-.05,6.98.12,10.12,2.71,20.08,5.83,29.86,9.31,4.11,2.09,8.12,4.31,12.16,6.4,1.2,5.12,6.65,9.6-3.28,14.01-19.3,8.58-24.43,23.58-15.52,38.11,8.69,14.18,30.71,19.45,41.75,5.72,6.03-7.51,10.44-8.84,14.39-7.52Z"/>
      <path class="cls-43" d="M684.89,174.06s-.01-.02-.01-.03l.12.09s-.07-.04-.11-.06Z"/>
      <path class="cls-40" d="M531.73,144.9c2.82-.06,4.42,3.24,2.61,5.4-13.19,15.7-24.14,34.88-51.38,28.92-9.33-2.04-10.55,9.35-14.32,15.67-17.98,30.23-51.09,36.21-75.76,10.97-7.1-7.27-14.2-12.96-22.27-16.96-2.52-1.25-2.48-4.86.06-6.07,48.99-23.27,103.52-36.75,161.07-37.93Z"/>
      <path class="cls-5" d="M551.77,164.88c7.08-16.63,13.94-19.87,32.57-18.72,13.57.83,19.71,9.21,22.79,22.39,3.73,15.96-3.29,24.16-17.87,26.12-9.92,1.33-18.52,10.08-29.01,11.68-.14-.94-.47-1.79-.98-2.55-.07-2.17-.14-4.33-.21-6.5.6-2.91,1.18-5.82-2.02-7.46,0,0-.52-.84-.52-.84,1.73-7.44,10.44-16.72-4.22-19.96-.41-.09-.36-2.72-.52-4.16Z"/>
      <path class="cls-61" d="M343.03,216.87c-7.92-12.2-14.02-15.49-19.68-9.83-18.63,18.64-40.38,33.56-59.54,51.65-10,9.45-17.73,20.79-26.04,31.78,11.54,11.29,12.67,2.12,16.27-.77,29.92-23.97,59.38-48.48,88.99-72.83Z"/>
      <path class="cls-4" d="M714.86,204.77c-2.22,5.58-3.85,11.71-10.41,13.14-4.7,1.03-14.08-7.8-13.03-12.2,1.54-6.5,5.76-11.36,13.04-11.01,5.9.28,8.85,4.67,10.41,10.07Z"/>
    </g>
    <g>
      <path class="cls-13" d="M212.23,378.07c4.12,1.17,8.28,2.2,12.34,3.55,5.82,1.94,10.6,4.79,15.49-3.31,3.35-5.53,11.58-4.22,18.03-2.71,2.48.58,3.14,2.26,3.19,4.74.61,27.79-18.01,42.72-45.27,35.98-5.12-1.27-8.97.54-12.99,3.05-5.74,3.59-11.92,6.58-17.31,10.62-7.45,5.58-10.83-.35-13.16-4.96-2.97-5.89,3.95-5.16,6.62-6.63,7.94-4.37,17.05-4.82,26.84-6.41-7.2-12.15-18.71-19.4-27.6-28.98,1.72-3.68,5.78-2.51,8.23-4.43,8.47-3.28,17.1,1.65,25.59-.51Z"/>
      <path class="cls-47" d="M362.72,322.05c18.14-1.16,46.97,13.1,46.75,24.05-.4,19.4-10.26,33.45-28.78,41.83-15.32,6.93-29.5,11.24-45.45,1.67-17.64-10.57-38.27-13.04-57.52-19.3-9.48-3.08-15.76-10.78-4.03-16.71,28.65-14.49,58.72-25.96,89.04-31.54Z"/>
      <path class="cls-32" d="M308.17,428.06c-29.01-7.81-16.79-16.6-19.22-23.71-2.68-7.86,29.54-5.95,52.03,2.24,10.79,3.93,20.09,7.85,17.33,14.87-7.96,20.26-10.94,21.05-50.14,6.6Z"/>
      <path class="cls-60" d="M499.2,334.31c-15.27,5.53-28.86,5.63-42.71-13.1-2.42-3.27-8.37-16.37.27-16.84,15.16-.82,29.02,8.41,42.44,29.94Z"/>
      <path class="cls-57" d="M645.83,350.78c-4.37-1.3-19.24-8.17-24.22-9.15-12.2-2.41-33.34-16.61-32.29-21.14.58-2.5,4.63-3.08,11.75-.67,16.61,5.63,37.35,19.05,38.13,19.09,3.9,1.43,9.55,1.68,10.01,8.21.11,1.69-.15,4.62-3.38,3.66Z"/>
      <path class="cls-37" d="M535.03,308.41c-1.26-3.24.11-5.77,4.41-6,11.08-.6,21.78,1.04,28.56,12.04,1.65,2.68,1.45,10.39-3.15,9.71-10.8-1.59-23.22-1.12-29.82-15.75Z"/>
      <path class="cls-41" d="M671.75,308.96c-12.95-2.32-25.97-4.84-39.18-7.47,4.7,11.97,14.4,18.58,22.72,29.47-18.19-4.19-33.12-10.25-48-16.41-19.14-7.94-37.6-17.28-55.47-27.77-4.35-2.56-8.86-4.81-13.98-5.12-7.71-.47-13.53,2.13-16.63,9.9-5.28,13.21-13.87,17.48-27.71,13.28-8.59-2.61-16.78-6.5-25.24-9.56-9.17-3.32-18.13-3.04-24.71,4.98-6.73,8.21-2.74,16.35,1.95,24.03,1.21,1.99,2.98,3.67,3.97,5.75,1.72,3.56,7.7,6.79,3.6,10.98-3.46,3.53-8.2-.3-11.93-2.07-9.74-4.64-18.22-11.32-25.86-18.76-27.83-27.07-59.17-28.85-93.37-14.33-31.62,13.44-62.09,29.51-94.69,40.68-10.25,3.51-20.55,6.82-30.96,9.76-2.77.78-5.14-2.12-3.81-4.67h0c3.63-7,9.46-12.65,16.62-15.95,8.87-4.09,17.63-8.41,26.3-12.97,42.24-22.25,80.78-49.36,113.35-84.68,17.29-18.75,22.68-19.02,44.93-6.58,12.29,6.87,23.84,14.83,34,24.58,6,5.76,10.88,5.38,15.67-1.3,9.32-13.02,18.89-25.87,28.1-38.97,10.62-15.09,21.64-17.03,35.87-4.44,14.25,12.59,27.5,26.32,41.25,39.49,5.36,5.14,10.77,10.23,16.18,15.31,3.38,3.18,6.59,6.53,9.68,9.98.78.87,1.68,1.41,2.05,1.04,1.91-1.95.07-3.46-1.72-4.57-5.91-7.59-11.83-15.18-18.55-23.8-1.63-2.09.31-5.03,2.88-4.39,5.47,1.35,9.92,3.7,14.22,6.11,28.84,16.14,58.05,31.49,89.1,43.05,2.42.9,4.84,1.78,7.27,2.63,4.81,1.7,6.91,7.32,4.36,11.74h0c-.46.79-1.36,1.21-2.25,1.05Z"/>
    </g>
    <g>
      <path class="cls-38" d="M640.2,503.01c-1.3-33.06.58-38.67,12.19-37.94,14.53.9,10.77,23.5,12.31,37.94,1.84,17.17-3.44,25.11-13.58,24.76-9.37-.33-10.8-12.26-10.92-24.76Z"/>
      <path class="cls-47" d="M596.64,475.22c5.69-8.02,12.55-8.23,19.35-6.62,5.72,1.35,10,3.77,8.35,11.91-2.13,10.56-2.24,21.53-3.16,32.33-.59,6.9-2.52,12.09-11.07,12.14-8.38.05-10.94-4.65-11.35-11.79-.75-13.05-1.46-26.11-2.12-37.97Z"/>
      <path class="cls-14" d="M706.2,514.14c-1.9,9.71-5.67,12.8-11.87,12.55-5.96-.23-10.26-2.82-10.77-9.32-1.08-13.49-2.2-26.99-2.9-40.5-.45-8.58,5.21-11.38,12.58-10.71,6.85.63,15.01.53,14.59,11.05-.54,13.52-1.19,27.03-1.63,36.92Z"/>
      <path class="cls-54" d="M471.91,503.41c2.53-6.59.26-13.15-.3-19.67-.99-11.4,5.6-15.43,15.28-15.81,10.02-.39,13.49,4.84,11.81,14.79-1.28,7.53-.78,15.35-1.63,22.98-.83,7.44,2.51,17.76-9.51,19.08-11.8,1.3-12.18-9.17-15.16-16.65l-.09.43c1.41-2.03,1.98-3.95-.73-5.43l.34.28Z"/>
      <path class="cls-41" d="M578.73,483.85c-1.63,7.06-.97,15.48.39,24.1,1.62,10.27-3.54,18.95-13.22,19.02-9.48.06-11.6-9.66-11.21-18.4.45-10.14.75-20.29,1.71-30.39.45-4.7-.51-11.78,6.06-12.3,6.08-.48,12.78,1,17.95,5.19,4.69,3.8,2.63,7.74-1.69,12.78Z"/>
      <path class="cls-57" d="M511.33,496.04c.57-6.76-.29-14.06,2.04-20.14,3.37-8.78,12.54-7.23,19.86-6.83,7.71.42,10.2,5.76,9.5,13.13-.78,8.24-1.65,16.52-1.56,24.77.11,9.78-3.57,16.22-13.62,17.01-11.22.88-13.6-6.68-13.97-15.98-.16-4.02-1.47-7.99-2.26-11.98,0,0,0,.02,0,.02Z"/>
      <path class="cls-4" d="M431.26,503.01c-1.3-33.06.58-38.67,12.19-37.94,14.53.9,10.77,23.5,12.31,37.94,1.84,17.17-3.44,25.11-13.58,24.76-9.37-.33-10.8-12.26-10.92-24.76Z"/>
      <path class="cls-52" d="M722.63,503.41c2.53-6.59.26-13.15-.3-19.67-.99-11.4,5.6-15.43,15.28-15.81,10.02-.39,13.49,4.84,11.81,14.79-1.28,7.53-.78,15.35-1.63,22.98-.83,7.44,2.51,17.76-9.51,19.08-11.8,1.3-12.18-9.17-15.16-16.65l-.09.43c1.41-2.03,1.98-3.95-.73-5.43l.34.28Z"/>
    </g>
  </g>
  <g>
    <path class="cls-39" d="M769.1,340.71c1.8-.26,1.53,3.93,0,4.47,1.35.83,1.75,5.16,0,5.96,1.4.83,2.19,4.7,0,5.21,1.77.52,1.69,5.14,0,5.96,2.08.76,2.08,4.76,0,5.96,2.38.46,2.04,5.02,0,5.96,2.36.41,2.01,4.28,0,5.21,2.35.42,2.09,5.04,0,5.96l-.66,2c-7.87,5.13-22.9,11.61-32.3,11.13-4.39-.22-11.69-1.31-13.21-5.69-.68-16.07.5-32.32,0-48.41,15.62,14.7,30.97,4.97,46.17-3.72Z"/>
    <path class="cls-49" d="M780.27,403.27c2.21-.44,3.36,3.35,1.49,4.47,1.01,1.05.55,1.5-.74.74-16.26,6.62-36.38,20.53-54.38,15.28-5.14-1.5-3.67-1.66-3.71-7.08,19.98,9.27,39.05-5.81,56.59-13.41.25-.65.5-.65.74,0Z"/>
    <path class="cls-42" d="M778.04,398.05c-14.94,6.72-33.34,19.66-50.5,14.38-5.31-1.64-4.96-1.96-4.61-7.67,12.28,7.52,26.64,1.85,38.48-3.59,5.24-2.41,9.99-5.89,15.14-8.32.25-.65.5-.65.74,0,2.29-.04,2.8,4.48.74,5.21Z"/>
    <path class="cls-42" d="M775.06,387.63c.66.2.65.45,0,.74-14.38,6.18-28.24,16.96-44.85,13.2-7.52-1.7-6.99-1.81-7.28-8.73,16.14,10.11,31.73-.2,46.18-7.45.18-2.16,3.71-3.81,5.21-2.23,2.27.4,2.66,3.31.74,4.47Z"/>
    <path class="cls-49" d="M838.36,388.37c11.73-5.16,25.49-26.2,39.67-21.43,4.63,1.56,11.25,7.93,11.76,12.82.08.73.42,2.86-.78,2.64-15.75-27.51-34.85,2.99-50.65,11.18-.21.66-.45.65-.74,0-2.48,0-1.8-3.4,0-4.47-.7-.96-.28-1.32.74-.74Z"/>
    <path class="cls-42" d="M840.6,376.46c12.18-7.64,28.03-29.93,43.2-16.76,3.43,2.98,6.92,7.5,5.94,12.29-1.44-.96-2.06-3.02-3.34-4.47-17.08-19.46-32.95,7.98-48.04,14.9-1.99-1.6-.92-3.07.74-4.47-1.08-1.8-.39-2.34,1.49-1.49Z"/>
    <path class="cls-42" d="M839.11,398.8c11.83-6.09,23.32-24.18,38.18-21.42,4.9.91,15.14,10.58,12.84,16.21-3.67-4.74-7.84-10.82-14.35-11.75-12.21-1.76-26.35,16.49-36.67,22.18-.2.66-.45.65-.74,0-2.5,0-1.76-3.28,0-4.47-.59-1.02-.23-1.35.74-.74Z"/>
    <path class="cls-42" d="M840.6,408.48c9.99-6.3,23.77-22.72,35.95-20.67,5.69.96,15.48,9.93,13.58,16.2-17.59-26.1-33.26-.17-49.53,9.69-.2.66-.45.65-.74,0-2.09-.4-1.62-2.27-.74-3.72-1.1-1.79-.39-2.34,1.49-1.49Z"/>
    <path class="cls-42" d="M842.09,418.16c12.86-8.58,28.98-30.21,43.92-13.75,1.16,1.28,4.12,5.18,4.46,6.72.14.67.63,4.12-.7,4.05-13.79-25.75-32.13-2.98-46.93,7.45-2.04.31-2.51-1.32-1.49-2.98-1.81-.95-1.26-1.88.74-1.49Z"/>
    <path class="cls-49" d="M842.09,365.28c8.03-5.31,18.68-19.02,28.67-20.11s19.31,6.46,18.99,16.38c-1.22-.31-1.26-2.17-2.22-3.36-16.99-20.85-30.88,2.81-46.18,11.55-2.65-1.02-.89-2.9.74-4.47Z"/>
    <path class="cls-42" d="M844.32,427.1c10.28-5.94,22.77-23.55,36.27-16.53,2.71,1.41,8.97,7.54,9.72,10.38.22.82.89,4.52-.55,4.65-14.21-24.56-29.74-4.53-43.95,5.96-2.15.63-3.18-2.37-1.49-3.72-.66-.2-.65-.45,0-.74Z"/>
    <path class="cls-19" d="M823.47,373.48c.66.18.65.43,0,.74,2.29,1.13,2.6,3.48.74,5.21l-2.45-.38c-7.62-8.08-17.98-11.24-28.77-8.35l-2.3-.96c-2.26-.92-2.59-3.67-.74-5.21-1.02-1.01-.57-1.44.74-.74,13.49-3.64,23.04.35,32.77,9.68Z"/>
    <path class="cls-42" d="M830.17,410.72c2.1-.41,2.34.82.74,2.23,2.27,1.06,2.53,2.72.74,4.47-.34-.09-3.75-4.25-4.86-5.19-7.43-6.31-14.22-9.66-24.18-9.7-1.81.3-3.55.3-5.21,0-2.21.44-3.36-3.35-1.49-4.47-.96-1.06-.53-1.49.74-.74,4.25-3.53,13.16-1.27,18.21.7,5.95,2.32,12.91,6.61,15.3,12.7Z"/>
    <path class="cls-12" d="M845.81,431.57c1.03,5.02-.87,6.56-5.26,9.26-4.01,2.46-10.99,4.48-15.55,2.99-3.24-1.06-11.25-9.06-11.96-12.25.27-1.92.47-3.13,2.23-1.49l2.09.45c7.62,10.46,17.47,7.77,26.41.68l2.04.36Z"/>
    <path class="cls-42" d="M789.95,352.62c12.7-3.48,28.45-.36,32.03,13.77l-9.45-6.94c-7.42-3.71-14.7-3.76-22.58-1.62-1.46-1.7-1.46-3.51,0-5.21Z"/>
    <path class="cls-19" d="M789.95,340.71c9.67-2.71,17.95-1.37,25.68,5.23,2.77,2.37,4.47,4.22,3,8.17-7.86-9.08-17.46-10.65-28.68-7.44-2-.59-1.8-3.77-.74-5.21-1.03-1-.59-1.43.74-.74Z"/>
    <path class="cls-42" d="M791.44,328.79c10.73-2.39,24.32,1.28,26.06,13.41-8.65-8.08-15.15-10.5-26.8-7.45-1.97-1.37-1.02-4.7.74-5.96Z"/>
    <path class="cls-20" d="M831.66,422.63c1.05-1.11,1.54-.86,1.49.74,2.76,1.85,1.28,3.54-1.49,4.47-.45,5.14-7.1,4.65-11.17,2.98-1.33,1.25-3.82.07-5.21-.74-.69.23-1.49,1.15-2.23,1.49-.37-1.65-.42-4.65-.74-6.7-.02-2.87,2.97-2.78,5.4-2.68l7.28,1.08c1.88-1.08,3.61-1.78,5.19-2.12.49.46,1.19,1.26,1.49,1.49Z"/>
    <path class="cls-59" d="M790.7,334.75c-.22,1.94.49,4.12-.74,5.96-.24.07-.51.67-.74.74l-1.49,2.1-13.81,6.51-2.57-.42c-1.67.16-1.78-3.58-.74-4.47-1.19-.88-.69-1.88.74-1.49,1.7-3.32,7.66-6.03,11.38-7.59,2.99-1.96,5.65-2.41,7.98-1.35Z"/>
    <path class="cls-24" d="M826.45,417.42c1.65,1.35,2.44,2.53,3.72,3.72-4.68,8.06-11.38-.49-17.87,3.72-.35-2.21-.47-4.49-.74-6.7-.09-3.48,3.9-3.25,6.65-2.79l8.24,2.04Z"/>
    <path class="cls-7" d="M789.95,346.67c-.02,2.01.36,4.11-.74,5.96l-1.1,1.95c-4.97,2.31-9.83,4.84-14.59,7.61l-2.18-.62c-1.71-.39-1.29-3.83-.74-5.21-1.25-1.49-.34-2.44,1.49-1.49l.47-1.98c5.02-2.79,10.19-5.38,15.64-7.23l1.76,1.02Z"/>
    <path class="cls-21" d="M791.44,328.79c.46,2.11-.54,4.08-.74,5.96-7.53,1.97-12.53,5.68-19.36,8.94-1.77-1.05-1.42-3.1,0-4.47,6.68-3.82,12.2-8.67,20.11-10.43Z"/>
    <path class="cls-59" d="M789.95,358.58c.02,1.63-.55,4.2.74,5.21-.22.06-.5.67-.74.74-.47.86-1.04,1.68-1.9,2.18-2.34,1.36-9.73,4.61-12.33,5.43-.95.3-1.96.09-2.9-.17-2.66-.26-3.06-3.78-.74-5.21-.92-1.05-.42-1.51.74-.74l.71-2.1c4.61-2.55,9.36-4.93,14.45-6.39l1.97,1.04Z"/>
    <path class="cls-18" d="M844.32,427.1c.07.23-.06.51,0,.74-.36,3.93-9.09,7.3-12.95,7.68-3.51.35-11.14-.55-10.88-4.7,1.86-.93,3.71.33,6.16-.16,1.97-.39,3.74-2.34,5.01-2.82,3.09-1.84,6.3-3.65,9.62-5.43l1.55.96c.45,1.42,1.18,2.72,1.49,3.72Z"/>
    <path class="cls-59" d="M792.19,380.92c1.48.46,2.23,2.2,2.23,5.21.98,1.05.55,1.47-.74.74-1.66,1.94-4.15,3.19-7.49,3.76-3.19,1.88-6.16,2.62-8.9,2.19-.2.1-.54-.1-.74,0,.46-1.8-1.19-3.38-1.49-4.47-.06-.23.06-.51,0-.74,1.83-2.91,11.33-7.29,14.7-7.57.89-.07,1.71.39,2.43.86Z"/>
    <path class="cls-50" d="M789.95,357.84c0,.25,0,.5,0,.74-5.73,1.27-11.98,4.55-17.13,7.45-2.6,1.34-3.5-3.22-1.49-4.47,5.88-2.59,11.59-7.02,17.87-8.94.23-.07.51.06.74,0,0,1.74,0,3.48,0,5.21Z"/>
    <path class="cls-59" d="M794.42,392.1c2.14.33,3.12,3.39,2.23,5.21-.19.02-.53.71-.74.74l-1.1,1.7c-4.47.74-8.61,2.52-12.71,4.35l-1.82-.84c-.21.09-.54-.09-.74,0l-.74-5.21.68-1.94c3.23-2.09,11.83-6.12,14.96-4.01Z"/>
    <path class="cls-16" d="M840.6,371.24c-.32,1.55-1.37,4.34,0,5.21-.51.32-.98,1.21-1.49,1.49-1.92,4.22-10.65,5.73-14.15,2.98-1.94.71-2.13.05-.74-1.49-.29-1.71-.48-3.49-.74-5.21l1.6-1.11c4.81,1.17,9.49-.43,13.76-2.64l1.78.76Z"/>
    <path class="cls-29" d="M842.09,365.28c-.69,1.39-.45,3.15-.74,4.47-.11.48-.65,1.03-.74,1.49-5.57,2.9-10.76,4.95-17.13,2.98-.04-.24.04-.5,0-.74-.23-1.47-1.01-2.89-.74-4.47,6.75,2.03,13.65.05,19.36-3.73Z"/>
    <path class="cls-7" d="M802.62,402.52l-4.47.75,1.49,5.2c-5.4.42-11.26,1.86-16.02,4.47l-2.6-4.46c.25-.1.48-.64.74-.74l.2-1.68c4.57-1.9,9.24-3.49,14.02-4.78l1.43,1.25c1.48-.22,3.6,0,5.21,0Z"/>
    <path class="cls-3" d="M793.68,386.88c2.45-.06,2.63,4.09.74,5.21-6.37,1.16-10.07,3.48-15.64,5.96-.21.09-.54-.09-.74,0l-.74-5.21c5.76-2.69,10.13-4.53,16.38-5.96Z"/>
    <path class="cls-20" d="M826.45,417.42c-5.07,2.34-9.68-3.42-14.9.74-.25-1.98-.5-3.97-.74-5.96-.27-1.76.97-2.5,3.72-2.23,4.2,1.39,8.52,4.67,11.92,7.45Z"/>
    <path class="cls-22" d="M838.36,383.16c-.17,1.21-.56,2.35-.71,3.47-.13,1.05.69,1.6.71,1.75.05.44-.32.72-.74.74-.61,3.62-9.5,5.25-11.17,2.23-2.24-2.29-2.49-4.03-.74-5.21v-.74c1.46-1.26,3.55-1.8,6.27-1.64,2.49-1.11,4.62-1.31,6.4-.6Z"/>
    <path class="cls-25" d="M839.11,377.95c.2,1.57-.48,2.99-.74,4.47-.04.24.03.5,0,.74-4.31,2.03-7.82,2.72-12.66,2.23-1.58-1.47-2.51-2.92-.74-4.47,1.83-.77,3.78.1,6.13-.19,1.83-.22,6.37-1.89,8.02-2.79Z"/>
    <path class="cls-23" d="M839.11,398.8c.07.64-.51.58-.74.74-.23,3.24-7.83,5.14-9.68,2.98-1.63-.63-2.85-2.96-1.49-4.47-.52-1.1-.54-1.7.74-1.49.74-1.14,2.12-1.78,4.13-1.9,2.38-1.65,4.22-2.01,5.55-1.08.2-.1.55.1.74,0-.72,1.9.63,4.13.74,5.21Z"/>
    <path class="cls-10" d="M840.6,408.48c-.52.33-1,1.22-1.49,1.49-.06,2.82-6.24,4.81-8.19,2.98-.17-.85-.62-1.62-.74-2.23-1.45-1.77-1.7-3.01-.74-3.72,1.61-1.71,6.63-3.73,8.94-2.98.2-.1.56.1.74,0-.06,1.61-.44,3.85,1.49,4.47Z"/>
    <path class="cls-23" d="M842.09,418.16c-.29.19-.48,1.33-.74,1.49.45,2.4-6.42,4.9-8.19,3.72-1.18.21-1.08-.42-1.49-.74,1.42-.93.26-3.58,0-5.21,1.99-1.52,4.14-2.98,6.47-4.38l1.72.66c.19-.11.56.11.74,0l1.49,4.47Z"/>
    <path class="cls-56" d="M841.34,419.65c.78.78,1.2,1.94,1.49,2.98.07.23-.07.52,0,.74-2.34.85-4.21,2.61-6.49,3.57-1.73.73-3.66.52-4.69.9,1.13-1.3,1.76-2.7,1.49-4.47,2.09-1.75,6.12-2.45,8.19-3.72Z"/>
    <path class="cls-55" d="M771.34,339.22c-.04,1.49.06,2.98,0,4.47-.01.37-.74,1.09-.74,1.49-.24,1.98-.92,1.89-1.49,0v-4.47c.52-.3,1.24-.92,2.23-1.49Z"/>
    <path class="cls-53" d="M814.53,409.97l-3.72,2.23c-.14-1.11-.18-1.94-.74-2.97,1.53-.09,3.04.26,4.47.74Z"/>
    <path class="cls-45" d="M754.96,364.54l2.96-3.72-.73,3.72,2.22-.74-.73,2.98c4.35-3.24,3.33-.56.74,2.23l3.72.74c-1.8.19-3.33,1.24-4.45,2.62l2.22,2.6h-4.47s.74,4.48.74,4.48l-2.96-2.23-.76,5.21-1.85-3.73c-2.87,5.42-4.02,5.34-1.87-.74l-2.97,1.49,1.48-3.72-3.71.38c1-1.23,3.3-1.36,2.98-3.35l-2.98-1.49c8.29.54,1.17-3.39,2.24-4.48l3.71,1.49-.73-5.21,2.6,2.22,2.6-4.45.02,3.72Z"/>
    <path class="cls-17" d="M748.24,360.83l-6,1.06c-14.48,3.21-13.4,25.54,1.53,25.74.13,1.04-2.91,1.43-3.46,1.43-11.25.08-16.6-18.66-8.48-25.66,4.41-3.8,11.01-4.12,16.4-2.58Z"/>
    <path class="cls-28" d="M772.82,377.95c2.25-.31,3.4,3.21,1.49,4.47.64.25.64.5,0,.74-1.5,1.14-3.74,1.49-5.21,2.23v-5.96c.21-2.14,2.24-3.37,3.72-1.49Z"/>
    <path class="cls-15" d="M772.82,372.73c2.23.93,1.92,3.27,0,4.47.66.18.65.43,0,.74l-3.72,1.49v-5.21c.21-2.14,2.24-3.37,3.72-1.49Z"/>
    <path class="cls-33" d="M772.82,371.99c.64.25.64.5,0,.74l-3.72,1.49v-5.96c.43-2.11,1.16-3.16,2.98-1.49-.62,1.86.61,3.85.74,5.21Z"/>
    <path class="cls-31" d="M772.82,366.03s.06.27-.74.74c-.95.56-2.02.95-2.98,1.49v-5.96c.22-2,.77-2.16,2.23-.74.18,1.59.21,3.28,1.49,4.47Z"/>
    <path class="cls-46" d="M770.59,345.18c0,.28.7,2.9.74,4.47,1.4,1.45,1.23,1.79-.74,1.49-.24,1.98-.92,1.89-1.49,0v-5.96h1.49Z"/>
    <path class="cls-48" d="M770.59,356.35c1.42,1.05.56,3.58.74,5.21-.73.32-1.41.69-2.23.74v-5.96c.42-1.96.9-1.88,1.49,0Z"/>
    <path class="cls-36" d="M770.59,351.13c1.97-.89,3.02,2.46,1.49,3.72-.52.3-1.03,1.26-1.49,1.49-.28.14-1.05-.1-1.49,0v-5.21h1.49Z"/>
    <path class="cls-6" d="M795.91,398.05l1.49,4.47c-3.71.54-11.82,3.71-15.64,5.21l-1.49-4.47c5.95-2.53,8.98-4.16,15.64-5.21Z"/>
    <path class="cls-58" d="M791.44,375.71c2.83-.27,3.14,4.33.74,5.21-6.06,1.54-11.39,4.43-17.13,6.7-.35-1.44-.44-3.02-.74-4.47-.05-.24.05-.51,0-.74,3.3-3.97,12.05-7.94,17.13-6.7Z"/>
    <path class="cls-25" d="M837.62,393.59c-3.09,1.47-5.64,3.56-9.68,2.98-1.97-.83-3.43-3.64-1.49-5.21,2.62.62,8.94-.6,11.17-2.23v4.47Z"/>
    <path class="cls-56" d="M838.36,404.01c-2.85,1.45-5.18,3.62-8.94,2.98-2.18-.46-2.47-1.56-.74-2.98-.62-.79-.62-1.28,0-1.49,3.15-.85,6.95-1.05,9.68-2.98v4.47Z"/>
    <path class="cls-26" d="M839.85,413.69c-2.06,1.17-5.22,4.49-8.19,3.72-.24-1.48-.46-2.99-.74-4.47,2.86-.96,5.48-1.51,8.19-2.98,1.21.64.7,2.53.74,3.72Z"/>
    <path class="cls-25" d="M845.81,431.57c-11.57,8.54-20.71,12.01-30.54-1.49,3.29-1.1,2.72-.54,5.21.74,1.33.68,2.43,1.8,3.95,2.38,7.4,2.84,13.93-1.21,19.89-5.36.38,1.35,1.31,2.86,1.49,3.72Z"/>
    <path class="cls-27" d="M824.21,379.44c.12.69.7,1.26.74,1.49.27,1.5.46,2.95.74,4.47.05.24-.05.51,0,.74l-2.41-.3c-7.51-7.64-17.46-11.75-28.16-9.76l-2.2-1.11c-3.95,1.75-5.23-3.68-2.23-5.21,13.95-3.78,23.72-.72,33.51,9.68Z"/>
    <path class="cls-58" d="M789.95,364.54c.37,1.72.5,3.48.74,5.21l-1.44,1.98-14.04,6.1-2.39-.64c-.21-1.36.15-3.04,0-4.47-.03-.25.02-.5,0-.74,5.54-2.93,11.1-5.62,17.13-7.45Z"/>
    <path class="cls-27" d="M828.68,404.01c.24,1,.51,1.95.74,2.98.29,1.28.49,2.44.74,3.72-9.39-9.82-19.51-14.99-33.51-13.41-1.3-1.13-1.86-3.58-2.23-5.21,2.49-3.09,8.64-2.49,12.51-2.04,8.12.94,18.58,6.15,21.75,13.96Z"/>
    <path class="cls-6" d="M789.21,341.45c1.27,1,.76,3.6.74,5.21-5.5,1.57-12.84,5.29-17.87,8.19-.42-.48-1.49-3.52-1.49-3.72,0-.37.75-1.16.74-1.49,6.17-2.88,11.39-6.07,17.87-8.19Z"/>
    <path class="cls-27" d="M826.45,391.35c.3,1.54,1.45,3.57,1.49,5.21.01.56-.36,1.1-.74,1.49l-1.81.04c-7.46-8.02-17.7-12.65-28.97-10.77l-1.99-1.18c-1.98.75-2.01-3.35-2.23-5.21,2.04-3.33,9.24-3.22,13.06-2.79,8.24.93,17.32,5.9,21.2,13.22Z"/>
    <path class="cls-19" d="M827.19,398.05c1.49,2.33.95,2.41,1.49,4.47.11.42-.11,1.05,0,1.49-10.2-10.54-19.49-14.6-34.26-11.92-.35-1.51-.3-3.6-.74-5.21.24-.05.54-.71.74-.74,5.92-1.11,12.13-.86,17.86,1.14,4.19,1.46,12.53,7.05,14.91,10.78Z"/>
    <path class="cls-49" d="M825.7,386.14c.33,1.7.43,3.58.74,5.21-.73-.17-7.49-6.48-9.74-7.76-8.48-4.8-15.26-5.01-24.52-2.67-.2-1.68.41-3.6-.74-5.21-.57-.65-.07-.89,1.49-.74,13.64-2.8,23.42,1.57,32.77,11.17Z"/>
    <path class="cls-59" d="M790.7,369.75c.27,1.92-1,5.24,2.23,5.21-.24.05-.85.58-1.49.74-6.05,1.6-11.39,4.38-17.13,6.7-.3-1.55-1.35-3.6-1.49-4.47-.04-.24.04-.5,0-.74,6.12-2.35,11.44-5.7,17.87-7.45Z"/>
  </g>
</svg>