<?xml version="1.0" encoding="UTF-8"?>
<svg id="Layer_1" data-name="Layer 1" xmlns="http://www.w3.org/2000/svg" viewBox="0 0 800 800">
  <defs>
    <style>
      .cls-1 {
        fill: #1765ae;
      }

      .cls-2 {
        letter-spacing: .25em;
      }

      .cls-3 {
        letter-spacing: .17em;
      }

      .cls-4 {
        fill: #fff;
      }

      .cls-5 {
        fill: #91b8d6;
      }

      .cls-6 {
        font-family: Caramella, Caramella;
        font-size: 105.88px;
      }

      .cls-7 {
        fill: #134b75;
      }

      .cls-8 {
        fill: #148cc6;
      }
    </style>
  </defs>
  <g>
    <path d="M645.63,310.14c-.79-.3-19.79-7.39-48.68-8.94-3.35-.18-6.92-.28-10.69-.28-10.53,0-22.56.83-35.52,3.18,3.19-17.59,3.58-33.48,2.9-46.22-1.55-28.89-8.64-47.88-8.94-48.68l-1.14-3.01-3.17.52c-.84.13-20.83,3.49-46.63,16.59-11.37,5.77-24.93,14.05-38.57,25.6-6.04-16.82-13.64-30.76-20.61-41.46-15.79-24.25-31.42-37.15-32.09-37.69l-2.49-2.04-2.49,2.04c-.66.54-16.29,13.44-32.09,37.69-6.96,10.69-14.56,24.63-20.61,41.46-13.64-11.55-27.2-19.83-38.57-25.6-25.8-13.11-45.79-16.46-46.63-16.59l-3.17-.52-1.14,3.01c-.3.79-7.39,19.79-8.94,48.68-.68,12.74-.3,28.62,2.9,46.22-17.59-3.19-33.48-3.58-46.22-2.9-28.89,1.55-47.88,8.64-48.68,8.94l-3.01,1.14.52,3.17c.13.84,3.49,20.83,16.59,46.63,12.08,23.78,35.1,57.12,76.16,80.83,35.89,20.72,71.27,25.83,97.4,25.83,3.76,0,7.32-.11,10.68-.28,23.65-1.27,40.66-6.25,46.49-8.19.3-.09.56-.19.79-.27.24.08.5.17.79.27,5.83,1.94,22.84,6.92,46.49,8.19,3.35.18,6.92.28,10.68.28,26.13,0,61.5-5.11,97.4-25.83,41.06-23.71,64.08-57.04,76.16-80.83,13.11-25.8,16.46-45.79,16.59-46.63l.52-3.17-3.01-1.14ZM497.04,230.46c18.86-9.61,34.75-13.83,41.34-15.31,2.01,6.45,6.31,22.32,7.41,43.46.68,12.9.2,29.17-3.38,47.18-16.93,3.83-35.17,10.35-53.54,20.95-9.1,5.25-17.31,10.98-24.71,16.96,1.49-9.4,2.34-19.37,2.34-29.88,0-21.22-3.47-40.27-8.62-56.85,13.82-12.1,27.66-20.65,39.17-26.52ZM451.42,262.89c4.34,15.04,7.2,32.1,7.2,50.93,0,13.67-1.51,26.42-4,38.14-20.49,18.94-33.73,39.47-41.92,55.61-.03.06-.06.12-.09.18,0-.07.02-.13.02-.2.18-3.35.28-6.92.28-10.68,0-16.52-2.05-36.74-8.79-58.45,3.71-11.38,8.77-23.17,15.61-35.01,9.42-16.31,20.42-29.65,31.69-40.51ZM371.86,212c11.53-17.76,23.18-29.36,28.14-33.93,4.96,4.58,16.62,16.18,28.14,33.93,7.03,10.83,14.75,25.16,20.66,42.55-12.75,11.79-25.28,26.55-35.89,44.93-5.26,9.1-9.5,18.17-12.92,27.06-3.41-8.89-7.66-17.95-12.92-27.06-10.61-18.38-23.14-33.13-35.89-44.93,5.91-17.39,13.63-31.72,20.66-42.55ZM348.58,262.89c11.27,10.87,22.27,24.2,31.69,40.51,6.84,11.84,11.9,23.63,15.61,35.01-8.28,26.65-9.48,51.05-8.51,69.13,0,.07,0,.13.02.2-.03-.06-.06-.12-.09-.18-6.04-11.89-14.82-26.18-27.21-40.44-4.43-5.09-9.32-10.19-14.71-15.17-2.49-11.72-4-24.46-4-38.14,0-18.83,2.86-35.89,7.2-50.93ZM254.21,258.61c1.1-21.14,5.4-37.02,7.41-43.46,6.59,1.48,22.48,5.7,41.34,15.31,11.51,5.87,25.36,14.42,39.17,26.52-5.15,16.58-8.62,35.63-8.62,56.85,0,10.51.85,20.49,2.34,29.89-7.4-6-15.62-11.72-24.71-16.97-18.37-10.61-36.61-17.12-53.54-20.94-3.58-18.02-4.06-34.29-3.38-47.19ZM352,459.62c-25.5,1.34-64.15-1.84-103.42-24.52-39.28-22.68-61.35-54.56-72.95-77.31-9.61-18.86-13.83-34.75-15.31-41.34,6.45-2.01,22.32-6.31,43.46-7.41,12.9-.68,29.17-.2,47.18,3.38,3.83,16.93,10.35,35.17,20.95,53.54,23.71,41.06,57.04,64.08,80.83,76.16,12.54,6.37,23.73,10.43,31.99,12.95-8.1,1.87-19.36,3.84-32.73,4.54ZM356.03,434.97c-22.75-11.6-54.63-33.67-77.31-72.94-9.42-16.31-15.47-32.51-19.24-47.71,15.2,3.77,31.4,9.82,47.71,19.24,11.85,6.85,22.12,14.52,31.02,22.53,6.16,27.21,17.33,48.94,27.21,64.11,7.69,11.79,15.33,20.91,21.24,27.21-7.95-2.43-18.69-6.36-30.63-12.44ZM371.86,415.65c-7.87-12.12-16.59-28.6-22.68-48.85,14.49,15.4,24.41,31.2,30.97,44.07,4.97,9.76,8.51,18.72,10.96,26.01.35,1.72.71,3.35,1.06,4.86-5.67-6.08-13.01-14.85-20.31-26.09ZM404.78,406.83c-.57,10.96-2,20.5-3.53,28.06h0c-.46,1.36-.87,2.65-1.25,3.89-.38-1.24-.79-2.53-1.25-3.89-1.53-7.55-2.96-17.1-3.53-28.06-.76-14.43-.06-33.07,4.78-53.65,4.85,20.58,5.54,39.22,4.78,53.65ZM408.9,436.88h0c2.45-7.3,5.99-16.26,10.96-26.02,6.56-12.87,16.48-28.67,30.97-44.07-6.09,20.25-14.82,36.74-22.68,48.85-7.29,11.24-14.63,20.01-20.31,26.09.35-1.51.72-3.13,1.06-4.85ZM434.57,420.2c9.88-15.17,21.05-36.89,27.21-64.11,8.9-8.01,19.17-15.69,31.02-22.53,16.31-9.42,32.51-15.47,47.71-19.24-3.77,15.2-9.82,31.4-19.24,47.71-22.68,39.28-54.56,61.35-77.31,72.94-11.94,6.08-22.68,10.01-30.63,12.44,5.9-6.3,13.55-15.42,21.24-27.21ZM624.37,357.79c-11.6,22.75-33.67,54.63-72.94,77.31-39.28,22.68-77.92,25.85-103.42,24.52-13.36-.7-24.62-2.67-32.72-4.54,8.26-2.52,19.44-6.58,31.98-12.95,23.78-12.09,57.12-35.1,80.83-76.16,10.61-18.37,17.12-36.61,20.95-53.54,18.01-3.58,34.28-4.06,47.18-3.38,21.14,1.1,37.02,5.4,43.46,7.41-1.48,6.59-5.7,22.48-15.32,41.34Z"/>
    <path class="cls-7" d="M392.16,441.74c-5.67-6.08-13.01-14.85-20.31-26.09-7.87-12.12-16.59-28.6-22.68-48.85,14.49,15.4,24.41,31.2,30.97,44.07,4.97,9.76,8.51,18.72,10.96,26.01.35,1.72.71,3.35,1.06,4.86Z"/>
    <path class="cls-7" d="M404.78,406.83c-.57,10.96-2,20.5-3.53,28.06h0c-.46,1.36-.87,2.65-1.25,3.89-.38-1.24-.79-2.53-1.25-3.89-1.53-7.55-2.96-17.1-3.53-28.06-.76-14.43-.06-33.07,4.78-53.65,4.85,20.58,5.54,39.22,4.78,53.65Z"/>
    <path class="cls-7" d="M450.83,366.8c-6.09,20.25-14.82,36.74-22.68,48.85-7.29,11.24-14.63,20.01-20.31,26.09.35-1.51.72-3.13,1.06-4.85h0c2.45-7.3,5.99-16.26,10.96-26.02,6.56-12.87,16.48-28.67,30.97-44.07Z"/>
    <path class="cls-4" d="M639.69,316.45c-1.48,6.59-5.7,22.48-15.32,41.34-11.6,22.75-33.67,54.63-72.94,77.31-39.28,22.68-77.92,25.85-103.42,24.52-13.36-.7-24.62-2.67-32.72-4.54,8.26-2.52,19.44-6.58,31.98-12.95,23.78-12.09,57.12-35.1,80.83-76.16,10.61-18.37,17.12-36.61,20.95-53.54,18.01-3.58,34.28-4.06,47.18-3.38,21.14,1.1,37.02,5.4,43.46,7.41Z"/>
    <path class="cls-1" d="M540.51,314.32c-3.77,15.2-9.82,31.4-19.24,47.71-22.68,39.28-54.56,61.35-77.31,72.94-11.94,6.08-22.68,10.01-30.63,12.44,5.9-6.3,13.55-15.42,21.24-27.21,9.88-15.17,21.05-36.89,27.21-64.11,8.9-8.01,19.17-15.69,31.02-22.53,16.31-9.42,32.51-15.47,47.71-19.24Z"/>
    <path class="cls-4" d="M542.41,305.79c-16.93,3.83-35.17,10.35-53.54,20.95-9.1,5.25-17.31,10.98-24.71,16.96,1.49-9.4,2.34-19.37,2.34-29.88,0-21.22-3.47-40.27-8.62-56.85,13.82-12.1,27.66-20.65,39.17-26.52,18.86-9.61,34.75-13.83,41.34-15.31,2.01,6.45,6.31,22.32,7.41,43.46.68,12.9.2,29.17-3.38,47.18Z"/>
    <path class="cls-8" d="M458.62,313.82c0,13.67-1.51,26.42-4,38.14-20.49,18.94-33.73,39.47-41.92,55.61-.03.06-.06.12-.09.18,0-.07.02-.13.02-.2.18-3.35.28-6.92.28-10.68,0-16.52-2.05-36.74-8.79-58.45,3.71-11.38,8.77-23.17,15.61-35.01,9.42-16.31,20.42-29.65,31.69-40.51,4.34,15.04,7.2,32.1,7.2,50.93Z"/>
    <path class="cls-5" d="M448.8,254.55c-12.75,11.79-25.28,26.55-35.89,44.93-5.26,9.1-9.5,18.17-12.92,27.06-3.41-8.89-7.66-17.95-12.92-27.06-10.61-18.38-23.14-33.13-35.89-44.93,5.91-17.39,13.63-31.72,20.66-42.55,11.53-17.76,23.18-29.36,28.14-33.93,4.96,4.58,16.62,16.18,28.14,33.93,7.03,10.83,14.75,25.16,20.66,42.55Z"/>
    <path class="cls-8" d="M387.37,407.55c0,.07,0,.13.02.2-.03-.06-.06-.12-.09-.18-6.04-11.89-14.82-26.18-27.21-40.44-4.43-5.09-9.32-10.19-14.71-15.17-2.49-11.72-4-24.46-4-38.14,0-18.83,2.86-35.89,7.2-50.93,11.27,10.87,22.27,24.2,31.69,40.51,6.84,11.84,11.9,23.63,15.61,35.01-8.28,26.65-9.48,51.05-8.51,69.13Z"/>
    <path class="cls-4" d="M333.51,313.82c0,10.51.85,20.49,2.34,29.89-7.4-6-15.62-11.72-24.71-16.97-18.37-10.61-36.61-17.12-53.54-20.94-3.58-18.02-4.06-34.29-3.38-47.19,1.1-21.14,5.4-37.02,7.41-43.46,6.59,1.48,22.48,5.7,41.34,15.31,11.51,5.87,25.36,14.42,39.17,26.52-5.15,16.58-8.62,35.63-8.62,56.85Z"/>
    <path class="cls-1" d="M386.66,447.41c-7.95-2.43-18.69-6.36-30.63-12.44-22.75-11.6-54.63-33.67-77.31-72.94-9.42-16.31-15.47-32.51-19.24-47.71,15.2,3.77,31.4,9.82,47.71,19.24,11.85,6.85,22.12,14.52,31.02,22.53,6.16,27.21,17.33,48.94,27.21,64.11,7.69,11.79,15.33,20.91,21.24,27.21Z"/>
    <path class="cls-4" d="M384.73,455.08c-8.1,1.87-19.36,3.84-32.73,4.54-25.5,1.34-64.15-1.84-103.42-24.52-39.28-22.68-61.35-54.56-72.95-77.31-9.61-18.86-13.83-34.75-15.31-41.34,6.45-2.01,22.32-6.31,43.46-7.41,12.9-.68,29.17-.2,47.18,3.38,3.83,16.93,10.35,35.17,20.95,53.54,23.71,41.06,57.04,64.08,80.83,76.16,12.54,6.37,23.73,10.43,31.99,12.95Z"/>
  </g>
  <text class="cls-6" transform="translate(71.93 603.57)"><tspan class="cls-2" x="0" y="0">R</tspan><tspan class="cls-3" x="84.49" y="0">AW</tspan><tspan class="cls-2" x="296.36" y="0">ANAH</tspan></text>
</svg>