<?xml version="1.0" encoding="UTF-8"?>
<svg id="Layer_1" data-name="Layer 1" xmlns="http://www.w3.org/2000/svg" viewBox="0 0 800 800">
  <defs>
    <style>
      .cls-1, .cls-2 {
        fill: #2c1111;
      }

      .cls-3 {
        font-family: CaviarDreams-Bold, 'Caviar Dreams';
        font-size: 58.94px;
        font-weight: 700;
      }

      .cls-4 {
        letter-spacing: .2em;
      }

      .cls-5 {
        letter-spacing: .2em;
      }

      .cls-6 {
        letter-spacing: .19em;
      }

      .cls-2 {
        font-family: 'moon_get-Heavy', 'MOON GET!';
        font-size: 114.63px;
        font-weight: 800;
        letter-spacing: .05em;
      }
    </style>
  </defs>
  <g>
    <path class="cls-1" d="M520.07,297.63c-.71,6.25-1.56,12.38-2.53,18.34-2.54,15.65-18.74,25.03-33.59,19.46-16.74-6.29-33.59-13.59-48.66-21.68-33-17.68-57.56-39.18-54.1-62.12,0-10.66,6.5-18.71,15.67-25.79,13.14-10.1,31.74-18.17,44.54-28.87,8.99-7.52,15.11-16.36,14.42-28.16-2.01-24.2-21.95-41.85-43.02-53.88-5.42-3.1-2.41-11.35,3.73-10.22,98.25,18.04,112.29,115.11,103.52,192.94Z"/>
    <path class="cls-1" d="M416.24,412.47c-29.05-.98-61.7-9.55-92.37-29.77-10-6.6-18.41-15.42-24.26-25.88-47.09-84.16-12.13-208.94,47.41-244.98l.12-.07c7.23-4.39,16.11-5.13,23.94-1.92,1.12.46,2.25.94,3.39,1.45,19.07,8.46,39.66,23.78,39.94,50.41v.69c.13,28.31-10.41,40.86-23.45,49.97-20.87,14.58-48.15,20.28-48.36,67.66-.15,33,43.28,75.9,82.67,108.02,10.15,8.27,4.05,24.88-9.03,24.44Z"/>
  </g>
  <g>
    <text class="cls-2" transform="translate(127.36 568.39)"><tspan x="0" y="0">RAZAK</tspan></text>
    <text class="cls-3" transform="translate(130.91 678.61)"><tspan class="cls-4" x="0" y="0">COFFEE &amp;</tspan><tspan class="cls-6" x="380.48" y="0"> </tspan><tspan class="cls-5" x="411.93" y="0">TEA</tspan></text>
  </g>
</svg>