<?xml version="1.0" encoding="UTF-8"?>
<svg id="Layer_1" data-name="Layer 1" xmlns="http://www.w3.org/2000/svg" viewBox="0 0 800 800">
  <defs>
    <style>
      .cls-1 {
        fill: #13a89e;
      }

      .cls-2 {
        font-family: CaviarDreams, 'Caviar Dreams';
      }

      .cls-3 {
        font-size: 56.02px;
        letter-spacing: .5em;
      }

      .cls-4 {
        fill: #fff;
      }

      .cls-5 {
        font-family: CaviarDreams-Bold, 'Caviar Dreams';
        font-weight: 700;
      }
    </style>
  </defs>
  <g>
    <path d="M261.48,437.03v1.14c-.02,1.97-1.6,3.56-3.57,3.56H83.33c-1.99.01-3.57-1.59-3.57-3.56v-1.14c0-.43.07-.85.2-1.25l64.76-174.71c.52-1.4,1.86-2.33,3.34-2.33h45.07c1.48,0,2.82.93,3.34,2.33l64.78,174.74c.15.38.21.8.21,1.23Z"/>
    <path d="M420.39,440.78c.05,1.98-1.59,3.65-3.59,3.65h-47.46c-1.95,0-3.48-1.57-3.56-3.5-1.07-29.93-16.07-45.39-39.67-46.91v46.86c0,1.98-1.61,3.57-3.57,3.57h-44.23c-1.98,0-3.57-1.61-3.57-3.57v-178.56c0-1.98,1.59-3.57,3.57-3.57h86.89c29.97,0,54.26,21.03,54.27,65.53,0,26.18-8.47,44.18-21.5,54.61,13.35,15.21,21.69,35.88,22.43,61.9ZM326.09,345.35c0,.93.8,1.66,1.79,1.66h20.89c10.42,0,18.85-7.97,18.85-21.14s-8.44-21.14-18.85-21.14h-20.89c-.98,0-1.79.75-1.79,1.66v38.96Z"/>
    <path d="M552.53,262.31v36.51c0,1.97-1.59,3.57-3.57,3.57h-62.56v26.02h54.34c1.97,0,3.57,1.59,3.57,3.57v36.51c0,1.97-1.59,3.57-3.57,3.57h-54.34v66.08c0,1.97-1.59,3.57-3.57,3.57h-44.21c-1.97,0-3.57-1.59-3.57-3.57v-175.84c0-1.98,1.59-3.57,3.57-3.57h110.35c1.97,0,3.57,1.59,3.57,3.57Z"/>
    <path d="M656.61,261.06l64.78,174.74c.14.39.21.8.21,1.23v1.14c-.02,1.97-1.61,3.56-3.57,3.56h-44.93c-1.48,0-2.82-.93-3.34-2.32l-9.72-26.29h-58.45l-9.85,26.31c-.52,1.39-1.86,2.32-3.34,2.32h-44.94c-1.98,0-3.57-1.61-3.57-3.57v-1.14c0-.43.07-.84.21-1.25l64.76-174.72c.52-1.39,1.86-2.32,3.34-2.32h45.07c1.48,0,2.82.93,3.34,2.32ZM643.39,368.19l-12.65-33.79-12.53,33.79h25.18Z"/>
    <g>
      <path class="cls-4" d="M218.82,425.68l-7.65-16.95-2.93-6.49-17.22-38.2c-.12-.28-.18-.58-.18-.88l.48-22.88c.02-1.11.93-2,2.04-2h1.17c1.16,0,2.08-.96,2.04-2.12l-.37-9.44c-.04-1.09-.94-1.96-2.04-1.96h-47.11c-1.1,0-2,.86-2.04,1.96l-.37,9.44c-.04,1.16.88,2.12,2.04,2.12h1.17c1.11,0,2.02.89,2.04,2l.48,22.88c0,.3-.06.6-.18.88l-14.21,31.52-1.84,4.09-11.74,26.03c-3.65,8.1,2.27,17.27,11.16,17.27h74.09c8.89,0,14.81-9.17,11.16-17.27ZM214.52,435.14c-1.53,2.37-4.03,3.73-6.85,3.73h-74.09c-2.82,0-5.32-1.36-6.85-3.73-1.53-2.37-1.74-5.21-.58-7.78l12.42-27.55,2-4.44c8.63-.12,18.57,1.11,27.95,5.48,1.44.67,2.88,1.42,4.29,2.25,10.67,6.27,23.25,7.16,34.14,6.13l8.17,18.13c1.16,2.57.95,5.41-.58,7.78Z"/>
      <path class="cls-1" d="M214.52,435.14c-1.53,2.37-4.03,3.73-6.85,3.73h-74.09c-2.82,0-5.32-1.36-6.85-3.73-1.53-2.37-1.74-5.21-.58-7.78l12.42-27.55,2-4.44c8.63-.12,18.57,1.11,27.95,5.48,1.44.67,2.88,1.42,4.29,2.25,10.67,6.27,23.25,7.16,34.14,6.13l8.17,18.13c1.16,2.57.95,5.41-.58,7.78Z"/>
      <circle class="cls-1" cx="185.92" cy="391.11" r="7.25"/>
      <circle class="cls-1" cx="161.25" cy="371.9" r="6.19"/>
      <circle class="cls-1" cx="164.88" cy="388.71" r="3.63"/>
      <circle class="cls-1" cx="177.24" cy="357.81" r="2.2"/>
      <circle class="cls-1" cx="180.87" cy="375.53" r="3.63"/>
    </g>
  </g>
  <text class="cls-3" transform="translate(77.65 525.29)"><tspan class="cls-2" x="0" y="0">BIO</tspan><tspan class="cls-5" x="176.69" y="0">RESEARCH</tspan></text>
</svg>