<?xml version="1.0" encoding="UTF-8"?>
<svg id="Layer_1" data-name="Layer 1" xmlns="http://www.w3.org/2000/svg" viewBox="0 0 800 800">
  <defs>
    <style>
      .cls-1 {
        fill: #31a248;
      }

      .cls-2 {
        fill: #1765ae;
      }

      .cls-3 {
        fill: #2d2e75;
      }

      .cls-4 {
        fill: #fff;
      }

      .cls-5 {
        fill: #9b383a;
      }

      .cls-6 {
        font-family: THEBOLDFONT-FREEVERSION, 'THE BOLD FONT';
        font-size: 129.71px;
        letter-spacing: .5em;
      }
    </style>
  </defs>
  <g>
    <path d="M543.92,307.41c0,39.75-16.11,75.73-42.15,101.77-26.04,26.04-62.01,42.15-101.77,42.15-79.48,0-143.92-64.43-143.92-143.92,0-26.22,7.01-50.8,19.27-71.97,6.31-10.92,14.02-20.93,22.89-29.8,26.04-26.04,62.03-42.15,101.76-42.15s75.73,16.11,101.77,42.15c8.87,8.87,16.58,18.88,22.89,29.8,12.26,21.17,19.26,45.76,19.26,71.97Z"/>
    <path d="M542.47,164.94c-36.45-36.46-86.84-59.02-142.47-59.02s-106.02,22.56-142.47,59.02c-36.46,36.46-59.02,86.83-59.02,142.47,0,111.28,90.21,201.49,201.49,201.49,55.63,0,106.02-22.56,142.47-59.02,36.46-36.46,59.02-86.83,59.02-142.47s-22.56-106.01-59.02-142.47ZM522.13,429.54c-31.26,31.25-74.44,50.58-122.13,50.58-95.38,0-172.71-77.32-172.71-172.71,0-47.69,19.33-90.87,50.59-122.13,31.25-31.25,74.43-50.58,122.12-50.58s90.87,19.33,122.13,50.58c31.25,31.26,50.58,74.44,50.58,122.13s-19.33,90.88-50.58,122.13Z"/>
    <path class="cls-4" d="M522.13,185.29c-31.26-31.25-74.44-50.58-122.13-50.58s-90.87,19.33-122.12,50.58c-31.26,31.26-50.59,74.44-50.59,122.13,0,95.39,77.33,172.71,172.71,172.71,47.69,0,90.87-19.33,122.13-50.58,31.25-31.25,50.58-74.43,50.58-122.13s-19.33-90.87-50.58-122.13ZM501.77,409.18c-26.04,26.04-62.01,42.15-101.77,42.15-79.48,0-143.92-64.43-143.92-143.92,0-26.22,7.01-50.8,19.27-71.97,6.31-10.92,14.02-20.93,22.89-29.8,26.04-26.04,62.03-42.15,101.76-42.15s75.73,16.11,101.77,42.15c8.87,8.87,16.58,18.88,22.89,29.8,12.26,21.17,19.26,45.76,19.26,71.97,0,39.75-16.11,75.73-42.15,101.77Z"/>
    <path class="cls-2" d="M543.92,307.41c0,39.75-16.11,75.73-42.15,101.77-26.04,26.04-62.01,42.15-101.77,42.15-79.48,0-143.92-64.43-143.92-143.92,0-26.22,7.01-50.8,19.27-71.97,6.31-10.92,14.02-20.93,22.89-29.8,26.04-26.04,62.03-42.15,101.76-42.15s75.73,16.11,101.77,42.15c8.87,8.87,16.58,18.88,22.89,29.8,12.26,21.17,19.26,45.76,19.26,71.97Z"/>
    <g>
      <path class="cls-3" d="M400,307.41v143.92c-79.48,0-143.92-64.43-143.92-143.92,0-26.22,7.01-50.8,19.27-71.97l34.9,20.15,12.87,7.44,60.79,35.11,8.43,4.86,7.66,4.42Z"/>
      <path class="cls-5" d="M524.66,235.44l-34.9,20.15-82.09,47.4-7.67,4.42-7.66-4.42-8.43-4.86-60.79-35.11-12.87-7.44-34.9-20.15c6.31-10.92,14.02-20.93,22.89-29.8,26.04-26.04,62.03-42.15,101.76-42.15s75.73,16.11,101.77,42.15c8.87,8.87,16.58,18.88,22.89,29.8Z"/>
      <path class="cls-1" d="M543.92,307.41c0,39.75-16.11,75.73-42.15,101.77-26.04,26.04-62.01,42.15-101.77,42.15v-143.92l7.67-4.42,82.09-47.4,34.9-20.15c12.26,21.17,19.26,45.76,19.26,71.97Z"/>
    </g>
    <rect x="296.38" y="203.79" width="207.25" height="207.25" rx="103.62" ry="103.62"/>
    <circle class="cls-4" cx="400.01" cy="307.42" r="8.85"/>
    <circle class="cls-4" cx="357.47" cy="273.74" r="35.98"/>
  </g>
  <text class="cls-6" transform="translate(158.67 663.64)"><tspan x="0" y="0">SPOT</tspan></text>
</svg>