<?xml version="1.0" encoding="UTF-8"?>
<svg id="Layer_1" xmlns="http://www.w3.org/2000/svg" version="1.1" viewBox="0 0 800 800">
  <!-- Generator: Adobe Illustrator 29.7.1, SVG Export Plug-In . SVG Version: 2.1.1 Build 8)  -->
  <defs>
    <style>
      .st0 {
        fill: #31a248;
      }

      .st1 {
        fill: #1765ae;
      }

      .st2 {
        fill: #2d2e75;
      }

      .st3 {
        isolation: isolate;
      }

      .st4 {
        fill: #fff;
      }

      .st5 {
        fill: #9b383a;
      }
    </style>
  </defs>
  <g>
    <path d="M543.92,307.41c0,39.75-16.11,75.73-42.15,101.77-26.04,26.04-62.01,42.15-101.77,42.15-79.48,0-143.92-64.43-143.92-143.92,0-26.22,7.01-50.8,19.27-71.97,6.31-10.92,14.02-20.93,22.89-29.8,26.04-26.04,62.03-42.15,101.76-42.15s75.73,16.11,101.77,42.15c8.87,8.87,16.58,18.88,22.89,29.8,12.26,21.17,19.26,45.76,19.26,71.97h0Z"/>
    <path d="M542.47,164.94c-36.45-36.46-86.84-59.02-142.47-59.02s-106.02,22.56-142.47,59.02c-36.46,36.46-59.02,86.83-59.02,142.47,0,111.28,90.21,201.49,201.49,201.49,55.63,0,106.02-22.56,142.47-59.02,36.46-36.46,59.02-86.83,59.02-142.47s-22.56-106.01-59.02-142.47h0ZM522.13,429.54c-31.26,31.25-74.44,50.58-122.13,50.58-95.38,0-172.71-77.32-172.71-172.71,0-47.69,19.33-90.87,50.59-122.13s74.43-50.58,122.12-50.58,90.87,19.33,122.13,50.58c31.25,31.26,50.58,74.44,50.58,122.13s-19.33,90.88-50.58,122.13h0Z"/>
    <path class="st4" d="M522.13,185.29c-31.26-31.25-74.44-50.58-122.13-50.58s-90.87,19.33-122.12,50.58-50.59,74.44-50.59,122.13c0,95.39,77.33,172.71,172.71,172.71,47.69,0,90.87-19.33,122.13-50.58,31.25-31.25,50.58-74.43,50.58-122.13s-19.33-90.87-50.58-122.13h0ZM501.77,409.18c-26.04,26.04-62.01,42.15-101.77,42.15-79.48,0-143.92-64.43-143.92-143.92,0-26.22,7.01-50.8,19.27-71.97,6.31-10.92,14.02-20.93,22.89-29.8,26.04-26.04,62.03-42.15,101.76-42.15s75.73,16.11,101.77,42.15c8.87,8.87,16.58,18.88,22.89,29.8,12.26,21.17,19.26,45.76,19.26,71.97,0,39.75-16.11,75.73-42.15,101.77h0Z"/>
    <path class="st1" d="M543.92,307.41c0,39.75-16.11,75.73-42.15,101.77-26.04,26.04-62.01,42.15-101.77,42.15-79.48,0-143.92-64.43-143.92-143.92,0-26.22,7.01-50.8,19.27-71.97,6.31-10.92,14.02-20.93,22.89-29.8,26.04-26.04,62.03-42.15,101.76-42.15s75.73,16.11,101.77,42.15c8.87,8.87,16.58,18.88,22.89,29.8,12.26,21.17,19.26,45.76,19.26,71.97h0Z"/>
    <g>
      <path class="st2" d="M400,307.41v143.92c-79.48,0-143.92-64.43-143.92-143.92,0-26.22,7.01-50.8,19.27-71.97l34.9,20.15,12.87,7.44,60.79,35.11,8.43,4.86,7.66,4.42h0Z"/>
      <path class="st5" d="M524.66,235.44l-34.9,20.15-82.09,47.4-7.67,4.42-7.66-4.42-8.43-4.86-60.79-35.11-12.87-7.44-34.9-20.15c6.31-10.92,14.02-20.93,22.89-29.8,26.04-26.04,62.03-42.15,101.76-42.15s75.73,16.11,101.77,42.15c8.87,8.87,16.58,18.88,22.89,29.8h0Z"/>
      <path class="st0" d="M543.92,307.41c0,39.75-16.11,75.73-42.15,101.77-26.04,26.04-62.01,42.15-101.77,42.15v-143.92l7.67-4.42,82.09-47.4,34.9-20.15c12.26,21.17,19.26,45.76,19.26,71.97h0Z"/>
    </g>
    <rect x="296.38" y="203.79" width="207.25" height="207.25" rx="103.62" ry="103.62"/>
    <circle class="st4" cx="400.01" cy="307.42" r="8.85"/>
    <circle class="st4" cx="357.47" cy="273.74" r="35.98"/>
  </g>
  <g class="st3">
    <g class="st3">
      <path d="M182.02,664.29c-2.98-.91-5.84-2.21-8.56-3.89-4.54-2.98-8.17-6.88-10.9-11.8-2.59-4.8-3.89-10.12-3.89-15.7h21.92c0,2.59.52,4.54,1.69,5.97,1.3,1.69,2.33,2.59,2.98,2.98,1.43.91,3.11,1.56,5.06,1.69,1.69.13,3.5-.26,5.32-1.04,1.17-.52,2.21-1.17,2.98-1.95.91-1.04,1.43-1.82,1.69-2.33.26-.39.52-1.04.65-2.08.13-.39.13-1.04.13-1.69s0-1.3-.13-1.69c-.13-1.04-.39-1.82-.65-2.21-.26-.52-.78-1.3-1.69-2.33-.65-.65-1.69-1.3-2.98-1.95-.65-.26-1.56-.65-2.98-1.17l-3.5-1.17c-1.95-.65-4.28-1.43-6.75-2.33-2.33-.91-4.67-2.08-7-3.5-3.11-2.08-5.71-4.41-7.65-7.13-1.95-2.72-3.5-5.84-4.41-9.21-.91-3.5-1.3-6.88-.91-10.25.26-3.5,1.17-6.75,2.85-9.99,1.43-2.85,3.37-5.45,5.84-7.65,2.21-2.21,4.8-3.89,7.78-5.19,2.98-1.17,5.97-1.95,9.21-2.21,3.37-.26,6.75,0,9.99.91,3.37.78,6.36,1.95,8.95,3.63,2.72,1.69,5.06,3.63,7,6.1,1.95,2.46,3.37,5.06,4.41,8.04,1.04,2.98,1.56,6.1,1.56,9.21h-21.92c0-1.95-.65-3.37-1.82-4.15-1.3-.78-2.46-1.3-3.37-1.56h-.13c-.13-.13-.39-.13-.52-.26h-.52c-.65-.13-1.43-.13-2.21,0-.39.13-1.3.39-2.59.91-.91.52-1.56,1.3-2.08,2.33-.65,1.43-.78,2.85-.39,4.28s1.17,2.72,2.59,3.63c1.17.65,2.59,1.3,4.02,1.82,1.17.52,2.72,1.04,4.67,1.69.91.26,2.46.78,4.54,1.43.91.39,2.46.91,4.54,1.82,5.84,2.72,10.25,6.49,13.49,11.42,3.24,5.06,4.8,10.64,4.8,16.73s-1.56,11.54-4.8,16.6c-3.24,4.93-7.65,8.69-13.49,11.42-2.21,1.04-4.41,1.82-6.88,2.33-2.59.39-4.93.65-7,.65-2.98,0-5.97-.39-8.95-1.17Z"/>
      <path d="M352.72,623.82c-2.08,4.8-4.93,8.95-8.43,12.71-3.63,3.63-7.78,6.49-12.58,8.56-4.54,2.08-9.73,3.24-15.31,3.37v15.18h-21.92v-95.21h21.92c5.58.13,10.77,1.3,15.31,3.37,4.8,2.21,9.08,5.19,12.58,8.69,3.63,3.76,6.49,7.91,8.43,12.58,1.95,4.93,2.98,10.12,2.98,15.44s-1.04,10.38-2.98,15.31ZM323.27,624.85c2.08-.91,3.89-2.21,5.45-3.89,1.69-1.69,2.85-3.5,3.76-5.58s1.3-4.41,1.3-6.88-.39-4.8-1.3-6.88c-.78-1.95-2.08-3.89-3.76-5.71-1.56-1.56-3.37-2.85-5.45-3.89-2.21-.91-4.54-1.43-6.87-1.56v36.06c2.46-.13,4.8-.78,6.87-1.69Z"/>
      <path d="M466.73,568.3c6.36,0,12.58,1.3,18.55,3.76,5.84,2.46,10.9,5.84,15.18,10.12,4.41,4.41,7.78,9.47,10.25,15.18,2.46,5.97,3.76,12.19,3.76,18.55s-1.3,12.58-3.76,18.55c-2.33,5.58-5.71,10.51-10.25,15.05s-9.47,7.78-15.18,10.25c-5.97,2.46-12.19,3.76-18.55,3.76s-12.58-1.3-18.55-3.76c-5.58-2.33-10.51-5.71-15.05-10.25s-7.91-9.47-10.25-15.05c-2.46-5.97-3.76-12.19-3.76-18.55s1.3-12.58,3.76-18.55c2.46-5.71,5.84-10.77,10.25-15.18s9.34-7.65,15.05-10.12c5.97-2.46,12.19-3.76,18.55-3.76ZM466.73,641.59c3.63,0,7-.65,9.99-2.08,3.11-1.3,5.84-3.11,8.17-5.45,2.21-2.21,4.15-4.93,5.58-8.17,1.3-3.11,1.95-6.49,1.95-9.99s-.65-6.88-1.95-9.99c-1.43-3.24-3.37-5.97-5.58-8.17s-4.93-4.15-8.17-5.58c-3.11-1.3-6.49-1.95-9.99-1.95s-6.88.65-9.99,1.95c-3.24,1.43-5.97,3.37-8.17,5.58-2.33,2.33-4.15,5.06-5.45,8.17-1.43,2.98-2.08,6.36-2.08,9.99s.65,7,2.08,9.99c1.3,3.11,3.11,5.84,5.45,8.17s5.06,4.15,8.17,5.45c2.98,1.43,6.36,2.08,9.99,2.08Z"/>
      <path d="M620.82,663.64h-21.92v-73.55h-18.16v-22.05h58.37v22.05h-18.29v73.55Z"/>
    </g>
  </g>
</svg>