<?xml version="1.0" encoding="UTF-8"?>
<svg id="Layer_1" data-name="Layer 1" xmlns="http://www.w3.org/2000/svg" viewBox="0 0 800 800">
  <defs>
    <style>
      .cls-1 {
        fill: #f9af46;
      }

      .cls-2 {
        fill: #f5a93d;
      }

      .cls-3 {
        fill: #030202;
      }

      .cls-4 {
        fill: #fefdfd;
      }

      .cls-5 {
        fill: #fad39e;
      }

      .cls-6 {
        fill: #fcf6f8;
      }

      .cls-7 {
        fill: #fcb34b;
      }

      .cls-8 {
        fill: #d92562;
      }

      .cls-9 {
        fill: #fbf1f4;
      }

      .cls-10 {
        fill: #f7ac40;
      }

      .cls-11 {
        fill: #030303;
      }

      .cls-12 {
        fill: #f4ab43;
      }

      .cls-13 {
        fill: #dbdbdb;
      }

      .cls-14 {
        fill: #eac089;
      }

      .cls-15 {
        fill: #39393b;
      }

      .cls-16 {
        fill: #d81b5c;
      }

      .cls-17 {
        fill: #dc346d;
      }

      .cls-18 {
        fill: #e2bb87;
      }

      .cls-19 {
        fill: #3a3a3c;
      }

      .cls-20 {
        fill: #fdfbfb;
      }

      .cls-21 {
        fill: #3c3c3e;
      }

      .cls-22 {
        fill: #020101;
      }

      .cls-23 {
        fill: #363637;
      }

      .cls-24 {
        fill: #de4377;
      }

      .cls-25 {
        fill: #e46a92;
      }

      .cls-26 {
        fill: #ae7637;
      }

      .cls-27 {
        fill: #fcf5f7;
      }

      .cls-28 {
        fill: #fdfafb;
      }

      .cls-29 {
        fill: #fad19a;
      }

      .cls-30 {
        fill: #fbb147;
      }

      .cls-31 {
        fill: #3f3f41;
      }

      .cls-32 {
        fill: #3e3e40;
      }

      .cls-33 {
        fill: #fafafa;
      }

      .cls-34 {
        fill: #dc3970;
      }

      .cls-35 {
        fill: #dd4276;
      }

      .cls-36 {
        fill: #ae7636;
      }

      .cls-37 {
        fill: #3d3d3f;
      }

      .cls-38 {
        fill: #bd1e2d;
      }

      .cls-39 {
        fill: #434344;
      }

      .cls-40 {
        fill: #f9b047;
      }

      .cls-41 {
        fill: #fbeef2;
      }

      .cls-42 {
        fill: #3e3e3f;
      }

      .cls-43 {
        fill: #fdf8f9;
      }

      .cls-44 {
        fill: #fab047;
      }

      .cls-45 {
        fill: #f2a12f;
      }

      .cls-46 {
        fill: #f4a333;
      }

      .cls-47 {
        fill: #3d3d3e;
      }

      .cls-48 {
        fill: #faecf1;
      }

      .cls-49 {
        fill: #d1d1d3;
      }

      .cls-50 {
        fill: #f7a12a;
      }

      .cls-51 {
        fill: #f6a027;
      }

      .cls-52 {
        fill: #f6ad44;
      }

      .cls-53 {
        fill: #fcb34a;
      }

      .cls-54 {
        fill: #da2e68;
      }

      .cls-55 {
        fill: #de4477;
      }

      .cls-56 {
        fill: #fdfdfd;
      }
    </style>
  </defs>
  <path class="cls-22" d="M511.21,680.46c.76-.49,1.47-1.49,2.13-2.98-.67,1.18-1.39,2.15-2.13,2.98ZM679.36,526.28l-58.4-76.46c0-6.25,45.34-57.99,52.09-69.09,30.53-50.11-42.32-28.79-69.5-33.74-6.7-24.52-22.19-45.08-36.92-65.27,33.06-34.11,81.76-118.29,15.16-144.55-28.2-11.14-38.4-.47-60.61,12.67-.29.18-.61.35-.92.51-11.44,6.38-18.29,14.69-20.6,24.91l-19.66,46.82c-1.45,1.02-7.29-1.43-9.67-1.88-.25-2.88-2.49-4.41-6.68-4.56-1.92-.08-4.25.14-7.01.65-35.15-7.19-64.22-6.95-99.47-.27l-56.22-110.96-106.16,50.9c-2.53,5.42,2.51,8.71,3.66,11.5-.82,5.93.06,11.65,3.11,16.84l47.18,93.92s-1.76,4.76-5.31,14.3c-10.28,13.94-19.41,28.57-27.38,43.87-1.35,5.48-3.31,9.11-5.86,10.85-17.39,1.1-69.84-3.74-81.27,3.84-3.96,2.62-3.27,5.21-4.8,7.89-1.33,4.11-1.86,8.28-1.57,12.51l59.5,75.28c-1.88,2.49-2.96,5.42-3.15,8.85-.08.96-.08,1.98,0,3.02-16.35,23.11-42.38,47.18-54.78,72.3-.55.8-.96,1.66-1.25,2.59v.02c-2.9,8.83,4.97,21.27,12,13.02l2.33,3.92h109.34l1.78-3.92,1.17,5.13c14.98,17.45,31.92,33.02,50.82,46.71l-28.94,52.01c-2.35,7.7,3.19,22.7,11.18,17.31,16.59,8.54,16.72-6.64,21.6-14.06,7.72-11.81,15.53-24.5,23.38-36.74,2.64.63,5.11-.39,7.36-3.06,44.51,17,90.18,14.32,135.5,4.5l19.9,39.6c1.27,2.23,3.29,4.31,5.89,4.7.16,7.7,1.64,14.12,9.62,13.16.53-.12,1.08-.22,1.68-.29,1.88.98,3.68,1.86,5.86,1.96,3.56,5.44,7.29,4.5,7.83-1.96,5.93-3.04,7.32-12.2,5.48-18.15-1.02-3.29-5.01-4.62-6.25-7.19-.74-1.57.47-4.56-.7-7.21-2.9-6.58-19.13-34.41-17.94-38.48,21.74-12.93,40.01-29.32,58.52-46.22,11.95-8.01,20.23-10.07,35.92-8.34l51.19,1.49c15.82,2.66,25.91-.92,30.26-10.73,1.96-5.42,6.78-4.8,1.7-14.41ZM286.47,661.86l7.81-11.73c5.21,5.66-1.29,13.12-7.81,11.73ZM515.3,669.67l-3.9-13.69c10.05-2.15,13.32,11.89,3.9,13.69ZM583.77,190.89c-5.89,15.12-13.94,29.18-22.66,42.83-2.7,4.21-14.2,22.99-16.41,24.68-3.37,2.55-3.21-.61-3.96-1.06,14.57-26.63,32.84-52.72,35.23-84.03,2.59.06,3.94,5.56,4.88,7.81,1.33,3.23,3.47,5.89,2.92,9.77ZM579.42,226.57c-4.8,14.55-16.04,30.16-24.99,42.48-1.31-2.06-5.37-.94-3.11-7.85l30.49-44.91c-.88,2.29-1.25,6.85-2.39,10.28ZM556.1,215.04c-5.54,12.12-14.02,27.01-23.19,36.43-7.44-5.11-14.45-11.12-23.32-13.83-2.47-3.43,18.7-40.38,22.52-46.59,5.7-9.22,15.04-23.87,22.33-31.43,26.22.49,7.97,41.64,1.66,55.42ZM500.68,231.23c-.82.16-3.72-.84-4.92-1.25,7.58-18.58,20.13-38.48,33.19-53.8.69-.78,5.21-6.74,5.91-2.88-6.31,8.62-30.88,57.22-34.19,57.93ZM596.99,175.77c.61-2.94-1.19-16.37,3.39-14.18,3.09,1.51,6.21,11.26,6.7,14.81,4.35,31.47-13.43,57.36-31.14,80.94-2.45,3.25-12.38,19.82-15.65,19.54-.27-8.23,9.99-15.33,13.71-21.5,7.62-12.63,16.08-33.27,17.57-47.9.55-5.48-.27-11.1.02-16.59,1.8-4.8,4.37-10.14,5.41-15.12ZM589.64,177.2c-8.79-9.36-14.39-18.02-25.44-25.4,25.2-15.63,30.84,2.45,25.44,25.4ZM566.16,140.11c-1.39,3.35-5.15,5.37-7.81,7.79-5.37.06-12.1,1.12-15.65-3.92,6.91-3.07,15.9-4.47,23.46-3.88ZM505.2,183.72c8.44-14.26,13.32-19.82,25.75-29.96l11.73.96c-24.03,17.86-41.75,43.79-52.8,71.34-.59-.35-2.66.45-3.82-.06-1.8-2.31,16-37.01,19.13-42.28ZM511.21,680.46c.76-.49,1.47-1.49,2.13-2.98-.67,1.18-1.39,2.15-2.13,2.98Z"/>
  <path class="cls-15" d="M275.05,651.56l30.73-54.91c-20.84-14.98-40.23-31-57.46-50.1h-113.45c-6.74,0-13.16-8.68-10.75-15.63-.43.86-.84,1.72-1.25,2.59v.02c-5.07,10.63-8.17,20.94,8.56,24.3,30.32,6.09,77.28-3.9,109.18.35,8.15,1.08,19.37,16.49,26.28,22.6,7.23,6.38,15.67,11.53,23.23,17.51.23,2.84-25.48,41.83-28.96,49.19-2.02,4.25-.25,7.87-.49,8.21-.63.98-5.68,1.61-7.95,6.68-6.46,14.45,12.91,27.73,23.93,16.06,2.94-3.13,2.08-8.24,5.91-10.71-5.58-2.88-9.24-9.83-7.5-16.16ZM267.49,675.31c-7.5,1.88-12.12-10.91-5.21-13.22,12.81-4.27,13.36,11.2,5.21,13.22Z"/>
  <path class="cls-15" d="M496.56,689.37c-3.86-5.05-1.66-8.64-3.27-11.42-.55-.96-4.01-1.61-5.82-4.86-9.34-16.72-17-34.9-25.11-52.25-44.57,13.49-91.06,11.71-134.83-3.94,1.12-1.72,4.11-7.79,5.19-7.97,44.16,16.12,93.73,19.7,138.65,4.5,2.7.39,19.39,37.44,22.7,43.32,1.18,2.1,4.54,2.62,5.09,3.6,2.6,4.56-1.8,9.93,8.32,15.16-.61.08-1.16.18-1.68.29-17.63,3.74,9.01,23.03,7.54,1.66,3.06.14,5.19-.61,7.83-1.96,4,15.1-14.71,26.79-24.62,13.85Z"/>
  <path class="cls-19" d="M243.43,292.51c.19-2.52-.41-4.95-1.52-7.2l-55.02-109.11,11.55-8.76c15.57,37.5,36.88,72.63,53.95,109.44,2.88,8.23-5.02,11.35-8.96,15.63Z"/>
  <path class="cls-21" d="M560.3,558.28c3.81-3.47,6.73-10.64,12.76-11.68,30.09-2.34,64.33,2.99,93.88-.04,4.97-.51,8.16-1.29,10.72-5.87-3.59,9.92-3.1,15.49-16.8,17.41-30.4,4.26-69.23-2.8-100.55.18Z"/>
  <path class="cls-15" d="M178.89,458.62c.87-4.39-1.81-6.02-3.76-8.94-16.47-24.57-38.24-47.44-55.41-71.7-3.69-6.68,1.18-13.36,4.4-19.02l1.87,10.83,60.6,76.39c.19,1.08-6.24,10.37-7.71,12.44Z"/>
  <path class="cls-31" d="M521.18,149.84c-7.11,8.95-14.14,16.88-21.52,25.42-.14.16-2.29-.47-3.98,1.35-10.61,11.48-17.92,29.88-25.36,43.59-4.13-.78-9.87-3.13-13.69-3.92,3.21-.06,5.09,1.1,7.01-.65.47-.41.92-.98,1.41-1.78,12.46-20.52,18.88-40.58,39.83-55.85,5.52-4.03,10.79-5.19,15.37-7.66.31-.16.63-.33.92-.51Z"/>
  <path class="cls-42" d="M243.43,292.51c-.69,9.12-28.3,39.78-27.72,54.45-1.22.92-3.87.16-5.54.27,5.33-21.11,18.93-39.21,33.25-54.72Z"/>
  <path class="cls-16" d="M671.79,530.92q-3.23,1.79,0,0c4.66,3.89.37,8.47-4.79,7.91l-531.71-.5c-3.1-1.42-6.61-4.2-4.39-7.36l63.75-84.96-64.62-85.94,5.74-4.14,532.68-.48c3.92,1.53,6.84,5.33,4.34,9.29l-63.26,82.82c19.1,28.93,44.02,54.22,62.26,83.37Z"/>
  <path class="cls-49" d="M300,114.81l60.32,124.42c4.38,25.34-19.93,52.85-19.11,78.68-21.67-15.62-52.04-13.15-73.14-29.5l-63.78-125.98,95.71-47.62Z"/>
  <path class="cls-7" d="M474.24,233.88c-10.06,36.91-28.08,74.39-36.94,112.19-1.81,2.57-17.47,1.08-21.73,1.16l-4.11-.9c-.02-7.78-1.25-7.48-3.71.9-12.63,1.64-25.63,1.57-38.39.95-2.69-.13-5.12-.44-7.68-1.1-6.44-1.67-9.37-50.74-4.79-58.47,5.95-18.1,14.68-35.45,9.78-54.72l5.62-4.61c33.49-5.11,71.26-10.44,101.96,4.61Z"/>
  <path class="cls-53" d="M460.54,589.55l1.53,5.66c-26.64,17.28-64.56,13.61-95.46,10.56l-3.87-4.49c-1.47-.44-3.64-1.32-3.54-2.4,1.43-15.68,5.46-39.44,13.32-52.31,6.57-.98,63.69-.78,66.53.95,7.49,13.8,14.77,27.87,21.49,42.04Z"/>
  <path class="cls-44" d="M521.18,253.42c6.81,3.45,13.11,6.03,17.46,12.98l-56.99,80.39-23.05.42,44.98-101.61c6.28.54,12.14,3.14,17.6,7.82Z"/>
  <path class="cls-10" d="M595.5,347.22h-86.05s51.83-58.58,51.83-58.58c8.06,3.35,36.86,56.2,34.22,58.58Z"/>
  <path class="cls-56" d="M538.34,251.34l-5.42.12c9.17-9.42,17.64-24.3,23.19-36.43,6.31-13.79,24.56-54.93-1.66-55.42,6.27-4.03,10.58-2.84,14.77,3.47,12.22,18.39-18.86,73.89-30.86,88.26Z"/>
  <path class="cls-40" d="M335.36,546.56c-4.26,6.2-20.88,41.13-26.34,41.12-7.52-.02-44.58-32.4-49.94-41.12h76.28Z"/>
  <path class="cls-38" d="M464.14,546.87l46.36,93.44.74,5.73c-3.07.13-6.76,3.61-9.02,3.84-5.8.59-45.63-89.94-53.38-100.46-1.59-5.35,12.72-2.43,15.29-2.55Z"/>
  <path class="cls-38" d="M358.82,546.57c-16.34,33.7-36.91,65.5-55.73,97.66-1.26-3.68-10.39-5.37-10.76-5.86-3.18-4.17,47.43-79.73,51.25-91.41l15.24-.4Z"/>
  <path class="cls-26" d="M460.54,589.55c1.38,2.92,8.98,15.98,7.82,17.56-43.04,13.08-88.72,10.1-131.05-3.9-1.1-3.98,2.74-5.51,3.91-7.8,6.09-.83,18.42-.01,21.52,5.86,27.19,4.06,65.75,5.73,91.54-5.27,3.46-1.47,6.52-1.36,6.26-6.46Z"/>
  <path class="cls-1" d="M536.83,546.56l-.06,6.17c-11.46,12.74-26.08,21.89-40.9,30.16l-5.98-1.15c-2.11-3.81-19.48-33.49-17.59-35.17,21.48.18,43.06-.28,64.54-.01Z"/>
  <path class="cls-2" d="M497.71,241.7l-46.55,102.99c-.4,2.37-4.76,6.14-6.25,4.48-3.93-4.37,31.96-99.44,37.15-111.38,1.07-5.19,12.54.56,15.65,3.91Z"/>
  <path class="cls-51" d="M292.33,308.14l-1.73,32.8c-.01,3.22,7.38,3.57,8.73,1.69l4.77-28.43,3.88-2.15c3.7,1.26,6.73,2.82,9.78,3.91-1.87,3.86-.56,3.86,3.91,0,.68.26,1.29,1.67,1.96,1.95l3.79,1.95-1.5,22.35c7.03,1.17,14.49,1.62,22.38,1.37l2.71,3.65h-127.14c1.24-5.62,10.35-5.69,11.74,0,11.73-3.02,23.59-5.13,35.53-2.57-3.01-13.04-4.91-31.59-.32-44.33,4.74,2.53,15.65,5.79,21.52,7.82Z"/>
  <path class="cls-36" d="M536.83,546.56c7.73.1,15.91-.89,23.46.97-10.47,11.16-48.17,46.36-61.97,47.65-5.47.51-6.7-10.3-8.44-13.44,16.85-9.29,34.95-19.9,46.94-35.18Z"/>
  <path class="cls-12" d="M489.89,349.17c-3.63-3.14,52.62-70.87,55.74-78.12,2.56,3.7,12.36,8.95,9.9,13.63l-55.75,61.68c-1.48,2.52-8.65,3.88-9.88,2.81Z"/>
  <path class="cls-30" d="M270.82,300.32c2.26,15.56,2.2,31.18,1.97,46.91-12.37-.02-24.81-.01-37.17-.01-1.2-.96-2.87-2.52-2.4-3.55,4.43-9.74,22.15-38.7,28.87-46.87l4.83-.39c1.75,1.2,3.66,3.78,3.91,3.91Z"/>
  <path class="cls-5" d="M474.24,233.88c-14.66-.94-29.19-5.32-43.92-5.96-21.93-.95-42.14,3.56-63.66,5.96-.81-3.18-6.48-7.94-1.97-10.77,7.31-4.59,49.56-5.62,59.76-4.95,7.32.48,50.51,7.45,51.46,12.77.14.79-1.41,2.04-1.66,2.95Z"/>
  <path class="cls-47" d="M583.77,190.89c.55-3.88-1.59-6.54-2.92-9.77-.94-2.25-2.29-7.76-4.88-7.81-2.39,31.31-20.66,57.4-35.23,84.03-3.07-1.82-5.21-4.07-7.83-5.88,9.17-9.42,17.64-24.3,23.19-36.43,6.31-13.79,24.56-54.93-1.66-55.42,2.64-2.74,6.52-5.78,9.77-7.81,11.05,7.38,16.65,16.04,25.44,25.4-.84,3.54-4.37,9.83-5.88,13.69Z"/>
  <path class="cls-33" d="M591.56,207.48c-1.49,14.63-9.95,35.27-17.57,47.9l-1.82-4.64c10.87-18.29,15.88-39.17,19.41-59.85-.29,5.48.53,11.1-.02,16.59Z"/>
  <path class="cls-29" d="M266.9,296.42l-31.3,50.81h-11.74c-.39-9.29,29.56-58.63,34.23-58.59,2.73,2.99,5.46,5.48,8.8,7.78Z"/>
  <path class="cls-32" d="M558.35,147.9c-9.13,8.23-16.18,15.39-23.48,25.4-.7-3.86-5.23,2.1-5.91,2.88-13.06,15.31-25.62,35.21-33.19,53.8-2.9-1.04-3.96-2.78-5.88-3.92,11.05-27.55,28.77-53.48,52.8-71.34l-11.73-.96c3.82-3.11,6.03-7.23,11.75-9.77,3.54,5.03,10.28,3.98,15.65,3.92Z"/>
  <path class="cls-46" d="M372.53,546.56l-9.78,54.72c-6.93-1.04-16.65-.63-21.52-5.86,5.61-10.97,18.37-37.67,25.69-45.72,2.26-2.48,2.14-2.62,5.6-3.14Z"/>
  <path class="cls-52" d="M292.33,308.14c4.35,1.51,10.74,2.23,15.65,3.91.68,4.82-4.51,33.88-6.13,34.92-2.35,1.5-11.69-.47-15.39.26.22-10.85,1.49-21.46,1.96-32.35.16-3.76-2-7.83,3.92-6.74Z"/>
  <path class="cls-50" d="M415.56,347.23c-1.3.02-2.61-.01-3.91,0-1.49.91-2.78,1.43-3.91,0-3.68-38.81-18.27-76.22-18.58-115.32l26.41,115.32Z"/>
  <path class="cls-37" d="M591.56,207.48c-1.49,14.63-9.95,35.27-17.57,47.9-3.72,6.17-13.98,13.28-13.71,21.5-1.68-.16-4.66-5.95-5.86-7.83,8.95-12.32,20.19-27.93,24.99-42.48,1.14-3.43,1.51-7.99,2.39-10.28,3.09-8.05,6.6-16.88,9.77-25.4-.29,5.48.53,11.1-.02,16.59Z"/>
  <path class="cls-52" d="M351.01,347.23h-29.35s1.97-29.31,1.97-29.31c1.96.85,5.07.15,8.51,2.19,7.94,4.7,16.65,18.01,18.87,27.13Z"/>
  <path class="cls-45" d="M356.88,288.6c1.01,7.88,2.8,56.27,6.15,58.35,14.86.44,29.84.39,44.71.27,1.3-.01,2.61.01,3.91,0-2.04,3.24-7.42,1.95-10.73,1.99-7.64.09-37.29,1.46-41.13-1.96-2.13-1.91-10.3-20.6-10.77-24.4-2.16-17.33,3.44-20.79,7.86-34.25Z"/>
  <path class="cls-52" d="M317.76,315.96c1.02.36,2.94-.37,3.91,0-.98,4.56-2.74,31-5.05,31.38-1.54.26-8.73.47-8.67-1.12,2.42-7.89,3.44-16.09,5.32-24.1.81-3.44-1.05-7.32,4.49-6.16Z"/>
  <path class="cls-23" d="M294.28,650.13l-7.81,11.73c-9.81-2.1-1.35-21.68,7.81-11.73Z"/>
  <path class="cls-14" d="M482.06,237.79c.51-1.16-.38-4.17,0-5.86.76-.68,18.24,5.63,15.64,9.77l-15.65-3.91Z"/>
  <path class="cls-13" d="M515.3,669.67c-5.27-1.29-7.09-9.6-3.9-13.69l3.9,13.69Z"/>
  <path class="cls-39" d="M515.3,669.67c-10.3,1.98-10.14-12.34-3.9-13.69l3.9,13.69Z"/>
  <path class="cls-18" d="M521.18,253.42c-5.16-2.61-12.46-4.2-17.6-7.82,3.78-5.17,14.16,3.48,17.6,7.82Z"/>
  <path class="cls-4" d="M425.34,468.39c-10.56-2.02-3.74,6.41-4.3,14.09-1.29,17.55-13.95,27.98-27.97,13.31-2.21.05-5.86,11.14-7.88,13.58-8.34,10.1-19.72-.81-20.45.05-.34.4.56,4.6-1.95,6.86-11.78,10.58-47.32-8.59-66.18-3.56-4.17,1.11-16.34,11.03-16.05,3.52.38-9.6,9.55-7.12,9.98-9.97.32-2.09-1.96-6.45-2.1-9.56-.91-19.91-.34-40.47,4.99-59.69,4.36-.23,12.64.55,14.23,5.3,2.44,7.24-2.57,35-1.71,46.66.41,5.52,2.29,10.79,2.19,16.38,15.11,1.9,30.39,8.24,45.9,6.1,14.09-1.94,5.52-11.59,6.74-21.58-6.52-.48-5.23,9.7-11.75,12.65-26.62,12.06-34.87-37.85-12.4-49.54,10.37-5.39,21.54,2.75,17.42,15.49-2.12,6.56-11.87,10.5-12.85,16.61-.42,2.63.4,14.39,4.89,12.57,17.9-14.57,12.7-36.85,18.61-56.63-9.6.51-18.48-3.45-28.26-1.85-3.74.61-19.19,11.63-11.9-.18,3.41-5.53,22.91-3.95,29.38-3.84,3.24.06,6.81,2.27,9.78,1.98,5.36-.53,6.8-9.55,15.27-4.01,1.89,1.24,1.98,4.76,4.56,5.61,7.84,2.6,25.55-1.88,32-7.49,2.21,15.89-30.65,9.88-33.04,11.92-5.28,4.51-3.99,52.94-4.1,62.33,2.91,3.64,8.2-10.11,8.77-11.75,3.74-10.77,2.65-29.8,17.8-31.22,4.19-.39,20.17,4.15,22.33,1.96.45-.46-.55-9.1.38-12.31,2.85-9.77,18.94-2.59,17.23,6.44,8.06-9.61,16.72-5.68,22.39,4,10.81,18.48-4.42,35.4-24.37,31.17-1.93,4.79,5.25,24.57,2.07,26.44-4.25,2.5-11.65.54-14.71-3.06-1.79-2.1-4.96-16.11-4.96-18.5v-30.29Z"/>
  <path class="cls-20" d="M514.72,459.18c3.49,4.33,3.75,13.45.68,18.1-2.17,3.28-5.77,2.52-5.89-.07-.04-.88,5.79-19.47-1.01-16.63-4.84,2.03-20.91,22.59-16.64,27.33,11.33-3.99,26.49-8.68,25.53,8.76-1.15,20.98-25.7,6.53-21.63,2.99,5.48-2.2,5.79,3.04,6.32,3.27,8,3.55,10.29-9.54,9.32-15.01-2.62-2.99-25.38,18.99-34.93.7-10.55-20.22,24.54-46.51,38.27-29.46Z"/>
  <path class="cls-28" d="M262.99,379.47c.79-2.92,6.46-4.52,8.85-1.03,2.66,3.87-1.6,12.13,2.86,13.71,1.28-5.36,4.83-15.06,10.85-15.67,20.15-2.06,20.86,52.89-6.13,54.65-10.67.7-8.04-5.49-11.17-11.04-.67-1.19-5.27-2.54-5.27-3.49,0-8.45-1.69-30.95,0-37.13Z"/>
  <path class="cls-43" d="M493.79,407.81c-.06-5.44,1.68-18.36,9.82-14.67,6.39,2.89-1.11,16.58,2.89,22.48,10.05-7.73,5.59-39.41,21.57-39.03,17.26.41-4.18,21.83-4.93,27.3,6.14,1.63,7.81-11.49,10.75-11.68,9.19-.58-5.05,16.45-6.84,17.53,6.87,3.43,9.31-.89,15.64-1.91-2.28,10.54-18.78,3.11-19.55,3.9-.58.59,5.02,9.81-2.96,9.83-3.79.01-6.52-4.47-6.85-7.88-3.32.44-2.26,4.53-6.34,6.43-8.14,3.78-9.81-3.66-11.23-8.4-5.21.99-5.74-.19-1.96-3.91Z"/>
  <path class="cls-41" d="M671.79,530.92c.3.56.64,4.14-.98,3.92l-137.91-2.94,127.16-4.91-7.8-15.61c3.3,3.41,18.18,16.97,19.54,19.54Z"/>
  <path class="cls-9" d="M470.31,421.48c-17.07,6.41-7.39-20.27-18.54-17.64-8.81,2.08-5.47,22.31-16.66,23.49,1.84-3.22,9.91-19.58,7.83-21.47-.44-.4-6.02.43-8.48-.32-7.11-2.17-1.2-12.82,1.67-7.5.47.87-1.2,3.79-1.02,3.89,16.63,9.12,11.96-36.36,26.53-25.51,7.47,5.56,4.7,35.04,8.66,45.07Z"/>
  <path class="cls-6" d="M331.45,419.53c6.44-7.03,4.41-29.64,6.79-33.27,3.35-5.11,7.52.91,10.41,1.49,5.76,1.14,11.31-2.69,13.7,7.8,4.29,18.8-13.67,14.68-15.26,16.17-1.75,1.64,2.98,14.67,1.96,15.62-4.49,4.2-13.67-5.67-11.75-11.7-3-.37-2.47,3.85-3.89,5.85-3.07,2.5-4.14,1.38-1.96-1.95Z"/>
  <path class="cls-6" d="M333.41,421.49c-11.89,16.7-16.33-8.85-17.62-9.79-.35-.25-4.64,2.69-8.35,1.73-11.23-2.92-3.56-29.58,10.31-21.23.27,3.15-2.85.67-4.25,4.57-1.17,3.26-2.71,9.9-.63,12.98,3.6-1.3,8.69-32.42,15.72-21.55,3.22,4.99-3.66,25.86-1.02,33.29.46.76,3.02-1.81,3.89-1.96.14-.02,1.14,1.67,1.96,1.95Z"/>
  <path class="cls-48" d="M393.55,381.04c1.99,5.65,12.45,6.29,13.87,12.5.98,4.31-3.91,17.75-1.62,24.03l9.74-15.62c-.25,7.91-6.66,27.9-17.67,20.6-7.38-4.9.04-26.52-1.88-34.27-5.1-.44-3.25-.28-3.84,2.93-.35,1.88-4.8,37.69-11.79,30.27,2.52-6.87,6.16-11.23,7.3-19.07,1.06-7.3.32-14.65.52-21.97l5.37.6Z"/>
  <path class="cls-27" d="M495.75,411.71c-5.6-.52-4.85,6.82-11.07,7.41-15.18,1.43-15.13-31.53-3.18-32.42,7.52-.56,11.72,3.91,10.33,11.33l-2.93-3.92c-7.67-.03-4.25,14.67-4.86,19.55l9.77-5.85c0,.8,1.58,2.66,1.96,3.91Z"/>
  <path class="cls-27" d="M190.6,427.35c-18.08-15.36-35.27-34.95-44.95-56.67,18.08,15.36,35.27,34.95,44.95,56.67Z"/>
  <path class="cls-6" d="M371.94,392.43c13.39-3.84,14.38,22.27,3.42,23.28-11.71,1.08-12.92-20.55-3.42-23.28Z"/>
  <path class="cls-3" d="M317.6,264.96c-7.31,3.38-8.09,1.59-11.95-4.33-13.69-20.95-39.47-73.93-48.85-97.74-3.81-9.67-5.2-18.39,7.93-9.89l52.87,111.96Z"/>
  <path class="cls-11" d="M237.07,164l45.49,92.53c-.65,9.63-6.53,8.27-11.43,1.47-6.54-9.08-39.54-74.5-42.42-84.64-2.57-9.07-1-13.41,8.35-9.35Z"/>
  <path class="cls-22" d="M290.15,136.43l45.72,92.2c2.12,6.5-2.45,9.83-8.35,6.25-6.83-4.15-36.92-79.29-46.06-90.85-2.92-6.83,2.73-9.14,8.69-7.6Z"/>
  <path class="cls-8" d="M442.95,487.92c-1.19-10.92,4.5-23.38,13.66-29.3.84,10.56-1.52,26.47-13.66,29.3Z"/>
  <path class="cls-24" d="M413.58,468.38c3.53,3.7,2.01,27.65-7.79,27.35-1.09-1.27,2.84-21.11,3.84-24.51.63-2.14.82-6.14,3.95-2.85Z"/>
  <path class="cls-35" d="M351,458.63c.72,6.29-1.9,12.78-7.79,15.62.78-4.04,1.37-16.6,7.79-15.62Z"/>
  <path class="cls-17" d="M282.55,411.71c-.17.02-1.2-1.82-2.58-1.49-2.3.56-4.91,5.85-7.23,2.44,2.12-6.82,5.14-32.08,14.68-32.24,4.02,12.08,3.36,19.85-.96,31.29-1.01,1.65-2.43,2.22-3.91,0Z"/>
  <path class="cls-54" d="M286.46,411.71c-10.05,26.6-21.8,13.21-3.91,0,.9-.09,3.71-2.53,3.91,0Z"/>
  <polygon class="cls-55" points="456.62 400 448.81 399.97 455.66 384.37 456.62 400"/>
  <path class="cls-34" d="M347.12,407.81c-.37-6.17,2.18-14.21,7.78-17.59.76,7.01-.97,14.25-7.78,17.59Z"/>
  <path class="cls-25" d="M374.5,411.71l2.9-15.62c5.54,4.3,2.6,12.97-2.9,15.62Z"/>
</svg>