<?xml version="1.0" encoding="UTF-8"?>
<svg id="Layer_1" data-name="Layer 1" xmlns="http://www.w3.org/2000/svg" viewBox="0 0 800 800">
  <defs>
    <style>
      .cls-1 {
        font-family: STHeitiTC-Medium, 'Heiti TC';
        font-size: 35px;
        font-weight: 500;
        letter-spacing: .8em;
      }

      .cls-2 {
        fill: #bf1e2d;
      }

      .cls-3 {
        font-family: THEBOLDFONT-FREEVERSION, 'THE BOLD FONT';
        font-size: 51.74px;
      }
    </style>
  </defs>
  <g>
    <path d="M358.61,248.01s45.04,55.51,20.74,167.44l-51.48-97.35,21.69-8.36-36.32-33.19,45.37-28.53Z"/>
    <path d="M456.18,248.01l30.57,30.1-15.29,21.43,15.29,21.69s-10.98,57.77-45.47,94.22c0,0,32.67-56.34,14.9-167.44Z"/>
    <path class="cls-2" d="M401.85,254.22l-.95,10.78c-.07.83.35,1.62,1.08,2.01l9.06,4.92c1.17.63,1.87,1.88,1.81,3.2-.76,17.76-22.95,81.58,7.47,105.3.5.39,1.21.38,1.71-.02,5.99-4.84,39.93-36.5.72-105.06-.89-1.55-.45-3.53,1.01-4.56l6.96-4.9c1.03-.72,1.18-2.19.33-3.11l-7.93-8.6c-.52-.56-1.44,0-1.16.72l1.33,3.41c.59,1.5.07,3.21-1.26,4.12l-2.57,1.77c-1.69,1.17-3.89,1.3-5.71.36l-6.7-3.47c-.71-.37-1.28-.98-1.59-1.72l-2.29-5.37c-.28-.66-1.27-.51-1.33.21Z"/>
  </g>
  <text class="cls-3" transform="translate(77.34 485.23)"><tspan x="0" y="0">mechanical engineering</tspan></text>
  <text class="cls-1" transform="translate(314.18 546.98)"><tspan x="0" y="0">CLUB</tspan></text>
</svg>