<?xml version="1.0" encoding="UTF-8"?>
<svg id="Layer_1" xmlns="http://www.w3.org/2000/svg" version="1.1" viewBox="0 0 800 800">
  <!-- Generator: Adobe Illustrator 29.7.1, SVG Export Plug-In . SVG Version: 2.1.1 Build 8)  -->
  <defs>
    <style>
      .st0 {
        fill: #bf1e2d;
      }

      .st1 {
        isolation: isolate;
      }
    </style>
  </defs>
  <g>
    <path d="M358.61,248.01s45.04,55.51,20.74,167.44l-51.48-97.35,21.69-8.36-36.32-33.19,45.37-28.53h0Z"/>
    <path d="M456.18,248.01l30.57,30.1-15.29,21.43,15.29,21.69s-10.98,57.77-45.47,94.22c0,0,32.67-56.34,14.9-167.44h0Z"/>
    <path class="st0" d="M401.85,254.22l-.95,10.78c-.07.83.35,1.62,1.08,2.01l9.06,4.92c1.17.63,1.87,1.88,1.81,3.2-.76,17.76-22.95,81.58,7.47,105.3.5.39,1.21.38,1.71-.02,5.99-4.84,39.93-36.5.72-105.06-.89-1.55-.45-3.53,1.01-4.56l6.96-4.9c1.03-.72,1.18-2.19.33-3.11l-7.93-8.6c-.52-.56-1.44,0-1.16.72l1.33,3.41c.59,1.5.07,3.21-1.26,4.12l-2.57,1.77c-1.69,1.17-3.89,1.3-5.71.36l-6.7-3.47c-.71-.37-1.28-.98-1.59-1.72l-2.29-5.37c-.28-.66-1.27-.51-1.33.21h.01Z"/>
  </g>
  <g class="st1">
    <g class="st1">
      <path d="M107.76,485.23l-.93-15.52-5.28,15.52h-8.74l-5.59-16.14-1.03,16.14h-8.8l2.43-38.03h9l8.33,23.8,8.12-23.8h9l2.22,38.03h-8.74Z"/>
      <path d="M140.57,461.74v8.74h-12.68v6h15.63v8.74h-24.37v-37.93l24.37-.05v8.75h-15.63v5.74h12.68Z"/>
      <path d="M157.33,483.78c-2.33-.88-4.4-2.28-6.31-4.14-1.81-1.81-3.16-3.88-4.09-6.21-.98-2.23-1.45-4.66-1.45-7.24s.47-5.07,1.45-7.35c.93-2.28,2.28-4.29,4.09-6.11,1.86-1.86,3.98-3.26,6.31-4.19,2.33-.93,4.71-1.4,7.19-1.4s4.81.46,7.14,1.4c2.33.93,4.4,2.33,6.26,4.19l-6.16,6.16c-.98-.98-2.12-1.76-3.42-2.28-1.35-.47-2.64-.72-3.88-.72s-2.54.26-3.83.72c-1.29.52-2.43,1.29-3.42,2.28-.93.93-1.66,2.07-2.22,3.36-.52,1.24-.78,2.54-.78,3.93s.26,2.69.78,3.88c.57,1.29,1.29,2.43,2.22,3.36,1.04,1.03,2.17,1.76,3.42,2.22,1.24.52,2.54.78,3.83.78s2.59-.26,3.88-.78c1.24-.47,2.38-1.19,3.42-2.22l6.16,6.21c-1.91,1.91-3.98,3.26-6.26,4.14-2.33.93-4.71,1.4-7.19,1.4s-4.81-.47-7.14-1.4Z"/>
      <path d="M199.71,485.23v-14.33h-10.97v14.33h-8.74v-37.98h8.74v14.9h10.97v-14.9h8.74v37.98h-8.74Z"/>
      <path d="M220.35,485.23h-9.26l12.94-37.98h8.28l12.26,37.98h-9.21l-1.5-4.61h-11.95l-1.55,4.61ZM224.9,471.88h6.16l-3-9.21-3.16,9.21Z"/>
      <path d="M268.31,485.23l-12.42-22.15v22.15h-8.74v-37.88h9.52l12.37,22.09v-22.2h8.74v37.98h-9.47Z"/>
      <path d="M291.7,447.2v38.03h-8.74v-38.03h8.74Z"/>
      <path d="M305.51,483.78c-2.33-.88-4.4-2.28-6.31-4.14-1.81-1.81-3.16-3.88-4.09-6.21-.98-2.23-1.45-4.66-1.45-7.24s.47-5.07,1.45-7.35c.93-2.28,2.28-4.29,4.09-6.11,1.86-1.86,3.98-3.26,6.31-4.19,2.33-.93,4.71-1.4,7.19-1.4s4.81.46,7.14,1.4c2.33.93,4.4,2.33,6.26,4.19l-6.16,6.16c-.98-.98-2.12-1.76-3.42-2.28-1.35-.47-2.64-.72-3.88-.72s-2.54.26-3.83.72c-1.29.52-2.43,1.29-3.42,2.28-.93.93-1.66,2.07-2.22,3.36-.52,1.24-.78,2.54-.78,3.93s.26,2.69.78,3.88c.57,1.29,1.29,2.43,2.22,3.36,1.04,1.03,2.17,1.76,3.42,2.22,1.24.52,2.54.78,3.83.78s2.59-.26,3.88-.78c1.24-.47,2.38-1.19,3.42-2.22l6.16,6.21c-1.91,1.91-3.98,3.26-6.26,4.14-2.33.93-4.71,1.4-7.19,1.4s-4.81-.47-7.14-1.4Z"/>
      <path d="M334.9,485.23h-9.26l12.94-37.98h8.28l12.26,37.98h-9.21l-1.5-4.61h-11.95l-1.55,4.61ZM339.45,471.88h6.16l-3-9.21-3.16,9.21Z"/>
      <path d="M370.44,447.2v29.29h13.87v8.74h-22.61v-38.03h8.74Z"/>
      <path d="M422.91,461.74v8.74h-12.68v6h15.63v8.74h-24.37v-37.93l24.37-.05v8.75h-15.63v5.74h12.68Z"/>
      <path d="M452.19,485.23l-12.42-22.15v22.15h-8.74v-37.88h9.52l12.37,22.09v-22.2h8.75v37.98h-9.47Z"/>
      <path d="M497.67,485.23h-8.74v-.93c-1.91.67-3.93.98-6,.98-5.28,0-9.78-1.86-13.5-5.59s-5.54-8.18-5.54-13.45,1.86-9.78,5.54-13.5c3.73-3.67,8.23-5.54,13.5-5.54s9.73,1.86,13.45,5.54l-6.21,6.21c-2.02-2.02-4.4-3-7.24-3s-5.28.98-7.3,3-3,4.45-3,7.3.98,5.28,3,7.3c1.81,1.81,3.98,2.79,6.52,2.95s4.76-.47,6.78-1.92v-3.67h-8.17v-8.74h16.92v23.08Z"/>
      <path d="M510.61,447.2v38.03h-8.75v-38.03h8.75Z"/>
      <path d="M536.94,485.23l-12.42-22.15v22.15h-8.75v-37.88h9.52l12.37,22.09v-22.2h8.74v37.98h-9.47Z"/>
      <path d="M573,461.74v8.74h-12.68v6h15.63v8.74h-24.37v-37.93l24.37-.05v8.75h-15.63v5.74h12.68Z"/>
      <path d="M602.55,461.74v8.74h-12.68v6h15.63v8.74h-24.37v-37.93l24.37-.05v8.75h-15.63v5.74h12.68Z"/>
      <path d="M621.48,475.45c-.31.05-.52.05-.67.1s-.36.05-.67.05-.57,0-.72.05v9.57h-8.75v-37.88h8.75c2.22.05,4.29.47,6.11,1.19,1.97.78,3.62,1.81,5.02,3.05,1.45,1.35,2.59,2.85,3.36,4.45.78,1.76,1.19,3.57,1.19,5.43,0,2.07-.41,3.93-1.29,5.64-.88,1.76-2.07,3.26-3.62,4.55l8.38,13.56h-10.3l-6.11-9.83c-.16,0-.41,0-.67.05ZM622.11,466.34c.67-.21,1.45-.57,2.22-1.14.67-.47,1.14-1.04,1.5-1.71.36-.57.52-1.24.52-2.02s-.15-1.45-.52-2.02c-.36-.62-.88-1.19-1.5-1.66-.78-.52-1.5-.93-2.22-1.19-.88-.26-1.81-.41-2.69-.47v10.71c.98-.05,1.86-.26,2.69-.52Z"/>
      <path d="M649.22,447.2v38.03h-8.75v-38.03h8.75Z"/>
      <path d="M675.55,485.23l-12.42-22.15v22.15h-8.75v-37.88h9.52l12.37,22.09v-22.2h8.74v37.98h-9.47Z"/>
      <path d="M721.03,485.23h-8.74v-.93c-1.92.67-3.93.98-6,.98-5.28,0-9.78-1.86-13.5-5.59-3.67-3.67-5.54-8.18-5.54-13.45s1.86-9.78,5.54-13.5c3.73-3.67,8.23-5.54,13.5-5.54s9.73,1.86,13.45,5.54l-6.21,6.21c-2.02-2.02-4.4-3-7.24-3s-5.28.98-7.29,3c-2.02,2.02-3,4.45-3,7.3s.98,5.28,3,7.3c1.81,1.81,3.98,2.79,6.52,2.95,2.54.16,4.76-.47,6.78-1.92v-3.67h-8.18v-8.74h16.92v23.08Z"/>
    </g>
  </g>
  <g class="st1">
    <g class="st1">
      <path d="M341.03,540.19c-2.75,3.55-6.53,5.32-11.34,5.32-4.06,0-7.38-1.28-9.98-3.85-2.59-2.57-3.88-5.81-3.88-9.73,0-2.43.6-4.67,1.8-6.72,1.2-2.05,2.86-3.66,4.99-4.83,2.12-1.17,4.42-1.75,6.88-1.75s4.67.47,6.62,1.42c1.95.95,3.58,2.33,4.88,4.15l-2.31,1.79c-2.43-2.94-5.42-4.41-9-4.41-2.92,0-5.43,1.03-7.54,3.08s-3.17,4.57-3.17,7.54,1.03,5.46,3.1,7.46c2.06,1.99,4.74,2.99,8.03,2.99s6.15-1.41,8.58-4.24l2.35,1.79Z"/>
      <path d="M386.14,544.88h-12.71v-25.62h3.05v22.71h9.66v2.91Z"/>
      <path d="M434.82,534.66c0,2.59-.26,4.58-.79,5.97-.52,1.39-1.46,2.55-2.8,3.48-1.34.93-2.91,1.4-4.71,1.4-1.42,0-2.71-.23-3.85-.68s-2.09-1.1-2.85-1.93-1.3-1.75-1.63-2.77c-.33-1.01-.49-2.84-.49-5.48v-15.4h3.01v15.4c0,1.66.05,2.85.14,3.59.09.73.36,1.45.8,2.13.44.69,1.08,1.24,1.91,1.64s1.77.61,2.82.61c1.26,0,2.35-.37,3.27-1.1.92-.73,1.52-1.59,1.79-2.55s.4-2.41.4-4.32v-15.4h2.98v15.4Z"/>
      <path d="M479.24,530.85c1.63.61,2.86,1.47,3.69,2.59.83,1.12,1.24,2.45,1.24,3.99,0,2.15-.78,3.93-2.33,5.34-1.55,1.41-3.58,2.12-6.07,2.12h-7.17v-25.62h5.21c2.71,0,4.77.55,6.18,1.66,1.41,1.11,2.12,2.69,2.12,4.74,0,2.24-.96,3.97-2.87,5.18ZM471.57,529.76h1.19c2.1,0,3.67-.33,4.71-.98,1.04-.65,1.56-1.69,1.56-3.12,0-2.31-1.6-3.46-4.79-3.46h-2.66v7.56ZM471.57,541.94h2.87c1.8,0,3.1-.17,3.92-.53.82-.35,1.47-.88,1.96-1.61.49-.72.74-1.46.74-2.21s-.15-1.4-.44-1.98c-.29-.57-.72-1.08-1.29-1.52-.57-.44-1.27-.78-2.1-1-.83-.22-2.33-.33-4.5-.33h-1.16v9.17Z"/>
    </g>
  </g>
</svg>