<?xml version="1.0" encoding="UTF-8"?>
<svg id="Layer_1" xmlns="http://www.w3.org/2000/svg" version="1.1" viewBox="0 0 800 800">
  <!-- Generator: Adobe Illustrator 29.7.1, SVG Export Plug-In . SVG Version: 2.1.1 Build 8)  -->
  <defs>
    <style>
      .st0 {
        fill: #3e4b55;
      }

      .st1 {
        isolation: isolate;
      }

      .st2 {
        fill: #58ae47;
      }
    </style>
  </defs>
  <g>
    <g>
      <rect class="st0" x="233.05" y="350.06" width="11.76" height="30.67"/>
      <rect class="st2" x="233.05" y="332.42" width="11.76" height="11.76"/>
    </g>
    <g>
      <path class="st0" d="M107.12,350.06c0,9.31-6.02,17.57-18.2,17.57h-10.71v-10.22h10.01c3.99,0,7.35-3.29,7.35-7.35,0-4.34-3.36-7.42-7.35-7.42h-10.01v-10.22h10.71c12.18,0,18.2,8.89,18.2,17.64Z"/>
      <rect class="st2" x="66.31" y="368.9" width="11.9" height="11.9"/>
    </g>
    <g>
      <path class="st0" d="M332.52,356.57c0,14.21-10.36,24.16-23.31,24.16h-7.28v-11.21h6.09c6.58,0,12.6-4.48,12.6-12.95,0-8.96-6.02-12.95-12.6-12.95h-.49v-11.2h1.68c12.95,0,23.31,7.63,23.31,24.15h0Z"/>
      <rect class="st2" x="290.17" y="332.42" width="11.2" height="11.2"/>
    </g>
    <g>
      <path class="st0" d="M416.03,373.94c-4.48,4.97-10.78,7.98-18.34,7.98-14.35,0-25.13-11.77-25.13-25.35s10.78-25.2,25.13-25.2v11.2c-8.12,0-13.93,6.72-13.93,14s6.16,14.07,13.93,14.07c4.41,0,8.05-1.82,10.36-4.69l7.98,7.99Z"/>
      <rect class="st2" x="402.8" y="333.69" width="11.2" height="11.2" transform="translate(-120.3 388.16) rotate(-45)"/>
    </g>
    <g>
      <rect class="st0" x="489.32" y="332.42" width="11.69" height="48.31"/>
      <rect class="st0" x="457.19" y="332.42" width="11.76" height="48.31"/>
      <rect class="st2" x="473.5" y="349.3" width="11.2" height="11.2"/>
    </g>
    <g>
      <rect class="st0" x="631.56" y="350.06" width="11.76" height="30.67"/>
      <rect class="st2" x="631.56" y="332.42" width="11.76" height="11.76"/>
    </g>
    <g>
      <polygon class="st0" points="194.48 380.73 181.6 380.73 178.1 374.57 172.22 364.2 167.11 354.89 160.74 343.66 167.11 332.42 194.48 380.73"/>
      <polygon class="st2" points="160.02 370.27 152.42 380.8 139.74 380.8 147.34 370.27 160.02 370.27"/>
    </g>
    <g>
      <polygon class="st0" points="592.99 380.73 580.11 380.73 576.61 374.57 570.73 364.2 565.62 354.89 559.25 343.66 565.62 332.42 592.99 380.73"/>
      <polygon class="st2" points="558.53 370.27 550.93 380.8 538.25 380.8 545.85 370.27 558.53 370.27"/>
    </g>
    <g>
      <polygon class="st0" points="733.69 368.33 733.69 383.6 700.09 356.99 688.33 347.69 688.33 332.42 721.93 359.02 733.69 368.33"/>
      <rect class="st2" x="721.93" y="332.42" width="11.76" height="11.76"/>
      <rect class="st2" x="688.33" y="368.97" width="11.76" height="11.76"/>
    </g>
  </g>
  <g class="st1">
    <g class="st1">
      <path d="M275.4,451.27c6.48,4.88,16.32,5.16,16.36-1.32,0-6.08-17.92-3.64-17.44-13.24.36-7.64,11.16-9.44,19.4-3.16l-1.2,2.08c-6.6-5.4-15.4-4.36-15.68,1.24-.4,7.2,17.4,4.52,17.4,13,0,7.48-8.76,10.32-19.8,3.92l.96-2.52Z"/>
      <path d="M313,430.07h10.16c6.92,0,12.84,4.16,12.84,13.28,0,7.8-5.92,13.28-12.84,13.28h-10.16v-26.56ZM322.68,454.23c6.12,0,10.76-4.72,10.76-10.88,0-7.16-4.64-10.88-10.76-10.88h-7.2v21.76h7.2Z"/>
      <path d="M356.56,435.59v21.04h-2.48v-26.52l22.44,21.8v-21.84h2.48v27.32l-22.44-21.8Z"/>
      <path d="M422.44,430.07h11.24c5.48,0,8.6,2.84,8.6,6.6,0,3.16-1.56,5.24-3.68,5.96,3.68.76,5.12,3.64,5.12,6.72,0,4.32-2.96,7.28-9.4,7.28h-11.88v-26.56ZM434.96,441.55c2.64,0,4.8-1.28,4.8-4.52,0-3.4-3.36-4.72-6.48-4.72h-8.36v9.24h10.04ZM433.92,454.35c4.4,0,7.24-1.8,7.24-5.32,0-2.88-1.72-5.24-6.72-5.24h-9.52v10.56h9Z"/>
      <path d="M461.68,430.07h2.48v11.8h15.72v-11.8h2.52v26.56h-2.52v-12.36h-15.72v12.36h-2.48v-26.56Z"/>
      <path d="M502.72,430.07h10.16c6.92,0,12.84,4.16,12.84,13.28,0,7.8-5.92,13.28-12.84,13.28h-10.16v-26.56ZM512.4,454.23c6.12,0,10.76-4.72,10.76-10.88,0-7.16-4.64-10.88-10.76-10.88h-7.2v21.76h7.2Z"/>
    </g>
  </g>
</svg>