<?xml version="1.0" encoding="UTF-8"?>
<svg id="Layer_1" data-name="Layer 1" xmlns="http://www.w3.org/2000/svg" viewBox="0 0 800 800">
  <defs>
    <style>
      .cls-1 {
        fill: #3e4b55;
      }

      .cls-2 {
        fill: #58ae47;
      }

      .cls-3 {
        font-family: AlongSanss2-Light, 'Along Sans s2';
        font-size: 40px;
        font-weight: 300;
        letter-spacing: .3em;
      }
    </style>
  </defs>
  <g>
    <g>
      <rect class="cls-1" x="233.05" y="350.06" width="11.76" height="30.67"/>
      <rect class="cls-2" x="233.05" y="332.42" width="11.76" height="11.76"/>
    </g>
    <g>
      <path class="cls-1" d="M107.12,350.06c0,9.31-6.02,17.57-18.2,17.57h-10.71v-10.22h10.01c3.99,0,7.35-3.29,7.35-7.35,0-4.34-3.36-7.42-7.35-7.42h-10.01v-10.22h10.71c12.18,0,18.2,8.89,18.2,17.64Z"/>
      <rect class="cls-2" x="66.31" y="368.9" width="11.9" height="11.9"/>
    </g>
    <g>
      <path class="cls-1" d="M332.52,356.57c0,14.21-10.36,24.16-23.31,24.16h-7.28v-11.21h6.09c6.58,0,12.6-4.48,12.6-12.95,0-8.96-6.02-12.95-12.6-12.95h-.49v-11.2h1.68c12.95,0,23.31,7.63,23.31,24.15Z"/>
      <rect class="cls-2" x="290.17" y="332.42" width="11.2" height="11.2"/>
    </g>
    <g>
      <path class="cls-1" d="M416.03,373.94c-4.48,4.97-10.78,7.98-18.34,7.98-14.35,0-25.13-11.77-25.13-25.35s10.78-25.2,25.13-25.2v11.2c-8.12,0-13.93,6.72-13.93,14s6.16,14.07,13.93,14.07c4.41,0,8.05-1.82,10.36-4.69l7.98,7.99Z"/>
      <rect class="cls-2" x="402.8" y="333.69" width="11.2" height="11.2" transform="translate(-120.3 388.16) rotate(-45)"/>
    </g>
    <g>
      <rect class="cls-1" x="489.32" y="332.42" width="11.69" height="48.31"/>
      <rect class="cls-1" x="457.19" y="332.42" width="11.76" height="48.31"/>
      <rect class="cls-2" x="473.5" y="349.3" width="11.2" height="11.2"/>
    </g>
    <g>
      <rect class="cls-1" x="631.56" y="350.06" width="11.76" height="30.67"/>
      <rect class="cls-2" x="631.56" y="332.42" width="11.76" height="11.76"/>
    </g>
    <g>
      <polygon class="cls-1" points="194.48 380.73 181.6 380.73 178.1 374.57 172.22 364.2 167.11 354.89 160.74 343.66 167.11 332.42 194.48 380.73"/>
      <polygon class="cls-2" points="160.02 370.27 152.42 380.8 139.74 380.8 147.34 370.27 160.02 370.27"/>
    </g>
    <g>
      <polygon class="cls-1" points="592.99 380.73 580.11 380.73 576.61 374.57 570.73 364.2 565.62 354.89 559.25 343.66 565.62 332.42 592.99 380.73"/>
      <polygon class="cls-2" points="558.53 370.27 550.93 380.8 538.25 380.8 545.85 370.27 558.53 370.27"/>
    </g>
    <g>
      <polygon class="cls-1" points="733.69 368.33 733.69 383.6 700.09 356.99 688.33 347.69 688.33 332.42 721.93 359.02 733.69 368.33"/>
      <rect class="cls-2" x="721.93" y="332.42" width="11.76" height="11.76"/>
      <rect class="cls-2" x="688.33" y="368.97" width="11.76" height="11.76"/>
    </g>
  </g>
  <text class="cls-3" transform="translate(272.2 456.63)"><tspan x="0" y="0">SDN BHD</tspan></text>
</svg>