<?xml version="1.0" encoding="UTF-8"?>
<svg id="Layer_1" xmlns="http://www.w3.org/2000/svg" version="1.1" viewBox="0 0 595.28 841.89">
  <!-- Generator: Adobe Illustrator 29.7.1, SVG Export Plug-In . SVG Version: 2.1.1 Build 8)  -->
  <defs>
    <style>
      .st0 {
        fill: #231f20;
      }

      .st1 {
        fill: #fcee21;
      }

      .st2 {
        isolation: isolate;
      }

      .st3 {
        fill: #fff;
      }

      .st4 {
        fill: #233974;
      }

      .st5 {
        fill: #2a51a3;
      }

      .st6 {
        fill: #2b51a3;
      }
    </style>
  </defs>
  <rect class="st3" y="0" width="595.27" height="841.89"/>
  <path class="st1" d="M175.95,0h419.32v343.99c-39.92-59.46-104.59-111.04-208.8-131.7C131.48,161.74,132.56,51.32,175.95,0Z"/>
  <path class="st1" d="M464.39,841.89H0v-396.9c84.51,29.9,47.76,178.22,148.11,226.22,123.71,59.16,356.95-28.18,316.28,170.68Z"/>
  <rect class="st4" x="513.73" width="81.54" height="841.89"/>
  <g class="st2">
    <g class="st2">
      <path class="st0" d="M141.9,258.34c.2.87.3,1.75.3,2.65,0,1.47-.18,2.94-.55,4.43-.37,1.48-.77,2.76-1.2,3.82-.27.6-.56,1.28-.88,2.05s-.64,1.53-.97,2.3-.67,1.52-1,2.27-.63,1.43-.9,2.03c-.97,2.1-1.67,4.26-2.1,6.47-.43,2.22-.68,4.53-.75,6.93,0,.07,0,.15.02.25s.02.18.02.25c0,.67-.16,1.13-.48,1.4-.32.27-.61.4-.88.4-.77,0-1.38-.25-1.82-.75-.45-.5-.79-1.08-1.03-1.73-.23-.65-.38-1.31-.45-1.97-.07-.67-.1-1.17-.1-1.5,0-1.73.19-3.48.58-5.25.38-1.77.86-3.45,1.42-5.05.33-.97.76-2.1,1.27-3.4.52-1.3,1.07-2.62,1.65-3.95.58-1.33,1.17-2.63,1.75-3.9s1.12-2.37,1.62-3.3c.27-.53.53-1.08.78-1.62.25-.55.41-1.16.47-1.83-.33-.17-.72-.25-1.15-.25-.27,0-.54.03-.82.1-.28.07-.56.1-.83.1-1.77.17-3.54.37-5.33.6-1.78.23-3.56.35-5.32.35-.3,0-.73-.02-1.27-.07-.55-.05-1.09-.16-1.62-.33s-.99-.41-1.38-.73c-.38-.32-.58-.76-.58-1.32,0-.63.33-1.17,1-1.6s1.48-.78,2.45-1.05c.97-.27,1.99-.45,3.07-.55s2.06-.15,2.93-.15c1.13,0,2.27.05,3.4.15,1.13.1,2.28.35,3.45.75.37.13.77.2,1.2.2.3,0,.63-.05,1-.15,2.4-.63,4.77-1.22,7.12-1.75s4.77-1,7.27-1.4c.7-.1,1.43-.15,2.2-.15.5,0,1.08,0,1.75.02s1.31.12,1.92.3c.62.18,1.13.47,1.55.88.42.4.62.97.62,1.7-.03.23-.13.39-.3.48-.17.08-.37.12-.6.12-.4,0-.81-.03-1.22-.08-.42-.05-.83-.08-1.23-.08-1,.03-1.98.1-2.95.2-.97.1-1.93.25-2.9.45l-8.3,1.7-1.95.55h.05ZM131.85,256.84c-.53-.17-1.07-.28-1.6-.33s-1.05-.08-1.55-.08c-1.87,0-3.48.43-4.85,1.3.27.03.53.06.8.08.27.02.53.03.8.03,1.1,0,2.16-.1,3.18-.3,1.02-.2,2.09-.43,3.23-.7h0Z"/>
      <path class="st0" d="M155.3,280.06c.6-.23,1.11-.46,1.53-.67.42-.22.82-.5,1.2-.85.38-.35.78-.8,1.2-1.35.42-.55.92-1.27,1.52-2.17.47.1.7.46.7,1.1,0,.6-.17,1.21-.5,1.84s-.78,1.24-1.33,1.82c-.55.58-1.16,1.11-1.83,1.6-.67.48-1.32.87-1.95,1.17-.47.2-.81.36-1.02.47-.22.12-.38.38-.48.77-.4,1.46-1.13,2.57-2.2,3.32-1.07.75-2.33,1.12-3.8,1.12-2.23,0-3.98-.72-5.23-2.17s-1.88-3.35-1.88-5.71c0-1.46.26-2.86.77-4.19.52-1.33,1.26-2.53,2.23-3.59l1.75-1.95c.4-.46.91-.86,1.52-1.2.62-.33,1.33-.5,2.12-.5,1,0,1.88.27,2.62.8s1.36,1.2,1.83,1.99c.47.8.82,1.66,1.05,2.57s.35,1.75.35,2.52c0,.5-.02.98-.08,1.45-.05.47-.09,1.06-.12,1.79l.03.02ZM146.3,279.59c-.1.37-.18.72-.25,1.08-.07.35-.1.69-.1,1.02,0,.37.05.8.15,1.3s.27.98.52,1.45.57.86.95,1.17c.38.32.86.48,1.42.48.4,0,.78-.1,1.15-.3.37-.2.68-.45.93-.75s.45-.62.6-.98c.15-.35.23-.66.23-.92v-.35c-1.93-.57-3.8-1.63-5.6-3.2h0ZM153.2,280.04c.07-.6.13-1.2.2-1.8.07-.6.1-1.18.1-1.75,0-.47-.06-1.01-.17-1.62-.12-.62-.3-1.2-.55-1.75s-.57-1.01-.95-1.38c-.38-.37-.86-.55-1.43-.55-.3,0-.67.07-1.1.2-.43.13-.65.38-.65.75,0,.13.02.27.08.4.05.13.07.27.07.4,0,.5-.17.94-.52,1.33-.35.38-.52.81-.52,1.28,0,.5.12,1.02.38,1.55s.59,1.02,1.02,1.47c.43.45.94.82,1.52,1.1s1.23.42,1.93.42c.27,0,.47-.02.6-.05h-.01Z"/>
      <path class="st0" d="M172.6,270.64c.53-1.07.98-2,1.35-2.78.37-.79.72-1.52,1.05-2.19s.68-1.33,1.03-1.98c.35-.65.79-1.4,1.32-2.24.27-.47.63-.95,1.1-1.43.47-.49.98-.73,1.55-.73.37,0,.68.11.95.32.27.22.4.49.4.83.03.37-.02.73-.17,1.1s-.29.7-.43,1l-2,4.5c-.6,1.33-1.21,2.66-1.82,3.97-.62,1.32-1.21,2.65-1.77,4-.57,1.35-1.09,2.72-1.58,4.1-.48,1.38-.88,2.79-1.17,4.23-.03.17-.07.34-.1.52s-.05.38-.05.58.05.48.15.85c.1.37.35.55.75.55.23,0,.51-.13.82-.4.32-.27.63-.6.95-1,.32-.4.63-.82.95-1.25.32-.43.58-.8.78-1.1.57-.87,1.1-1.74,1.6-2.62s1-1.76,1.5-2.62c.17-.17.29-.37.38-.6.08-.23.31-.35.68-.35.23,0,.43.08.6.22.17.15.25.31.25.48,0,.2-.03.4-.1.6s-.13.38-.2.55c-.53,1.03-1.09,2.18-1.67,3.43s-1.22,2.42-1.9,3.52c-.68,1.1-1.42,2.03-2.2,2.78s-1.66,1.12-2.62,1.12c-.67,0-1.26-.12-1.77-.38-.52-.25-.96-.58-1.33-1s-.67-.88-.92-1.4-.46-1.04-.62-1.58c-.47.37-.91.75-1.33,1.15s-.85.77-1.3,1.1c-.45.33-.91.61-1.38.83s-.98.33-1.55.33c-1.27,0-2.32-.47-3.17-1.42s-1.27-2.2-1.27-3.76c0-1.4.27-2.83.8-4.31s1.27-2.83,2.23-4.04c.95-1.21,2.08-2.21,3.4-2.99,1.32-.78,2.76-1.17,4.33-1.17,1.03,0,2.22.23,3.55.7l-.05-.02ZM163.45,284.84c.07,0,.11,0,.12.02.02.02.06.03.12.03.23,0,.38-.02.45-.05.57-.33,1.12-.68,1.67-1.05s1.05-.76,1.5-1.18c.45-.42.83-.88,1.12-1.4s.5-1.12.6-1.83c.1-.43.24-.91.42-1.42.18-.52.39-1.05.62-1.6.23-.55.48-1.09.73-1.62s.48-1.05.67-1.55c.03-.1.07-.2.1-.3.03-.1.05-.22.05-.35s-.04-.27-.12-.4-.31-.2-.68-.2c-.5,0-.98.16-1.45.48s-.88.62-1.25.92c-1.47,1.27-2.69,2.83-3.68,4.67-.98,1.85-1.48,3.72-1.48,5.62,0,.47.15.87.45,1.2h.04Z"/>
      <path class="st0" d="M197.2,281.64c.23-.37.52-.83.88-1.38s.72-1.12,1.1-1.7c.38-.58.75-1.15,1.1-1.7.35-.55.64-1.02.88-1.42.13-.2.29-.19.48.03.18.22.31.41.38.58,0,.13-.03.33-.1.6-.5,1.1-1.09,2.29-1.77,3.58-.68,1.28-1.44,2.47-2.28,3.55-.83,1.08-1.75,2-2.75,2.75s-2.07,1.12-3.2,1.12c-.73,0-1.34-.24-1.83-.72-.48-.48-1.06-1.16-1.73-2.03-.87.7-1.8,1.37-2.8,2s-1.98.95-2.95.95c-.47,0-.94-.14-1.42-.42s-.92-.67-1.33-1.15c-.4-.48-.72-1.07-.97-1.75s-.38-1.42-.38-2.22c0-1.4.29-2.82.88-4.25.58-1.43,1.35-2.74,2.3-3.93.95-1.18,2.05-2.15,3.3-2.9s2.54-1.12,3.88-1.12c1.23,0,2.45.28,3.65.85.37-.3.77-.64,1.22-1.02.45-.38.91-.58,1.38-.58.2,0,.43.04.68.12s.5.2.75.35.46.34.62.57c.17.23.25.48.25.75,0,.23-.08.51-.23.82s-.31.59-.48.82c-.37.83-.73,1.62-1.07,2.37-.35.75-.68,1.5-1,2.24-.32.75-.6,1.51-.85,2.29s-.48,1.62-.68,2.52c-.17.47-.27.86-.32,1.2-.05.33-.08.61-.08.85,0,.63.2.95.6.95.23,0,.52-.11.88-.33.35-.22.71-.5,1.08-.85s.72-.73,1.05-1.15c.33-.42.63-.82.9-1.22l-.02-.02ZM191.55,272.54c-.23-.13-.5-.2-.8-.2-.6,0-1.36.36-2.28,1.08s-1.82,1.62-2.7,2.7c-.88,1.08-1.64,2.26-2.27,3.53s-.95,2.47-.95,3.6c0,1.07.48,1.7,1.45,1.9.93-.47,1.73-.97,2.4-1.53.67-.55,1.3-1.21,1.9-1.97.1-.67.27-1.41.52-2.22s.54-1.63.88-2.45c.33-.82.67-1.61,1-2.38.33-.77.62-1.45.85-2.05h0Z"/>
      <path class="st0" d="M203.8,284.49c1.33-.47,2.41-1.14,3.23-2.02.82-.88,1.5-1.88,2.05-2.98s1-2.26,1.35-3.47.71-2.41,1.08-3.58c.17-.5.37-1.02.6-1.55.23-.53.52-1.03.85-1.47.33-.45.73-.82,1.2-1.1s1.02-.42,1.65-.42c.4,0,.75.07,1.05.2s.45.38.45.75c0,.27-.08.6-.25,1s-.33.73-.5,1c-.67,1.23-1.19,2.55-1.58,3.95-.38,1.4-.72,2.78-1.02,4.15-.2,1.07-.46,2.23-.77,3.5-.32,1.27-.68,2.53-1.1,3.8-.42,1.27-.86,2.48-1.32,3.65-.47,1.17-.93,2.2-1.4,3.1,1.13.23,2.18.35,3.15.35.73,0,1.41-.07,2.02-.2.62-.13,1.21-.32,1.77-.55.57-.23,1.13-.51,1.7-.83.57-.32,1.17-.66,1.8-1.03.1-.03.27-.05.5-.05.43,0,.84.11,1.23.33.38.22.57.49.57.83,0,.5-.39.95-1.17,1.35s-1.71.73-2.77,1c-1.07.27-2.16.48-3.27.62-1.12.15-1.99.23-2.62.23-1.3,0-2.58-.13-3.85-.4-1.67,2.27-3.39,3.95-5.18,5.05-1.78,1.1-3.91,1.65-6.38,1.65-.83,0-1.58-.15-2.25-.45-.67-.3-1.24-.7-1.72-1.2s-.85-1.06-1.1-1.67c-.25-.62-.38-1.24-.38-1.88,0-1.5.63-2.72,1.9-3.65,1.27-.93,2.93-1.4,5-1.4,1.13,0,2.24.12,3.33.35,1.08.23,2.26.47,3.52.7.33-.33.67-.84,1.02-1.53s.66-1.41.92-2.17c.27-.77.49-1.54.68-2.33.18-.78.27-1.47.27-2.07,0-.1,0-.2-.02-.3-.02-.1-.02-.18-.02-.25-.4.23-.78.56-1.15.98s-.75.83-1.15,1.22c-.4.4-.83.74-1.3,1.03-.47.28-1,.42-1.6.42-.63,0-1.17-.16-1.6-.47-.43-.32-.78-.72-1.05-1.2s-.46-1.03-.58-1.62c-.12-.6-.17-1.18-.17-1.75,0-2,.32-4.01.98-6.03.65-2.02,1.56-3.84,2.72-5.47.17-.23.32-.5.45-.8.13-.3.27-.58.42-.83s.33-.46.55-.62c.22-.17.48-.25.77-.25.2,0,.42.03.67.1s.49.15.73.25c.23.1.43.22.6.35.17.13.25.27.25.4,0,.33-.07.67-.2,1.03-.13.35-.27.67-.4.97-.4,1.07-.82,2.08-1.25,3.03s-.82,1.89-1.15,2.83c-.33.93-.61,1.88-.83,2.85s-.32,2-.32,3.1c0,.5.13,1,.4,1.5v-.03ZM204.45,293.89c-.77-.43-1.62-.69-2.55-.78-.93-.08-1.82-.12-2.65-.12-.6,0-1.26.03-1.98.08s-1.39.16-2.02.33c-.63.17-1.16.42-1.58.78-.42.35-.62.82-.62,1.42,0,.67.32,1.31.95,1.92.63.62,1.42.92,2.35.92s1.74-.13,2.53-.4c.78-.27,1.52-.61,2.2-1.03s1.31-.9,1.88-1.45c.57-.55,1.07-1.11,1.5-1.67h-.01Z"/>
      <path class="st0" d="M230.75,285.29c.47,0,.92-.17,1.38-.5.45-.33.88-.75,1.3-1.25s.81-1.03,1.17-1.6c.37-.57.72-1.08,1.05-1.55.23-.3.51-.69.82-1.17.32-.48.63-.95.95-1.4.32-.45.63-.84.95-1.17.32-.33.57-.5.77-.5s.38.06.55.17c.17.12.25.28.25.48,0,.1-.03.25-.1.45s-.15.35-.25.45c-.47.83-1.04,1.83-1.72,2.98-.68,1.15-1.43,2.25-2.23,3.3s-1.64,1.94-2.52,2.67-1.76,1.1-2.62,1.1c-.47,0-.93-.12-1.38-.38-.45-.25-.86-.57-1.23-.97s-.66-.85-.88-1.35-.33-1-.33-1.5c0-.93.1-1.91.3-2.93s.47-2.02.82-3,.77-1.93,1.27-2.85,1.03-1.76,1.6-2.53c.4-.53.87-.97,1.4-1.32s1.13-.53,1.8-.53c.4,0,.73.09,1,.28.27.18.4.46.4.82s-.12.78-.38,1.23-.46.84-.62,1.17c-.77,1.4-1.44,2.83-2.02,4.28s-1.06,2.96-1.43,4.52c-.07.27-.14.54-.22.83-.08.28-.12.56-.12.83,0,.33.08.65.25.95h.02ZM238.1,266.64c0,.07,0,.13.03.2.02.07.02.13.02.2,0,.67-.26,1.22-.77,1.65-.52.43-1.11.65-1.78.65s-1.31-.21-1.82-.62c-.52-.42-.77-.89-.77-1.42,0-.63.27-1.14.8-1.53.53-.38,1.08-.58,1.65-.58s1.06.15,1.48.45c.42.3.81.63,1.17,1h0Z"/>
      <path class="st0" d="M245.05,280.09c-.13-.6-.52-1.29-1.15-2.08-.63-.78-1.31-1.6-2.02-2.45-.72-.85-1.36-1.72-1.92-2.62-.57-.9-.85-1.8-.85-2.7,0-.63.12-1.25.38-1.85s.62-1.14,1.1-1.62c.48-.48,1.08-.87,1.8-1.15s1.54-.42,2.48-.42c.37,0,.82.08,1.38.23.55.15,1.07.36,1.57.62s.93.59,1.3.97c.37.38.55.81.55,1.28,0,.17-.05.32-.15.45-.1.13-.27.2-.5.2-.37,0-.69-.1-.98-.3-.28-.2-.56-.41-.82-.62-.27-.22-.54-.42-.83-.62-.28-.2-.59-.3-.92-.3-.77,0-1.34.26-1.73.77-.38.52-.58.98-.58,1.38,0,.2.03.33.1.4.4.9.95,1.73,1.65,2.5s1.4,1.53,2.1,2.3c.7.77,1.35,1.57,1.95,2.4.6.83,1.03,1.77,1.3,2.8,0,.07.12.22.35.45.8-.1,1.48-.31,2.02-.62.55-.32,1.02-.72,1.42-1.2s.75-1.03,1.05-1.62c.3-.6.58-1.22.85-1.85.07-.03.17-.05.3-.05.27,0,.46.12.58.35s.17.48.17.75-.07.5-.2.7c-.43,1.3-1.03,2.38-1.8,3.25s-1.92,1.53-3.45,2c-.6.17-1.02.43-1.25.8s-.48.82-.75,1.35c-.3.63-.73,1.2-1.3,1.7s-1.2.92-1.9,1.28c-.7.35-1.46.62-2.27.82-.82.2-1.62.3-2.43.3-.57,0-1.12-.09-1.67-.28-.55-.18-1.04-.44-1.48-.78-.43-.33-.78-.74-1.05-1.22s-.4-1.01-.4-1.58c0-.9.28-1.6.83-2.1s1.22-.87,2-1.1,1.61-.38,2.48-.45,1.63-.13,2.3-.2c.07,0,.13-.03.2-.08.07-.05.13-.11.2-.17v-.02ZM245.35,282.54h-2.75c-.53,0-1.06.05-1.58.15s-.96.27-1.32.5c-.37.23-.55.6-.55,1.1,0,.57.24.97.73,1.22.48.25,1.08.38,1.77.38.97,0,1.83-.26,2.6-.78s1.15-1.19,1.15-2.02c0-.23-.02-.42-.05-.55h0Z"/>
      <path class="st0" d="M276.25,270.64c.53-1.07.98-2,1.35-2.78.37-.79.72-1.52,1.05-2.19s.68-1.33,1.03-1.98c.35-.65.79-1.4,1.32-2.24.27-.47.63-.95,1.1-1.43.47-.49.98-.73,1.55-.73.37,0,.68.11.95.32.27.22.4.49.4.83.03.37-.02.73-.17,1.1s-.29.7-.43,1l-2,4.5c-.6,1.33-1.21,2.66-1.82,3.97-.62,1.32-1.21,2.65-1.77,4-.57,1.35-1.09,2.72-1.58,4.1-.48,1.38-.88,2.79-1.17,4.23-.03.17-.07.34-.1.52s-.05.38-.05.58.05.48.15.85.35.55.75.55c.23,0,.51-.13.82-.4.32-.27.63-.6.95-1s.63-.82.95-1.25.58-.8.78-1.1c.57-.87,1.1-1.74,1.6-2.62s1-1.76,1.5-2.62c.17-.17.29-.37.38-.6.08-.23.31-.35.68-.35.23,0,.43.08.6.22.17.15.25.31.25.48,0,.2-.03.4-.1.6s-.13.38-.2.55c-.53,1.03-1.09,2.18-1.67,3.43-.58,1.25-1.22,2.42-1.9,3.52-.68,1.1-1.42,2.03-2.2,2.78s-1.66,1.12-2.62,1.12c-.67,0-1.26-.12-1.77-.38-.52-.25-.96-.58-1.33-1s-.67-.88-.92-1.4-.46-1.04-.62-1.58c-.47.37-.91.75-1.33,1.15-.42.4-.85.77-1.3,1.1-.45.33-.91.61-1.38.83s-.98.33-1.55.33c-1.27,0-2.32-.47-3.17-1.42s-1.27-2.2-1.27-3.76c0-1.4.27-2.83.8-4.31s1.27-2.83,2.23-4.04c.95-1.21,2.08-2.21,3.4-2.99s2.76-1.17,4.33-1.17c1.03,0,2.22.23,3.55.7l-.05-.02ZM267.1,284.84c.07,0,.11,0,.12.02.02.02.06.03.12.03.23,0,.38-.02.45-.05.57-.33,1.12-.68,1.67-1.05s1.05-.76,1.5-1.18c.45-.42.83-.88,1.12-1.4s.5-1.12.6-1.83c.1-.43.24-.91.42-1.42.18-.52.39-1.05.62-1.6.23-.55.48-1.09.73-1.62s.48-1.05.67-1.55c.03-.1.07-.2.1-.3.03-.1.05-.22.05-.35s-.04-.27-.12-.4-.31-.2-.68-.2c-.5,0-.98.16-1.45.48s-.88.62-1.25.92c-1.47,1.27-2.69,2.83-3.68,4.67-.98,1.85-1.48,3.72-1.48,5.62,0,.47.15.87.45,1.2h.04Z"/>
    </g>
    <g class="st2">
      <path class="st0" d="M302.05,274.74c.4-.43.68-.65.85-.65.23,0,.35.27.35.8,0,.6-.17,1.23-.5,1.9-.53,1.07-1.13,2.12-1.8,3.17-.67,1.05-1.42,2.05-2.25,3s-1.76,1.82-2.77,2.6c-1.02.78-2.12,1.44-3.33,1.98-.7.3-1.5.45-2.4.45-1.17,0-2.22-.18-3.15-.55s-1.73-.86-2.38-1.47c-.65-.62-1.16-1.35-1.52-2.2-.37-.85-.55-1.76-.55-2.72,0-2.43.5-4.64,1.5-6.62s2.65-3.62,4.95-4.93c.7-.4,1.46-.73,2.27-1,.82-.27,1.69-.4,2.62-.4,1.5,0,2.63.33,3.4.97.77.65,1.15,1.74,1.15,3.28,0,.23-.03.52-.1.85-.63,1.7-1.55,2.98-2.75,3.85s-2.8,1.3-4.8,1.3c-.4,0-.82-.05-1.25-.15s-.9-.2-1.4-.3c-.33.67-.59,1.33-.77,2s-.27,1.38-.27,2.15c0,1.17.27,2.1.8,2.8.53.7,1.32,1.05,2.35,1.05.9,0,1.78-.22,2.65-.65s1.68-.98,2.45-1.65c.77-.67,1.49-1.42,2.17-2.28.68-.85,1.31-1.68,1.88-2.5s1.07-1.59,1.5-2.33c.43-.73.8-1.32,1.1-1.75h0ZM295.7,270.34h-.4c-.5,0-1.04.15-1.62.45-.58.3-1.15.68-1.7,1.14-.55.46-1.06.98-1.52,1.54-.47.56-.83,1.12-1.1,1.69.27.26.51.53.73.79.22.27.61.4,1.17.4.63,0,1.26-.18,1.88-.55.62-.36,1.16-.81,1.62-1.34s.84-1.07,1.12-1.61c.28-.55.43-1.02.43-1.41,0-.43-.2-.79-.6-1.09h-.01Z"/>
    </g>
    <g class="st2">
      <path class="st0" d="M304.45,280.39c.2.07.48.1.85.1,1.1,0,2.12-.04,3.08-.12.95-.08,1.78-.18,2.5-.3s1.3-.22,1.75-.3.71-.12.78-.12c.27,0,.54.11.82.33s.43.49.43.83c0,.4-.42.72-1.25.95s-1.82.41-2.95.53-2.28.21-3.45.28-2.07.13-2.7.2c-.57.1-.92.45-1.05,1.05.73,1.07,1.32,2.35,1.75,3.85s.72,3.07.85,4.7.12,3.26-.02,4.88c-.15,1.62-.44,3.06-.88,4.33-.43,1.27-.99,2.28-1.67,3.05-.68.77-1.49,1.12-2.43,1.05-1.9-.13-3.36-.97-4.38-2.5-1.02-1.53-1.52-3.58-1.52-6.15,0-1.43.07-2.7.2-3.8.13-1.1.34-2.15.62-3.15s.64-1.98,1.07-2.95.95-2.05,1.55-3.25c-1.17-.37-2.01-.63-2.53-.8-.52-.17-.78-.53-.78-1.1,0-.3.12-.51.38-.62.25-.12.66-.21,1.23-.27l1.4-.1c.27,0,.54-.02.83-.05s.56-.07.83-.1l.7-1.7c.5-1.2,1.04-2.42,1.62-3.65.58-1.23,1.22-2.43,1.92-3.6s1.47-2.27,2.33-3.3c.85-1.03,1.77-1.95,2.77-2.75.27-.2.53-.38.8-.55.27-.17.58-.25.95-.25.5,0,.91.16,1.23.48s.47.74.47,1.27c0,.8-.33,1.78-.97,2.95-.65,1.17-1.42,2.38-2.33,3.62s-1.8,2.5-2.7,3.75c-.9,1.25-1.6,2.36-2.1,3.33v-.05ZM302.2,285.94c-.5.87-.98,1.84-1.42,2.92-.45,1.08-.83,2.18-1.15,3.3s-.55,2.24-.7,3.38c-.15,1.13-.17,2.19-.08,3.17.1.98.36,1.85.78,2.6s1.03,1.34,1.83,1.78c.73-.63,1.32-1.66,1.75-3.08.43-1.42.68-2.97.75-4.65s-.04-3.38-.33-5.07c-.28-1.7-.76-3.15-1.42-4.35h0Z"/>
      <path class="st0" d="M315.05,285.29c.47,0,.92-.17,1.38-.5s.88-.75,1.3-1.25.81-1.03,1.17-1.6c.37-.57.72-1.08,1.05-1.55.23-.3.51-.69.82-1.17s.63-.95.95-1.4c.32-.45.63-.84.95-1.17.32-.33.58-.5.78-.5s.38.06.55.17c.17.12.25.28.25.48,0,.1-.03.25-.1.45s-.15.35-.25.45c-.47.83-1.04,1.83-1.72,2.98-.68,1.15-1.42,2.25-2.22,3.3s-1.64,1.94-2.53,2.67c-.88.73-1.76,1.1-2.62,1.1-.47,0-.92-.12-1.38-.38s-.86-.57-1.22-.97-.66-.85-.88-1.35-.33-1-.33-1.5c0-.93.1-1.91.3-2.93.2-1.02.47-2.02.83-3,.35-.98.77-1.93,1.27-2.85s1.03-1.76,1.6-2.53c.4-.53.87-.97,1.4-1.32s1.13-.53,1.8-.53c.4,0,.73.09,1,.28.27.18.4.46.4.82s-.12.78-.38,1.23-.46.84-.62,1.17c-.77,1.4-1.44,2.83-2.02,4.28s-1.06,2.96-1.43,4.52c-.07.27-.14.54-.22.83-.08.28-.12.56-.12.83,0,.33.08.65.25.95h0ZM322.4,266.64c0,.07,0,.13.03.2.02.07.03.13.03.2,0,.67-.26,1.22-.78,1.65s-1.11.65-1.78.65-1.31-.21-1.82-.62c-.52-.42-.78-.89-.78-1.42,0-.63.27-1.14.8-1.53.53-.38,1.08-.58,1.65-.58s1.06.15,1.47.45.81.63,1.17,1h.01Z"/>
    </g>
    <g class="st2">
      <path class="st0" d="M334.7,269.49c.17-.03.31-.06.42-.07.12-.02.24-.03.38-.03.77,0,1.39.28,1.88.83.48.55.72,1.31.72,2.27,0,.67-.1,1.27-.3,1.8,0,.57-.21,1.29-.62,2.17-.42.88-.88,1.8-1.4,2.75s-.98,1.87-1.4,2.75c-.42.88-.62,1.61-.62,2.17,0,.6.28.95.85,1.05.87-.6,1.62-1.22,2.25-1.88.63-.65,1.2-1.32,1.7-2s.96-1.37,1.38-2.05.86-1.33,1.33-1.92c.33-.43.63-.88.9-1.35s.68-.92,1.25-1.35c.07.23.12.42.17.58.05.15.08.27.08.38,0,.27-.05.55-.15.85s-.22.57-.35.8c-.57,1-1.23,2.14-1.98,3.43s-1.55,2.49-2.4,3.62-1.73,2.09-2.65,2.88c-.92.78-1.79,1.17-2.62,1.17s-1.67-.37-2.4-1.1c-.73-.73-1.1-1.72-1.1-2.95.1-2.1.59-4.09,1.47-5.98.88-1.88,1.86-3.79,2.93-5.72-.17-.2-.35-.3-.55-.3-.07,0-.13.02-.2.05s-.13.07-.2.1c-1.97,1.77-3.62,3.74-4.95,5.92-1.33,2.18-2.23,4.51-2.7,6.98-.1.57-.23,1.1-.4,1.6-.17.5-.48.75-.95.75-.27,0-.54-.07-.83-.2-.28-.13-.55-.3-.8-.5s-.48-.41-.67-.62c-.2-.22-.32-.41-.35-.57-.43-.33-.65-1.02-.65-2.05,0-1.17.14-2.31.42-3.42.28-1.12.59-2.21.92-3.27.33-1.07.65-2.12.95-3.18.3-1.05.47-2.07.5-3.07.03-.8.4-1.46,1.1-1.98.7-.52,1.58-.77,2.65-.77.47,0,.85.12,1.15.38.3.25.45.56.45.92,0,.4-.11.97-.33,1.72s-.47,1.53-.77,2.33-.62,1.57-.95,2.3c-.33.73-.62,1.27-.85,1.6l.2.15s-.03.08-.1.15c0-.03-.02,0-.05.12s-.07.25-.1.4-.07.29-.12.43c-.05.13-.07.22-.07.25.6-.8,1.18-1.69,1.75-2.68.57-.98,1.17-1.92,1.8-2.8.63-.88,1.35-1.67,2.15-2.38.8-.7,1.75-1.18,2.85-1.45h-.02Z"/>
    </g>
    <g class="st2">
      <path class="st0" d="M344.6,285.29c.47,0,.92-.17,1.38-.5.45-.33.88-.75,1.3-1.25.42-.5.81-1.03,1.17-1.6.37-.57.72-1.08,1.05-1.55.23-.3.51-.69.83-1.17.32-.48.63-.95.95-1.4.32-.45.63-.84.95-1.17.32-.33.57-.5.77-.5s.38.06.55.17c.17.12.25.28.25.48,0,.1-.03.25-.1.45s-.15.35-.25.45c-.47.83-1.04,1.83-1.72,2.98-.68,1.15-1.43,2.25-2.23,3.3s-1.64,1.94-2.52,2.67c-.88.73-1.76,1.1-2.62,1.1-.47,0-.93-.12-1.38-.38-.45-.25-.86-.57-1.23-.97-.37-.4-.66-.85-.88-1.35s-.33-1-.33-1.5c0-.93.1-1.91.3-2.93.2-1.02.47-2.02.82-3s.78-1.93,1.28-2.85,1.03-1.76,1.6-2.53c.4-.53.87-.97,1.4-1.32s1.13-.53,1.8-.53c.4,0,.73.09,1,.28s.4.46.4.82-.12.78-.38,1.23-.46.84-.62,1.17c-.77,1.4-1.44,2.83-2.03,4.28-.58,1.45-1.06,2.96-1.42,4.52-.07.27-.14.54-.22.83-.08.28-.12.56-.12.83,0,.33.08.65.25.95h0ZM351.95,266.64c0,.07,0,.13.03.2.02.07.02.13.02.2,0,.67-.26,1.22-.77,1.65-.52.43-1.11.65-1.78.65s-1.31-.21-1.83-.62-.77-.89-.77-1.42c0-.63.27-1.14.8-1.53.53-.38,1.08-.58,1.65-.58s1.06.15,1.48.45c.42.3.81.63,1.17,1h0Z"/>
      <path class="st0" d="M356.9,265.49h-1.53c-.72,0-1.44-.07-2.17-.2s-1.38-.35-1.95-.65-.85-.78-.85-1.45c0-.57.38-.85,1.15-.85.97.17,1.69.31,2.17.42.48.12.91.21,1.27.28s.76.12,1.18.15c.42.03,1.06.05,1.92.05.37-.57.77-1.24,1.2-2.02.43-.78.9-1.54,1.4-2.28.5-.73,1.06-1.35,1.67-1.85s1.31-.75,2.08-.75c.43,0,.78.08,1.05.25s.4.42.4.75c0,.13-.02.23-.05.3-.3,1.03-.67,1.98-1.12,2.85-.45.87-.96,1.77-1.53,2.7.1.03.37.05.8.05.63,0,1.49-.02,2.58-.07,1.08-.05,2.18-.11,3.3-.18s2.15-.12,3.1-.17,1.64-.08,2.08-.08h1.55c.2,0,.38.02.52.05.15.03.23.12.23.25,0,.33-.25.6-.75.8s-1.17.37-2.03.5c-.85.13-1.81.23-2.88.3-1.07.07-2.17.14-3.33.22-1.15.08-2.28.18-3.4.28s-2.14.22-3.08.35c-.67,1.77-1.38,3.57-2.15,5.4s-1.5,3.67-2.2,5.53c-.7,1.85-1.3,3.71-1.8,5.57-.5,1.87-.8,3.73-.9,5.6.07.37.21.8.42,1.3s.54.75.97.75c.2,0,.35-.03.45-.1,1-.23,1.92-.73,2.78-1.5.85-.77,1.62-1.64,2.33-2.62.7-.98,1.34-1.98,1.92-2.98.58-1,1.12-1.88,1.62-2.65.07-.17.22-.36.47-.58s.44-.33.58-.33c.1,0,.22.04.35.12s.2.17.2.28c0,.2-.02.43-.08.7-.05.27-.12.48-.22.65-.6,1.03-1.2,2.04-1.8,3.03-.6.98-1.23,1.93-1.88,2.85s-1.36,1.78-2.12,2.6c-.77.82-1.63,1.56-2.6,2.23-.3.2-.62.36-.97.47-.35.12-.76.17-1.22.17-1.63,0-2.88-.51-3.75-1.52-.87-1.02-1.3-2.54-1.3-4.58,0-1.7.18-3.42.53-5.17s.78-3.45,1.3-5.1,1.08-3.22,1.7-4.7c.62-1.48,1.17-2.81,1.67-3.98.03-.13.14-.34.33-.62.18-.28.31-.56.38-.83h0Z"/>
    </g>
    <g class="st2">
      <path class="st0" d="M382.75,274.74c.4-.43.68-.65.85-.65.23,0,.35.27.35.8,0,.6-.17,1.23-.5,1.9-.53,1.07-1.13,2.12-1.8,3.17-.67,1.05-1.42,2.05-2.25,3s-1.76,1.82-2.78,2.6-2.12,1.44-3.33,1.98c-.7.3-1.5.45-2.4.45-1.17,0-2.22-.18-3.15-.55s-1.72-.86-2.38-1.47c-.65-.62-1.16-1.35-1.52-2.2s-.55-1.76-.55-2.72c0-2.43.5-4.64,1.5-6.62s2.65-3.62,4.95-4.93c.7-.4,1.46-.73,2.28-1s1.69-.4,2.62-.4c1.5,0,2.63.33,3.4.97.77.65,1.15,1.74,1.15,3.28,0,.23-.03.52-.1.85-.63,1.7-1.55,2.98-2.75,3.85s-2.8,1.3-4.8,1.3c-.4,0-.82-.05-1.25-.15s-.9-.2-1.4-.3c-.33.67-.59,1.33-.78,2-.18.67-.27,1.38-.27,2.15,0,1.17.27,2.1.8,2.8.53.7,1.32,1.05,2.35,1.05.9,0,1.78-.22,2.65-.65s1.68-.98,2.45-1.65c.77-.67,1.49-1.42,2.17-2.28.68-.85,1.31-1.68,1.88-2.5s1.07-1.59,1.5-2.33c.43-.73.8-1.32,1.1-1.75h0ZM376.4,270.34h-.4c-.5,0-1.04.15-1.62.45s-1.15.68-1.7,1.14c-.55.46-1.06.98-1.52,1.54-.47.56-.83,1.12-1.1,1.69.27.26.51.53.73.79.22.27.61.4,1.17.4.63,0,1.26-.18,1.88-.55.62-.36,1.16-.81,1.62-1.34s.84-1.07,1.12-1.61c.28-.55.42-1.02.42-1.41,0-.43-.2-.79-.6-1.09h0Z"/>
    </g>
    <g class="st2">
      <path class="st0" d="M385.85,278.59c-.47,1.27-.9,2.58-1.3,3.95-.4,1.37-.6,2.65-.6,3.85,0,.27.03.57.1.9s.17.65.3.95c.13.3.3.56.5.78s.43.33.7.33c.9,0,1.74-.33,2.53-.98.78-.65,1.5-1.43,2.15-2.35s1.22-1.87,1.72-2.85.93-1.79,1.3-2.43c.03-.1.15-.39.35-.88.2-.48.42-.98.65-1.5.23-.52.48-.99.73-1.42.25-.43.47-.65.67-.65.23,0,.42.12.55.35.13.23.2.43.2.6,0,.13-.03.3-.1.5-.53,1.3-1.18,2.75-1.95,4.35-.77,1.6-1.62,3.11-2.58,4.52-.95,1.42-1.98,2.6-3.08,3.55-1.1.95-2.25,1.42-3.45,1.42-1.03,0-2.02-.32-2.97-.95s-1.56-1.57-1.83-2.8l-.15-.8c-.03-.17-.05-.36-.05-.58v-.62c0-1.13.2-2.53.6-4.2s.92-3.44,1.57-5.33c.65-1.88,1.4-3.8,2.25-5.75s1.72-3.79,2.6-5.52c.88-1.73,1.75-3.28,2.6-4.62.85-1.35,1.62-2.36,2.33-3.03.37-.53.86-.93,1.47-1.2.62-.27,1.26-.4,1.93-.4.43,0,.88.06,1.32.17.45.12.85.3,1.2.55s.64.59.88,1.03.35.97.35,1.6c0,2.1-1.17,4.81-3.5,8.12-2.33,3.32-5.67,7.09-10,11.33h0ZM393.7,262.44c-1.03,1.93-2.07,3.86-3.1,5.78s-1.98,3.83-2.85,5.72c2.23-2.3,4-4.3,5.3-6s2.28-3.14,2.93-4.33c.65-1.18,1.06-2.14,1.22-2.88.17-.73.25-1.28.25-1.65,0-.17-.02-.31-.05-.42-.03-.12-.05-.21-.05-.28l-.1-.15c-.5,0-.92.15-1.27.45-.35.3-.65.66-.9,1.08-.25.42-.48.87-.7,1.35s-.44.93-.67,1.33h0Z"/>
      <path class="st0" d="M396.95,284.49c1.33-.47,2.41-1.14,3.22-2.02.82-.88,1.5-1.88,2.05-2.98s1-2.26,1.35-3.47c.35-1.22.71-2.41,1.08-3.58.17-.5.37-1.02.6-1.55s.52-1.03.85-1.47c.33-.45.73-.82,1.2-1.1s1.02-.42,1.65-.42c.4,0,.75.07,1.05.2s.45.38.45.75c0,.27-.08.6-.25,1s-.33.73-.5,1c-.67,1.23-1.19,2.55-1.58,3.95-.38,1.4-.72,2.78-1.03,4.15-.2,1.07-.46,2.23-.77,3.5-.32,1.27-.68,2.53-1.1,3.8s-.86,2.48-1.32,3.65c-.47,1.17-.93,2.2-1.4,3.1,1.13.23,2.18.35,3.15.35.73,0,1.41-.07,2.02-.2.62-.13,1.21-.32,1.78-.55.57-.23,1.13-.51,1.7-.83.57-.32,1.17-.66,1.8-1.03.1-.03.27-.05.5-.05.43,0,.84.11,1.22.33s.58.49.58.83c0,.5-.39.95-1.17,1.35s-1.71.73-2.78,1-2.16.48-3.27.62c-1.12.15-1.99.23-2.62.23-1.3,0-2.58-.13-3.85-.4-1.67,2.27-3.39,3.95-5.17,5.05-1.78,1.1-3.91,1.65-6.38,1.65-.83,0-1.58-.15-2.25-.45-.67-.3-1.24-.7-1.72-1.2s-.85-1.06-1.1-1.67c-.25-.62-.38-1.24-.38-1.88,0-1.5.63-2.72,1.9-3.65s2.93-1.4,5-1.4c1.13,0,2.24.12,3.33.35,1.08.23,2.26.47,3.52.7.33-.33.67-.84,1.03-1.53.35-.68.66-1.41.92-2.17.27-.77.49-1.54.67-2.33.18-.78.28-1.47.28-2.07,0-.1,0-.2-.03-.3-.02-.1-.02-.18-.02-.25-.4.23-.78.56-1.15.98s-.75.83-1.15,1.22c-.4.4-.83.74-1.3,1.03s-1,.42-1.6.42c-.63,0-1.17-.16-1.6-.47-.43-.32-.78-.72-1.05-1.2s-.46-1.03-.58-1.62c-.12-.6-.17-1.18-.17-1.75,0-2,.33-4.01.98-6.03.65-2.02,1.56-3.84,2.72-5.47.17-.23.32-.5.45-.8s.27-.58.42-.83.33-.46.55-.62.48-.25.78-.25c.2,0,.42.03.67.1s.49.15.72.25.43.22.6.35.25.27.25.4c0,.33-.07.67-.2,1.03-.13.35-.27.67-.4.97-.4,1.07-.82,2.08-1.25,3.03s-.82,1.89-1.15,2.83c-.33.93-.61,1.88-.83,2.85s-.33,2-.33,3.1c0,.5.13,1,.4,1.5v-.03ZM397.6,293.89c-.77-.43-1.62-.69-2.55-.78-.93-.08-1.82-.12-2.65-.12-.6,0-1.26.03-1.98.08s-1.39.16-2.02.33c-.63.17-1.16.42-1.58.78-.42.35-.62.82-.62,1.42,0,.67.32,1.31.95,1.92.63.62,1.42.92,2.35.92s1.74-.13,2.53-.4c.78-.27,1.52-.61,2.2-1.03.68-.42,1.31-.9,1.88-1.45s1.07-1.11,1.5-1.67h-.01Z"/>
    </g>
  </g>
  <g class="st2">
    <g class="st2">
      <path class="st4" d="M141.96,359.35c-.67,0-1.41-.13-2.2-.4-3.78-1.17-6.14-4.69-7.08-10.55-.1-.56-.18-1.73-.22-3.52l-.4.62c-1.14,1.85-2.2,2.93-3.16,3.25-.35.12-.75.18-1.21.18-.91,0-1.84-.22-2.79-.66-3-1.45-4.5-4.08-4.5-7.89,0-2.23.39-4.25,1.16-6.09,1.25-2.97,2.89-4.79,4.92-5.45.48-.18,1-.26,1.56-.26,1.54,0,3.21.57,5.01,1.71.37.23.74.52,1.12.86.38.34.6.51.66.51l.35-.92c.06-.26.29-.91.7-1.93,1-2.49,2.34-3.74,4.04-3.74.48,0,1,.1,1.54.31,2.01.67,3.01,1.98,3.01,3.91,0,.72-.12,1.52-.37,2.42-1.2,4.22-2,7.53-2.38,9.94-.39,2.41-.58,5.13-.58,8.16,0,1.57,0,2.68.03,3.34s.16,1.53.43,2.61c.09.37.16.55.22.55.12,0,.48-.26,1.1-.77,2.4-2.27,4.72-7.44,6.94-15.51.35-1.38.58-2.09.69-2.13s.38-.07.8-.07c1,0,1.49.12,1.49.35,0,.47-.42,2.19-1.25,5.16-1.51,5.87-3.36,10.36-5.56,13.45-1.19,1.7-2.55,2.55-4.09,2.55h.02ZM128.09,346.12c1.05-.75,2.39-2.26,4-4.55.5-.67.76-1.17.79-1.49.18-1.25.62-3.32,1.32-6.22-.28-.62-.48-1.01-.62-1.19-.42-.54-.97-1.01-1.63-1.41-.34-.21-.59-.31-.77-.31-.34,0-.68.65-1.03,1.96-.4,1.49-.76,3.05-1.1,4.68-.25,1.17-.47,2.58-.67,4.22s-.3,3.08-.3,4.31h.01Z"/>
      <path class="st4" d="M180.19,359.39c-1.32,0-2.58-.28-3.78-.83-2.23-1.07-3.34-2.86-3.34-5.36l-.57-.09c-1.05-.09-2.12-.49-3.2-1.21s-1.94-1.84-2.6-3.36c-.5-1.08-.84-2.18-1.03-3.27-.19-1.1-.29-2.48-.29-4.15.03-2.87.35-5.93.97-9.18,1.08-5.76,2.7-10.07,4.86-12.94,1.32-1.76,2.64-2.8,3.96-3.12.44-.1,1.04-.15,1.8-.15,1.49,0,2.94.53,4.34,1.58s2.1,2.14,2.1,3.25l.02.44c0,.62-.18,1.46-.55,2.55-.73,2.2-2.02,4.42-3.87,6.68-1.58,1.92-2.99,3.34-4.22,4.26-.28,1.52-.47,2.9-.57,4.13s-.21,2.48-.31,3.74l.53-1.32c1.33-3.57,2.66-6.09,3.98-7.56.82-.91,1.52-1.57,2.09-1.98.34-.21.73-.31,1.19-.31.69,0,1.51.23,2.46.7,2.33,1.14,4.02,3.73,5.08,7.76l.64,3.14c1.49-.92,2.69-2.52,3.58-4.79.09-.18.22-.26.4-.26.26,0,.7.04,1.3.13.48.07.73.21.73.42-.22.92-.69,2.02-1.41,3.3-1.11,1.8-2.6,3.23-4.46,4.28-.18,1.8-.48,3.33-.92,4.57-.57,1.77-1.41,3.56-2.5,5.36-1.08,1.52-2.55,2.62-4.39,3.3-.45.15-1.11.25-1.98.31l-.04-.02ZM175.44,349.35s.13-.05.26-.15c.7-.51,2.26-1.13,4.66-1.85,1.11-.35,1.69-.55,1.74-.59.09-.09.17-2.28.24-6.57,0-3.87-.12-5.8-.35-5.8-.1,0-.56.45-1.37,1.34-.81.89-1.66,2.38-2.55,4.46s-1.64,4.47-2.27,7.16c-.19,1.08-.32,1.72-.4,1.91,0,.06,0,.09.04.09ZM175.92,329.86c.12-.06.39-.35.81-.88,1.25-1.49,2.26-3.03,3.03-4.61.75-1.51,1.16-2.87,1.25-4.09l-.44.59c-.66,1.08-1.26,2-1.8,2.75-.7,1.1-1.19,1.93-1.45,2.5-.44.88-.91,2.07-1.41,3.56v.18h.01ZM177.59,357.06c.23,0,.5-.07.79-.22.95-.53,1.74-1.49,2.35-2.9.18-.41.4-1.15.67-2.22s.41-1.82.41-2.26c0-.06-.04-.09-.11-.09-.03,0-.08,0-.14.02-.07.01-.19.05-.36.11s-.41.13-.7.22c-.76.22-1.48.56-2.15,1.01-1.14.76-1.82,1.66-2.02,2.68-.09.41-.13.79-.13,1.14,0,.83.23,1.54.7,2.11.22.26.45.4.7.4h0Z"/>
      <path class="st4" d="M202.45,351.11c-1.76,0-3.5-.64-5.23-1.91-.94-.67-1.83-1.85-2.67-3.52-.84-1.67-1.26-3.54-1.26-5.62,0-5.6,1.25-9.76,3.76-12.48.79-.79,1.67-1.49,2.64-2.11.98-.47,1.96-.7,2.94-.7,1.2,0,2.4.35,3.6,1.05,1.44.94,2.34,1.96,2.72,3.08.13.42.2.89.2,1.38,0,.62-.08,1.18-.24,1.69-1.08,2.9-3.27,5.5-6.55,7.8-.15.1-.25.2-.31.29s-.09.77-.09,2.04c0,.76.11,1.67.33,2.72.31,1.46.56,2.54.77,3.23.06.41.18.62.35.62,1.48,0,3.71-2.85,6.7-8.55.66-1.26,1.09-2.01,1.3-2.26.12-.15.23-.23.33-.24.89.04,1.34.26,1.34.66,0,.06-.21.56-.62,1.52-.79,1.8-1.39,3.12-1.8,3.96-1.79,3.52-3.44,5.73-4.97,6.64-.89.48-1.98.72-3.25.72h0ZM202.34,337.24l.59-.48c1.73-1.55,2.99-3.4,3.78-5.54.16-.45.24-.94.24-1.45,0-.92-.17-1.55-.51-1.89-.07-.07-.15-.11-.22-.11-.09.01-.22.14-.4.37-.32.32-.59.69-.79,1.1-.35.67-.78,1.7-1.3,3.08s-.89,2.53-1.12,3.47c-.07.41-.14.7-.19.86s-.08.28-.08.35,0,.14-.04.2c0,.03,0,.04.02.04h.02Z"/>
      <path class="st4" d="M219.67,356.08c-.37,0-.7-.02-.99-.07-2.2-.47-4-1.66-5.41-3.56-1.41-1.83-2.11-5.69-2.11-11.58,0-3.33.07-5.72.22-7.19.18-1.88.44-4.2.79-6.99.48-2.92.91-5.1,1.27-6.55l.04-.31c0-.06-.21-.12-.62-.18l-5.47-.73c-2.9-.37-4.81-.55-5.73-.55-3.11.21-5.25,1.02-6.44,2.44-.28.28-.63.42-1.05.42-.73,0-1.1-.33-1.1-.99.1-1.21.99-2.22,2.66-3.01,1.54-.7,3.57-1.06,6.09-1.08,1.76.03,4.57.3,8.44.81l4.02.57c.76-1.42,1.61-2.29,2.55-2.59.18-.03.5-.04.97-.04,2.11,0,3.53.87,4.26,2.61l.13.84c1.03.06,1.88.09,2.55.09,1.85,0,3.75-.13,5.71-.4,4.7-.7,7.18-1.75,7.43-3.14.29-.34.61-.5.94-.5.57,0,.86.31.86.94,0,1.11-.6,2.06-1.8,2.83-.79.53-1.68.94-2.68,1.23-2.93.82-6.64,1.23-11.12,1.23l-1.67-.04c-.07.73-.44,2.54-1.1,5.43-.73,4.89-1.14,8.6-1.23,11.12l-.04,2.24c0,3.93.3,7.78.9,11.56.12,1.14.2,1.71.24,1.71l.18-.09.31-.35c1.46-1.96,2.78-4.6,3.96-7.91.23-.69.86-2.34,1.87-4.94.23-.53.41-.84.53-.95s.34-.15.66-.15c.44,0,.78.12,1.01.35.06.06.09.1.09.13,0,.25-.4,1.65-1.21,4.2-.66,2.12-1.54,4.5-2.64,7.12-1.19,2.75-2.18,4.47-2.99,5.14-.6.56-1.49.83-2.68.83l-.59.02v.03Z"/>
      <path class="st4" d="M235.8,356.08c-.37,0-.7-.02-.99-.07-2.2-.47-4-1.66-5.41-3.56-1.41-1.83-2.11-5.69-2.11-11.58,0-3.33.07-5.72.22-7.19.18-1.88.44-4.2.79-6.99.48-2.92.91-5.1,1.27-6.55l.04-.31c0-.06-.21-.12-.62-.18l-5.47-.73c-2.9-.37-4.81-.55-5.73-.55-3.11.21-5.25,1.02-6.44,2.44-.28.28-.63.42-1.05.42-.73,0-1.1-.33-1.1-.99.1-1.21.99-2.22,2.66-3.01,1.54-.7,3.57-1.06,6.09-1.08,1.76.03,4.57.3,8.44.81l4.02.57c.76-1.42,1.61-2.29,2.55-2.59.18-.03.5-.04.97-.04,2.11,0,3.53.87,4.26,2.61l.13.84c1.03.06,1.88.09,2.55.09,1.85,0,3.75-.13,5.71-.4,4.7-.7,7.18-1.75,7.43-3.14.29-.34.61-.5.94-.5.57,0,.86.31.86.94,0,1.11-.6,2.06-1.8,2.83-.79.53-1.68.94-2.68,1.23-2.93.82-6.64,1.23-11.12,1.23l-1.67-.04c-.07.73-.44,2.54-1.1,5.43-.73,4.89-1.14,8.6-1.23,11.12l-.04,2.24c0,3.93.3,7.78.9,11.56.12,1.14.2,1.71.24,1.71l.18-.09.31-.35c1.46-1.96,2.78-4.6,3.96-7.91.23-.69.86-2.34,1.87-4.94.23-.53.41-.84.53-.95s.34-.15.66-.15c.44,0,.78.12,1.01.35.06.06.09.1.09.13,0,.25-.4,1.65-1.21,4.2-.66,2.12-1.54,4.5-2.64,7.12-1.19,2.75-2.18,4.47-2.99,5.14-.6.56-1.49.83-2.68.83l-.59.02v.03Z"/>
      <path class="st4" d="M252.46,351.11c-1.76,0-3.5-.64-5.23-1.91-.94-.67-1.83-1.85-2.67-3.52-.84-1.67-1.26-3.54-1.26-5.62,0-5.6,1.25-9.76,3.76-12.48.79-.79,1.67-1.49,2.64-2.11.98-.47,1.96-.7,2.94-.7,1.2,0,2.4.35,3.6,1.05,1.44.94,2.34,1.96,2.72,3.08.13.42.2.89.2,1.38,0,.62-.08,1.18-.24,1.69-1.08,2.9-3.27,5.5-6.55,7.8-.15.1-.25.2-.31.29s-.09.77-.09,2.04c0,.76.11,1.67.33,2.72.31,1.46.56,2.54.77,3.23.06.41.18.62.35.62,1.48,0,3.71-2.85,6.7-8.55.66-1.26,1.09-2.01,1.3-2.26.12-.15.23-.23.33-.24.89.04,1.34.26,1.34.66,0,.06-.21.56-.62,1.52-.79,1.8-1.39,3.12-1.8,3.96-1.79,3.52-3.44,5.73-4.97,6.64-.89.48-1.98.72-3.25.72h0ZM252.35,337.24l.59-.48c1.73-1.55,2.99-3.4,3.78-5.54.16-.45.24-.94.24-1.45,0-.92-.17-1.55-.51-1.89-.07-.07-.15-.11-.22-.11-.09.01-.22.14-.4.37-.32.32-.59.69-.79,1.1-.35.67-.78,1.7-1.3,3.08s-.89,2.53-1.12,3.47c-.07.41-.14.7-.19.86s-.08.28-.08.35,0,.14-.04.2c0,.03,0,.04.02.04h.02Z"/>
      <path class="st4" d="M276.87,357.22c-.94,0-2.01-.28-3.21-.84-1.39-.64-2.33-1.33-2.81-2.06-.83-1.25-1.37-2.51-1.6-3.78-.16-.88-.24-2.04-.24-3.49l.02-3.14c.03-1.17.23-3,.59-5.47.6-4.37.9-7.37.9-9.01l-.07-2.68-3.74-1.54c-.1.67-.29,1.76-.57,3.25-1.35,6.17-2.19,9.51-2.54,10.02s-.65.77-.91.77-.54-.07-.82-.22c-.29-.15-.46-.27-.52-.36s-.09-.2-.09-.32l.02-.22c1.86-8.48,2.79-13.29,2.79-14.41,0-.18-.06-.32-.18-.44v-.04c-.5-.59-.75-1.23-.75-1.93s.25-1.25.75-1.63c.26-.21.62-.31,1.05-.31.83,0,1.6.21,2.29.62.51.34.98.98,1.41,1.93.29.64.53,1.05.7,1.23.31.25,1.3.69,2.99,1.32,2.23.76,3.93,1.74,5.1,2.94.64.62,1.09,1.3,1.34,2.07s.37,1.77.37,3.03c0,1.11-.25,3.66-.75,7.65-.41,2.94-.64,4.97-.7,6.06-.03.59-.04,1.26-.04,2.02,0,.67.02,1.38.07,2.13.04.75.1,1.4.18,1.96s.14.83.2.83l.77-1.01c.88-1.22,2.26-4.28,4.15-9.18.69-1.92,1.11-3.11,1.26-3.56.15-.45.29-.83.41-1.12s.24-.45.37-.47.29-.02.48.01c.31.06.73.17,1.25.33.23.07.34.19.31.35-.1,1.1-.86,3.68-2.29,7.76-2.31,6.71-4.38,10.31-6.2,10.81-.23.06-.82.11-1.76.15h.02Z"/>
      <path class="st4" d="M323.41,349.42c-1.14,0-2.2-.26-3.16-.79-2.11-1.05-3.78-2.84-5.01-5.36l-.62-1.23c-.06,0-.32.44-.79,1.32-.79,1.44-1.46,2.46-2.02,3.08-.85.95-1.9,1.43-3.14,1.43-.72,0-1.52-.15-2.4-.46-3.37-1.26-5.46-3.88-6.28-7.87-.13-.78-.2-1.56-.2-2.35,0-1.44.23-2.86.68-4.29,1.42-4.42,4.13-6.64,8.13-6.64,1.05,0,2.43.26,4.13.77l1.14.33c.06,0,.16-.28.31-.83.91-3.75,2.59-7.08,5.05-9.98,1.57-1.73,3.3-2.59,5.19-2.59,1.35,0,2.54.39,3.58,1.17.69.51,1.16,1.05,1.41,1.6s.37,1.26.37,2.11c0,1.52-.42,3.11-1.27,4.75-1.33,2.56-3.09,4.53-5.27,5.89l-1.05.75c-.15,1.11-.28,2.4-.4,3.84-.09,1.07-.13,2.69-.13,4.86,0,2.59.06,4.15.18,4.66.21,1.55.53,2.77.97,3.65,1.25-.18,2.72-1.36,4.42-3.56.73-.89,1.46-2.29,2.17-4.2l.64-1.93c.09-.12.25-.18.48-.18l.33.02c.82.16,1.33.37,1.52.62l.02.07c0,.26-.39,1.41-1.16,3.45-1.32,3.25-3.02,5.59-5.1,7.01-.82.59-1.72.89-2.7.9l-.02-.02ZM308.29,344.8l.62-.46c1.39-1.04,2.75-2.86,4.09-5.47l.62-1.23c-.09-.92-.13-1.72-.13-2.39v-4.99c-.25-.21-.41-.31-.48-.31-1.2,0-2.29,1.07-3.25,3.21-1.14,2.3-1.71,4.97-1.71,8.02,0,1.63.09,2.83.26,3.63h-.02ZM322.79,326.74c.15,0,.41-.23.79-.7,1.77-1.77,2.89-3.71,3.34-5.8.09-.31.13-1,.13-2.07,0-.45-.04-.79-.13-1.01-.86.6-1.55,1.46-2.07,2.59-.57,1.41-1.14,3.16-1.71,5.25-.23.88-.35,1.46-.35,1.74h0Z"/>
      <path class="st4" d="M351.22,359.35c-.67,0-1.41-.13-2.2-.4-3.78-1.17-6.14-4.69-7.08-10.55-.1-.56-.18-1.73-.22-3.52l-.4.62c-1.14,1.85-2.2,2.93-3.16,3.25-.35.12-.75.18-1.21.18-.91,0-1.84-.22-2.79-.66-3-1.45-4.5-4.08-4.5-7.89,0-2.23.39-4.25,1.16-6.09,1.25-2.97,2.89-4.79,4.92-5.45.48-.18,1-.26,1.56-.26,1.54,0,3.21.57,5.01,1.71.37.23.74.52,1.12.86s.6.51.66.51l.35-.92c.06-.26.29-.91.7-1.93,1-2.49,2.34-3.74,4.04-3.74.48,0,1,.1,1.54.31,2.01.67,3.01,1.98,3.01,3.91,0,.72-.12,1.52-.37,2.42-1.2,4.22-2,7.53-2.38,9.94-.39,2.41-.58,5.13-.58,8.16,0,1.57.01,2.68.03,3.34s.16,1.53.43,2.61c.09.37.16.55.22.55.12,0,.48-.26,1.1-.77,2.4-2.27,4.72-7.44,6.94-15.51.35-1.38.58-2.09.69-2.13.11-.04.38-.07.8-.07,1,0,1.49.12,1.49.35,0,.47-.42,2.19-1.25,5.16-1.51,5.87-3.36,10.36-5.56,13.45-1.19,1.7-2.55,2.55-4.09,2.55h.02ZM337.36,346.12c1.05-.75,2.39-2.26,4-4.55.5-.67.76-1.17.79-1.49.18-1.25.62-3.32,1.32-6.22-.28-.62-.48-1.01-.62-1.19-.42-.54-.97-1.01-1.63-1.41-.34-.21-.59-.31-.77-.31-.34,0-.68.65-1.03,1.96-.4,1.49-.76,3.05-1.1,4.68-.25,1.17-.47,2.58-.67,4.22s-.3,3.08-.3,4.31h0Z"/>
      <path class="st4" d="M369.92,369.54c-.32,0-.72-.03-1.19-.09-2.23-.29-4.04-1.11-5.45-2.46-.91-.91-1.36-2.15-1.36-3.74,0-.98.18-1.88.53-2.68.38-.98,1.1-1.99,2.15-3.03,1.22-1.22,2.64-2.27,4.26-3.16.95-.51,1.77-1,2.46-1.45,2.11-1.17,3.16-1.78,3.16-1.82,0-.32-.15-2-.44-5.03-.26-2.64-.4-4.1-.4-4.39l-.79,1.58c-2.09,4.19-3.71,6.5-4.83,6.92-.35.13-.78.2-1.27.2-1.35-.03-2.64-.4-3.89-1.12-1.8-1.04-2.96-2.35-3.47-3.93-.19-.59-.29-1.46-.29-2.61,0-2.62.6-5.78,1.8-9.47.41-1.29.82-2.18,1.24-2.66.42-.48,1.01-.73,1.77-.73,1.04,0,2.12.26,3.23.79,1.76.83,2.64,1.82,2.64,2.97,0,.43-.29,1.74-.88,3.93-.82,3.11-1.23,5.34-1.23,6.7v.68c.76-1.03,1.69-2.58,2.79-4.66,2.21-4.22,3.51-7.12,3.89-8.7.53-2.2,1.16-4.06,1.89-5.58.53-1.05,1.3-1.58,2.33-1.58,1.46,0,2.89.66,4.26,1.98.5.47.82.86.97,1.19s.22.75.22,1.27c0,.62-.19,1.52-.57,2.72-.67,2.23-1.08,4-1.23,5.32s-.22,2.56-.22,3.74c0,1.52.1,3.3.31,5.32l.97-1.01c.44-.41.92-.92,1.45-1.54,1.48-2.05,2.57-4.06,3.27-6.02.09-.12.46-.18,1.12-.18.76,0,1.16.21,1.21.62-.1.66-.34,1.41-.72,2.26-1.14,2.96-3.25,5.78-6.33,8.46l-.7.66c.41,3.69.62,6.23.62,7.62,0,2.14-.41,4.07-1.23,5.78-2.11,3.9-5.71,6.18-10.81,6.86-.5.06-.91.09-1.23.09v-.02ZM367.97,367.17c1.29,0,2.64-.56,4.07-1.67,1-.76,1.71-1.66,2.15-2.68.59-1.49.88-3.44.88-5.84-.13-2.08-.23-3.12-.31-3.12l-.31.13c-.91.6-1.82,1.11-2.72,1.54-1.36.73-2.48,1.48-3.34,2.24-2.17,1.8-3.25,3.74-3.25,5.8,0,1.76.62,2.9,1.85,3.43.28.12.61.18.99.18h-.01Z"/>
    </g>
  </g>
  <g class="st2">
    <g class="st2">
      <path class="st4" d="M133.37,455.58c-.91,0-1.85-.21-2.83-.64-.19-.09-.4-.23-.64-.43-.23-.2-.4-.37-.48-.52-.19-.47-.37-2.19-.55-5.16-.19-4.88-.29-7.99-.29-9.34,0-7.19.23-13.22.64-18.08l.2-2.44.31-.31c.38-.41,1.05-.62,2-.62,1.44,0,2.68.24,3.74.73,1.49.7,2.25,1.67,2.26,2.9l.02.75c0,.73-.05,1.82-.15,3.27-.23,3.97-.35,6.98-.35,9.03l.04,1.8c1.77-2.09,3.53-4.09,5.27-6,9.29-11.16,14.59-17.08,15.91-17.75.25-.12.47-.18.66-.18.41,0,.83.21,1.25.64s.64.83.64,1.23c0,.23-.16.61-.48,1.12-.69,1.03-1.32,1.88-1.89,2.55-5.77,6.71-10.43,12.01-13.97,15.91-2.72,2.89-4.09,4.45-4.09,4.68,0,.03,0,.04.04.04.76.09,1.57.34,2.42.77s1.99,1.13,3.43,2.13c1.58,1.1,2.78,1.75,3.58,1.96.51.12,1.07.18,1.67.18.45,0,.82-.04,1.1-.13.13-.06.23-.09.31-.09.32,0,.69.22,1.1.66.26.29.4.56.4.79,0,.46-.69.77-2.07.95-.59.07-1.06.11-1.43.11-1.26,0-2.89-.64-4.88-1.93-1.41-.92-2.42-1.46-3.05-1.6-.26-.06-.62-.09-1.08-.09-1.41,0-2.7.24-3.87.72l-.75.31c0,1.51.12,3.86.37,7.05.12,1.49.18,2.34.18,2.55,0,.89-.92,1.66-2.75,2.29-.45.13-1.1.2-1.93.2h0Z"/>
      <path class="st4" d="M164.37,449.25c-1.76,0-3.5-.64-5.23-1.91-.94-.67-1.83-1.85-2.67-3.52-.84-1.67-1.26-3.54-1.26-5.62,0-5.6,1.25-9.76,3.76-12.48.79-.79,1.67-1.49,2.64-2.11.98-.47,1.96-.7,2.94-.7,1.2,0,2.4.35,3.6,1.05,1.44.94,2.34,1.96,2.72,3.08.13.42.2.89.2,1.38,0,.62-.08,1.18-.24,1.69-1.08,2.9-3.27,5.5-6.55,7.8-.15.1-.25.2-.31.29s-.09.77-.09,2.04c0,.76.11,1.67.33,2.72.31,1.46.56,2.54.77,3.23.06.41.18.62.35.62,1.48,0,3.71-2.85,6.7-8.55.66-1.26,1.09-2.01,1.3-2.26.12-.15.23-.23.33-.24.89.04,1.34.26,1.34.66,0,.06-.21.56-.62,1.52-.79,1.8-1.39,3.12-1.8,3.96-1.79,3.52-3.44,5.73-4.97,6.64-.89.48-1.98.72-3.25.72h0ZM164.26,435.38l.59-.48c1.73-1.55,2.99-3.4,3.78-5.54.16-.45.24-.94.24-1.45,0-.92-.17-1.55-.51-1.89-.07-.07-.15-.11-.22-.11-.09.01-.22.14-.4.37-.32.32-.59.69-.79,1.1-.35.67-.78,1.7-1.3,3.08s-.89,2.53-1.12,3.47c-.07.41-.14.7-.19.86s-.08.28-.08.35,0,.14-.04.2c0,.03,0,.04.02.04h.02Z"/>
      <path class="st4" d="M182.13,449.25c-1.76,0-3.5-.64-5.23-1.91-.94-.67-1.83-1.85-2.67-3.52-.84-1.67-1.26-3.54-1.26-5.62,0-5.6,1.25-9.76,3.76-12.48.79-.79,1.67-1.49,2.64-2.11.98-.47,1.96-.7,2.94-.7,1.2,0,2.4.35,3.6,1.05,1.44.94,2.34,1.96,2.72,3.08.13.42.2.89.2,1.38,0,.62-.08,1.18-.24,1.69-1.08,2.9-3.27,5.5-6.55,7.8-.15.1-.25.2-.31.29s-.09.77-.09,2.04c0,.76.11,1.67.33,2.72.31,1.46.56,2.54.77,3.23.06.41.18.62.35.62,1.48,0,3.71-2.85,6.7-8.55.66-1.26,1.09-2.01,1.3-2.26.12-.15.23-.23.33-.24.89.04,1.34.26,1.34.66,0,.06-.21.56-.62,1.52-.79,1.8-1.39,3.12-1.8,3.96-1.79,3.52-3.44,5.73-4.97,6.64-.89.48-1.98.72-3.25.72h0ZM182.02,435.38l.59-.48c1.73-1.55,2.99-3.4,3.78-5.54.16-.45.24-.94.24-1.45,0-.92-.17-1.55-.51-1.89-.07-.07-.15-.11-.22-.11-.09.01-.22.14-.4.37-.32.32-.59.69-.79,1.1-.35.67-.78,1.7-1.3,3.08s-.89,2.53-1.12,3.47c-.07.41-.14.7-.19.86s-.08.28-.08.35,0,.14-.04.2c0,.03,0,.04.02.04h.02Z"/>
      <path class="st4" d="M198.32,458.1c-1.27,0-2.58-.37-3.91-1.1-1.03-.56-1.7-1.19-2.02-1.89-.38-1.03-.75-3.16-1.12-6.42s-.55-6.25-.55-9.01c0-2.23.12-4.99.37-8.28.45-5.95.96-9.24,1.52-9.89.31-.35,1-.53,2.07-.53,1.14,0,2.31.31,3.52.94,1.45.79,2.19,1.71,2.22,2.77v.29c0,.43-.02.97-.07,1.65l.02.81c.07-.07.18-.22.31-.44.98-1.64,1.94-2.69,2.88-3.14.51-.25,1.04-.37,1.58-.37,1.44,0,2.99.85,4.66,2.54s2.66,3.29,2.98,4.8c.31,1.51.47,2.64.47,3.41,0,2.72-.94,5.08-2.83,7.08-2.05,2.05-4.15,3.08-6.31,3.08-.92,0-1.68-.05-2.26-.15-.28-.06-1-.29-2.18-.68l-.24-.04c0,.59.04,1.43.11,2.53.34,3.96.74,7.02,1.21,9.21.13.63.2,1.08.2,1.36,0,.23-.04.42-.11.57-.48.62-1.32.92-2.5.92l-.02-.02ZM199.55,441.38c.5-.07.85-.15,1.05-.24,1.85-.88,3.35-2.71,4.53-5.49.63-1.57,1.08-3.47,1.36-5.71l.02-.73c0-.86-.06-1.65-.18-2.35-.07-.44-.15-.66-.24-.66-.35,0-.86.34-1.54,1.01-1.17,1.14-2.52,3.33-4.04,6.55l-.92,1.98-.2,4.88c0,.51.05.77.15.77h0Z"/>
      <path class="st4" d="M247.12,451.25c-.35,0-.64-.01-.88-.04-.72-.09-1.52-.4-2.42-.92-1.67-.86-2.5-1.92-2.5-3.16,0-.38.12-.57.35-.57.53,0,.98.09,1.36.26.73.35,1.1.82,1.1,1.41,0,.18.12.4.35.66s.48.4.75.4c.15,0,.44-.04.88-.13.64-.23,1.27-.86,1.89-1.89.7-1.2,1.05-2.45,1.05-3.74,0-.73,0-1.22-.04-1.45-.06-.38-.19-.67-.4-.88-.06-.06-.13-.09-.22-.09-.76,0-2.61.81-5.54,2.42-1.82,1.05-3.09,1.68-3.82,1.89-.35.06-.78.09-1.27.09-2.02-.18-3.79-1.04-5.32-2.59-1.26-1.41-1.89-3.02-1.89-4.83.47-3.78,1.86-7.05,4.17-9.8,1.52-1.82,3.71-3.03,6.55-3.65.63-.15,1.52-.22,2.68-.22,1.66,0,2.97.22,3.96.66,1.05.53,1.85,1.05,2.37,1.58.56.44,1.01,1.11,1.36,2.02.32.76.48,1.68.48,2.77-.03,1.11-.21,2.2-.53,3.25-.5,1.46-1.03,2.2-1.58,2.2-.18,0-.4-.07-.66-.2-.26-.13-.5-.29-.7-.46s-.31-.34-.31-.48c0-.16.13-.6.4-1.32.44-1.49.66-2.81.66-3.96,0-.88-.13-1.66-.4-2.33-.1-.28-.21-.44-.31-.48-1.2,0-2.4.59-3.6,1.76-.38.38-1.22,1.38-2.5,2.99-2.02,2.65-3.24,5.42-3.65,8.31-.04.34-.07.58-.07.72l.02.11,3.87-1.27c1.89-.7,3.24-1.05,4.04-1.05.56,0,1,.04,1.32.13s.73.23,1.23.44c1.96,1.04,2.94,2.78,2.94,5.23,0,1.38-.37,2.61-1.1,3.69-1.08,1.7-2.45,2.55-4.09,2.55l.02-.03Z"/>
      <path class="st4" d="M261.19,450.06c-2.77,0-4.85-1.26-6.24-3.78-.63-1.05-.94-3.33-.94-6.81,0-3.69.2-6.55.59-8.57.5-3.12,1.49-4.86,2.99-5.23.23-.06.6-.09,1.1-.09.62,0,1.23.1,1.85.31,1.99.62,2.99,1.77,2.99,3.47,0,.62-.09,1.6-.26,2.94-.25,1.99-.37,3.3-.37,3.91l.02.13.88-2.81c1.14-3.87,1.95-6.42,2.42-7.65.45-1.07.92-1.88,1.41-2.42.35-.41.94-.62,1.76-.62,1,0,1.99.21,2.99.62,1.23.5,2.18,1.26,2.86,2.29.79,1.25,1.19,3.5,1.19,6.77-.07,2.92-.19,4.92-.35,6.02,1.27-2.23,2.37-3.53,3.3-3.91.19-.12.67-.18,1.45-.18,1.17,0,2.14.26,2.9.79.85.62,1.89,2.02,3.12,4.22.6,1.13,1.04,1.93,1.32,2.42.4.66.79,1.22,1.19,1.67.69.76,1.19,1.14,1.49,1.14,1.7,0,3.93-1.32,6.68-3.96.59-.59,1-.94,1.23-1.05.25,0,.57.07.97.22.29.16.44.32.44.48,0,.15-.18.44-.53.88-1.8,2.01-2.89,3.16-3.25,3.47-1.48,1.26-3.12,1.89-4.92,1.89-.38,0-.76-.03-1.14-.09-2.75-.47-4.94-1.74-6.55-3.82-.54-.69-1.22-1.99-2.02-3.91l-.79-1.93c-.38.42-.82,1.03-1.32,1.8-.72,1.04-1.44,2.34-2.15,3.91-1.07,2.5-1.99,3.84-2.77,4-.23.06-.47.09-.7.09-1.07,0-2.05-.26-2.94-.79-1.61-1.11-2.75-3.69-3.43-7.73-.12-.7-.18-1.38-.18-2.02,0-.32.06-1.95.18-4.88-.15.15-.77,2.5-1.87,7.05-.6,2.65-1.05,5.14-1.34,7.47-.19,1.58-.45,2.66-.79,3.23-.44.7-1.25,1.05-2.42,1.05h-.05Z"/>
      <path class="st4" d="M304.93,452.3c-1.55,0-3.13-.47-4.75-1.41-1.26-.76-2.24-1.71-2.94-2.86-.81-1.38-1.21-3.52-1.21-6.42s.49-6.17,1.47-9.76c.41-1.58.85-2.58,1.31-2.99s1.3-.62,2.52-.62c.82,0,1.45.07,1.89.22,2.18.62,3.27,1.63,3.27,3.03,0,.79-.21,2.07-.64,3.82-.69,3.13-1.03,5.82-1.03,8.04,0,.62.05,1.54.15,2.77.12,1.48.25,2.43.4,2.86.03,0,.26-.15.7-.44,2.14-1.58,4.24-5.81,6.31-12.68.07-.26.21-.39.4-.39.18,0,.52.06,1.03.18.45.12.68.27.68.46-.47,2.56-1.47,5.74-3.01,9.54-.63,1.45-1.22,2.58-1.76,3.38-1.46,2.15-3.06,3.24-4.79,3.25v.02ZM305.77,426.62c-1.2,0-2.27-.33-3.21-1s-1.41-1.31-1.41-1.92c0-.09.05-.2.15-.33.1-.13.3-.26.59-.37s.62-.19.97-.22c1.92,0,3.3.75,4.13,2.24.15.29.22.55.22.77,0,.56-.48.84-1.45.84h.01Z"/>
      <path class="st4" d="M322.62,453.45c-2.23,0-4.28-.64-6.17-1.93-1.64-1.11-2.77-2.62-3.37-4.52-.61-1.9-.91-4.38-.91-7.46.28-7.79,1.54-13.9,3.78-18.33.82-1.77,1.8-3.01,2.94-3.71,1.92-1.22,3.84-1.82,5.76-1.82,1.3,0,2.49.3,3.56.9,1.79.83,2.68,2.45,2.68,4.86,0,1.13-.22,2.37-.66,3.73-1.79,5.61-3.96,9.7-6.53,12.26-1.16,1.14-2.11,1.96-2.86,2.46.07,3.06.28,5.38.62,6.96.22.92.53,1.85.92,2.77.18.41.29.62.33.62.18,0,.54-.21,1.08-.64.82-.63,1.74-1.71,2.77-3.25,1.44-2.31,2.6-4.83,3.49-7.56.62-1.96.94-3.02.97-3.19.01-.06.1-.09.26-.09.18,0,.42.03.73.09.4.09.7.15.91.2.21.04.34.09.38.13s.07.11.07.2c-.19.88-.8,2.81-1.82,5.78-.4,1.11-1.08,2.66-2.07,4.64-.69,1.32-1.37,2.49-2.04,3.52-1.44,2.26-3.04,3.38-4.81,3.38h0ZM321.15,436.09s.11-.08.27-.25.39-.4.67-.7c.28-.3.54-.6.77-.91,3.47-5.7,5.21-10.06,5.21-13.07,0-.38-.02-.77-.07-1.18-.04-.4-.1-.74-.18-1s-.14-.4-.2-.4c-.1,0-.39.26-.86.77-.31.34-.74,1.11-1.3,2.31-.29.82-.73,1.88-1.32,3.16-1.13,2.7-2.01,5.66-2.64,8.9-.25,1.27-.37,2.07-.37,2.37h.02Z"/>
      <path class="st4" d="M339.14,452.3c-1.55,0-3.13-.47-4.75-1.41-1.26-.76-2.24-1.71-2.94-2.86-.81-1.38-1.21-3.52-1.21-6.42s.49-6.17,1.47-9.76c.41-1.58.85-2.58,1.31-2.99s1.3-.62,2.52-.62c.82,0,1.45.07,1.89.22,2.18.62,3.27,1.63,3.27,3.03,0,.79-.21,2.07-.64,3.82-.69,3.13-1.03,5.82-1.03,8.04,0,.62.05,1.54.15,2.77.12,1.48.25,2.43.4,2.86.03,0,.26-.15.7-.44,2.14-1.58,4.24-5.81,6.31-12.68.07-.26.21-.39.4-.39.18,0,.52.06,1.03.18.45.12.68.27.68.46-.47,2.56-1.47,5.74-3.01,9.54-.63,1.45-1.22,2.58-1.76,3.38-1.46,2.15-3.06,3.24-4.79,3.25v.02ZM339.98,426.62c-1.2,0-2.27-.33-3.21-1s-1.41-1.31-1.41-1.92c0-.09.05-.2.15-.33.1-.13.3-.26.59-.37s.62-.19.97-.22c1.92,0,3.3.75,4.13,2.24.15.29.22.55.22.77,0,.56-.48.84-1.45.84h.01Z"/>
      <path class="st4" d="M371.75,456.81c-.76,0-1.57-.23-2.42-.68-.5-.23-1.01-.6-1.54-1.1-1.88-1.55-3.13-3.71-3.78-6.46-.26-1-.4-2.07-.4-3.21,0-1.05.35-4.67,1.05-10.85.21-2.26.31-4.25.31-5.98,0-1.17-.03-2.17-.09-2.99-1.66,1.83-3.03,4.29-4.13,7.38-.7,2.11-1.48,4.86-2.33,8.26-.64,2.49-1.17,4.13-1.58,4.92-.35.59-1.01.88-1.98.88-1.93,0-3.75-.7-5.45-2.11-1.03-.85-1.76-1.79-2.2-2.81-.54-1.41-.85-3.28-.92-5.62,0-2.17.01-3.62.04-4.35.09-.97.22-1.67.4-2.11.23-.57.62-.92,1.14-1.05.23-.06.67-.09,1.32-.09.88,0,1.58.09,2.11.26,2.17.72,3.38,1.6,3.65,2.64.03.15.04.78.04,1.89,0,1.44.01,2.55.04,3.34.12,2.34.25,3.59.4,3.74.09-.12.75-2.27,1.98-6.46.85-2.75,1.74-4.97,2.68-6.64.7-1.2,1.43-2.26,2.18-3.16s1.4-1.49,1.96-1.74,1.19-.37,1.89-.37c1.64,0,3.21.48,4.7,1.45,1.01.67,1.7,1.41,2.07,2.2.59,1,.88,2.05.88,3.16,0,3.37-.34,8.09-1.03,14.15-.22,2.11-.36,3.49-.42,4.15-.06.66-.13,1.25-.22,1.78-.18,2.02-.26,3.44-.26,4.26,0,.47.1.7.29.7.09,0,.2-.04.33-.13,1.19-1.3,2.37-3.53,3.56-6.68.64-1.8,1.16-3.39,1.54-4.77,1.36-4.91,2.07-7.41,2.12-7.49.05-.09.17-.13.34-.13.47,0,1,.12,1.6.35.13.18.2.38.2.62,0,.22-.04.48-.11.79-1.44,7.21-3.03,12.36-4.77,15.47-1.35,2.52-2.61,4-3.78,4.44-.21.06-.67.11-1.41.15h0Z"/>
      <path class="st4" d="M387.77,459.64c-.94,0-1.98-.26-3.12-.79-1.61-.73-2.59-2.04-2.94-3.91-.06-.29-.09-.59-.09-.9,0-1.39.59-2.99,1.78-4.79,1.19-1.8,2.88-3.1,5.08-3.89.92-.32,2.23-.67,3.91-1.05.34-.06.53-.14.59-.23.06-.1.09-.97.09-2.63l-.11-5.49s-.25.37-.62,1.1c-1.9,3.93-3.68,6.06-5.32,6.42-.26.06-.54.09-.83.09-.7,0-1.46-.18-2.29-.53-1.67-.72-2.92-1.81-3.76-3.27-.66-1.17-.99-2.54-.99-4.11s.35-3.31,1.05-5.19c.62-1.67,1.49-3.16,2.64-4.48,1.68-1.96,3.48-2.94,5.38-2.94,1.54,0,3.14.63,4.81,1.89l.97.75.35-.53c.48-.75,1.13-1.12,1.96-1.12.54,0,1.17.17,1.87.51.97.38,1.61,1.06,1.92,2.04.31.98.47,2.62.47,4.92,0,3.65-.09,6.69-.29,9.12l-.04,1.54.75-.44c.59-.37,1.53-1.25,2.83-2.64.29-.31.7-.89,1.21-1.76.47-.73.75-1.16.85-1.29.09-.12.25-.19.45-.19.13,0,.3.03.51.1.21.07.37.15.48.26.12.11.22.2.31.27-1.19,2.2-1.93,3.5-2.22,3.91-1.13,1.6-2.64,2.77-4.55,3.52-.54.22-.85.37-.91.45-.07.08-.1.17-.1.25-.64,3.09-1.3,5.39-1.98,6.9-.91,1.93-2.11,3.62-3.6,5.05-2.05,2.05-4.22,3.08-6.5,3.08ZM385.57,457.18c.1-.03.23-.05.38-.07.15-.02.44-.12.85-.33,1.16-.54,2.29-1.6,3.38-3.16,1.16-1.71,1.9-3.62,2.24-5.71.06-.29.11-.53.15-.72s.07-.35.09-.48c.01-.13.03-.22.03-.25,0-.04.01-.07.01-.1s-.02-.08-.07-.15c-.18,0-.76.19-1.76.57-1.44.56-2.56,1.25-3.36,2.09-.6.63-1.18,1.53-1.74,2.7-.53.98-.79,1.99-.79,3.03,0,.67.02,1.11.07,1.32s.21.63.51,1.27h0ZM387,439.93s.26-.21.66-.63.81-.96,1.25-1.64c.64-.94,1.74-3.01,3.27-6.22.54-1.13.86-1.85.95-2.18l-.02-.24-.04-.02c-.09,0-.21.04-.36.13s-.3.16-.45.22c-2.31,1.14-3.84,3.66-4.57,7.56l-.68,3.01h-.01Z"/>
    </g>
  </g>
  <g class="st2">
    <g class="st2">
      <path class="st0" d="M440.62,443.93c.23-.37.52-.83.88-1.38.35-.55.72-1.12,1.1-1.7.38-.58.75-1.15,1.1-1.7.35-.55.64-1.02.88-1.42.13-.2.29-.19.47.03s.31.41.38.58c0,.13-.03.33-.1.6-.5,1.1-1.09,2.29-1.78,3.58-.68,1.28-1.44,2.47-2.28,3.55-.83,1.08-1.75,2-2.75,2.75s-2.07,1.12-3.2,1.12c-.73,0-1.34-.24-1.83-.72-.48-.48-1.06-1.16-1.73-2.03-.87.7-1.8,1.37-2.8,2s-1.98.95-2.95.95c-.47,0-.94-.14-1.42-.42s-.92-.67-1.33-1.15c-.4-.48-.72-1.07-.97-1.75s-.38-1.42-.38-2.22c0-1.4.29-2.82.88-4.25.58-1.43,1.35-2.74,2.3-3.93.95-1.18,2.05-2.15,3.3-2.9s2.54-1.12,3.88-1.12c1.23,0,2.45.28,3.65.85.37-.3.78-.64,1.22-1.02.45-.38.91-.58,1.38-.58.2,0,.43.04.68.12s.5.2.75.35.46.34.62.57c.17.23.25.48.25.75,0,.23-.08.51-.23.82-.15.32-.31.59-.47.82-.37.83-.73,1.62-1.08,2.37-.35.75-.68,1.5-1,2.24-.32.75-.6,1.51-.85,2.29s-.48,1.62-.68,2.52c-.17.47-.27.86-.32,1.2-.05.33-.08.61-.08.85,0,.63.2.95.6.95.23,0,.53-.11.88-.33s.71-.5,1.08-.85.72-.73,1.05-1.15c.33-.42.63-.82.9-1.22v-.02ZM434.97,434.83c-.23-.13-.5-.2-.8-.2-.6,0-1.36.36-2.28,1.08s-1.82,1.62-2.7,2.7c-.88,1.08-1.64,2.26-2.28,3.53-.63,1.27-.95,2.47-.95,3.6,0,1.07.48,1.7,1.45,1.9.93-.47,1.73-.97,2.4-1.53.67-.55,1.3-1.21,1.9-1.97.1-.67.28-1.41.53-2.22s.54-1.63.88-2.45c.33-.82.67-1.61,1-2.38.33-.77.62-1.45.85-2.05h0Z"/>
      <path class="st0" d="M455.37,431.78c.17-.03.31-.06.43-.07.12-.02.24-.03.38-.03.77,0,1.39.28,1.88.83.48.55.72,1.31.72,2.27,0,.67-.1,1.27-.3,1.8,0,.57-.21,1.29-.62,2.17-.42.88-.88,1.8-1.4,2.75s-.98,1.87-1.4,2.75c-.42.88-.62,1.61-.62,2.17,0,.6.28.95.85,1.05.87-.6,1.62-1.22,2.25-1.88.63-.65,1.2-1.32,1.7-2s.96-1.37,1.38-2.05.86-1.33,1.33-1.92c.33-.43.63-.88.9-1.35s.68-.92,1.25-1.35c.07.23.12.42.17.58.05.15.08.27.08.38,0,.27-.05.55-.15.85-.1.3-.22.57-.35.8-.57,1-1.22,2.14-1.97,3.43s-1.55,2.49-2.4,3.62-1.73,2.09-2.65,2.88c-.92.78-1.79,1.17-2.62,1.17s-1.67-.37-2.4-1.1c-.73-.73-1.1-1.72-1.1-2.95.1-2.1.59-4.09,1.47-5.98.88-1.88,1.86-3.79,2.92-5.72-.17-.2-.35-.3-.55-.3-.07,0-.13.02-.2.05s-.13.07-.2.1c-1.97,1.77-3.62,3.74-4.95,5.92-1.33,2.18-2.23,4.51-2.7,6.98-.1.57-.23,1.1-.4,1.6s-.48.75-.95.75c-.27,0-.54-.07-.82-.2s-.55-.3-.8-.5-.47-.41-.67-.62c-.2-.22-.32-.41-.35-.57-.43-.33-.65-1.02-.65-2.05,0-1.17.14-2.31.42-3.42.28-1.12.59-2.21.93-3.27s.65-2.12.95-3.18c.3-1.05.47-2.07.5-3.07.03-.8.4-1.46,1.1-1.98.7-.52,1.58-.77,2.65-.77.47,0,.85.12,1.15.38s.45.56.45.92c0,.4-.11.97-.33,1.72s-.47,1.53-.78,2.33c-.3.8-.62,1.57-.95,2.3-.33.73-.62,1.27-.85,1.6l.2.15s-.03.08-.1.15c0-.03-.02,0-.05.12s-.07.25-.1.4-.08.29-.12.43-.08.22-.08.25c.6-.8,1.18-1.69,1.75-2.68.57-.98,1.17-1.92,1.8-2.8.63-.88,1.35-1.67,2.15-2.38s1.75-1.18,2.85-1.45h-.03Z"/>
      <path class="st0" d="M475.52,432.93c.53-1.07.98-2,1.35-2.78.37-.79.72-1.52,1.05-2.19s.67-1.33,1.03-1.98c.35-.65.79-1.4,1.32-2.24.27-.47.63-.95,1.1-1.43.47-.49.98-.73,1.55-.73.37,0,.68.11.95.32.27.22.4.49.4.83.03.37-.02.73-.17,1.1-.15.37-.29.7-.42,1l-2,4.5c-.6,1.33-1.21,2.66-1.83,3.97-.62,1.32-1.21,2.65-1.77,4-.57,1.35-1.09,2.72-1.58,4.1-.48,1.38-.88,2.79-1.17,4.23-.03.17-.07.34-.1.52s-.05.38-.05.58.05.48.15.85.35.55.75.55c.23,0,.51-.13.82-.4.32-.27.63-.6.95-1s.63-.82.95-1.25.58-.8.78-1.1c.57-.87,1.1-1.74,1.6-2.62s1-1.76,1.5-2.62c.17-.17.29-.37.38-.6.08-.23.31-.35.67-.35.23,0,.43.08.6.22.17.15.25.31.25.48,0,.2-.03.4-.1.6s-.13.38-.2.55c-.53,1.03-1.09,2.18-1.67,3.43s-1.22,2.42-1.9,3.52c-.68,1.1-1.42,2.03-2.2,2.78s-1.66,1.12-2.62,1.12c-.67,0-1.26-.12-1.78-.38s-.96-.58-1.33-1-.67-.88-.92-1.4-.46-1.04-.62-1.58c-.47.37-.91.75-1.33,1.15s-.85.77-1.3,1.1c-.45.33-.91.61-1.38.83s-.98.33-1.55.33c-1.27,0-2.33-.47-3.17-1.42-.85-.95-1.28-2.2-1.28-3.76,0-1.4.27-2.83.8-4.31s1.28-2.83,2.23-4.04c.95-1.21,2.08-2.21,3.4-2.99s2.76-1.17,4.33-1.17c1.03,0,2.22.23,3.55.7l-.02-.02ZM466.37,447.13c.07,0,.11,0,.12.02.02.02.06.03.12.03.23,0,.38-.02.45-.05.57-.33,1.12-.68,1.67-1.05s1.05-.76,1.5-1.18c.45-.42.83-.88,1.12-1.4s.5-1.12.6-1.83c.1-.43.24-.91.42-1.42s.39-1.05.62-1.6c.23-.55.48-1.09.73-1.62s.47-1.05.67-1.55c.03-.1.07-.2.1-.3s.05-.22.05-.35-.04-.27-.12-.4-.31-.2-.68-.2c-.5,0-.98.16-1.45.48s-.88.62-1.25.92c-1.47,1.27-2.69,2.83-3.68,4.67s-1.47,3.72-1.47,5.62c0,.47.15.87.45,1.2h.03Z"/>
    </g>
  </g>
  <g class="st2">
    <g class="st2">
      <path class="st4" d="M170.65,519.44c-.35,0-.64-.01-.88-.04-.72-.09-1.52-.4-2.42-.92-1.67-.86-2.5-1.92-2.5-3.16,0-.38.12-.57.35-.57.53,0,.98.09,1.36.26.73.35,1.1.82,1.1,1.41,0,.18.12.4.35.66s.48.4.75.4c.15,0,.44-.04.88-.13.64-.23,1.27-.86,1.89-1.89.7-1.2,1.05-2.45,1.05-3.74,0-.73,0-1.22-.04-1.45-.06-.38-.19-.67-.4-.88-.06-.06-.13-.09-.22-.09-.76,0-2.61.81-5.54,2.42-1.82,1.05-3.09,1.68-3.82,1.89-.35.06-.78.09-1.27.09-2.02-.18-3.79-1.04-5.32-2.59-1.26-1.41-1.89-3.02-1.89-4.83.47-3.78,1.86-7.05,4.17-9.8,1.52-1.82,3.71-3.03,6.55-3.65.63-.15,1.52-.22,2.68-.22,1.66,0,2.97.22,3.96.66,1.05.53,1.85,1.05,2.37,1.58.56.44,1.01,1.11,1.36,2.02.32.76.48,1.68.48,2.77-.03,1.11-.21,2.2-.53,3.25-.5,1.46-1.03,2.2-1.58,2.2-.18,0-.4-.07-.66-.2-.26-.13-.5-.29-.7-.46s-.31-.34-.31-.48c0-.16.13-.6.4-1.32.44-1.49.66-2.81.66-3.96,0-.88-.13-1.66-.4-2.33-.1-.28-.21-.44-.31-.48-1.2,0-2.4.59-3.6,1.76-.38.38-1.22,1.38-2.5,2.99-2.02,2.65-3.24,5.42-3.65,8.31-.04.34-.07.58-.07.72l.02.11,3.87-1.27c1.89-.7,3.24-1.05,4.04-1.05.56,0,1,.04,1.32.13s.73.23,1.23.44c1.96,1.04,2.94,2.78,2.94,5.23,0,1.38-.37,2.61-1.1,3.69-1.08,1.7-2.45,2.55-4.09,2.55l.02-.03Z"/>
      <path class="st4" d="M186.18,522.41c-.37,0-.7-.02-.99-.07-2.2-.47-4-1.66-5.41-3.56-1.41-1.83-2.11-5.69-2.11-11.58,0-3.33.07-5.72.22-7.19.18-1.88.44-4.2.79-6.99.48-2.92.91-5.1,1.27-6.55l.04-.31c0-.06-.21-.12-.62-.18l-5.47-.73c-2.9-.37-4.81-.55-5.73-.55-3.11.21-5.25,1.02-6.44,2.44-.28.28-.63.42-1.05.42-.73,0-1.1-.33-1.1-.99.1-1.21.99-2.22,2.66-3.01,1.54-.7,3.57-1.06,6.09-1.08,1.76.03,4.57.3,8.44.81l4.02.57c.76-1.42,1.61-2.29,2.55-2.59.18-.03.5-.04.97-.04,2.11,0,3.53.87,4.26,2.61l.13.84c1.03.06,1.88.09,2.55.09,1.85,0,3.75-.13,5.71-.4,4.7-.7,7.18-1.75,7.43-3.14.29-.34.61-.5.94-.5.57,0,.86.31.86.94,0,1.11-.6,2.06-1.8,2.83-.79.53-1.68.94-2.68,1.23-2.93.82-6.64,1.23-11.12,1.23l-1.67-.04c-.07.73-.44,2.54-1.1,5.43-.73,4.89-1.14,8.6-1.23,11.12l-.04,2.24c0,3.93.3,7.78.9,11.56.12,1.14.2,1.71.24,1.71l.18-.09.31-.35c1.46-1.96,2.78-4.6,3.96-7.91.23-.69.86-2.34,1.87-4.94.23-.53.41-.84.53-.95s.34-.15.66-.15c.44,0,.78.12,1.01.35.06.06.09.1.09.13,0,.25-.4,1.65-1.21,4.2-.66,2.12-1.54,4.5-2.64,7.12-1.19,2.75-2.18,4.47-2.99,5.14-.6.56-1.49.83-2.68.83l-.59.02v.03Z"/>
      <path class="st4" d="M215.23,525.68c-.67,0-1.41-.13-2.2-.4-3.78-1.17-6.14-4.69-7.08-10.55-.1-.56-.18-1.73-.22-3.52l-.4.62c-1.14,1.85-2.2,2.93-3.16,3.25-.35.12-.75.18-1.21.18-.91,0-1.84-.22-2.79-.66-3-1.45-4.5-4.08-4.5-7.89,0-2.23.39-4.25,1.16-6.09,1.25-2.97,2.89-4.79,4.92-5.45.48-.18,1-.26,1.56-.26,1.54,0,3.21.57,5.01,1.71.37.23.74.52,1.12.86.38.34.6.51.66.51l.35-.92c.06-.26.29-.91.7-1.93,1-2.49,2.34-3.74,4.04-3.74.48,0,1,.1,1.54.31,2.01.67,3.01,1.98,3.01,3.91,0,.72-.12,1.52-.37,2.42-1.2,4.22-2,7.53-2.38,9.94-.39,2.41-.58,5.13-.58,8.16,0,1.57,0,2.68.03,3.34.02.66.16,1.53.43,2.61.09.37.16.55.22.55.12,0,.48-.26,1.1-.77,2.4-2.27,4.72-7.44,6.94-15.51.35-1.38.58-2.09.69-2.13s.38-.07.8-.07c1,0,1.49.12,1.49.35,0,.47-.42,2.19-1.25,5.16-1.51,5.87-3.36,10.36-5.56,13.45-1.19,1.7-2.55,2.55-4.09,2.55h.02ZM201.37,512.45c1.05-.75,2.39-2.26,4-4.55.5-.67.76-1.17.79-1.49.18-1.25.62-3.32,1.32-6.22-.28-.62-.48-1.01-.62-1.19-.42-.54-.97-1.01-1.63-1.41-.34-.21-.59-.31-.77-.31-.34,0-.68.65-1.03,1.96-.4,1.49-.76,3.05-1.1,4.68-.25,1.17-.47,2.58-.67,4.22s-.3,3.08-.3,4.31h.01Z"/>
      <path class="st4" d="M233.93,535.87c-.32,0-.72-.03-1.19-.09-2.23-.29-4.04-1.11-5.45-2.46-.91-.91-1.36-2.15-1.36-3.74,0-.98.18-1.88.53-2.68.38-.98,1.1-1.99,2.15-3.03,1.22-1.22,2.64-2.27,4.26-3.16.95-.51,1.77-1,2.46-1.45,2.11-1.17,3.16-1.78,3.16-1.82,0-.32-.15-2-.44-5.03-.26-2.64-.4-4.1-.4-4.39l-.79,1.58c-2.09,4.19-3.71,6.5-4.83,6.92-.35.13-.78.2-1.27.2-1.35-.03-2.64-.4-3.89-1.12-1.8-1.04-2.96-2.35-3.47-3.93-.19-.59-.29-1.46-.29-2.61,0-2.62.6-5.78,1.8-9.47.41-1.29.82-2.18,1.24-2.66s1.01-.73,1.77-.73c1.04,0,2.12.26,3.23.79,1.76.83,2.64,1.82,2.64,2.97,0,.43-.29,1.74-.88,3.93-.82,3.11-1.23,5.34-1.23,6.7v.68c.76-1.03,1.69-2.58,2.79-4.66,2.21-4.22,3.51-7.12,3.89-8.7.53-2.2,1.16-4.06,1.89-5.58.53-1.05,1.3-1.58,2.33-1.58,1.46,0,2.89.66,4.26,1.98.5.47.82.86.97,1.19s.22.75.22,1.27c0,.62-.19,1.52-.57,2.72-.67,2.23-1.08,4-1.23,5.32s-.22,2.56-.22,3.74c0,1.52.1,3.3.31,5.32l.97-1.01c.44-.41.92-.92,1.45-1.54,1.48-2.05,2.57-4.06,3.27-6.02.09-.12.46-.18,1.12-.18.76,0,1.16.21,1.21.62-.1.66-.34,1.41-.73,2.26-1.14,2.96-3.25,5.78-6.33,8.46l-.7.66c.41,3.69.62,6.23.62,7.62,0,2.14-.41,4.07-1.23,5.78-2.11,3.9-5.71,6.18-10.81,6.86-.5.06-.91.09-1.23.09v-.02ZM231.97,533.5c1.29,0,2.64-.56,4.06-1.67,1-.76,1.71-1.66,2.15-2.68.59-1.49.88-3.44.88-5.84-.13-2.08-.23-3.12-.31-3.12l-.31.13c-.91.6-1.82,1.11-2.72,1.54-1.36.73-2.48,1.48-3.34,2.24-2.17,1.8-3.25,3.74-3.25,5.8,0,1.76.62,2.9,1.85,3.43.28.12.61.18.99.18h0Z"/>
      <path class="st4" d="M274.62,526.29c-1.27,0-2.58-.37-3.91-1.1-1.03-.56-1.7-1.19-2.02-1.89-.38-1.03-.75-3.16-1.12-6.42s-.55-6.25-.55-9.01c0-2.23.12-4.99.37-8.28.45-5.95.96-9.24,1.52-9.89.31-.35,1-.53,2.07-.53,1.14,0,2.31.31,3.52.94,1.45.79,2.19,1.71,2.22,2.77v.29c0,.43-.02.97-.07,1.65l.02.81c.07-.07.18-.22.31-.44.98-1.64,1.94-2.69,2.88-3.14.51-.25,1.04-.37,1.58-.37,1.44,0,2.99.85,4.66,2.54s2.66,3.29,2.98,4.8c.31,1.51.47,2.64.47,3.41,0,2.72-.94,5.08-2.83,7.08-2.05,2.05-4.15,3.08-6.31,3.08-.92,0-1.68-.05-2.26-.15-.28-.06-1-.29-2.18-.68l-.24-.04c0,.59.04,1.43.11,2.53.34,3.96.74,7.02,1.21,9.21.13.63.2,1.08.2,1.36,0,.23-.04.42-.11.57-.48.62-1.32.92-2.5.92l-.02-.02ZM275.85,509.57c.5-.07.85-.15,1.05-.24,1.85-.88,3.35-2.71,4.53-5.49.63-1.57,1.08-3.47,1.36-5.71l.02-.73c0-.86-.06-1.65-.18-2.35-.07-.44-.15-.66-.24-.66-.35,0-.86.34-1.54,1.01-1.17,1.14-2.52,3.33-4.04,6.55l-.92,1.98-.2,4.88c0,.51.05.77.15.77h.01Z"/>
      <path class="st4" d="M299.03,516.78c-.38,0-.78-.04-1.19-.11-2.61-.5-4.53-1.98-5.76-4.44-.73-1.61-1.1-3.33-1.1-5.16,0-1.55.26-3.19.79-4.9.97-2.7,2.34-4.2,4.13-4.53.28-.04.44-.16.48-.35.19-.62,1.01-.92,2.46-.92,1.55,0,2.87.42,3.96,1.27l.35.26c2.81-.01,5.62-.04,8.44-.09.75,0,1.14.33,1.19.99-.06.59-.35.89-.88.9-4.8,0-7.21.04-7.21.13.91,1.58,1.36,3.47,1.36,5.67,0,1.33-.16,2.7-.48,4.09-.62,2.55-1.57,4.42-2.86,5.62-1.04,1.04-2.27,1.56-3.69,1.56h.01ZM299.32,513.68c.13,0,.43-.22.9-.66,1.08-1.05,1.9-2.56,2.46-4.53.35-1.26.53-2.61.53-4.04,0-.97-.05-1.71-.15-2.22s-.3-1.09-.59-1.74c-.03,0-.04-.01-.04-.04-.23-.47-.47-.72-.7-.77-.23-.04-.45-.07-.66-.07-.35,0-.53.01-.53.04l.11.66c0,.48-.1,1.22-.29,2.2-.86,3.81-1.3,6.73-1.3,8.77,0,.56.05,1.21.15,1.96.03.29.07.44.11.44h0Z"/>
      <path class="st4" d="M325.14,519.44c-.35,0-.64-.01-.88-.04-.72-.09-1.52-.4-2.42-.92-1.67-.86-2.5-1.92-2.5-3.16,0-.38.12-.57.35-.57.53,0,.98.09,1.36.26.73.35,1.1.82,1.1,1.41,0,.18.12.4.35.66s.48.4.75.4c.15,0,.44-.04.88-.13.64-.23,1.27-.86,1.89-1.89.7-1.2,1.05-2.45,1.05-3.74,0-.73-.01-1.22-.04-1.45-.06-.38-.19-.67-.4-.88-.06-.06-.13-.09-.22-.09-.76,0-2.61.81-5.54,2.42-1.82,1.05-3.09,1.68-3.82,1.89-.35.06-.78.09-1.27.09-2.02-.18-3.79-1.04-5.32-2.59-1.26-1.41-1.89-3.02-1.89-4.83.47-3.78,1.86-7.05,4.17-9.8,1.52-1.82,3.71-3.03,6.55-3.65.63-.15,1.52-.22,2.68-.22,1.66,0,2.97.22,3.96.66,1.05.53,1.85,1.05,2.37,1.58.56.44,1.01,1.11,1.36,2.02.32.76.48,1.68.48,2.77-.03,1.11-.21,2.2-.53,3.25-.5,1.46-1.03,2.2-1.58,2.2-.18,0-.4-.07-.66-.2s-.5-.29-.7-.46-.31-.34-.31-.48c0-.16.13-.6.4-1.32.44-1.49.66-2.81.66-3.96,0-.88-.13-1.66-.4-2.33-.1-.28-.21-.44-.31-.48-1.2,0-2.4.59-3.6,1.76-.38.38-1.22,1.38-2.5,2.99-2.02,2.65-3.24,5.42-3.65,8.31-.04.34-.07.58-.07.72l.02.11,3.87-1.27c1.89-.7,3.24-1.05,4.04-1.05.56,0,1,.04,1.32.13s.73.23,1.23.44c1.96,1.04,2.94,2.78,2.94,5.23,0,1.38-.37,2.61-1.1,3.69-1.08,1.7-2.45,2.55-4.09,2.55l.02-.03Z"/>
      <path class="st4" d="M340.54,520.49c-1.55,0-3.13-.47-4.75-1.41-1.26-.76-2.24-1.71-2.94-2.86-.81-1.38-1.21-3.52-1.21-6.42s.49-6.17,1.47-9.76c.41-1.58.85-2.58,1.31-2.99s1.3-.62,2.52-.62c.82,0,1.45.07,1.89.22,2.18.62,3.27,1.63,3.27,3.03,0,.79-.21,2.07-.64,3.82-.69,3.13-1.03,5.82-1.03,8.04,0,.62.05,1.54.15,2.77.12,1.48.25,2.43.4,2.86.03,0,.26-.15.7-.44,2.14-1.58,4.24-5.81,6.31-12.68.07-.26.21-.39.4-.39.18,0,.52.06,1.03.18.45.12.68.27.68.46-.47,2.56-1.47,5.74-3.01,9.54-.63,1.45-1.22,2.58-1.76,3.38-1.46,2.15-3.06,3.24-4.79,3.25v.02ZM341.38,494.81c-1.2,0-2.27-.33-3.21-1s-1.41-1.31-1.41-1.92c0-.09.05-.2.15-.33.1-.13.3-.26.59-.37s.62-.19.97-.22c1.92,0,3.3.75,4.13,2.24.15.29.22.55.22.77,0,.56-.48.84-1.45.84h.01Z"/>
      <path class="st4" d="M356.34,522.41c-.37,0-.7-.02-.99-.07-2.2-.47-4-1.66-5.41-3.56-1.41-1.83-2.11-5.69-2.11-11.58,0-3.33.07-5.72.22-7.19.18-1.88.44-4.2.79-6.99.48-2.92.91-5.1,1.27-6.55l.04-.31c0-.06-.21-.12-.62-.18l-5.47-.73c-2.9-.37-4.81-.55-5.73-.55-3.11.21-5.25,1.02-6.44,2.44-.28.28-.63.42-1.05.42-.73,0-1.1-.33-1.1-.99.1-1.21.99-2.22,2.66-3.01,1.54-.7,3.57-1.06,6.09-1.08,1.76.03,4.57.3,8.44.81l4.02.57c.76-1.42,1.61-2.29,2.55-2.59.18-.03.5-.04.97-.04,2.11,0,3.53.87,4.26,2.61l.13.84c1.03.06,1.88.09,2.55.09,1.85,0,3.75-.13,5.71-.4,4.7-.7,7.18-1.75,7.43-3.14.29-.34.61-.5.94-.5.57,0,.86.31.86.94,0,1.11-.6,2.06-1.8,2.83-.79.53-1.68.94-2.68,1.23-2.93.82-6.64,1.23-11.12,1.23l-1.67-.04c-.07.73-.44,2.54-1.1,5.43-.73,4.89-1.14,8.6-1.23,11.12l-.04,2.24c0,3.93.3,7.78.9,11.56.12,1.14.2,1.71.24,1.71l.18-.09.31-.35c1.46-1.96,2.78-4.6,3.96-7.91.23-.69.86-2.34,1.87-4.94.23-.53.41-.84.53-.95s.34-.15.66-.15c.44,0,.78.12,1.01.35.06.06.09.1.09.13,0,.25-.4,1.65-1.21,4.2-.66,2.12-1.54,4.5-2.64,7.12-1.19,2.75-2.18,4.47-2.99,5.14-.6.56-1.49.83-2.68.83l-.59.02v.03Z"/>
      <path class="st4" d="M372.33,520.49c-1.55,0-3.13-.47-4.75-1.41-1.26-.76-2.24-1.71-2.94-2.86-.81-1.38-1.21-3.52-1.21-6.42s.49-6.17,1.47-9.76c.41-1.58.85-2.58,1.31-2.99s1.3-.62,2.52-.62c.82,0,1.45.07,1.89.22,2.18.62,3.27,1.63,3.27,3.03,0,.79-.21,2.07-.64,3.82-.69,3.13-1.03,5.82-1.03,8.04,0,.62.05,1.54.15,2.77.12,1.48.25,2.43.4,2.86.03,0,.26-.15.7-.44,2.14-1.58,4.24-5.81,6.31-12.68.07-.26.21-.39.4-.39.18,0,.52.06,1.03.18.45.12.68.27.68.46-.47,2.56-1.47,5.74-3.01,9.54-.63,1.45-1.22,2.58-1.76,3.38-1.46,2.15-3.06,3.24-4.79,3.25v.02ZM373.17,494.81c-1.2,0-2.27-.33-3.21-1s-1.41-1.31-1.41-1.92c0-.09.05-.2.15-.33.1-.13.3-.26.59-.37s.62-.19.97-.22c1.92,0,3.3.75,4.13,2.24.15.29.22.55.22.77,0,.56-.48.84-1.45.84h.01Z"/>
      <path class="st4" d="M389.17,517.86c-.56,0-1.04-.03-1.45-.09-.81-.16-1.74-.53-2.81-1.1-.53-.29-1-.68-1.43-1.17-.42-.48-.7-.96-.81-1.43-1.1-2.2-1.96-5.25-2.59-9.16-.82-5.02-1.23-8.88-1.23-11.56,0-1.36.13-2.26.4-2.7.32-.7,1.17-1.05,2.55-1.05.83,0,1.7.16,2.59.48,1.66.6,2.61,1.49,2.86,2.68.09.44.18,1.2.26,2.29.31,4.1.64,7.18,1.01,9.23.75,4.29,1.45,7.14,2.11,8.55.23.51.4.77.48.77.06,0,.53-.96,1.41-2.88,2.24-4.97,3.84-11.13,4.79-18.48l.18-3.08c.06-1.58.13-2.39.22-2.42s.19-.04.31-.04c.42,0,.82.21,1.19.62.26.18.4,1.2.4,3.08,0,4.12-.8,8.73-2.39,13.84-.78,2.72-1.69,5.3-2.75,7.73-.32.64-.56,1.19-.7,1.63-.56,1.17-1.08,2.14-1.58,2.9-.41.64-.98,1.07-1.71,1.27-.26.06-.69.09-1.27.09h-.04Z"/>
      <path class="st4" d="M409.67,517.44c-1.76,0-3.5-.64-5.23-1.91-.94-.67-1.83-1.85-2.67-3.52-.84-1.67-1.26-3.54-1.26-5.62,0-5.6,1.25-9.76,3.76-12.48.79-.79,1.67-1.49,2.64-2.11.98-.47,1.96-.7,2.94-.7,1.2,0,2.4.35,3.6,1.05,1.44.94,2.34,1.96,2.72,3.08.13.42.2.89.2,1.38,0,.62-.08,1.18-.24,1.69-1.08,2.9-3.27,5.5-6.55,7.8-.15.1-.25.2-.31.29s-.09.77-.09,2.04c0,.76.11,1.67.33,2.72.31,1.46.56,2.54.77,3.23.06.41.18.62.35.62,1.48,0,3.71-2.85,6.7-8.55.66-1.26,1.09-2.01,1.3-2.26.12-.15.23-.23.33-.24.89.04,1.34.26,1.34.66,0,.06-.21.56-.62,1.52-.79,1.8-1.39,3.12-1.8,3.96-1.79,3.52-3.44,5.73-4.97,6.64-.89.48-1.98.72-3.25.72h0ZM409.56,503.57l.59-.48c1.73-1.55,2.99-3.4,3.78-5.54.16-.45.24-.94.24-1.45,0-.92-.17-1.55-.5-1.89-.07-.07-.15-.11-.22-.11-.09.01-.22.14-.4.37-.32.32-.59.69-.79,1.1-.35.67-.78,1.7-1.3,3.08s-.89,2.53-1.12,3.47c-.07.41-.14.7-.19.86-.05.16-.08.28-.08.35s-.01.14-.04.2c0,.03,0,.04.02.04h.01Z"/>
    </g>
  </g>
  <g class="st2">
    <g class="st2">
      <path class="st0" d="M450.37,514.02c0,.83-.15,1.56-.45,2.17-.3.62-.69,1.13-1.17,1.55s-1.03.72-1.65.92-1.22.3-1.83.3c-.9,0-1.6-.29-2.1-.88-.5-.58-.75-1.31-.75-2.17,0-.57.13-1.13.4-1.7s.61-1.08,1.02-1.55c.42-.47.9-.84,1.45-1.12.55-.28,1.12-.42,1.72-.42.83,0,1.6.23,2.3.7.7.47,1.05,1.2,1.05,2.2h.01ZM451.72,498.47c0,.83-.15,1.56-.45,2.18-.3.62-.69,1.13-1.17,1.55s-1.03.72-1.65.92-1.23.3-1.83.3c-.9,0-1.6-.29-2.1-.88-.5-.58-.75-1.31-.75-2.17,0-.57.13-1.13.4-1.7s.61-1.08,1.03-1.55.9-.84,1.45-1.12c.55-.28,1.12-.42,1.73-.42.83,0,1.6.23,2.3.7s1.05,1.2,1.05,2.2h0Z"/>
    </g>
    <g class="st2">
      <path class="st0" d="M466.07,527.77c-.5,0-.99-.09-1.48-.27-.48-.18-.92-.46-1.3-.83-.38-.37-.69-.82-.92-1.35-.23-.53-.35-1.17-.35-1.9,0-1.37.23-2.44.7-3.22.47-.78,1.05-1.51,1.75-2.17,3.23-3.3,5.67-6.83,7.33-10.6,1.65-3.77,2.47-7.93,2.47-12.5,0-1.67-.12-3.12-.35-4.37s-.58-2.39-1.03-3.42-.99-1.98-1.62-2.85-1.35-1.75-2.15-2.65c-.17-.17-.38-.44-.62-.82s-.38-.79-.38-1.22c0-.53.18-.95.55-1.25s.82-.45,1.35-.45c.27,0,.58.08.95.22.37.15.72.41,1.05.78,1.5,1.47,2.73,3.06,3.7,4.77.97,1.72,1.73,3.52,2.3,5.42.57,1.9.96,3.88,1.17,5.92.22,2.05.33,4.14.33,6.27,0,1.9-.12,3.88-.38,5.92s-.63,4.06-1.15,6.02c-.52,1.97-1.15,3.83-1.9,5.6-.75,1.77-1.62,3.31-2.6,4.62-.98,1.32-2.1,2.37-3.35,3.15s-2.61,1.17-4.07,1.17h0Z"/>
    </g>
  </g>
  <g class="st2">
    <g class="st2">
      <path class="st0" d="M110.02,170.31c-.27,3.25-.96,5.71-2.08,7.36s-2.48,2.48-4.08,2.48c-1.81,0-3.11-.6-3.88-1.8s-1.16-2.71-1.16-4.52c0-1.65.29-3.48.88-5.48s1.29-4.07,2.12-6.2c.83-2.13,1.72-4.25,2.68-6.36s1.81-4.12,2.56-6.04c.27-.59.59-1.05.96-1.4.37-.35.75-.52,1.12-.52.43,0,.79.16,1.08.48.29.32.44.77.44,1.36,0,1.33-.01,2.89-.04,4.68s-.07,3.63-.12,5.52-.12,3.75-.2,5.56c-.08,1.81-.17,3.44-.28,4.88ZM123.22,170.31c0,1.33-.17,2.6-.52,3.8s-.8,2.25-1.36,3.16-1.21,1.61-1.96,2.12-1.52.76-2.32.76c-1.81,0-3.11-.56-3.88-1.68s-1.16-2.29-1.16-3.52c0-1.39.15-2.95.44-4.68s.68-3.57,1.16-5.52,1.04-3.95,1.68-6,1.28-4.07,1.92-6.04c.16-.48.39-.91.68-1.28s.63-.56,1-.56c.91,0,1.49.67,1.76,2,.75,3.15,1.36,6.12,1.84,8.92.48,2.8.72,5.64.72,8.52h0Z"/>
    </g>
  </g>
  <g class="st2">
    <g class="st2">
      <path class="st0" d="M447.83,593.58c0-1.33.17-2.6.52-3.8s.8-2.25,1.36-3.16,1.21-1.61,1.96-2.12,1.52-.76,2.32-.76c1.81,0,3.11.56,3.88,1.68.77,1.12,1.16,2.29,1.16,3.52,0,1.39-.15,2.95-.44,4.68s-.68,3.57-1.16,5.52-1.04,3.95-1.68,6c-.64,2.05-1.28,4.07-1.92,6.04-.16.48-.39.91-.68,1.28-.29.37-.63.56-1,.56-.91,0-1.49-.67-1.76-2-.75-3.15-1.36-6.12-1.84-8.92s-.72-5.64-.72-8.52h0ZM461.03,593.58c.27-3.25.96-5.71,2.08-7.36,1.12-1.65,2.48-2.48,4.08-2.48,1.81,0,3.11.6,3.88,1.8.77,1.2,1.16,2.71,1.16,4.52,0,1.65-.29,3.48-.88,5.48s-1.29,4.07-2.12,6.2-1.72,4.25-2.68,6.36-1.81,4.12-2.56,6.04c-.27.59-.59,1.05-.96,1.4-.37.35-.75.52-1.12.52-.43,0-.79-.16-1.08-.48-.29-.32-.44-.77-.44-1.36,0-1.33.01-2.89.04-4.68s.07-3.63.12-5.52.12-3.75.2-5.56c.08-1.81.17-3.44.28-4.88h0Z"/>
    </g>
  </g>
  <g>
    <path class="st5" d="M217.53,94.01c-1.14-1.58-1.12-15.58-.32-17.58,1.36-3.41,9.25-2.86,12.51-2.41,11.88,1.64,11.69,19.92.07,21.34-2.33.28-10.96.45-12.26-1.35Z"/>
    <path class="st5" d="M207.94,48.09c1.91-.44,8.1-.33,10.14,0,9.28,1.55,11.78,14.42,3.85,19.76-3.31,2.23-14.61,3.76-16.42-.26-.55-1.21-.56-14.52-.26-16.42.25-1.61,1.06-2.72,2.69-3.09h0Z"/>
    <path class="st5" d="M256.07,87.25c7.17-.91,9.26,7.78,1.44,8.67-2.75.31-6.89-.02-9.53-.87-9.31-3-9.32-16.83-.58-20.21,3.92-1.51,16.29-2.02,14.91,4.48-.4,1.91-7.13,7.17-6.25,7.93h.01Z"/>
    <path class="st5" d="M256.07,61.25c6.81-1.17,8.95,7.65,1.97,8.62-9.62,1.34-19.7-3.09-16.72-14.41,2-7.59,17.23-10.39,20.47-4.81,2.66,4.58-7.16,9.35-5.71,10.61h-.01Z"/>
    <path class="st5" d="M307.34,75.84c2.42,2.55-.41,6.45-2.74,7.94,3.95.86,5.6,7.04,2.71,9.65s-15.37,3.28-18,.16c-2.17-2.58-.17-6.88,3.15-6.92-10.01-9.66.64-14.2,10.55-12.57.76.12,3.9,1.3,4.32,1.74,0,0,.01,0,.01,0Z"/>
    <path class="st5" d="M266.15,85.76c.65-.96,9-9.33,10.02-10.06,3.23-2.3,8.34-2.72,9.69,1.7.54,1.75.56,12.75.14,14.64-1.06,4.71-11.42,4.3-15.19,3.88-5.99-.67-8-5.23-4.65-10.16,0,0-.01,0-.01,0Z"/>
    <path class="st5" d="M268.61,48.09c1.88-.42,11.75-.42,13.62,0,4.33.97,5.36,7.59,1.86,10.29-.82.63-2.41.74-2.91,1.71-1.23,2.42,1.17,5.71-2.04,8.36-2.43,2-5.97,1.87-8.08-.54-2.21-2.53-.34-5.7-1.42-7.83-.48-.94-2.29-1.19-3.23-1.97-3.17-2.68-1.97-9.1,2.18-10.03h.02Z"/>
    <path class="st6" d="M230.23,49.28c2.61-2.61,7.58-1.01,8.38,2.56.43,1.91.43,12.29,0,14.2-1.13,5.06-8.5,4.84-9.58,0-.49-2.19-.41-10.72-.14-13.18.11-.96.69-2.94,1.33-3.58h0Z"/>
    <path class="st6" d="M208.53,74.08c8.23-1.8,7.21,12.3,6.26,17.25-1.15,5.97-8.77,4.92-9.55.82-.4-2.1-.33-12.16.02-14.4.27-1.71,1.55-3.3,3.27-3.68h0Z"/>
  </g>
</svg>