<?xml version="1.0" encoding="UTF-8"?>
<svg id="Layer_1" xmlns="http://www.w3.org/2000/svg" version="1.1" viewBox="0 0 595.28 841.89">
  <!-- Generator: Adobe Illustrator 29.7.1, SVG Export Plug-In . SVG Version: 2.1.1 Build 8)  -->
  <defs>
    <style>
      .st0 {
        fill: #6d6d6d;
      }

      .st1 {
        fill: #c1c0c0;
      }

      .st2 {
        fill: #a7a7a7;
      }

      .st3 {
        fill: #595959;
      }

      .st4 {
        fill: #d1d3d4;
      }

      .st5 {
        fill: #383737;
      }

      .st6 {
        fill: #8a8989;
      }

      .st7 {
        fill: #686261;
      }

      .st8 {
        fill: #979797;
      }

      .st9 {
        fill: #fcee21;
      }

      .st10 {
        fill: #fbfbfa;
      }

      .st11 {
        fill: #ccc;
      }

      .st12 {
        fill: #faf8f7;
      }

      .st13 {
        fill: #9d9d9d;
      }

      .st14 {
        fill: #605f5f;
      }

      .st15 {
        fill: #e9e8e8;
      }

      .st16 {
        fill: #373737;
      }

      .st17 {
        fill: #d7cec9;
      }

      .st18 {
        fill: #c9c9c9;
      }

      .st19 {
        fill: #fff;
        stroke: #000;
        stroke-miterlimit: 10;
      }

      .st20 {
        fill: #343434;
      }

      .st21 {
        fill: #233974;
      }

      .st22 {
        fill: #818181;
      }

      .st23 {
        fill: #2a51a3;
      }

      .st24 {
        fill: #b2b3b3;
      }

      .st25 {
        fill: #8a8a8a;
      }

      .st26 {
        fill: #4e4d4e;
      }

      .st27 {
        fill: #616161;
      }

      .st28 {
        fill: #626261;
      }

      .st29 {
        fill: #535353;
      }

      .st30 {
        fill: #555;
      }

      .st31 {
        fill: #999;
      }

      .st32 {
        fill: #2b51a3;
      }
    </style>
  </defs>
  <rect class="st19" x="81.54" y=".64" width="513.73" height="841.25"/>
  <rect class="st21" y=".64" width="81.54" height="841.89"/>
  <g>
    <path class="st23" d="M299.08,94.65c-1.14-1.58-1.12-15.58-.32-17.58,1.36-3.41,9.25-2.86,12.51-2.41,11.88,1.64,11.69,19.92.07,21.34-2.33.28-10.96.45-12.26-1.35Z"/>
    <path class="st23" d="M289.49,48.72c1.91-.44,8.1-.33,10.14,0,9.28,1.55,11.78,14.42,3.85,19.76-3.31,2.23-14.61,3.76-16.42-.26-.55-1.21-.56-14.52-.26-16.42.25-1.61,1.06-2.72,2.69-3.09Z"/>
    <path class="st23" d="M337.61,87.89c7.17-.91,9.26,7.78,1.44,8.67-2.75.31-6.89-.02-9.53-.87-9.31-3-9.32-16.83-.58-20.21,3.92-1.51,16.29-2.02,14.91,4.48-.4,1.91-7.13,7.17-6.25,7.93h0Z"/>
    <path class="st23" d="M337.61,61.89c6.81-1.17,8.95,7.65,1.97,8.62-9.62,1.34-19.7-3.09-16.72-14.41,2-7.59,17.23-10.39,20.47-4.81,2.66,4.58-7.16,9.35-5.71,10.61h-.01Z"/>
    <path class="st23" d="M388.88,76.48c2.42,2.55-.41,6.45-2.74,7.94,3.95.86,5.6,7.04,2.71,9.65s-15.37,3.28-18,.16c-2.17-2.58-.17-6.88,3.15-6.92-10.01-9.66.64-14.2,10.55-12.57.76.12,3.9,1.3,4.32,1.74h.01Z"/>
    <path class="st23" d="M347.69,86.39c.65-.96,9-9.33,10.02-10.06,3.23-2.3,8.34-2.72,9.69,1.7.54,1.75.56,12.75.14,14.64-1.06,4.71-11.42,4.3-15.19,3.88-5.99-.67-8-5.23-4.65-10.16h-.01Z"/>
    <path class="st23" d="M350.15,48.72c1.88-.42,11.75-.42,13.62,0,4.33.97,5.36,7.59,1.86,10.29-.82.63-2.41.74-2.91,1.71-1.23,2.42,1.17,5.71-2.04,8.36-2.43,2-5.97,1.87-8.08-.54-2.21-2.53-.34-5.7-1.42-7.83-.48-.94-2.29-1.19-3.23-1.97-3.17-2.68-1.97-9.1,2.18-10.03h.02Z"/>
    <path class="st32" d="M311.77,49.92c2.61-2.61,7.58-1.01,8.38,2.56.43,1.91.43,12.29,0,14.2-1.13,5.06-8.5,4.84-9.58,0-.49-2.19-.41-10.72-.14-13.18.11-.96.69-2.94,1.33-3.58h.01Z"/>
    <path class="st32" d="M290.07,74.71c8.23-1.8,7.21,12.3,6.26,17.25-1.15,5.97-8.77,4.92-9.55.82-.4-2.1-.33-12.16.02-14.4.27-1.71,1.55-3.3,3.27-3.68h0Z"/>
  </g>
  <g>
    <path class="st21" d="M184.49,157.31c-1.58,1.94-6.25,3.87-10.3,4.05-3.33,5.35-7.33,13.54-7.33,16.69,0,2.39-4.19-.45-4.19-4.86,0-2.7,2.7-7.69,4.59-11.7-3.19.09-7.06.31-10.84.76-3.87,6.39-8.46,15.25-8.46,17.91,0,1.84-4.45.54-4.45-4.63,0-1.89,3.06-7.78,5.35-11.92-4.86.41-8.28.5-8.28,2.07,0,1.98-3.15.09-3.15-2.02,0-4.95,6.61-4.63,14.53-5.49,6.12-10.35,15.84-26.46,15.84-29.52,0,0,.04-4.14-5.53-4.14-8.05,0-21.51,12.91-20.02,24.43.27,2.16,1.44,5.85,5.27,5.85s5.26-3.78,5.26-2.02c0,2.11-3.65,3.6-6.57,3.6-2.38,0-8.55-1.35-9.58-9.13-2.02-15.88,16.87-24.52,25.33-24.52,5.49,0,10.93,2.92,10.93,8.77l-.05-.36c.5,3.73-8.19,17.86-13.95,27.13,4.05-.05,7.02.13,9.99.09,4.95-9.36,8.41-12.1,8.01-14.89-.14-.94,3.91.63,3.91,4.68,0,2.93.09,2.79-4.72,10.21,5.98-.23,6.84-2.29,7.69-2.29s1.12.81.72,1.26h0Z"/>
    <path class="st21" d="M191.78,172.84c-.14.18-.32.41-.5.58,0,0-.23.27-.63.72-2.16,2.25-4.81,4.23-7.29,4.59-.04.04-.09.04-.13.04-.09,0-.18,0-.23.04h-.45c-1.8,0-4.81-.9-4.81-5.67,0-8.05,8.64-16.74,13.54-16.74,2.52,0,4.32,1.67,5.44,3.56.18.31-.18.94-2.2.94-7.47,0-15.12,16.02-11.2,16.02,2.65,0,7.56-5.31,7.56-5.31,0,0-.4-1.12-.4-2.75,0-3.64,4.45-5.26,4.45-1.48,0,.81-.81,2.25-2.25,4.14.13.13.63.31.85.31,2.16,0,4.23-3.38,7.88-8.86.63-.99,2.02-.5,1.03.94-.85,1.35-5.22,9.49-9.04,9.49-.67,0-1.26-.31-1.62-.58v.02Z"/>
    <path class="st21" d="M203.52,156.23c0-1.08,4.64.31,4.64,4.5s-9.99,16.24-6.75,16.24c.85,0,4.5-3.51,6.79-6.3.22-1.31,1.53-7.47,4.72-7.47,1.12,0,1.67.72,1.48,2.02-.45,3.24-4.27,5.85-4.27,5.85,0,0-.76,5.98,1.84,5.98,5.45,0,10.44-19.21,10.44-24.75s-4.27-6.43-4.27-6.43c0,0-.41.4-1.84.4s-.77-1.62,1.26-1.62,9.54,3.1,9.54,10.53c0,8.86-9.67,23.62-14.4,23.62-3.6,0-4.59-2.88-4.68-5.67-2.07,2.56-5.26,5.67-7.24,5.67-1.8,0-3.78-1.44-3.78-4.81s6.52-12.64,6.52-17.77h0ZM210.36,168.92c.67,0,4.05-4.37,2.52-4.37s-2.52,4.37-2.52,4.37Z"/>
    <path class="st21" d="M266.34,163.07c.67-.99,2.02-.54,1.08.95-.94,1.44-10.89,14.8-14.98,14.8-2.11,0-4.14-1.44-4.14-5.8,0,0-4.5,5.8-6.43,5.8s-4.77-1.53-4.77-5.58c0-6.21,10.8-16.74,15.12-16.74,3.2,0,4.14,2.66,4.14,2.66,0,0,9.85-15.7,9.85-18.27,0-1.44,3.83-1.3,3.83,4.5,0,5.17-19.39,31.09-16.24,31.09,1.35,0,8.59-7.42,12.55-13.41h0ZM254.73,160.19c-2.2,0-12.46,10.89-12.46,16.06,0,0,.04.36.36.36,2.66,0,14.98-16.42,12.1-16.42Z"/>
    <path class="st21" d="M276.51,172.84c-.13.18-.31.41-.5.58,0,0-.22.27-.63.72-2.16,2.25-4.81,4.23-7.29,4.59-.04.04-.09.04-.14.04-.09,0-.18,0-.22.04h-.45c-1.8,0-4.81-.9-4.81-5.67,0-8.05,8.64-16.74,13.54-16.74,2.52,0,4.32,1.67,5.45,3.56.18.31-.18.94-2.21.94-7.47,0-15.12,16.02-11.2,16.02,2.65,0,7.56-5.31,7.56-5.31,0,0-.41-1.12-.41-2.75,0-3.64,4.46-5.26,4.46-1.48,0,.81-.81,2.25-2.25,4.14.13.13.63.31.85.31,2.16,0,4.23-3.38,7.88-8.86.63-.99,2.03-.5,1.04.94-.86,1.35-5.22,9.49-9.04,9.49-.67,0-1.26-.31-1.62-.58v.02Z"/>
    <path class="st21" d="M302.83,156.23c0-1.08,4.64.31,4.64,4.5s-9.99,16.24-6.75,16.24c.85,0,4.5-3.51,6.79-6.3.22-1.31,1.53-7.47,4.72-7.47,1.12,0,1.67.72,1.48,2.02-.45,3.24-4.27,5.85-4.27,5.85,0,0-.76,5.98,1.84,5.98,5.45,0,10.44-19.21,10.44-24.75s-4.27-6.43-4.27-6.43c0,0-.41.4-1.84.4s-.77-1.62,1.26-1.62,9.54,3.1,9.54,10.53c0,8.86-9.67,23.62-14.4,23.62-3.6,0-4.59-2.88-4.68-5.67-2.07,2.56-5.26,5.67-7.24,5.67-1.8,0-3.78-1.44-3.78-4.81s6.52-12.64,6.52-17.77h0ZM309.67,168.92c.67,0,4.05-4.37,2.52-4.37s-2.52,4.37-2.52,4.37Z"/>
    <path class="st21" d="M344.77,164.06c-.95,1.48-11.79,14.76-17.5,14.76,0,0-4.32-.04-4.32-5.58,0-8.15,10.75-16.87,13.72-16.87,1.17,0,3.15.81,3.15,5.08s-9.54,11.65-11.88,11.65c0,0-1.66,3.02.68,3.02,3.01,0,11.11-7.02,15.07-13,.67-.99,2.02-.49,1.08.95h0ZM328.71,171.4c6.12-3.6,9-9.45,7.51-9.45s-7.51,9.45-7.51,9.45Z"/>
    <path class="st21" d="M165.54,218.42c0-3.78,7.47-13.23,7.47-13.23-.67,0-7.83,5.76-10.66,9.49-1.94,2.88-4.63,7.92-4.63,8.82,0,1.21-2.65-1.48-2.65-4.9,0-3.78,7.51-13.41,7.51-13.41-1.48,0-15.39,16.15-15.39,18.31,0,1.21-3.06-.81-3.06-4.36s9.04-13.41,9.04-17.91c0-1.58,3.24.13,3.24,4.68,0,2.16-1.93,4.9-1.93,4.9,0,0,9.13-9.58,10.66-9.58s2.92,2.29,2.92,4.5c0,.58-.5,1.58-1.21,2.83,2.2-2.21,7.51-7.33,8.73-7.33,1.53,0,2.52,2.29,2.52,4.5s-10.89,16.15-8.86,16.15,9.45-8.1,13.45-14.08c.63-.99,1.98-.54,1.03.95-.94,1.44-10.21,15.07-15.16,15.07-1.75,0-3.02-1.98-3.02-5.4h0Z"/>
    <path class="st21" d="M195.6,206.14c-5.26,0-17.23,15.3-13.99,15.3,1.08,0,10.39-10.3,9.94-11.11-.49-.81,3.19-.13,3.19,3.15s-4.23,8.01-2.79,8.01,8.14-7.42,12.1-13.41c.67-.99,2.02-.54,1.08.95-.99,1.44-10.4,14.8-14.49,14.8-1.84,0-3.65-2.79-3.65-3.92s.77-2.74.77-2.74c0,0-5.67,6.66-7.33,6.66s-4.23-2.07-4.23-5.26c0-5.22,10.93-17.19,15.97-17.19,2.66,0,4.41,4.77,3.42,4.77h0Z"/>
    <path class="st21" d="M218.33,208.88c-.99,1.44-10.75,14.85-14.89,14.85-3.42,0-4.23-3.69-4-6.12.27-3.24,4.86-8.73,6.97-14.13.32-.85.09-1.98,1.17-1.98s3.11,1.76,2.79,5.27-10.3,14.62-5.58,14.62c1.35,0,8.46-7.42,12.46-13.5.67-.95,2.03-.5,1.08.99h0ZM210.18,195.02c.27-3.28,2.34-4.36,3.38-4.36s4.18,1.4,4.05,2.92c-.14,1.53-1.53,1.75-2.92,4.19-1.4,2.38-1.31,2.43-1.98,2.43-1.04,0-2.83-1.89-2.52-5.17h-.01Z"/>
    <path class="st21" d="M221.97,218.11c0-3.78,6.66-12.78,6.66-12.78-1.49,0-14.35,14.98-14.35,17.1,0,3.33-3.06,0-3.06-3.55s8.91-13,8.91-17.5c0-1.57,3.29.13,3.29,4.63,0,2.21-1.53,3.69-1.53,3.69,0,0,8.19-8.32,9.72-8.32s2.52,2.29,2.52,4.5-10.53,15.66-8.46,15.66c2.7,0,9.27-7.74,13.27-13.72.63-.99,1.98-.54,1.03.95-.94,1.44-10.48,15.07-14.94,15.07-1.75,0-3.06-2.34-3.06-5.71v-.02Z"/>
    <path class="st21" d="M263.1,199.3c0-1.31-2.83-3.96-7.83-3.96-.95,0-1.89,0-2.79.04-5.54,10.03-16.2,26.1-12.92,26.1,1.35,0,8.78-7.42,12.78-13.41.63-.99,2.02-.54,1.03.95-.94,1.44-11.02,14.8-15.16,14.8-3.38,0-3.92-3.06-3.92-5.22,0-3.1,6.48-13.77,11.43-22.81-1.58.09-3.24.09-5.04.09-4.99,0-6.84-1.98-7.51-3.78-.54-1.58.18-1.89.95-1.21,1.3,1.08,3.55,2.11,6.66,2.11,2.7,0,5.08-.18,6.66-.36,2.25-4.23,3.83-7.69,3.83-9.18,0-1.31,4.36.27,4.36,4.81,0,.76-.58,2.25-1.58,4.18h1.31c5.62,0,8.19,3.02,8.86,5.44.45,1.57-1.12,1.4-1.12,1.4h0Z"/>
    <path class="st21" d="M265.49,206.14c-5.26,0-17.23,15.3-14,15.3,1.08,0,10.39-10.3,9.95-11.11-.5-.81,3.19-.13,3.19,3.15s-4.23,8.01-2.79,8.01,8.14-7.42,12.1-13.41c.68-.99,2.03-.54,1.08.95-.99,1.44-10.39,14.8-14.49,14.8-1.84,0-3.64-2.79-3.64-3.92s.76-2.74.76-2.74c0,0-5.67,6.66-7.33,6.66s-4.23-2.07-4.23-5.26c0-5.22,10.93-17.19,15.97-17.19,2.65,0,4.41,4.77,3.42,4.77h0Z"/>
    <path class="st21" d="M288.21,208.88c-.99,1.44-10.75,14.85-14.89,14.85-3.42,0-4.23-3.69-4-6.12.27-3.24,4.86-8.73,6.97-14.13.32-.85.09-1.98,1.17-1.98s3.11,1.76,2.79,5.27-10.3,14.62-5.58,14.62c1.35,0,8.46-7.42,12.46-13.5.67-.95,2.03-.5,1.08.99h0ZM280.07,195.02c.27-3.28,2.34-4.36,3.38-4.36s4.18,1.4,4.05,2.92c-.14,1.53-1.53,1.75-2.92,4.19-1.4,2.38-1.31,2.43-1.98,2.43-1.04,0-2.83-1.89-2.52-5.17h0Z"/>
    <path class="st21" d="M291.86,218.11c0-3.78,6.66-12.78,6.66-12.78-1.49,0-14.35,14.98-14.35,17.1,0,3.33-3.06,0-3.06-3.55s8.91-13,8.91-17.5c0-1.57,3.29.13,3.29,4.63,0,2.21-1.53,3.69-1.53,3.69,0,0,8.19-8.32,9.72-8.32s2.52,2.29,2.52,4.5-10.53,15.66-8.46,15.66c2.7,0,9.27-7.74,13.27-13.72.63-.99,1.98-.54,1.03.95-.94,1.44-10.48,15.07-14.94,15.07-1.75,0-3.06-2.34-3.06-5.71v-.02Z"/>
    <path class="st21" d="M337.58,208.88c-.99,1.44-10.75,14.85-14.89,14.85-3.42,0-4.23-3.69-4-6.12.27-3.24,4.86-8.73,6.97-14.13.32-.85.09-1.98,1.17-1.98s3.11,1.76,2.79,5.27-10.3,14.62-5.58,14.62c1.35,0,8.46-7.42,12.46-13.5.67-.95,2.02-.5,1.08.99h0ZM329.43,195.02c.27-3.28,2.34-4.36,3.38-4.36s4.18,1.4,4.05,2.92c-.14,1.53-1.53,1.75-2.92,4.19-1.4,2.38-1.31,2.43-1.98,2.43-1.04,0-2.83-1.89-2.52-5.17h0Z"/>
    <path class="st21" d="M359.9,208.07c.67-.99,2.02-.54,1.08.95-.94,1.44-10.89,14.8-14.98,14.8-2.11,0-4.14-1.44-4.14-5.8,0,0-4.5,5.8-6.43,5.8s-4.77-1.53-4.77-5.58c0-6.21,10.8-16.74,15.12-16.74,3.2,0,4.14,2.66,4.14,2.66,0,0,9.85-15.7,9.85-18.27,0-1.44,3.83-1.3,3.83,4.5,0,5.17-19.39,31.09-16.24,31.09,1.35,0,8.59-7.42,12.55-13.41h0ZM348.29,205.19c-2.2,0-12.46,10.89-12.46,16.06,0,0,.04.36.36.36,2.66,0,14.98-16.42,12.1-16.42Z"/>
    <path class="st21" d="M377.18,209.06c-.95,1.48-11.79,14.76-17.5,14.76,0,0-4.32-.04-4.32-5.58,0-8.15,10.75-16.87,13.72-16.87,1.17,0,3.15.81,3.15,5.08s-9.54,11.65-11.88,11.65c0,0-1.66,3.02.68,3.02,3.01,0,11.11-7.02,15.07-13,.67-.99,2.02-.49,1.08.95h0ZM361.11,216.4c6.12-3.6,9-9.45,7.51-9.45s-7.51,9.45-7.51,9.45Z"/>
    <path class="st21" d="M389.19,206.14c-5.26,0-17.23,15.3-14,15.3,1.08,0,10.39-10.3,9.95-11.11-.5-.81,3.19-.13,3.19,3.15s-4.23,8.01-2.79,8.01,8.14-7.42,12.1-13.41c.68-.99,2.03-.54,1.08.95-.99,1.44-10.39,14.8-14.49,14.8-1.84,0-3.64-2.79-3.64-3.92s.76-2.74.76-2.74c0,0-5.67,6.66-7.33,6.66s-4.23-2.07-4.23-5.26c0-5.22,10.93-17.19,15.97-17.19,2.65,0,4.41,4.77,3.42,4.77h0Z"/>
    <path class="st21" d="M393.29,218.33c0-5.04,16.29-28.84,16.29-33.75,0-1.31,4.32.27,4.32,4.81s-19.75,32.08-15.34,32.08c1.35,0,8.73-7.69,12.73-13.68.63-.99,2.03-.54,1.04.95-.94,1.44-11.02,15.07-15.12,15.07-3.38,0-3.92-3.33-3.92-5.49h0Z"/>
    <path class="st21" d="M152.22,246.23c0-1.08,4.63.31,4.63,4.5s-9.99,16.24-6.75,16.24c.85,0,4.5-3.51,6.79-6.3.23-1.31,1.53-7.47,4.73-7.47,1.12,0,1.66.72,1.48,2.02-.45,3.24-4.27,5.85-4.27,5.85,0,0-.77,5.98,1.84,5.98,5.44,0,10.44-19.21,10.44-24.75s-4.27-6.43-4.27-6.43c0,0-.41.4-1.85.4s-.76-1.62,1.26-1.62,9.54,3.1,9.54,10.53c0,8.86-9.67,23.62-14.4,23.62-3.6,0-4.59-2.88-4.68-5.67-2.07,2.56-5.27,5.67-7.25,5.67-1.8,0-3.78-1.44-3.78-4.81s6.52-12.64,6.52-17.77h.02ZM159.06,258.92c.67,0,4.05-4.37,2.52-4.37s-2.52,4.37-2.52,4.37Z"/>
    <path class="st21" d="M194.16,254.06c-.94,1.48-11.79,14.76-17.5,14.76,0,0-4.32-.04-4.32-5.58,0-8.15,10.75-16.87,13.72-16.87,1.17,0,3.15.81,3.15,5.08s-9.54,11.65-11.88,11.65c0,0-1.67,3.02.67,3.02,3.02,0,11.11-7.02,15.07-13,.68-.99,2.03-.49,1.08.95h.01ZM178.1,261.4c6.12-3.6,9-9.45,7.52-9.45s-7.52,9.45-7.52,9.45Z"/>
    <path class="st21" d="M207.44,253.88c-.99,1.44-10.75,14.85-14.89,14.85-3.42,0-4.23-3.69-4-6.12.27-3.24,4.86-8.73,6.98-14.13.31-.85.09-1.98,1.17-1.98s3.1,1.76,2.79,5.27c-.32,3.51-10.31,14.62-5.58,14.62,1.35,0,8.46-7.42,12.46-13.5.68-.95,2.03-.5,1.08.99h0ZM199.29,240.02c.27-3.28,2.34-4.36,3.38-4.36s4.18,1.4,4.05,2.92-1.53,1.75-2.92,4.19c-1.39,2.38-1.3,2.43-1.98,2.43-1.04,0-2.83-1.89-2.52-5.17h-.01Z"/>
    <path class="st21" d="M229.89,254.02c-.9,1.35-10.35,13.14-14.94,14.62l-.09.14-.99,1.71c-4.91,7.96-11.7,15.66-18.72,15.66-1.75,0-3.96-1.48-4.18-4.41-.27-2.97,16.11-10.26,16.11-10.26,1.89-2.11,6.08-10.21,6.08-10.21,0,0-5.85,7.47-7.51,7.47s-4.41-2.07-4.68-5.27c-.45-5.17,9.45-17.14,14.53-17.14,2.61,0,4.77,4.72,3.78,4.72-5.26,0-15.93,15.34-12.69,15.34,1.08,0,9.54-10.3,9-11.16-.54-.81,3.2-.09,3.46,3.19.13,1.44-.86,4.23-2.66,7.6,2.66-1.66,9.04-7.83,12.46-12.96.63-.99,1.98-.49,1.04.95h0ZM205.46,273.55s-13.45,6.84-13.32,8.46c.09.76.77,1.26,1.58,1.26,4.41,0,11.74-9.72,11.74-9.72h0Z"/>
    <path class="st21" d="M234.84,262.43c0-2.61,6.48-12.01,6.48-12.01,0,0-14.89,13.41-14.89,17.64,0,1.75-3.83-.09-3.83-3.06,0-4.54,17.32-27.54,17.32-32.58,0-.9,3.51.94,3.51,4.68s-11.47,19.62-11.47,19.62c0,0,10.67-10.26,12.51-10.26s2.47,2.56,2.47,4.73-10.8,15.3-6.57,15.3c1.35,0,8.41-7.42,12.42-13.41.68-.99,2.03-.54,1.04.95-.94,1.44-10.71,14.8-14.8,14.8-2.92,0-4.18-3.78-4.18-6.39h0Z"/>
    <path class="st21" d="M277.32,244.3c0-1.31-2.83-3.96-7.83-3.96-.95,0-1.89,0-2.79.04-5.54,10.03-16.2,26.1-12.92,26.1,1.35,0,8.78-7.42,12.78-13.41.63-.99,2.02-.54,1.03.95-.94,1.44-11.02,14.8-15.16,14.8-3.38,0-3.92-3.06-3.92-5.22,0-3.1,6.48-13.77,11.43-22.81-1.58.09-3.24.09-5.04.09-4.99,0-6.84-1.98-7.51-3.78-.54-1.58.18-1.89.95-1.21,1.3,1.08,3.55,2.11,6.66,2.11,2.7,0,5.08-.18,6.66-.36,2.25-4.23,3.83-7.69,3.83-9.18,0-1.31,4.36.27,4.36,4.81,0,.76-.58,2.25-1.57,4.18h1.3c5.62,0,8.19,3.02,8.86,5.44.45,1.57-1.12,1.4-1.12,1.4h0Z"/>
    <path class="st21" d="M292.35,241.1c-.81,6.03-19.71,11.02-20.34,15.79-.22,1.66.77,1.89.63,2.74-.13.99-4.72.36-4.18-3.65,1.17-8.59,19.35-10.98,20.34-18.22.86-6.25-19.3,1.98-19.84,5.8-.41,3.15-3.29-.76-3.01-2.7l.04-.36c.63-4.86,11.7-9,18.22-9s8.69,5.44,8.15,9.58v.02ZM272.6,266.66c0,2.7-2.79,2.7-2.97,2.7-1.48,0-3.1-.94-3.1-2.7s1.44-2.65,2.92-2.65,3.15.81,3.15,2.65Z"/>
  </g>
  <g>
    <path class="st9" d="M164.79,362.42c8.48-1.61,15.7-7.38,19.32-15.52,3.27-7.36,9.28-15.82,19.93-17.37,48.94-7.11,101.22-13.12,143.87-10.55,32.86,1.98,67.64,18.1,82.89,25.99,3.68,1.91,3.94,7.26.46,9.54-15.61,10.22-54.12,32.14-101.36,35.28-61.92,4.12-163.69,2.4-188.85-1.38-6.76-1.02-13.53-6.91-9.13-17.03,5.24-12.04,17.3-6,32.87-8.95h0Z"/>
    <path class="st21" d="M128.9,341.63c.29-4.91,4.06-9.38,8.9-10.55,1.02-.23,1.85-.35,2.74-.5l5.29-.89c49.47-7.53,99.5-11.64,149.49-13.78,28.51-.86,57.66-1.66,85.71,4.38,7.02,1.59,13.97,3.51,20.82,5.73,13.71,4.44,26.51,11.18,39.09,18.09,4.18,1.88,5.4,7.25,2.32,10.76-.66.75-1.57,1.35-2.36,1.89l-2.22,1.55c-7.41,5.14-15.82,8.63-24.01,12.29-6.63,2.81-13.36,5.38-20.16,7.72-15.3,5.24-31.23,9.13-47.37,11-12.52,1.51-25.12,1.71-37.69,2.17-55.49,1.68-111.04-1.59-166.16-7.95l-2.68-.42-1.34-.21c-1.45-.16-3.09-.67-4.31-1.55-9.29-7.27-6.75-29.12-6.07-39.72h0ZM130.71,341.79c-.78,9.16-1.98,31.48,5.8,37.29,1.03.65,1.99.9,3.22,1.01.72.11,3.16.4,3.94.51,40.82,4.13,81.98,2.77,122.92,3.95,17.69.24,35.75.57,53.47.46,10.63-.07,21.29-.16,31.83-1.32,28.16-3.21,55.55-12.33,80.37-25.95l4.85-2.21,2.41-1.14c.73-.36,1.42-.65,2.01-1.18,1.57-1.45,1.61-4.2.15-5.77-.47-.55-1.19-.97-1.84-1.26-12.72-6.36-26.09-11.29-39.34-16.38-16.51-6.27-33.84-11.51-51.62-11.97-21.26-1.17-42.88-.24-64.15,1.02-24.88,1.63-49.87,4.02-74.65,6.71-21.31,2.17-42.52,5.18-63.86,7.15l-5.33.52c-.88.09-1.82.17-2.56.28-4,.69-7.21,4.18-7.63,8.28h0Z"/>
    <g>
      <path class="st21" d="M222.58,337.34c0-.5-1-.15-1-.83l.17-.33c1.5-.85,2.82-1.35,4.5-1.35.5,0,2.67,0,2.67.85v.15c0,.17-.18.35-.18.35l-4.32,1s-.17,2.65-.17,3.82v.67c.67,0,1.32-.35,2-.35.32,0,2,.17,2,.67,0,1.32-3.32,1.67-4,1.67l-.18.15c-.32.85-.15,2-.15,2.85v1.82c.15.83.65,2,1.65,2,1.67,0,3.5-2.5,4.35-3.32h.15c.18,0,.18.15.18.32,0,1.33-3.5,4.82-5,4.82-3.17,0-3.82-4.15-3.82-6.5,0-2.82,1.15-5.65,1.15-8.5v.04Z"/>
      <path class="st21" d="M234.66,338.01c1.17,0,1,1,1.67,1.65.65.67,1,.35,1.15,1.35.17.65.67,3.32.85,4v.33c0,.32-.17.67-.5.67-1,0-1.5-1.67-1.67-2.35h-.17c-.5,1.17-1.32,4.5-3,4.5-1.5,0-1.65-1.65-1.65-2.82,0-2,.65-7.32,3.32-7.32h0ZM233.48,345.01c.5,0,2.35-3.67,2.35-4.35,0-.15-.35-.83-.68-.83-.82,0-1.67,4.5-1.67,5.17h0Z"/>
      <path class="st21" d="M239.28,341.84c0-.5,1-.5,1.32-.67.17-2.17.17-5,.67-7.32,0-.35.15-.67.5-.67.15,0,.33,0,.33.32l.67,6.85c0,.15.15.33.32.5.2,0,.62-.05,1.07-.05.62,0,1.25.1,1.25.7,0,1.35-2.32.5-2.32,1.5,0,1.5.33,3.17.33,4.67,0,.67.17,2.32-.65,2.32h-.17c-2-1.65-1.67-5-1.82-7.32-.17-.5-1.5-.17-1.5-.82h0Z"/>
      <path class="st21" d="M254.18,337.01c1,0,2,2.32,2,3.15,0,.17,0,.35-.33.35l-1.35-1.17c-.82.5-1,2.67-1,3.32,0,.85.17,2.67,1.35,2.67.5,0,.82-.17,1.32-.17.17,0,.32.17.32.35,0,1-2.15,1.5-2.82,1.5-2,0-2.32-2.5-2.32-3.85,0-1.82.65-6.15,2.82-6.15h.01Z"/>
      <path class="st21" d="M259.98,338.51h.32c.5,0,.67.82.83,1.32,1.5.17,2.35,1.5,2.35,3,0,1.83-1.5,4.32-3.5,4.32-1.85,0-2.35-1.82-2.35-3.32,0-2,.85-4,2.35-5.32ZM260.31,344.66c.83,0,1.5-1.5,1.5-2.15s-.33-1.35-1.17-1.35-.82,1.85-.82,2.35,0,1.15.5,1.15h0Z"/>
      <path class="st21" d="M266.08,338.49c.35,0,.85.17.85.5v4.17c1.15-.17.83-2.82,2.32-2.82,1,0,1.33,1.82,1.5,2.5h.17c1,0,2-4.85,4-4.85s2.5,5,2.5,6.35c0,.5,0,1.65-.67,1.65-1.83,0-1.83-4.32-2.17-5.15h-.15l-.17.15s-.32.67-.5.85c-.32.5-1.67,3-2,3.5-.33.82-.67.82-1.17.82-1.15,0-1.5-1.17-1.82-2.17l-.18.17-1.5,3c-.33.67-.5.67-1,.67-1.65,0-1.65-2-1.65-3.17,0-1,.15-6.17,1.65-6.17h0Z"/>
      <path class="st21" d="M278.86,349.01c0-1.35.5-10.85,2.35-10.85.33,0,.65.18.65.5v2.17c1.35-.83,1-3.32,3-3.32s2.67,2.82,2.67,4.5c0,2-1.17,4.15-3.5,4.15-.67,0-1-.5-1.5-.5h-.17c-.5,1.67-.33,7-2.15,7-.85,0-1.17-.65-1.35-1.33v-2.32ZM282.86,344.16c1.35-.33,2.35-1.33,2.35-2.5,0-.32-.17-2-.5-2-1,0-2,4-2,4.35l.15.15Z"/>
      <path class="st21" d="M290.31,335.01c.17-.33.35-.33.5-.33,1,0,1,1.82,1,2.32v14.32c.17.17.17.35.17.5,0,.67-.5,1-1,1-2,0-1.82-4.15-1.82-5.32,0-2.5-.5-9.82,1.15-12.5h0Z"/>
      <path class="st21" d="M296.96,339.84c1,0,1.33.67,1.33,1.67,0,2.17-2.65,2.32-2.65,3.67,0,1.65,3,.5,3,1.65,0,1-2,1-2.5,1-1.5,0-2.5-1.15-2.5-2.65,0-1.85,1.15-5.35,3.32-5.35h0ZM296.13,342.84c.32,0,1-.65,1-1l-.17-.15c-.32.33-.82.65-.82,1.15h0Z"/>
      <path class="st21" d="M299.53,341.84c0-.5,1-.5,1.33-.67.17-2.17.17-5,.67-7.32,0-.35.15-.67.5-.67.15,0,.32,0,.32.32l.67,6.85c0,.15.15.33.33.5.2,0,.62-.05,1.08-.05.62,0,1.25.1,1.25.7,0,1.35-2.32.5-2.32,1.5,0,1.5.33,3.17.33,4.67,0,.67.17,2.32-.65,2.32h-.17c-2-1.65-1.67-5-1.82-7.32-.17-.5-1.5-.17-1.5-.82h-.02Z"/>
      <path class="st21" d="M309.61,339.84c1,0,1.33.67,1.33,1.67,0,2.17-2.65,2.32-2.65,3.67,0,1.65,3,.5,3,1.65,0,1-2,1-2.5,1-1.5,0-2.5-1.15-2.5-2.65,0-1.85,1.15-5.35,3.32-5.35h0ZM308.78,342.84c.32,0,1-.65,1-1l-.17-.15c-.32.33-.82.65-.82,1.15h0Z"/>
      <path class="st21" d="M320.66,338.01c1.17,0,1,1,1.67,1.65.65.67,1,.35,1.15,1.35.17.65.67,3.32.85,4v.33c0,.32-.17.67-.5.67-1,0-1.5-1.67-1.67-2.35h-.17c-.5,1.17-1.32,4.5-3,4.5-1.5,0-1.65-1.65-1.65-2.82,0-2,.65-7.32,3.32-7.32h0ZM319.48,345.01c.5,0,2.35-3.67,2.35-4.35,0-.15-.35-.83-.67-.83-.83,0-1.67,4.5-1.67,5.17h0Z"/>
      <path class="st21" d="M326.76,338.66c1.17,0,1,2.67,1,3.17,1.5-.85,1.5-3.85,3.82-3.85,2.67,0,2.67,4.85,2.67,6.5,0,.5.18,1.67-.67,1.67-1.82,0-1.32-5.5-2.15-5.5h-.17c-1.5,1.32-2.32,3.32-3.32,5.17-.17.32-.67.65-1.17.65-1.5,0-1.32-2.65-1.32-3.5,0-.65-.35-4.32,1.32-4.32h0Z"/>
      <path class="st21" d="M341,343.84h-.15c-.5,1.35-2,5.85-3.85,5.85-1.5,0-1.65-1.85-1.65-2.85,0-1.82,1.5-8,3.82-8,.67,0,1,.85,1.32,1.35,1.17-.5,1.35-6.17,2.5-6.17.85,0,.67.82.67,1.32,0,4.5-.67,9-.67,13.5v3.85c0,.83.35,1.83.35,2.82,0,.18,0,.33-.35.33-2,0-2.15-6.65-2.15-7.5,0-1.5.15-3,.15-4.5h0ZM337.36,346.69c.5,0,2.65-4.35,2.65-5,0-.35-.5-.85-.65-.85-1,0-2,5-2,5.85Z"/>
      <path class="st21" d="M221.43,365.16c0-.82.32-7.65,1.82-7.65.33,0,.82.65.82,1v12.5h.35c.32-1.35,2.15-9.17,4.32-9.17,1.17,0,1.32,1.83,1.32,2.67,0,2.5-1.15,5.32-4,5-.32,1-.5,5.65-2,5.65-2.65,0-2.65-6.32-2.65-7.65v-2.35h.02ZM226.76,367.51v.15c1.17-.83,1.82-2.15,1.82-3.5,0-.15.17-.65-.15-.65-.67.33-1.67,3.32-1.67,4h0Z"/>
      <path class="st21" d="M234.26,361.01c1.17,0,1,1,1.67,1.65.65.67,1,.35,1.15,1.35.17.65.67,3.32.85,4v.33c0,.32-.17.67-.5.67-1,0-1.5-1.67-1.67-2.35h-.17c-.5,1.17-1.32,4.5-3,4.5-1.5,0-1.65-1.65-1.65-2.82,0-2,.65-7.32,3.32-7.32h0ZM233.08,368.01c.5,0,2.35-3.67,2.35-4.35,0-.15-.35-.83-.68-.83-.82,0-1.67,4.5-1.67,5.17h0Z"/>
      <path class="st21" d="M240.68,358.01c.17-.33.35-.33.5-.33,1,0,1,1.82,1,2.32v14.32c.18.17.18.35.18.5,0,.67-.5,1-1,1-2,0-1.82-4.15-1.82-5.32,0-2.5-.5-9.82,1.15-12.5h0Z"/>
      <path class="st21" d="M247.48,361.01c1.17,0,1,1,1.67,1.65.65.67,1,.35,1.15,1.35.17.65.67,3.32.85,4v.33c0,.32-.17.67-.5.67-1,0-1.5-1.67-1.67-2.35h-.17c-.5,1.17-1.32,4.5-3,4.5-1.5,0-1.65-1.65-1.65-2.82,0-2,.65-7.32,3.32-7.32h0ZM246.31,368.01c.5,0,2.35-3.67,2.35-4.35,0-.15-.35-.83-.68-.83-.82,0-1.67,4.5-1.67,5.17h0Z"/>
      <path class="st21" d="M253.58,361.66c1.17,0,1,2.67,1,3.17,1.5-.85,1.5-3.85,3.82-3.85,2.67,0,2.67,4.85,2.67,6.5,0,.5.18,1.67-.67,1.67-1.82,0-1.32-5.5-2.15-5.5h-.17c-1.5,1.32-2.32,3.32-3.32,5.17-.17.32-.67.65-1.17.65-1.5,0-1.32-2.65-1.32-3.5,0-.65-.35-4.32,1.32-4.32h0Z"/>
      <path class="st21" d="M265.01,360.01c1,0,2,2.32,2,3.15,0,.17,0,.35-.32.35l-1.35-1.17c-.83.5-1,2.67-1,3.32,0,.85.17,2.67,1.35,2.67.5,0,.83-.17,1.32-.17.18,0,.33.17.33.35,0,1-2.15,1.5-2.82,1.5-2,0-2.32-2.5-2.32-3.85,0-1.82.65-6.15,2.82-6.15h0Z"/>
      <path class="st21" d="M271.63,362.84c1,0,1.33.67,1.33,1.67,0,2.17-2.65,2.32-2.65,3.67,0,1.65,3,.5,3,1.65,0,1-2,1-2.5,1-1.5,0-2.5-1.15-2.5-2.65,0-1.85,1.15-5.35,3.32-5.35h0ZM270.81,365.84c.32,0,1-.65,1-1l-.17-.15c-.32.33-.82.65-.82,1.15h0Z"/>
      <path class="st21" d="M280.01,366.84h-.15c-.5,1.35-2,5.85-3.85,5.85-1.5,0-1.65-1.85-1.65-2.85,0-1.82,1.5-8,3.82-8,.67,0,1,.85,1.32,1.35,1.17-.5,1.35-6.17,2.5-6.17.85,0,.67.82.67,1.32,0,4.5-.67,9-.67,13.5v3.85c0,.83.35,1.83.35,2.82,0,.18,0,.33-.35.33-2,0-2.15-6.65-2.15-7.5,0-1.5.15-3,.15-4.5h0ZM276.36,369.69c.5,0,2.65-4.35,2.65-5,0-.35-.5-.85-.65-.85-1,0-2,5-2,5.85Z"/>
      <path class="st21" d="M290.86,361.49c.35,0,.85.17.85.5v4.17c1.15-.17.83-2.82,2.32-2.82,1,0,1.33,1.82,1.5,2.5h.17c1,0,2-4.85,4-4.85s2.5,5,2.5,6.35c0,.5,0,1.65-.67,1.65-1.83,0-1.83-4.32-2.17-5.15h-.15l-.17.15s-.33.67-.5.85c-.32.5-1.67,3-2,3.5-.33.82-.67.82-1.17.82-1.15,0-1.5-1.17-1.82-2.17l-.18.17-1.5,3c-.33.67-.5.67-1,.67-1.65,0-1.65-2-1.65-3.17,0-1,.15-6.17,1.65-6.17h0Z"/>
      <path class="st21" d="M306.48,362.84c1,0,1.33.67,1.33,1.67,0,2.17-2.65,2.32-2.65,3.67,0,1.65,3,.5,3,1.65,0,1-2,1-2.5,1-1.5,0-2.5-1.15-2.5-2.65,0-1.85,1.15-5.35,3.32-5.35h0ZM305.66,365.84c.32,0,1-.65,1-1l-.17-.15c-.32.33-.82.65-.82,1.15h0Z"/>
      <path class="st21" d="M312.53,361.01c1.17,0,1,1,1.67,1.65.65.67,1,.35,1.15,1.35.17.65.67,3.32.85,4v.33c0,.32-.17.67-.5.67-1,0-1.5-1.67-1.67-2.35h-.17c-.5,1.17-1.32,4.5-3,4.5-1.5,0-1.65-1.65-1.65-2.82,0-2,.65-7.32,3.32-7.32h0ZM311.36,368.01c.5,0,2.35-3.67,2.35-4.35,0-.15-.35-.83-.67-.83-.83,0-1.67,4.5-1.67,5.17h0Z"/>
      <path class="st21" d="M318.96,358.01c.17-.33.35-.33.5-.33,1,0,1,1.82,1,2.32v14.32c.17.17.17.35.17.5,0,.67-.5,1-1,1-2,0-1.82-4.15-1.82-5.32,0-2.5-.5-9.82,1.15-12.5h0Z"/>
    </g>
    <path class="st21" d="M155.34,350.38l-1.05-25.25-3.35.65-.65-9.25,12.15-2.2c-.25,5.65-.4,11.25-.35,16.9.05,5.65.4,11.35,1,17l-7.75,2.15h0Z"/>
  </g>
  <g>
    <path class="st9" d="M211.53,471.71c8.48-1.61,15.7-7.38,19.32-15.52,3.27-7.36,9.28-15.82,19.93-17.37,48.94-7.11,101.22-13.12,143.87-10.55,32.86,1.98,67.64,18.1,82.89,25.99,3.68,1.91,3.94,7.26.46,9.54-15.61,10.22-54.12,32.14-101.36,35.28-61.92,4.12-163.69,2.4-188.85-1.38-6.76-1.02-13.53-6.91-9.13-17.03,5.24-12.04,17.3-6,32.87-8.95h0Z"/>
    <path class="st21" d="M175.64,450.92c.29-4.91,4.06-9.38,8.9-10.55,1.02-.23,1.85-.35,2.74-.5l5.29-.89c49.47-7.53,99.5-11.64,149.49-13.78,28.51-.86,57.66-1.66,85.71,4.38,7.02,1.59,13.97,3.51,20.82,5.73,13.71,4.44,26.51,11.18,39.09,18.09,4.18,1.88,5.4,7.25,2.32,10.76-.66.75-1.57,1.35-2.36,1.89l-2.22,1.55c-7.41,5.14-15.82,8.63-24.01,12.29-6.63,2.81-13.36,5.38-20.16,7.72-15.3,5.24-31.23,9.13-47.37,11-12.52,1.51-25.12,1.71-37.69,2.17-55.49,1.68-111.04-1.59-166.16-7.95l-2.68-.42-1.34-.21c-1.45-.16-3.09-.67-4.31-1.55-9.29-7.27-6.75-29.12-6.07-39.72h0ZM177.46,451.09c-.78,9.16-1.98,31.48,5.8,37.29,1.03.65,1.99.9,3.22,1.01.72.11,3.16.4,3.94.51,40.82,4.13,81.98,2.77,122.92,3.95,17.69.24,35.75.57,53.47.46,10.63-.07,21.29-.16,31.83-1.32,28.16-3.21,55.55-12.33,80.37-25.95l4.85-2.21,2.41-1.14c.73-.36,1.42-.65,2.01-1.18,1.57-1.45,1.61-4.2.15-5.77-.47-.55-1.19-.97-1.84-1.26-12.72-6.36-26.09-11.29-39.34-16.38-16.51-6.27-33.84-11.51-51.62-11.97-21.26-1.17-42.88-.24-64.15,1.02-24.88,1.63-49.87,4.02-74.65,6.71-21.31,2.17-42.52,5.18-63.86,7.15l-5.33.52c-.88.09-1.82.17-2.56.28-4,.69-7.21,4.18-7.63,8.28h0Z"/>
    <g>
      <path class="st21" d="M273.18,457.85c.85,0,.67,1.67.67,2.17,0,1.32-.18,2.67-.18,4v1c1.67-1,5.5-3.17,5.5-5.67,0-2-2.15-2.5-3.65-2.5-3.35,0-7.35,1.85-7.35,5.5h-.15c-.5,0-.5-.65-.5-1,0-3.5,5.32-5.5,8.15-5.5,2.35,0,5.17,1.17,5.17,3.85,0,3.5-3.82,7.32-7.32,7,0,.65-.17,3.82-.17,4.5,0,.15-.17.83-.17,1l-.33.15c-1.67,0-1.5-4.82-1.5-5.5,0-1,.17-9,1.82-9h0Z"/>
      <path class="st21" d="M281.9,460.05c1.17,0,.32,2.5,1.17,2.82.5-1.17,1.15-3.82,2.82-3.82.67,0,1.5.82,1.5,1.5,0,.5-1.67,1.65-2,2.33-.5,1.17-.82,5.32-2.67,5.32s-1.65-4-1.65-5c0-.5-.35-3.15.82-3.15h0Z"/>
      <path class="st21" d="M290.58,458.88h.33c.5,0,.67.82.82,1.32,1.5.17,2.35,1.5,2.35,3,0,1.83-1.5,4.32-3.5,4.32-1.85,0-2.35-1.82-2.35-3.32,0-2,.85-4,2.35-5.32ZM290.9,465.02c.82,0,1.5-1.5,1.5-2.15s-.32-1.35-1.17-1.35-.82,1.85-.82,2.35,0,1.15.5,1.15h0Z"/>
      <path class="st21" d="M295.35,469.37c0-1.35.5-10.85,2.35-10.85.32,0,.65.18.65.5v2.17c1.35-.83,1-3.32,3-3.32s2.67,2.82,2.67,4.5c0,2-1.17,4.15-3.5,4.15-.67,0-1-.5-1.5-.5h-.18c-.5,1.67-.32,7-2.15,7-.85,0-1.17-.65-1.35-1.33v-2.32h0ZM299.35,464.52c1.35-.33,2.35-1.33,2.35-2.5,0-.32-.17-2-.5-2-1,0-2,4-2,4.35l.15.15Z"/>
      <path class="st21" d="M307.47,460.2c1,0,1.33.67,1.33,1.67,0,2.17-2.65,2.32-2.65,3.67,0,1.65,3,.5,3,1.65,0,1-2,1-2.5,1-1.5,0-2.5-1.15-2.5-2.65,0-1.85,1.15-5.35,3.32-5.35h0ZM306.65,463.2c.32,0,1-.65,1-1l-.17-.15c-.32.33-.82.65-.82,1.15h0Z"/>
      <path class="st21" d="M311.03,460.05c1.17,0,.33,2.5,1.17,2.82.5-1.17,1.15-3.82,2.82-3.82.68,0,1.5.82,1.5,1.5,0,.5-1.67,1.65-2,2.33-.5,1.17-.83,5.32-2.67,5.32s-1.65-4-1.65-5c0-.5-.35-3.15.82-3.15h0Z"/>
      <path class="st21" d="M324,458.85c.35,0,.85.17.85.5v4.17c1.15-.17.83-2.82,2.32-2.82,1,0,1.33,1.82,1.5,2.5h.17c1,0,2-4.85,4-4.85s2.5,5,2.5,6.35c0,.5,0,1.65-.67,1.65-1.83,0-1.83-4.32-2.17-5.15h-.15l-.17.15s-.32.67-.5.85c-.32.5-1.67,3-2,3.5-.33.82-.67.82-1.17.82-1.15,0-1.5-1.17-1.82-2.17l-.18.17-1.5,3c-.33.67-.5.67-1,.67-1.65,0-1.65-2-1.65-3.17,0-1,.15-6.17,1.65-6.17h0Z"/>
      <path class="st21" d="M339.62,460.2c1,0,1.33.67,1.33,1.67,0,2.17-2.65,2.32-2.65,3.67,0,1.65,3,.5,3,1.65,0,1-2,1-2.5,1-1.5,0-2.5-1.15-2.5-2.65,0-1.85,1.15-5.35,3.32-5.35h0ZM338.8,463.2c.32,0,1-.65,1-1l-.17-.15c-.32.33-.82.65-.82,1.15h0Z"/>
      <path class="st21" d="M345.67,458.38c1.17,0,1,1,1.67,1.65.65.67,1,.35,1.15,1.35.17.65.67,3.32.85,4v.33c0,.32-.17.67-.5.67-1,0-1.5-1.67-1.67-2.35h-.17c-.5,1.17-1.32,4.5-3,4.5-1.5,0-1.65-1.65-1.65-2.82,0-2,.65-7.32,3.32-7.32h0ZM344.5,465.37c.5,0,2.35-3.67,2.35-4.35,0-.15-.35-.83-.67-.83-.83,0-1.67,4.5-1.67,5.17h0Z"/>
      <path class="st21" d="M352.1,455.38c.17-.33.35-.33.5-.33,1,0,1,1.82,1,2.32v14.32c.17.17.17.35.17.5,0,.67-.5,1-1,1-2,0-1.82-4.15-1.82-5.32,0-2.5-.5-9.82,1.15-12.5h0Z"/>
      <path class="st21" d="M360.42,462.2c0-.5,1-.5,1.33-.67.17-2.17.17-5,.67-7.32,0-.35.15-.67.5-.67.15,0,.32,0,.32.32l.67,6.85c0,.15.15.33.33.5.2,0,.62-.05,1.08-.05.62,0,1.25.1,1.25.7,0,1.35-2.32.5-2.32,1.5,0,1.5.33,3.17.33,4.67,0,.67.17,2.32-.65,2.32h-.17c-2-1.65-1.67-5-1.82-7.32-.17-.5-1.5-.17-1.5-.82h-.02Z"/>
      <path class="st21" d="M368.17,455.05c.83-.17,1,2.5,1,3v.65c-.17.35-.35.35-.5.35-1,0-1-1.67-1-2.35,0-.33-.17-1.5.5-1.65ZM370.5,468.05c0,.5-.33.5-.82.5-1,0-1.67-1.35-1.67-2.17v-4c0-.5.5-1.5,1-1.5,1.32,0,1.5,6.5,1.5,7.17h0Z"/>
      <path class="st21" d="M373.3,458.85c.35,0,.85.17.85.5v4.17c1.15-.17.83-2.82,2.32-2.82,1,0,1.33,1.82,1.5,2.5h.17c1,0,2-4.85,4-4.85s2.5,5,2.5,6.35c0,.5,0,1.65-.67,1.65-1.83,0-1.83-4.32-2.17-5.15h-.15l-.17.15s-.32.67-.5.85c-.32.5-1.67,3-2,3.5-.33.82-.67.82-1.17.82-1.15,0-1.5-1.17-1.82-2.17l-.18.17-1.5,3c-.33.67-.5.67-1,.67-1.65,0-1.65-2-1.65-3.17,0-1,.15-6.17,1.65-6.17h0Z"/>
      <path class="st21" d="M386.42,455.05c.83-.17,1,2.5,1,3v.65c-.17.35-.35.35-.5.35-1,0-1-1.67-1-2.35,0-.33-.17-1.5.5-1.65ZM388.75,468.05c0,.5-.33.5-.82.5-1,0-1.67-1.35-1.67-2.17v-4c0-.5.5-1.5,1-1.5,1.32,0,1.5,6.5,1.5,7.17h0Z"/>
      <path class="st21" d="M391.22,459.03c1.17,0,1,2.67,1,3.17,1.5-.85,1.5-3.85,3.82-3.85,2.67,0,2.67,4.85,2.67,6.5,0,.5.18,1.67-.67,1.67-1.82,0-1.32-5.5-2.15-5.5h-.17c-1.5,1.32-2.32,3.32-3.32,5.17-.17.32-.67.65-1.17.65-1.5,0-1.32-2.65-1.32-3.5,0-.65-.35-4.32,1.32-4.32h0Z"/>
      <path class="st21" d="M402.32,470.87c.33,0,.83.67,1.33.67,1.32,0,1.17-5.5,1.17-5.85v-.65l-.18-.17c-.17.33-1.32,2.32-1.5,2.67-.33.65-.83,1.32-1.67,1.32-1.32,0-1.65-1.5-1.65-2.67,0-2.15,1-6.65,3.82-6.65.5,0,.67.5,1.32.5.17,0,.35-.35.67-.5h.17c.65,0,.65,1.15.65,1.5.17,2.33.17,3.32.17,5.65v3c-.17,1.35-.83,4-2.67,4-1,0-2-1.33-2-2.32,0-.18,0-.5.35-.5h.02ZM402.32,465.37c.65,0,2-3.17,2.15-3.82,0-.35-.32-.5-.5-.5-1.15,0-1.65,3.65-1.65,4.32Z"/>
    </g>
    <path class="st21" d="M210.83,447.13c-1.7.85-2.8,2-3.35,3.5l11.35-.65.95,9.15-21.2,1.05c-.65-2.25-.95-4.3-.95-6.15,0-1.55.2-2.95.65-4.2.95-2.8,3.85-5.65,8.65-8.5,2.6-1.55,4-3.1,4.25-4.65.05-.35.05-.65.05-1,0-.85-.25-1.65-.7-2.35-.55-.85-1.2-1.25-2.05-1.25-1.1,0-1.65.7-1.65,2.15,0,.35.05.8.1,1.3l-8.7,1.6c0-7.25,1.9-11.75,5.7-13.6,1.1-.5,2.25-.75,3.4-.75,2.45,0,4.8.85,7.15,2.55,3.75,2.8,5.6,6.2,5.55,10.2-.05,4.75-3.15,8.65-9.2,11.6h0Z"/>
  </g>
  <g>
    <path class="st9" d="M137.1,722.03c8.48-1.61,15.7-7.38,19.32-15.52,3.27-7.36,9.28-15.82,19.93-17.37,48.94-7.11,101.22-13.12,143.87-10.55,32.86,1.98,67.64,18.1,82.89,25.99,3.68,1.91,3.94,7.26.46,9.54-15.61,10.22-54.12,32.14-101.36,35.28-61.92,4.12-163.69,2.4-188.85-1.38-6.76-1.02-13.53-6.91-9.13-17.03,5.24-12.04,17.3-6,32.87-8.95h0Z"/>
    <path class="st21" d="M101.21,701.24c.29-4.91,4.06-9.38,8.9-10.55,1.02-.23,1.85-.35,2.74-.5l5.29-.89c49.47-7.53,99.5-11.64,149.49-13.78,28.51-.86,57.66-1.66,85.71,4.38,7.02,1.59,13.97,3.51,20.82,5.73,13.71,4.44,26.51,11.18,39.09,18.09,4.18,1.88,5.4,7.25,2.32,10.76-.66.75-1.57,1.35-2.36,1.89l-2.22,1.55c-7.41,5.14-15.82,8.63-24.01,12.29-6.63,2.81-13.36,5.38-20.16,7.72-15.3,5.24-31.23,9.13-47.37,11-12.52,1.51-25.12,1.71-37.69,2.17-55.49,1.68-111.04-1.59-166.16-7.95l-2.68-.42-1.34-.21c-1.45-.16-3.09-.67-4.31-1.55-9.29-7.27-6.75-29.12-6.07-39.72h0ZM103.02,701.4c-.78,9.16-1.98,31.48,5.8,37.29,1.03.65,1.99.9,3.22,1.01.72.11,3.16.4,3.94.51,40.82,4.13,81.98,2.77,122.92,3.95,17.69.24,35.75.57,53.47.46,10.63-.07,21.29-.16,31.83-1.32,28.16-3.21,55.55-12.33,80.37-25.95l4.85-2.21,2.41-1.14c.73-.36,1.42-.65,2.01-1.18,1.57-1.45,1.61-4.2.15-5.77-.47-.55-1.19-.97-1.84-1.26-12.72-6.36-26.09-11.29-39.34-16.38-16.51-6.27-33.84-11.51-51.62-11.97-21.26-1.17-42.88-.24-64.15,1.02-24.88,1.63-49.87,4.02-74.65,6.71-21.31,2.17-42.52,5.18-63.86,7.15l-5.33.52c-.88.09-1.82.17-2.56.28-4,.69-7.21,4.18-7.63,8.28h0Z"/>
    <g>
      <path class="st21" d="M196.07,710.59c2.17.17,6.5-.83,6.5-3.82,0-2.17-3.5-1.82-4.5-3.17v-.65c0-2.35,3.17-3.67,3.17-5.85,0-1.15-2.17-1.5-2.82-1.5-2.5,0-5,3-5,3-.35,0-.35-.33-.35-.65,0-2.35,4.5-3.67,6.35-3.67s4,.67,4,2.82-1.85,4.17-3,5.67c0,.5,3.65,1.82,3.65,4.32,0,2.85-2.5,5.5-5.32,5.5-.82,0-2.82-.5-2.82-1.65,0-.17,0-.35.15-.35h0ZM195.24,700.6c0-.82.17-3.32,1.5-3.32,1.17,0,1,1.83,1,2.67,0,2.5-.5,5-.5,7.32,0,.83.17,1.5.17,2.32,0,.17-.17.17-.35.17-2,0-1.82-5.82-1.82-6.67v-2.5h0Z"/>
      <path class="st21" d="M208.64,699.45c1,0,1.32.67,1.32,1.67,0,2.17-2.65,2.32-2.65,3.67,0,1.65,3,.5,3,1.65,0,1-2,1-2.5,1-1.5,0-2.5-1.15-2.5-2.65,0-1.85,1.15-5.35,3.32-5.35h0ZM207.82,702.44c.33,0,1-.65,1-1l-.17-.15c-.33.33-.83.65-.83,1.15Z"/>
      <path class="st21" d="M216.69,708.62c0-1.35.5-10.85,2.35-10.85.32,0,.65.18.65.5v2.17c1.35-.83,1-3.32,3-3.32s2.67,2.82,2.67,4.5c0,2-1.17,4.15-3.5,4.15-.67,0-1-.5-1.5-.5h-.18c-.5,1.67-.32,7-2.15,7-.85,0-1.17-.65-1.35-1.33v-2.32h0ZM220.69,703.77c1.35-.33,2.35-1.33,2.35-2.5,0-.32-.17-2-.5-2-1,0-2,4-2,4.35l.15.15Z"/>
      <path class="st21" d="M228.67,693.8c.33,0,.67.83.67,1v8.5h.15c.35-.85,1.17-3.67,2.5-3.67.35,0,.67.17,1,.5.85,1.33,1.67,3,1.67,4.67,0,.33,0,1.15-.5,1.15-1.5,0-1.5-3.5-2.17-4.5-1.5,0-1.5,7-3.15,7-2.35,0-2-5.32-2-6.5,0-.65.33-8.15,1.82-8.15h0Z"/>
      <path class="st21" d="M237.87,710.27c.65,0,1.33.17,1.83.17,1,0,.67-2.5.67-2.85,0-1.65,0-2.65-.18-4.5-1.17.85-1.17,2.67-2.82,2.67s-2-2.17-2-3.5c0-.82-.17-4.67,1.5-4.67.33,0,.65.35.65.67v4.32l.17.67c1.5,0,1.67-5.5,3.32-5.5.35,0,.67,0,.85.5.83,3.17.83,6.5.83,9.82v2.17c-.33,1.5-1,2.67-2.67,2.67-1,0-2.65-.85-2.65-2.17,0-.33.15-.5.5-.5v.03Z"/>
      <path class="st21" d="M245.74,705.44l1.17-1.15v-.35c-1-1-2.82-2.5-2.82-4.15,0-1.5,1.15-3.17,2.82-3.17,1,0,1.5,1.17,1.5,2,0,.17,0,.32-.33.32-.17,0-.67-.65-.85-.65h-.15c-.18,0-.67.82-.85,1,0,1.5,3,2.65,3,4.65,0,1.5-1.15,2.5-2.65,2.5-.35,0-.85-.32-.85-.82v-.17h.01Z"/>
      <path class="st21" d="M250.97,694.3c.83-.17,1,2.5,1,3v.65c-.17.35-.35.35-.5.35-1,0-1-1.67-1-2.35,0-.33-.17-1.5.5-1.65ZM253.29,707.29c0,.5-.33.5-.82.5-1,0-1.67-1.35-1.67-2.17v-4c0-.5.5-1.5,1-1.5,1.32,0,1.5,6.5,1.5,7.17h0Z"/>
      <path class="st21" d="M257.27,696.62c1,0,2,2.32,2,3.15,0,.17,0,.35-.32.35l-1.35-1.17c-.83.5-1,2.67-1,3.32,0,.85.17,2.67,1.35,2.67.5,0,.83-.17,1.32-.17.18,0,.33.17.33.35,0,1-2.15,1.5-2.82,1.5-2,0-2.32-2.5-2.32-3.85,0-1.82.65-6.15,2.82-6.15h0Z"/>
      <path class="st21" d="M264.04,697.62c1.17,0,1,1,1.67,1.65.65.67,1,.35,1.15,1.35.17.65.67,3.32.85,4v.33c0,.32-.17.67-.5.67-1,0-1.5-1.67-1.67-2.35h-.17c-.5,1.17-1.32,4.5-3,4.5-1.5,0-1.65-1.65-1.65-2.82,0-2,.65-7.32,3.32-7.32h0ZM262.87,704.62c.5,0,2.35-3.67,2.35-4.35,0-.15-.35-.83-.67-.83-.83,0-1.67,4.5-1.67,5.17h0Z"/>
      <path class="st21" d="M270.47,694.62c.17-.33.35-.33.5-.33,1,0,1,1.82,1,2.32v14.32c.17.17.17.35.17.5,0,.67-.5,1-1,1-2,0-1.82-4.15-1.82-5.32,0-2.5-.5-9.82,1.15-12.5h0Z"/>
      <path class="st21" d="M275.59,694.62c.17-.33.35-.33.5-.33,1,0,1,1.82,1,2.32v14.32c.17.17.17.35.17.5,0,.67-.5,1-1,1-2,0-1.82-4.15-1.82-5.32,0-2.5-.5-9.82,1.15-12.5h0Z"/>
      <path class="st21" d="M281.57,710.27c.65,0,1.33.17,1.83.17,1,0,.67-2.5.67-2.85,0-1.65,0-2.65-.18-4.5-1.17.85-1.17,2.67-2.82,2.67s-2-2.17-2-3.5c0-.82-.17-4.67,1.5-4.67.32,0,.65.35.65.67v4.32l.17.67c1.5,0,1.67-5.5,3.32-5.5.35,0,.67,0,.85.5.83,3.17.83,6.5.83,9.82v2.17c-.33,1.5-1,2.67-2.67,2.67-1,0-2.65-.85-2.65-2.17,0-.33.15-.5.5-.5v.03Z"/>
      <path class="st21" d="M296.27,697.62c1.17,0,1,1,1.67,1.65.65.67,1,.35,1.15,1.35.17.65.67,3.32.85,4v.33c0,.32-.17.67-.5.67-1,0-1.5-1.67-1.67-2.35h-.17c-.5,1.17-1.32,4.5-3,4.5-1.5,0-1.65-1.65-1.65-2.82,0-2,.65-7.32,3.32-7.32h0ZM295.09,704.62c.5,0,2.35-3.67,2.35-4.35,0-.15-.35-.83-.67-.83-.83,0-1.67,4.5-1.67,5.17h0Z"/>
      <path class="st21" d="M303.87,696.62c1,0,2,2.32,2,3.15,0,.17,0,.35-.32.35l-1.35-1.17c-.83.5-1,2.67-1,3.32,0,.85.17,2.67,1.35,2.67.5,0,.83-.17,1.32-.17.18,0,.33.17.33.35,0,1-2.15,1.5-2.82,1.5-2,0-2.32-2.5-2.32-3.85,0-1.82.65-6.15,2.82-6.15h0Z"/>
      <path class="st21" d="M307.17,701.45c0-.5,1-.5,1.33-.67.17-2.17.17-5,.67-7.32,0-.35.15-.67.5-.67.15,0,.32,0,.32.32l.67,6.85c0,.15.15.33.33.5.2,0,.62-.05,1.08-.05.62,0,1.25.1,1.25.7,0,1.35-2.32.5-2.32,1.5,0,1.5.33,3.17.33,4.67,0,.67.17,2.32-.65,2.32h-.17c-2-1.65-1.67-5-1.82-7.32-.17-.5-1.5-.17-1.5-.82h-.02Z"/>
      <path class="st21" d="M314.92,694.3c.83-.17,1,2.5,1,3v.65c-.17.35-.35.35-.5.35-1,0-1-1.67-1-2.35,0-.33-.17-1.5.5-1.65ZM317.24,707.29c0,.5-.33.5-.82.5-1,0-1.67-1.35-1.67-2.17v-4c0-.5.5-1.5,1-1.5,1.32,0,1.5,6.5,1.5,7.17h0Z"/>
      <path class="st21" d="M319.07,698.95c1.32,0,1.82,5,3,5,.33,0,.5-1.5.5-1.65,0-.5.5-2.67.5-3.17.17-.32.17-.5.5-.5.17,0,.33,0,.33.17.17,1,.17,1.32.17,2.15,0,1.5.17,6-2.33,6s-3.5-5-3.5-6.82c0-.5,0-1.17.83-1.17h0Z"/>
      <path class="st21" d="M328.34,699.45c1,0,1.33.67,1.33,1.67,0,2.17-2.65,2.32-2.65,3.67,0,1.65,3,.5,3,1.65,0,1-2,1-2.5,1-1.5,0-2.5-1.15-2.5-2.65,0-1.85,1.15-5.35,3.32-5.35h0ZM327.52,702.44c.32,0,1-.65,1-1l-.17-.15c-.32.33-.82.65-.82,1.15h0Z"/>
      <path class="st21" d="M339.39,697.62c1.17,0,1,1,1.67,1.65.65.67,1,.35,1.15,1.35.17.65.67,3.32.85,4v.33c0,.32-.17.67-.5.67-1,0-1.5-1.67-1.67-2.35h-.17c-.5,1.17-1.32,4.5-3,4.5-1.5,0-1.65-1.65-1.65-2.82,0-2,.65-7.32,3.32-7.32h0ZM338.22,704.62c.5,0,2.35-3.67,2.35-4.35,0-.15-.35-.83-.67-.83-.83,0-1.67,4.5-1.67,5.17h0Z"/>
      <path class="st21" d="M345.67,705.44l1.17-1.15v-.35c-1-1-2.82-2.5-2.82-4.15,0-1.5,1.15-3.17,2.82-3.17,1,0,1.5,1.17,1.5,2,0,.17,0,.32-.33.32-.17,0-.67-.65-.85-.65h-.15c-.18,0-.67.82-.85,1,0,1.5,3,2.65,3,4.65,0,1.5-1.15,2.5-2.65,2.5-.35,0-.85-.32-.85-.82v-.17h0Z"/>
      <path class="st21" d="M194.89,721.1c.35,0,.85.17.85.5v4.17c1.15-.17.83-2.82,2.32-2.82,1,0,1.32,1.82,1.5,2.5h.17c1,0,2-4.85,4-4.85s2.5,5,2.5,6.35c0,.5,0,1.65-.67,1.65-1.82,0-1.82-4.32-2.17-5.15h-.15l-.18.15s-.32.67-.5.85c-.33.5-1.67,3-2,3.5-.33.82-.67.82-1.17.82-1.15,0-1.5-1.17-1.82-2.17l-.17.17-1.5,3c-.33.67-.5.67-1,.67-1.65,0-1.65-2-1.65-3.17,0-1,.15-6.17,1.65-6.17h-.01Z"/>
      <path class="st21" d="M208.67,721.3c.17,0,.5,0,.5.15,0,1-.32,4.5.68,5.5h.15c.5-.83,2.17-6.5,2.85-6.5.82,0,1.15.85,1.15,1.5.17.67.5,4.35.5,5.17v.5c0,.33,0,.5-.32.5-.82,0-1.32-1.5-1.67-1.5h-.15c-.35.83-1.17,3.32-2.67,3.32-2,0-2.32-3.5-2.32-4.82,0-1,0-3.82,1.32-3.82h-.02Z"/>
      <path class="st21" d="M218.52,719.62c1,0,2,2.32,2,3.15,0,.17,0,.35-.33.35l-1.35-1.17c-.82.5-1,2.67-1,3.32,0,.85.17,2.67,1.35,2.67.5,0,.82-.17,1.32-.17.17,0,.32.17.32.35,0,1-2.15,1.5-2.82,1.5-2,0-2.32-2.5-2.32-3.85,0-1.82.65-6.15,2.82-6.15h0Z"/>
      <path class="st21" d="M224.14,716.8c.32,0,.67.83.67,1v8.5h.15c.35-.85,1.17-3.67,2.5-3.67.35,0,.67.17,1,.5.85,1.33,1.67,3,1.67,4.67,0,.33,0,1.15-.5,1.15-1.5,0-1.5-3.5-2.17-4.5-1.5,0-1.5,7-3.15,7-2.35,0-2-5.32-2-6.5,0-.65.33-8.15,1.82-8.15h0Z"/>
      <path class="st21" d="M239.49,720.62c1.17,0,1,1,1.67,1.65.65.67,1,.35,1.15,1.35.17.65.67,3.32.85,4v.33c0,.32-.17.67-.5.67-1,0-1.5-1.67-1.67-2.35h-.17c-.5,1.17-1.32,4.5-3,4.5-1.5,0-1.65-1.65-1.65-2.82,0-2,.65-7.32,3.32-7.32h0ZM238.32,727.62c.5,0,2.35-3.67,2.35-4.35,0-.15-.35-.83-.67-.83-.83,0-1.67,4.5-1.67,5.17h-.01Z"/>
      <path class="st21" d="M245.77,728.44l1.17-1.15v-.35c-1-1-2.82-2.5-2.82-4.15,0-1.5,1.15-3.17,2.82-3.17,1,0,1.5,1.17,1.5,2,0,.17,0,.32-.33.32-.17,0-.67-.65-.85-.65h-.15c-.18,0-.67.82-.85,1,0,1.5,3,2.65,3,4.65,0,1.5-1.15,2.5-2.65,2.5-.35,0-.85-.32-.85-.82v-.17h.01Z"/>
      <path class="st21" d="M257.82,733.27c.65,0,1.33.17,1.83.17,1,0,.67-2.5.67-2.85,0-1.65,0-2.65-.18-4.5-1.17.85-1.17,2.67-2.82,2.67s-2-2.17-2-3.5c0-.82-.17-4.67,1.5-4.67.33,0,.65.35.65.67v4.32l.17.67c1.5,0,1.67-5.5,3.32-5.5.35,0,.67,0,.85.5.83,3.17.83,6.5.83,9.82v2.17c-.33,1.5-1,2.67-2.67,2.67-1,0-2.65-.85-2.65-2.17,0-.33.15-.5.5-.5v.03Z"/>
      <path class="st21" d="M266.54,721.12h.32c.5,0,.67.82.83,1.32,1.5.17,2.35,1.5,2.35,3,0,1.83-1.5,4.32-3.5,4.32-1.85,0-2.35-1.82-2.35-3.32,0-2,.85-4,2.35-5.32ZM266.87,727.27c.83,0,1.5-1.5,1.5-2.15s-.33-1.35-1.17-1.35-.82,1.85-.82,2.35,0,1.15.5,1.15h0Z"/>
      <path class="st21" d="M272.32,721.3c.17,0,.5,0,.5.15,0,1-.33,4.5.67,5.5h.15c.5-.83,2.17-6.5,2.85-6.5.82,0,1.15.85,1.15,1.5.17.67.5,4.35.5,5.17v.5c0,.33,0,.5-.33.5-.83,0-1.32-1.5-1.67-1.5h-.15c-.35.83-1.17,3.32-2.67,3.32-2,0-2.32-3.5-2.32-4.82,0-1,0-3.82,1.32-3.82Z"/>
      <path class="st21" d="M287.17,719.62c1,0,2,2.32,2,3.15,0,.17,0,.35-.32.35l-1.35-1.17c-.83.5-1,2.67-1,3.32,0,.85.17,2.67,1.35,2.67.5,0,.83-.17,1.32-.17.18,0,.33.17.33.35,0,1-2.15,1.5-2.82,1.5-2,0-2.32-2.5-2.32-3.85,0-1.82.65-6.15,2.82-6.15h0Z"/>
      <path class="st21" d="M293.94,720.62c1.17,0,1,1,1.67,1.65.65.67,1,.35,1.15,1.35.17.65.67,3.32.85,4v.33c0,.32-.17.67-.5.67-1,0-1.5-1.67-1.67-2.35h-.17c-.5,1.17-1.32,4.5-3,4.5-1.5,0-1.65-1.65-1.65-2.82,0-2,.65-7.32,3.32-7.32h0ZM292.77,727.62c.5,0,2.35-3.67,2.35-4.35,0-.15-.35-.83-.67-.83-.83,0-1.67,4.5-1.67,5.17h0Z"/>
      <path class="st21" d="M300.04,721.27c1.17,0,1,2.67,1,3.17,1.5-.85,1.5-3.85,3.82-3.85,2.67,0,2.67,4.85,2.67,6.5,0,.5.18,1.67-.67,1.67-1.82,0-1.32-5.5-2.15-5.5h-.17c-1.5,1.32-2.32,3.32-3.32,5.17-.17.32-.67.65-1.17.65-1.5,0-1.32-2.65-1.32-3.5,0-.65-.35-4.32,1.32-4.32h0Z"/>
    </g>
    <path class="st21" d="M145.1,701.49h-1.45c-.6.05-1.05.05-1.4.05.15,2.75.35,4.9.55,6.5l-7.3,1.95-.35-8.1c-3.15.25-6.3.55-9.4.9l-2.85-4.15,1.6-23.6,8.9-1.35c-1.2,7.25-2.1,13.75-2.7,19.5l4.05-.25-.6-14.45,8.05-1.45c-.25,4.55-.35,8.45-.35,11.6,0,1.3,0,2.6.05,3.85l2.25-.15.95,9.15Z"/>
  </g>
  <g>
    <path class="st9" d="M164.79,600.04c8.48-2.2,15.7-10.1,19.32-21.22,3.27-10.06,9.28-21.63,19.93-23.75,48.94-9.73,101.22-17.95,143.87-14.43,32.86,2.71,67.64,24.75,82.89,35.53,3.68,2.61,3.94,9.93.46,13.04-15.61,13.97-54.12,43.95-101.36,48.24-61.92,5.63-163.69,3.28-188.85-1.89-6.76-1.39-13.53-9.45-9.13-23.29,5.24-16.46,17.3-8.2,32.87-12.23h0Z"/>
    <path class="st21" d="M128.9,571.66c.25-6.37,3.92-13.59,10.84-14.58.74-.18,3.3-.7,4.1-.89,6.65-1.43,15.42-3.19,21.98-4.29,44.19-7.27,88.67-13.04,133.43-15.29,18.52-.76,37.51-1.11,56.02.84,11.18,1.44,22.14,4.33,32.78,8.05,17.7,6.38,34.32,15.5,49.25,26.92,1.52,1.11,2.99,2.25,4.49,3.4,1.81,1.46,2.76,3.55,3.08,5.59.55,3.35-.32,7.1-2.99,9.39-3.44,2.85-6.61,6-10.12,8.79-12.27,8.7-25.4,16.14-39.11,22.36-17.16,7.8-35.58,13.27-54.4,14.99-11.15,1.03-22.51,1.41-33.68,1.73-54.19,1.42-108.57-1.7-162.11-10.28l-2.78-.59-1.39-.29c-2.74-.62-4.95-3.11-6-5.34-2.59-5.26-3.27-11.12-3.82-16.8-1.05-10.83-.2-22.82.42-33.7h.01ZM130.71,571.78c-.57,7.4-.56,14.85-.41,22.27.45,8.96.62,18.55,4.59,26.72,1.05,1.85,2.25,3.24,4.11,3.66.79.13,3.22.59,4.06.73,23.87,3.69,48.11,4.15,72.22,5.01,26.35.66,63.24,2.1,89.21,2.05,11.06-.02,22.31-.01,33.36-.64,18.36-.99,36.31-5.92,53.26-13.15,17.51-7.39,33.11-18.42,48.8-28.98l.55-.42c.72-.63,1.35-1.41,1.69-2.36,1.16-2.81.61-6.98-1.91-8.76-1.52-1.02-3.07-2.07-4.63-3.06-3.11-2.03-6.28-3.96-9.46-5.85-19.11-11.09-38.44-22.82-60.16-27.92-3.59-.83-7.29-1.41-10.93-1.84-10.82-.93-22.6-1.45-33.39-1.14-52.12,1.26-103.81,9.41-155.2,17.72-7.34,1.25-14.72,2.27-22.09,3.38l-2.76.41-1.38.2c-5.88.39-9.09,6.52-9.52,11.98h0Z"/>
    <g>
      <path class="st21" d="M234.89,558.98c.33,0,.5.33.5.67v11.82c0,1.17.65,2.67,2,2.67,1.65,0,3.65-1,5-1.5h.32c.17,0,.33,0,.33.33,0,1.32-4.65,3.17-5.82,3.17-3.82,0-4.32-4.35-4.32-7.35,0-1,.32-9.82,2-9.82h0Z"/>
      <path class="st21" d="M244.44,558.51c.82-.17,1,2.5,1,3v.65c-.17.35-.35.35-.5.35-1,0-1-1.67-1-2.35,0-.33-.17-1.5.5-1.65ZM246.77,571.5c0,.5-.32.5-.82.5-1,0-1.67-1.35-1.67-2.17v-4c0-.5.5-1.5,1-1.5,1.32,0,1.5,6.5,1.5,7.17h0Z"/>
      <path class="st21" d="M249.57,562.31c.35,0,.85.17.85.5v4.17c1.15-.17.83-2.82,2.32-2.82,1,0,1.32,1.82,1.5,2.5h.17c1,0,2-4.85,4-4.85s2.5,5,2.5,6.35c0,.5,0,1.65-.67,1.65-1.82,0-1.82-4.32-2.17-5.15h-.15l-.18.15s-.32.67-.5.85c-.33.5-1.67,3-2,3.5-.33.82-.67.82-1.17.82-1.15,0-1.5-1.17-1.82-2.17l-.17.17-1.5,3c-.33.67-.5.67-1,.67-1.65,0-1.65-2-1.65-3.17,0-1,.15-6.17,1.65-6.17h-.01Z"/>
      <path class="st21" d="M262.69,558.51c.82-.17,1,2.5,1,3v.65c-.17.35-.35.35-.5.35-1,0-1-1.67-1-2.35,0-.33-.17-1.5.5-1.65ZM265.02,571.5c0,.5-.32.5-.82.5-1,0-1.67-1.35-1.67-2.17v-4c0-.5.5-1.5,1-1.5,1.32,0,1.5,6.5,1.5,7.17h0Z"/>
      <path class="st21" d="M266.02,565.66c0-.5,1-.5,1.32-.67.17-2.17.17-5,.67-7.32,0-.35.15-.67.5-.67.15,0,.33,0,.33.32l.67,6.85c0,.15.15.33.33.5.2,0,.62-.05,1.07-.05.62,0,1.25.1,1.25.7,0,1.35-2.32.5-2.32,1.5,0,1.5.32,3.17.32,4.67,0,.67.18,2.32-.65,2.32h-.17c-2-1.65-1.67-5-1.82-7.32-.17-.5-1.5-.17-1.5-.82h0Z"/>
      <path class="st21" d="M277.94,565.66c0-.5,1-.5,1.33-.67.17-2.17.17-5,.67-7.32,0-.35.15-.67.5-.67.15,0,.32,0,.32.32l.67,6.85c0,.15.15.33.33.5.2,0,.62-.05,1.08-.05.62,0,1.25.1,1.25.7,0,1.35-2.32.5-2.32,1.5,0,1.5.33,3.17.33,4.67,0,.67.17,2.32-.65,2.32h-.17c-2-1.65-1.67-5-1.82-7.32-.17-.5-1.5-.17-1.5-.82h-.02Z"/>
      <path class="st21" d="M287.19,558.01c.32,0,.67.83.67,1v8.5h.15c.35-.85,1.17-3.67,2.5-3.67.35,0,.67.17,1,.5.85,1.33,1.67,3,1.67,4.67,0,.33,0,1.15-.5,1.15-1.5,0-1.5-3.5-2.17-4.5-1.5,0-1.5,7-3.15,7-2.35,0-2-5.32-2-6.5,0-.65.33-8.15,1.83-8.15Z"/>
      <path class="st21" d="M297.39,563.66c1,0,1.33.67,1.33,1.67,0,2.17-2.65,2.32-2.65,3.67,0,1.65,3,.5,3,1.65,0,1-2,1-2.5,1-1.5,0-2.5-1.15-2.5-2.65,0-1.85,1.15-5.35,3.32-5.35h0ZM296.57,566.65c.32,0,1-.65,1-1l-.17-.15c-.32.33-.82.65-.82,1.15h0Z"/>
      <path class="st21" d="M305.79,558.51c.82-.17,1,2.5,1,3v.65c-.18.35-.35.35-.5.35-1,0-1-1.67-1-2.35,0-.33-.17-1.5.5-1.65ZM308.12,571.5c0,.5-.33.5-.82.5-1,0-1.67-1.35-1.67-2.17v-4c0-.5.5-1.5,1-1.5,1.33,0,1.5,6.5,1.5,7.17h0Z"/>
      <path class="st21" d="M310.59,562.48c1.17,0,1,2.67,1,3.17,1.5-.85,1.5-3.85,3.82-3.85,2.67,0,2.67,4.85,2.67,6.5,0,.5.18,1.67-.67,1.67-1.82,0-1.32-5.5-2.15-5.5h-.17c-1.5,1.32-2.32,3.32-3.32,5.17-.17.32-.67.65-1.17.65-1.5,0-1.32-2.65-1.32-3.5,0-.65-.35-4.32,1.32-4.32h0Z"/>
      <path class="st21" d="M319.04,565.66c0-.5,1-.5,1.33-.67.17-2.17.17-5,.67-7.32,0-.35.15-.67.5-.67.15,0,.32,0,.32.32l.67,6.85c0,.15.15.33.33.5.2,0,.62-.05,1.08-.05.62,0,1.25.1,1.25.7,0,1.35-2.32.5-2.32,1.5,0,1.5.33,3.17.33,4.67,0,.67.17,2.32-.65,2.32h-.17c-2-1.65-1.67-5-1.82-7.32-.17-.5-1.5-.17-1.5-.82h-.02Z"/>
      <path class="st21" d="M329.44,561.83c1.17,0,1,1,1.67,1.65.65.67,1,.35,1.15,1.35.17.65.67,3.32.85,4v.33c0,.32-.17.67-.5.67-1,0-1.5-1.67-1.67-2.35h-.17c-.5,1.17-1.32,4.5-3,4.5-1.5,0-1.65-1.65-1.65-2.82,0-2,.65-7.32,3.32-7.32h0ZM328.26,568.83c.5,0,2.35-3.67,2.35-4.35,0-.15-.35-.83-.67-.83-.83,0-1.67,4.5-1.67,5.17h0Z"/>
      <path class="st21" d="M334.72,563.66c0-.5.32-6,1.32-6,1.33,0,.83,8.5,1.33,8.5h.17c.67-.67,2.5-2.85,3.82-2.85.35,0,.5,0,.5.35,0,.5-3.15,3.5-3.65,4.65l.33.17c1.17,0,2.32.17,3.5.32.32.18.32.35.32.5,0,1.35-3.82,1.5-4.5,1.5l-.15.17c-.35.33.5,2.17.65,2.67,0,.5-.32,1.15-.82,1.15-3,0-2.82-7.32-2.82-8.65v-2.5.02Z"/>
      <path class="st21" d="M346.64,563.66c1,0,1.33.67,1.33,1.67,0,2.17-2.65,2.32-2.65,3.67,0,1.65,3,.5,3,1.65,0,1-2,1-2.5,1-1.5,0-2.5-1.15-2.5-2.65,0-1.85,1.15-5.35,3.32-5.35h0ZM345.81,566.65c.32,0,1-.65,1-1l-.17-.15c-.32.33-.82.65-.82,1.15h0Z"/>
      <path class="st21" d="M356.71,562.33h.32c.5,0,.67.82.83,1.32,1.5.17,2.35,1.5,2.35,3,0,1.83-1.5,4.32-3.5,4.32-1.85,0-2.35-1.82-2.35-3.32,0-2,.85-4,2.35-5.32ZM357.04,568.48c.83,0,1.5-1.5,1.5-2.15s-.33-1.35-1.17-1.35-.82,1.85-.82,2.35,0,1.15.5,1.15h0Z"/>
      <path class="st21" d="M361.01,567.48c0-.83.65-.58,1.1-.58.18,0,.35-.05.4-.25.33-1.85,1.5-9.35,4.5-9.35,1,0,1.82,2,1.82,2.85,0,.15-.17.15-.33.15-.11,0-.23-.05-.35-.15-.15-.17-.65-.85-.82-1h-.18c-1,0-2.32,6.65-2,7l.17.15c.17,0,1.17-.15,1.33-.15h.35c.5,0,1,0,1,.65,0,.85-2.35,1-2.85,1.17v10c0,.33-.33.83-.65.83-1.5,0-2-3.65-2-4.65,0-.85-.17-5.17-.17-6-.33,0-1.33-.17-1.33-.67h0Z"/>
      <path class="st21" d="M233.89,592.65l1.17-1.15v-.35c-1-1-2.82-2.5-2.82-4.15,0-1.5,1.15-3.17,2.82-3.17,1,0,1.5,1.17,1.5,2,0,.17,0,.32-.32.32-.18,0-.67-.65-.85-.65h-.15c-.17,0-.67.82-.85,1,0,1.5,3,2.65,3,4.65,0,1.5-1.15,2.5-2.65,2.5-.35,0-.85-.32-.85-.82v-.17h0Z"/>
      <path class="st21" d="M239.77,585.51c.17,0,.5,0,.5.15,0,1-.32,4.5.67,5.5h.15c.5-.83,2.17-6.5,2.85-6.5.82,0,1.15.85,1.15,1.5.17.67.5,4.35.5,5.17v.5c0,.33,0,.5-.32.5-.82,0-1.32-1.5-1.67-1.5h-.15c-.35.83-1.17,3.32-2.67,3.32-2,0-2.32-3.5-2.32-4.82,0-1,0-3.82,1.32-3.82h0Z"/>
      <path class="st21" d="M249.29,597.33c.32,0,.82.67,1.32.67,1.32,0,1.17-5.5,1.17-5.85v-.65l-.17-.17c-.17.33-1.32,2.32-1.5,2.67-.33.65-.82,1.32-1.67,1.32-1.32,0-1.65-1.5-1.65-2.67,0-2.15,1-6.65,3.82-6.65.5,0,.67.5,1.32.5.18,0,.35-.35.67-.5h.18c.65,0,.65,1.15.65,1.5.17,2.33.17,3.32.17,5.65v3c-.17,1.35-.82,4-2.67,4-1,0-2-1.33-2-2.32,0-.18,0-.5.35-.5h0ZM249.29,591.83c.65,0,2-3.17,2.15-3.82,0-.35-.33-.5-.5-.5-1.15,0-1.65,3.65-1.65,4.32Z"/>
      <path class="st21" d="M258.49,584.83c1.17,0,1,1,1.67,1.65.65.67,1,.35,1.15,1.35.17.65.67,3.32.85,4v.33c0,.32-.17.67-.5.67-1,0-1.5-1.67-1.67-2.35h-.17c-.5,1.17-1.32,4.5-3,4.5-1.5,0-1.65-1.65-1.65-2.82,0-2,.65-7.32,3.32-7.32h0ZM257.32,591.83c.5,0,2.35-3.67,2.35-4.35,0-.15-.35-.83-.68-.83-.82,0-1.67,4.5-1.67,5.17h0Z"/>
      <path class="st21" d="M264.09,586.51c1.17,0,.32,2.5,1.17,2.82.5-1.17,1.15-3.82,2.82-3.82.67,0,1.5.82,1.5,1.5,0,.5-1.67,1.65-2,2.33-.5,1.17-.82,5.32-2.67,5.32s-1.65-4-1.65-5c0-.5-.35-3.15.82-3.15h0Z"/>
      <path class="st21" d="M272.92,597.48c.65,0,1.33.17,1.83.17,1,0,.67-2.5.67-2.85,0-1.65,0-2.65-.18-4.5-1.17.85-1.17,2.67-2.82,2.67s-2-2.17-2-3.5c0-.82-.17-4.67,1.5-4.67.32,0,.65.35.65.67v4.32l.17.67c1.5,0,1.67-5.5,3.32-5.5.35,0,.67,0,.85.5.83,3.17.83,6.5.83,9.82v2.17c-.33,1.5-1,2.67-2.67,2.67-1,0-2.65-.85-2.65-2.17,0-.33.15-.5.5-.5v.03Z"/>
      <path class="st21" d="M284.14,590.48c0-.83.65-.58,1.1-.58.18,0,.35-.05.4-.25.33-1.85,1.5-9.35,4.5-9.35,1,0,1.82,2,1.82,2.85,0,.15-.17.15-.33.15-.11,0-.23-.05-.35-.15-.15-.17-.65-.85-.82-1h-.18c-1,0-2.32,6.65-2,7l.17.15c.17,0,1.17-.15,1.32-.15h.35c.5,0,1,0,1,.65,0,.85-2.35,1-2.85,1.17v10c0,.33-.33.83-.65.83-1.5,0-2-3.65-2-4.65,0-.85-.17-5.17-.17-6-.33,0-1.33-.17-1.33-.67h.02Z"/>
      <path class="st21" d="M293.89,585.33h.32c.5,0,.67.82.83,1.32,1.5.17,2.35,1.5,2.35,3,0,1.83-1.5,4.32-3.5,4.32-1.85,0-2.35-1.82-2.35-3.32,0-2,.85-4,2.35-5.32ZM294.22,591.48c.83,0,1.5-1.5,1.5-2.15s-.33-1.35-1.17-1.35-.82,1.85-.82,2.35,0,1.15.5,1.15h0Z"/>
      <path class="st21" d="M300.69,585.33h.32c.5,0,.67.82.83,1.32,1.5.17,2.35,1.5,2.35,3,0,1.83-1.5,4.32-3.5,4.32-1.85,0-2.35-1.82-2.35-3.32,0-2,.85-4,2.35-5.32ZM301.02,591.48c.83,0,1.5-1.5,1.5-2.15s-.33-1.35-1.17-1.35-.82,1.85-.82,2.35,0,1.15.5,1.15h0Z"/>
      <path class="st21" d="M310.79,590.65h-.15c-.5,1.35-2,5.85-3.85,5.85-1.5,0-1.65-1.85-1.65-2.85,0-1.82,1.5-8,3.82-8,.67,0,1,.85,1.32,1.35,1.17-.5,1.35-6.17,2.5-6.17.85,0,.67.82.67,1.32,0,4.5-.67,9-.67,13.5v3.85c0,.83.35,1.83.35,2.82,0,.18,0,.33-.35.33-2,0-2.15-6.65-2.15-7.5,0-1.5.15-3,.15-4.5h0ZM307.14,593.5c.5,0,2.65-4.35,2.65-5,0-.35-.5-.85-.65-.85-1,0-2,5-2,5.85Z"/>
      <path class="st21" d="M325.99,594.15c-1.17.83-2.82,2.5-4.5,2.5-.82,0-1.32-.5-1.32-1.33,0-.5,0-.67.33-1.35.32-.65,1.67-3.5,2-4.15v-.35c0-.65-.17-1.32-.17-2.15,0-2.35,2.17-6.35,5-6.35.67,0,1.17.5,1.17,1,0,2.85-3.5,4.85-3.5,7.35,0,.82.82,1.5,1.32,2l.35-.17c.33-.17,1.5-1.17,1.83-1.32h.32c.35,0,.35.15.35.5v.15l-1.5,2.17,3.15,3.17c.12-.05.25-.08.35-.08.23,0,.33.17.33.4,0,.5-.33.82-.67.82-2,0-3.15-2.82-4.65-2.82h-.19ZM322.17,594.15v.33c.5,0,2.5-1.15,2.5-1.65s-.85-1.17-1-1.35c-.5.35-1.5,2.5-1.5,2.67Z"/>
      <path class="st21" d="M268.89,611.98c0-.82.32-7.65,1.82-7.65.33,0,.83.65.83,1v12.5h.35c.33-1.35,2.15-9.17,4.32-9.17,1.17,0,1.32,1.83,1.32,2.67,0,2.5-1.15,5.32-4,5-.33,1-.5,5.65-2,5.65-2.65,0-2.65-6.32-2.65-7.65v-2.35h0ZM274.22,614.33v.15c1.17-.83,1.83-2.15,1.83-3.5,0-.15.17-.65-.15-.65-.67.33-1.67,3.32-1.67,4h0Z"/>
      <path class="st21" d="M281.09,609.66c1,0,1.33.67,1.33,1.67,0,2.17-2.65,2.32-2.65,3.67,0,1.65,3,.5,3,1.65,0,1-2,1-2.5,1-1.5,0-2.5-1.15-2.5-2.65,0-1.85,1.15-5.35,3.32-5.35h0ZM280.27,612.65c.32,0,1-.65,1-1l-.17-.15c-.32.33-.82.65-.82,1.15h0Z"/>
      <path class="st21" d="M284.49,609.16c1.32,0,1.82,5,3,5,.33,0,.5-1.5.5-1.65,0-.5.5-2.67.5-3.17.17-.32.17-.5.5-.5.17,0,.32,0,.32.17.18,1,.18,1.32.18,2.15,0,1.5.17,6-2.33,6s-3.5-5-3.5-6.82c0-.5,0-1.17.83-1.17h0Z"/>
      <path class="st21" d="M293.77,609.66c1,0,1.33.67,1.33,1.67,0,2.17-2.65,2.32-2.65,3.67,0,1.65,3,.5,3,1.65,0,1-2,1-2.5,1-1.5,0-2.5-1.15-2.5-2.65,0-1.85,1.15-5.35,3.32-5.35h0ZM292.94,612.65c.32,0,1-.65,1-1l-.17-.15c-.32.33-.82.65-.82,1.15h0Z"/>
      <path class="st21" d="M297.32,609.51c1.17,0,.33,2.5,1.17,2.82.5-1.17,1.15-3.82,2.82-3.82.68,0,1.5.82,1.5,1.5,0,.5-1.67,1.65-2,2.33-.5,1.17-.83,5.32-2.68,5.32s-1.65-4-1.65-5c0-.5-.35-3.15.82-3.15h.02Z"/>
      <path class="st21" d="M306.97,607.83c1.17,0,1,1,1.67,1.65.65.67,1,.35,1.15,1.35.17.65.67,3.32.85,4v.33c0,.32-.17.67-.5.67-1,0-1.5-1.67-1.67-2.35h-.17c-.5,1.17-1.32,4.5-3,4.5-1.5,0-1.65-1.65-1.65-2.82,0-2,.65-7.32,3.32-7.32h0ZM305.79,614.83c.5,0,2.35-3.67,2.35-4.35,0-.15-.35-.83-.67-.83-.83,0-1.67,4.5-1.67,5.17h0Z"/>
      <path class="st21" d="M314.24,620.33c.33,0,.83.67,1.33.67,1.32,0,1.17-5.5,1.17-5.85v-.65l-.18-.17c-.17.33-1.32,2.32-1.5,2.67-.33.65-.83,1.32-1.67,1.32-1.32,0-1.65-1.5-1.65-2.67,0-2.15,1-6.65,3.82-6.65.5,0,.67.5,1.32.5.17,0,.35-.35.67-.5h.17c.65,0,.65,1.15.65,1.5.17,2.33.17,3.32.17,5.65v3c-.17,1.35-.83,4-2.67,4-1,0-2-1.33-2-2.32,0-.18,0-.5.35-.5h.02ZM314.24,614.83c.65,0,2-3.17,2.15-3.82,0-.35-.32-.5-.5-.5-1.15,0-1.65,3.65-1.65,4.32Z"/>
      <path class="st21" d="M323.29,609.66c1,0,1.33.67,1.33,1.67,0,2.17-2.65,2.32-2.65,3.67,0,1.65,3,.5,3,1.65,0,1-2,1-2.5,1-1.5,0-2.5-1.15-2.5-2.65,0-1.85,1.15-5.35,3.32-5.35h0ZM322.47,612.65c.32,0,1-.65,1-1l-.17-.15c-.32.33-.82.65-.82,1.15h0Z"/>
      <path class="st21" d="M327.52,615.65l1.17-1.15v-.35c-1-1-2.82-2.5-2.82-4.15,0-1.5,1.15-3.17,2.82-3.17,1,0,1.5,1.17,1.5,2,0,.17,0,.32-.33.32-.17,0-.67-.65-.85-.65h-.15c-.18,0-.67.82-.85,1,0,1.5,3,2.65,3,4.65,0,1.5-1.15,2.5-2.65,2.5-.35,0-.85-.32-.85-.82v-.17h0Z"/>
    </g>
    <path class="st21" d="M164.72,576.3c-3.25,3.35-6.7,4.85-10.35,4.5-4.25-.4-7.15-3.45-8.7-9.15l8.75-1.3c-.15,1.25.2,1.85,1,1.85.25,0,.5-.05.75-.15,1.35-.4,2.3-1.1,2.85-2.05.15-.25.2-.55.2-.8,0-.65-.5-1.3-1.45-1.85-.7-.4-1.9-.6-3.65-.6s-4.05.2-6.85.6l-.1-8.2,7.3-5.7c-3.1.25-5.8.5-8.05.85l-1.35-9.25,19.4-1.1.6,10.9c-2,.05-4.35,1.5-7.1,4.3,3.45.5,6,1.4,7.65,2.7,2.15,1.7,3.2,3.7,3.2,6.05,0,2.8-1.35,5.6-4.1,8.4h0Z"/>
  </g>
  <g>
    <path class="st4" d="M537.2,18.22h58.08v7.68h-58.08c-2.12,0-3.84-1.72-3.84-3.84h0c0-2.12,1.72-3.84,3.84-3.84Z"/>
    <path class="st4" d="M537.2,43.58h58.08v7.68h-58.08c-2.12,0-3.84-1.72-3.84-3.84h0c0-2.12,1.72-3.84,3.84-3.84Z"/>
    <path class="st4" d="M537.2,68.94h58.08v7.68h-58.08c-2.12,0-3.84-1.72-3.84-3.84h0c0-2.12,1.72-3.84,3.84-3.84Z"/>
    <path class="st4" d="M491.47,94.31h103.8v7.68h-103.8c-2.12,0-3.84-1.72-3.84-3.84h0c0-2.12,1.72-3.84,3.84-3.84h0Z"/>
    <path class="st4" d="M537.2,119.67h58.08v7.68h-58.08c-2.12,0-3.84-1.72-3.84-3.84h0c0-2.12,1.72-3.84,3.84-3.84Z"/>
    <path class="st4" d="M537.2,145.03h58.08v7.68h-58.08c-2.12,0-3.84-1.72-3.84-3.84h0c0-2.12,1.72-3.84,3.84-3.84Z"/>
    <path class="st4" d="M537.2,170.4h58.08v7.68h-58.08c-2.12,0-3.84-1.72-3.84-3.84h0c0-2.12,1.72-3.84,3.84-3.84Z"/>
    <path class="st4" d="M491.47,195.76h103.8v7.68h-103.8c-2.12,0-3.84-1.72-3.84-3.84h0c0-2.12,1.72-3.84,3.84-3.84h0Z"/>
    <path class="st4" d="M537.2,221.12h58.08v7.68h-58.08c-2.12,0-3.84-1.72-3.84-3.84h0c0-2.12,1.72-3.84,3.84-3.84Z"/>
    <path class="st4" d="M537.2,246.48h58.08v7.68h-58.08c-2.12,0-3.84-1.72-3.84-3.84h0c0-2.12,1.72-3.84,3.84-3.84Z"/>
    <path class="st4" d="M537.2,271.85h58.08v7.68h-58.08c-2.12,0-3.84-1.72-3.84-3.84h0c0-2.12,1.72-3.84,3.84-3.84Z"/>
    <path class="st4" d="M491.47,297.21h103.8v7.68h-103.8c-2.12,0-3.84-1.72-3.84-3.84h0c0-2.12,1.72-3.84,3.84-3.84h0Z"/>
    <path class="st4" d="M537.2,322.57h58.08v7.68h-58.08c-2.12,0-3.84-1.72-3.84-3.84h0c0-2.12,1.72-3.84,3.84-3.84Z"/>
    <path class="st4" d="M537.2,347.94h58.08v7.68h-58.08c-2.12,0-3.84-1.72-3.84-3.84h0c0-2.12,1.72-3.84,3.84-3.84Z"/>
    <path class="st4" d="M537.2,373.3h58.08v7.68h-58.08c-2.12,0-3.84-1.72-3.84-3.84h0c0-2.12,1.72-3.84,3.84-3.84Z"/>
    <path class="st4" d="M491.47,398.66h103.8v7.68h-103.8c-2.12,0-3.84-1.72-3.84-3.84h0c0-2.12,1.72-3.84,3.84-3.84h0Z"/>
    <path class="st4" d="M537.2,424.02h58.08v7.68h-58.08c-2.12,0-3.84-1.72-3.84-3.84h0c0-2.12,1.72-3.84,3.84-3.84Z"/>
    <path class="st4" d="M537.2,449.39h58.08v7.68h-58.08c-2.12,0-3.84-1.72-3.84-3.84h0c0-2.12,1.72-3.84,3.84-3.84Z"/>
    <path class="st4" d="M537.2,474.75h58.08v7.68h-58.08c-2.12,0-3.84-1.72-3.84-3.84h0c0-2.12,1.72-3.84,3.84-3.84Z"/>
    <path class="st4" d="M491.47,500.11h103.8v7.68h-103.8c-2.12,0-3.84-1.72-3.84-3.84h0c0-2.12,1.72-3.84,3.84-3.84h0Z"/>
    <path class="st4" d="M537.2,525.48h58.08v7.68h-58.08c-2.12,0-3.84-1.72-3.84-3.84h0c0-2.12,1.72-3.84,3.84-3.84h0Z"/>
    <path class="st4" d="M537.2,550.84h58.08v7.68h-58.08c-2.12,0-3.84-1.72-3.84-3.84h0c0-2.12,1.72-3.84,3.84-3.84h0Z"/>
    <path class="st4" d="M537.2,576.2h58.08v7.68h-58.08c-2.12,0-3.84-1.72-3.84-3.84h0c0-2.12,1.72-3.84,3.84-3.84h0Z"/>
    <path class="st4" d="M491.47,601.56h103.8v7.68h-103.8c-2.12,0-3.84-1.72-3.84-3.84h0c0-2.12,1.72-3.84,3.84-3.84h0Z"/>
    <path class="st4" d="M537.2,626.93h58.08v7.68h-58.08c-2.12,0-3.84-1.72-3.84-3.84h0c0-2.12,1.72-3.84,3.84-3.84h0Z"/>
    <path class="st4" d="M537.2,652.29h58.08v7.68h-58.08c-2.12,0-3.84-1.72-3.84-3.84h0c0-2.12,1.72-3.84,3.84-3.84h0Z"/>
    <path class="st4" d="M537.2,677.65h58.08v7.68h-58.08c-2.12,0-3.84-1.72-3.84-3.84h0c0-2.12,1.72-3.84,3.84-3.84h0Z"/>
    <path class="st4" d="M491.47,703.02h103.8v7.68h-103.8c-2.12,0-3.84-1.72-3.84-3.84h0c0-2.12,1.72-3.84,3.84-3.84h0Z"/>
    <path class="st4" d="M537.2,728.38h58.08v7.68h-58.08c-2.12,0-3.84-1.72-3.84-3.84h0c0-2.12,1.72-3.84,3.84-3.84h0Z"/>
    <path class="st4" d="M537.2,753.74h58.08v7.68h-58.08c-2.12,0-3.84-1.72-3.84-3.84h0c0-2.12,1.72-3.84,3.84-3.84h0Z"/>
    <path class="st4" d="M537.2,779.11h58.08v7.68h-58.08c-2.12,0-3.84-1.72-3.84-3.84h0c0-2.12,1.72-3.84,3.84-3.84h0Z"/>
    <path class="st4" d="M491.47,804.47h103.8v7.68h-103.8c-2.12,0-3.84-1.72-3.84-3.84h0c0-2.12,1.72-3.84,3.84-3.84h0Z"/>
  </g>
  <g>
    <path class="st26" d="M595.28,735.59v45.91l-.14.78-171.6-.39-.96,1.17c-2.81,3.85-6.26-3.77-1.56-3.89l1.17-.6c5.86-10.12,11.17-20.29,15.94-30.53-.31-.2-.6-.43-.79-.71-.71-1.05,5.69-13.94,8.99-13.27,49.33.55,98.65.54,147.98-.03l.96,1.56h.01Z"/>
    <path class="st11" d="M469.25,713.02c-.66,8.38,6.65,11.12,13.66,13.37,33.18,10.63,76.39,8.15,110.07.21l2.29.43v8.56h-148.96c-3.28.65-6.48,9.49-8.18,12.45-4.48,10.07-10.28,20.83-15.98,30.63-.17.29-.61.42-1.13.5-.85,2.16-1.74,3.47,1.56,3.89l.14-1.04c57.31-.03,114.65.06,172.02.26l.54.78v10.12c-15.53,1.21-31.15,1.2-46.68,0l-2.12-.75c-3.51.4-6.96.13-10.33-.81-8.5.75-17.16.63-25.67,0-35.65.74-71.75,1.18-107.09,0l-.58-2.01,41.42-73.62c4.4-5.89,17.24-5.05,24.2-4.53l.82,1.56h0Z"/>
    <path class="st27" d="M400.8,804.85c1.79.51,3.69,1.22,5.7,2.12l9.67.17c1.03.3,1.64,1.03,1.86,2.04-.5,3.76-.18,4.05,3.48,4.43,4.11.43,33.43.68,34.68-.76-.61-3.02.04-4.91,1.95-5.66h136.19l.96,1.55v14.01h-197.99c-9.67-.91,3.4-12.75,3.51-17.9h-.01Z"/>
    <path class="st16" d="M595.28,699.01v4.67l-4.65.21c-27.23-7.82-56.13-9.53-84.09-4.91l-4.61-.74c-7.89.04-16.04,2.86-22.98,6.67l-1.14-.44c-4.83,3.34-5.93,4.79-3.11,10.12,1.07,1.24.63,1.68-.78.78-1.16,1.8,7.95,5.84,11.71,6.96,32.83,9.74,74.05,7.85,107.24-.34l2.4.39v2.33c-.5.72-1.04,1.34-1.72,1.58-27.69,9.78-79.6,8.94-107.89.95-7.31-2.07-16.96-5.15-16.42-14.2-1.27-.43-16.09-.18-18.1.18-2.74.5-4.26,2.11-6.01,4.1l-41.23,73.53c6.6.2,13.26-.23,19.87-.02,28.82.89,57.78.92,86.71.81.68.22.67.48,0,.78-3.65,0-7.22.54-10.72,1.6-30.32.81-60.9,1.27-91.22.77-6.51-.11-4.26-1.12-3.86-.36.37.7-.68,1.54-1.55,1.88,1.48.44,1.48,1.12,0,1.56l1.04.34c-.08,3.93,1,5.9,3.24,5.93l186.9-.04.97,1.56v3.11h-137.7c.16,5.34,1.04,5.61-4.37,6.13-7.65.73-26.04,1.08-33.39.13-5.37-.69-2.79-5.56-3.46-6.27-.58-.61-13.8,1.63-15.56-3.89.08-4.07-2.14-10.07-.17-14.57l42.31-75.19c5.64-8.6,18.98-3.24,25.85-5.14.34-.09,1.55-4.03,3.57-5.9,13.46-12.45,67.73-13.4,85.96-12.04,12.47.93,25.07,3.25,36.96,7v-.02Z"/>
    <path class="st24" d="M595.28,797.85v7.78l-187.12.03c-5.77.2-4.96-3.43-5.02-7.81l.14-.78h191.46l.55.78h-.01Z"/>
    <path class="st10" d="M595.28,703.68v12.45c-17.38,6.77-37.21,8.18-55.8,8.18s-38.75-.83-55.94-7.22c-3.94-1.47-11.84-5.16-7.29-9.52,6.36-6.44,16.88-8.84,25.67-9.34,30.29-5.93,64.03-3.92,93.35,5.45h.01Z"/>
    <path class="st18" d="M548.6,793.18c-1.55,1.31-19.2.63-18.28.63l64.41.14.54.78v1.56l-.14.78h-191.46l-.55-.78c.03-1.04-.03-2.08,0-3.12,35.84.61,71.58-.76,107.36-.77,8.85.04,17.41-.22,25.67-.78,2.23-.04,6.24.44,8.01.02,1.01-.24.88-2.74,2.48-2.35l1.96,3.89h0Z"/>
    <path class="st8" d="M473.92,715.35c12.37,6.49,27.23,10.57,41.23,10.12,3.94-.29,9.71-.03,13.94.6.19.03.33.44.45.95.11-.52.23-.93.36-.94,5.01-.27,12-.26,17.01,0,.19.01.36.41.52.93l.74-.94,9.79-.22c1.85-.94,3.4-1.07,4.64-.39,10.39.69,21.27-2.51,31.27-5.69l1.4.24v2.33c-26.88,7.92-56.48,9.24-84.31,6.13-6.97-.78-14.27-2.01-21.04-3.86-6.19-1.69-13.44-3.84-17.56-8.89-.03-.76,1.07-.25,1.55-.39v.02Z"/>
    <path class="st31" d="M595.28,724.69v2.33c-25.53,7.37-54.81,8.63-81.29,6.22-10.39-.95-34.21-4.48-42.35-10.56-3.99-2.98-4.15-5.22-2.39-9.67.47.16,2.11,5.71,5.5,8.12,15.28,10.89,64.64,12.07,83.57,10.55,12.46-1,25.01-3.46,36.96-7h0Z"/>
    <path class="st3" d="M595.28,796.29v1.56h-192.15c0-.52-.01-1.04,0-1.56h192.15Z"/>
    <polygon class="st5" points="595.28 781.5 595.28 783.06 422.58 783.06 421.42 780.72 595.28 781.5"/>
    <path class="st16" d="M476.25,707.57c-2.78,4.87,4.53,7.75,8.34,9.16,19.91,7.36,57.11,7.47,78.39,5.62,10.93-.95,21.83-3.03,32.29-6.22v1.56c-6.79,2.89-15.02,5.02-22.56,5.45-23.38,4.83-49.43,3.99-73.12-.78-6,.03-26.53-5.32-26.57-12.42,0-1.69,1.66-4,3.23-3.14.47.23.46.49,0,.78h0Z"/>
    <path class="st15" d="M548.6,793.18c15.55-.01,31.13,0,46.68,0v1.56h-94.12c.15-1.51,3.12-1.52,4.24-1.59,13.69-.89,29.29.04,43.21.03h-.01Z"/>
    <path class="st28" d="M595.28,720.02c-8.3,2.82-18.19,5.17-26.93,6.12-1.68.18-4.47.72-5.74-.67,3.82-1.77,8.96-1.82,13.22-1.56,6.23-2.31,12.71-4.12,19.45-5.45v1.56Z"/>
    <path class="st13" d="M595.28,717.69v.78c-6.12,2.66-12.87,4.29-19.45,5.45-1.29-.08-2.33-.34-3.11-.78l22.56-5.45Z"/>
    <path class="st20" d="M548.69,754.96c1.09.64,3.27-1.28,4.93-1.51,1.98-.28,7.37-.24,9.43-.01.84.09,6.27,1.42,6.5,1.66s.22,3.08-.11,3.68c-.39.69-3.72,1.49-3.73,2.12-.03,1.99,5.99,4.02,3.85,6.56-1.38,1.64-11.82,1.78-14.33,1.6-5.07-.38-11.13-3.09-16.16-1.49-.64.2-.5,1.32-2.21,1.79-2.13.59-10.01.46-10.74,1.36-1.21,1.5,2.56,3.58-4.39,3.07-3.26-.24-6.55-2.11-9.16-4.06-1.74-1.3-6.04-6.59-6.48-6.75-2.37-.83-6.23.83-9.17.67-12.54-.69-17.18-12.42-2.8-13.67,3.7-.32,9.5,2.11,12.71,1.21.67-.19.99-1.6,1.83-2.2,9.33-6.68,29.5-7.2,37.62,1.81.91,1.01,2.22,4.07,2.43,4.19l-.02-.03Z"/>
    <path class="st5" d="M438.14,748.04c1.53.68.39,2.45-.08,3.42-4.1,8.31-9.45,17.49-14.09,25.6-.42.73-1.75,4.42-2.94,2.11,3.71-9.42,11.88-22.04,17.11-31.13h0Z"/>
    <path class="st22" d="M536.15,791.62c-.81,1.29-2.95.78-4.27.79-7.13.08-14.28-.02-21.4-.01v-.78c8.54-.03,17.13.15,25.67,0h0Z"/>
    <path class="st30" d="M501.93,698.23c-8.86,1.73-18.01,4.55-25.67,9.34v-.78c-.52-.84,0-1.62,1.56-2.33,6.98-4.27,11.59-5.63,20.24-6.66,1.44-.17,2.54-.65,3.88.44h0Z"/>
    <path class="st2" d="M477.81,704.46c-.55.73-.95,1.65-1.56,2.33-1.65,1.86-3.4,1.52-1.75,5.25,2.19,4.94,19.74,9.38,25.09,10.32.44.57-.08.83-1.56.78-7.3-.18-18-3.32-23.34-8.56-3.16-2.71-3.55-6.42.05-8.92,1.18-.82,2.46-.83,3.06-1.2h.01Z"/>
    <path class="st29" d="M498.04,723.14c5.65.25,11.66.86,17.11,2.33-1.02,1.3-3.58.9-5.04.77-11.27-.99-27.11-4.17-36.18-10.88.35-.09.65-.43.78-.78,5.21,4.47,16.6,7.18,23.34,8.56h-.01Z"/>
    <rect class="st0" x="424.13" y="798.62" width="42.79" height=".78"/>
    <path class="st25" d="M569.6,702.9c.68.22.67.48,0,.78l-2.2,1.11c-20.28-3.31-42.08-3.77-62.13,1.03-21.3,5.09,2.98,9.54,11.02,10.91l1.19,1.74c.56.42.3.68-.78.78-5.55-.56-11.43-1.18-17.11-3.51-3.02-1.24-4.78-4.04-7.78-5.06l6.05-6.19c23.49-5.94,48.24-6.65,71.74-1.59Z"/>
    <path class="st6" d="M569.6,702.9c3.13.67,6.9.8,10.05,2.01l6.28,5.77c-3.02-.13-4.35,3.97-7.59,5.25-2.94,1.16-7.76,1.01-10.53,1.79-3.55,1-8.83,2.03-13.77,2.31-.7-.15-1.22-.4-1.56-.78l1.61-1.93c9.46-1.22,43.79-5.68,15.91-11.94l-.41-1.7v-.78h.01Z"/>
    <path class="st14" d="M552.49,719.25c.66.04,1.35.03,1.56.78-11.8.67-25.58.4-37.34-.78l.78-.78,3.05-1.23c10.27.11,20.45.41,30.55.9l1.42,1.11h-.02Z"/>
    <path class="st1" d="M499.59,722.36c17.51,3.06,40.19,3.5,57.95,2.33,4.99-.33,10.15-1.59,15.18-1.55,1.02,0,2.58-.38,3.11.78-4.31.76-8.88.98-13.22,1.56-3.72.49-4.08,1.56-4.34,1.57-2.46.13-7.96-.01-10.83-.01h-17.89c-3.75,0-10.19-1.12-14.39-1.56-5.78-.61-11.42-1.17-17.11-2.33l1.56-.78h-.02Z"/>
    <path class="st12" d="M569.6,703.68c9.44,2.19,21.37,6.26,5.01,11.63-7.17,2.36-14.84,2.24-22.12,3.94-11.62-.66-23.41.74-35.01-.78-5.03-.66-12.01-2.08-16.76-3.85-12.73-4.74-1.99-8.67,5.09-10.55,16.42-4.37,47.26-4.22,63.8-.38h-.01Z"/>
    <path class="st17" d="M513.59,712.24c-2.37-1.05-7.03-2.18-1.33-4.84,5.7-2.66,11.22-2.74,17.25-2.98,9.12-.35,26.51-.53,34.84,2.57,8.9,3.31-1.1,6.5-5.44,7.38-11.97,2.43-34.32,2.72-45.31-2.14,5.28.1,10.75,1.95,15.96,2.32,7.93.57,26.82.3,33.83-2.72.81-.35,3.26-1.54,2.33-2.71-1.95-2.46-22.17-3.47-26.06-3.46-3.09,0-7.64.04-10.5,1.12-1.85.17-3.93.17-6.22,0-3.23.35-14.22.79-9.34,5.45h-.01Z"/>
    <path class="st7" d="M529.15,706.79c3.63.42,7.2,1.56,10.9,1.56-.12,1.34.78,2.44-1.18,2.35-4.64-.2-10.95-3.98-15.94-3.91,2.93-.32,2.98-.38,6.22,0Z"/>
  </g>
</svg>