<?xml version="1.0" encoding="UTF-8"?>
<svg id="Layer_1" xmlns="http://www.w3.org/2000/svg" version="1.1" viewBox="0 0 800 800">
  <!-- Generator: Adobe Illustrator 29.7.1, SVG Export Plug-In . SVG Version: 2.1.1 Build 8)  -->
  <defs>
    <style>
      .st0 {
        fill: #1765ae;
      }

      .st1 {
        isolation: isolate;
      }

      .st2 {
        fill: #fff;
      }

      .st3 {
        fill: #91b8d6;
      }

      .st4 {
        fill: #134b75;
      }

      .st5 {
        fill: #148cc6;
      }
    </style>
  </defs>
  <g>
    <path d="M645.63,310.14c-.79-.3-19.79-7.39-48.68-8.94-3.35-.18-6.92-.28-10.69-.28-10.53,0-22.56.83-35.52,3.18,3.19-17.59,3.58-33.48,2.9-46.22-1.55-28.89-8.64-47.88-8.94-48.68l-1.14-3.01-3.17.52c-.84.13-20.83,3.49-46.63,16.59-11.37,5.77-24.93,14.05-38.57,25.6-6.04-16.82-13.64-30.76-20.61-41.46-15.79-24.25-31.42-37.15-32.09-37.69l-2.49-2.04-2.49,2.04c-.66.54-16.29,13.44-32.09,37.69-6.96,10.69-14.56,24.63-20.61,41.46-13.64-11.55-27.2-19.83-38.57-25.6-25.8-13.11-45.79-16.46-46.63-16.59l-3.17-.52-1.14,3.01c-.3.79-7.39,19.79-8.94,48.68-.68,12.74-.3,28.62,2.9,46.22-17.59-3.19-33.48-3.58-46.22-2.9-28.89,1.55-47.88,8.64-48.68,8.94l-3.01,1.14.52,3.17c.13.84,3.49,20.83,16.59,46.63,12.08,23.78,35.1,57.12,76.16,80.83,35.89,20.72,71.27,25.83,97.4,25.83,3.76,0,7.32-.11,10.68-.28,23.65-1.27,40.66-6.25,46.49-8.19.3-.09.56-.19.79-.27.24.08.5.17.79.27,5.83,1.94,22.84,6.92,46.49,8.19,3.35.18,6.92.28,10.68.28,26.13,0,61.5-5.11,97.4-25.83,41.06-23.71,64.08-57.04,76.16-80.83,13.11-25.8,16.46-45.79,16.59-46.63l.52-3.17-3.01-1.14h.03ZM497.04,230.46c18.86-9.61,34.75-13.83,41.34-15.31,2.01,6.45,6.31,22.32,7.41,43.46.68,12.9.2,29.17-3.38,47.18-16.93,3.83-35.17,10.35-53.54,20.95-9.1,5.25-17.31,10.98-24.71,16.96,1.49-9.4,2.34-19.37,2.34-29.88,0-21.22-3.47-40.27-8.62-56.85,13.82-12.1,27.66-20.65,39.17-26.52h0ZM451.42,262.89c4.34,15.04,7.2,32.1,7.2,50.93,0,13.67-1.51,26.42-4,38.14-20.49,18.94-33.73,39.47-41.92,55.61l-.09.18c0-.07.02-.13.02-.2.18-3.35.28-6.92.28-10.68,0-16.52-2.05-36.74-8.79-58.45,3.71-11.38,8.77-23.17,15.61-35.01,9.42-16.31,20.42-29.65,31.69-40.51h0ZM371.86,212c11.53-17.76,23.18-29.36,28.14-33.93,4.96,4.58,16.62,16.18,28.14,33.93,7.03,10.83,14.75,25.16,20.66,42.55-12.75,11.79-25.28,26.55-35.89,44.93-5.26,9.1-9.5,18.17-12.92,27.06-3.41-8.89-7.66-17.95-12.92-27.06-10.61-18.38-23.14-33.13-35.89-44.93,5.91-17.39,13.63-31.72,20.66-42.55h.02ZM348.58,262.89c11.27,10.87,22.27,24.2,31.69,40.51,6.84,11.84,11.9,23.63,15.61,35.01-8.28,26.65-9.48,51.05-8.51,69.13,0,.07,0,.13.02.2l-.09-.18c-6.04-11.89-14.82-26.18-27.21-40.44-4.43-5.09-9.32-10.19-14.71-15.17-2.49-11.72-4-24.46-4-38.14,0-18.83,2.86-35.89,7.2-50.93h0ZM254.21,258.61c1.1-21.14,5.4-37.02,7.41-43.46,6.59,1.48,22.48,5.7,41.34,15.31,11.51,5.87,25.36,14.42,39.17,26.52-5.15,16.58-8.62,35.63-8.62,56.85,0,10.51.85,20.49,2.34,29.89-7.4-6-15.62-11.72-24.71-16.97-18.37-10.61-36.61-17.12-53.54-20.94-3.58-18.02-4.06-34.29-3.38-47.19h0ZM352,459.62c-25.5,1.34-64.15-1.84-103.42-24.52-39.28-22.68-61.35-54.56-72.95-77.31-9.61-18.86-13.83-34.75-15.31-41.34,6.45-2.01,22.32-6.31,43.46-7.41,12.9-.68,29.17-.2,47.18,3.38,3.83,16.93,10.35,35.17,20.95,53.54,23.71,41.06,57.04,64.08,80.83,76.16,12.54,6.37,23.73,10.43,31.99,12.95-8.1,1.87-19.36,3.84-32.73,4.54h0ZM356.03,434.97c-22.75-11.6-54.63-33.67-77.31-72.94-9.42-16.31-15.47-32.51-19.24-47.71,15.2,3.77,31.4,9.82,47.71,19.24,11.85,6.85,22.12,14.52,31.02,22.53,6.16,27.21,17.33,48.94,27.21,64.11,7.69,11.79,15.33,20.91,21.24,27.21-7.95-2.43-18.69-6.36-30.63-12.44h0ZM371.86,415.65c-7.87-12.12-16.59-28.6-22.68-48.85,14.49,15.4,24.41,31.2,30.97,44.07,4.97,9.76,8.51,18.72,10.96,26.01.35,1.72.71,3.35,1.06,4.86-5.67-6.08-13.01-14.85-20.31-26.09ZM404.78,406.83c-.57,10.96-2,20.5-3.53,28.06h0c-.46,1.36-.87,2.65-1.25,3.89-.38-1.24-.79-2.53-1.25-3.89-1.53-7.55-2.96-17.1-3.53-28.06-.76-14.43-.06-33.07,4.78-53.65,4.85,20.58,5.54,39.22,4.78,53.65ZM408.9,436.88h0c2.45-7.3,5.99-16.26,10.96-26.02,6.56-12.87,16.48-28.67,30.97-44.07-6.09,20.25-14.82,36.74-22.68,48.85-7.29,11.24-14.63,20.01-20.31,26.09.35-1.51.72-3.13,1.06-4.85ZM434.57,420.2c9.88-15.17,21.05-36.89,27.21-64.11,8.9-8.01,19.17-15.69,31.02-22.53,16.31-9.42,32.51-15.47,47.71-19.24-3.77,15.2-9.82,31.4-19.24,47.71-22.68,39.28-54.56,61.35-77.31,72.94-11.94,6.08-22.68,10.01-30.63,12.44,5.9-6.3,13.55-15.42,21.24-27.21h0ZM624.37,357.79c-11.6,22.75-33.67,54.63-72.94,77.31-39.28,22.68-77.92,25.85-103.42,24.52-13.36-.7-24.62-2.67-32.72-4.54,8.26-2.52,19.44-6.58,31.98-12.95,23.78-12.09,57.12-35.1,80.83-76.16,10.61-18.37,17.12-36.61,20.95-53.54,18.01-3.58,34.28-4.06,47.18-3.38,21.14,1.1,37.02,5.4,43.46,7.41-1.48,6.59-5.7,22.48-15.32,41.34h0Z"/>
    <path class="st4" d="M392.16,441.74c-5.67-6.08-13.01-14.85-20.31-26.09-7.87-12.12-16.59-28.6-22.68-48.85,14.49,15.4,24.41,31.2,30.97,44.07,4.97,9.76,8.51,18.72,10.96,26.01.35,1.72.71,3.35,1.06,4.86Z"/>
    <path class="st4" d="M404.78,406.83c-.57,10.96-2,20.5-3.53,28.06h0c-.46,1.36-.87,2.65-1.25,3.89-.38-1.24-.79-2.53-1.25-3.89-1.53-7.55-2.96-17.1-3.53-28.06-.76-14.43-.06-33.07,4.78-53.65,4.85,20.58,5.54,39.22,4.78,53.65Z"/>
    <path class="st4" d="M450.83,366.8c-6.09,20.25-14.82,36.74-22.68,48.85-7.29,11.24-14.63,20.01-20.31,26.09.35-1.51.72-3.13,1.06-4.85h0c2.45-7.3,5.99-16.26,10.96-26.02,6.56-12.87,16.48-28.67,30.97-44.07Z"/>
    <path class="st2" d="M639.69,316.45c-1.48,6.59-5.7,22.48-15.32,41.34-11.6,22.75-33.67,54.63-72.94,77.31-39.28,22.68-77.92,25.85-103.42,24.52-13.36-.7-24.62-2.67-32.72-4.54,8.26-2.52,19.44-6.58,31.98-12.95,23.78-12.09,57.12-35.1,80.83-76.16,10.61-18.37,17.12-36.61,20.95-53.54,18.01-3.58,34.28-4.06,47.18-3.38,21.14,1.1,37.02,5.4,43.46,7.41h0Z"/>
    <path class="st0" d="M540.51,314.32c-3.77,15.2-9.82,31.4-19.24,47.71-22.68,39.28-54.56,61.35-77.31,72.94-11.94,6.08-22.68,10.01-30.63,12.44,5.9-6.3,13.55-15.42,21.24-27.21,9.88-15.17,21.05-36.89,27.21-64.11,8.9-8.01,19.17-15.69,31.02-22.53,16.31-9.42,32.51-15.47,47.71-19.24h0Z"/>
    <path class="st2" d="M542.41,305.79c-16.93,3.83-35.17,10.35-53.54,20.95-9.1,5.25-17.31,10.98-24.71,16.96,1.49-9.4,2.34-19.37,2.34-29.88,0-21.22-3.47-40.27-8.62-56.85,13.82-12.1,27.66-20.65,39.17-26.52,18.86-9.61,34.75-13.83,41.34-15.31,2.01,6.45,6.31,22.32,7.41,43.46.68,12.9.2,29.17-3.38,47.18h-.01Z"/>
    <path class="st5" d="M458.62,313.82c0,13.67-1.51,26.42-4,38.14-20.49,18.94-33.73,39.47-41.92,55.61l-.09.18c0-.07.02-.13.02-.2.18-3.35.28-6.92.28-10.68,0-16.52-2.05-36.74-8.79-58.45,3.71-11.38,8.77-23.17,15.61-35.01,9.42-16.31,20.42-29.65,31.69-40.51,4.34,15.04,7.2,32.1,7.2,50.93h0Z"/>
    <path class="st3" d="M448.8,254.55c-12.75,11.79-25.28,26.55-35.89,44.93-5.26,9.1-9.5,18.17-12.92,27.06-3.41-8.89-7.66-17.95-12.92-27.06-10.61-18.38-23.14-33.13-35.89-44.93,5.91-17.39,13.63-31.72,20.66-42.55,11.53-17.76,23.18-29.36,28.14-33.93,4.96,4.58,16.62,16.18,28.14,33.93,7.03,10.83,14.75,25.16,20.66,42.55h.02Z"/>
    <path class="st5" d="M387.37,407.55c0,.07,0,.13.02.2l-.09-.18c-6.04-11.89-14.82-26.18-27.21-40.44-4.43-5.09-9.32-10.19-14.71-15.17-2.49-11.72-4-24.46-4-38.14,0-18.83,2.86-35.89,7.2-50.93,11.27,10.87,22.27,24.2,31.69,40.51,6.84,11.84,11.9,23.63,15.61,35.01-8.28,26.65-9.48,51.05-8.51,69.13h0Z"/>
    <path class="st2" d="M333.51,313.82c0,10.51.85,20.49,2.34,29.89-7.4-6-15.62-11.72-24.71-16.97-18.37-10.61-36.61-17.12-53.54-20.94-3.58-18.02-4.06-34.29-3.38-47.19,1.1-21.14,5.4-37.02,7.41-43.46,6.59,1.48,22.48,5.7,41.34,15.31,11.51,5.87,25.36,14.42,39.17,26.52-5.15,16.58-8.62,35.63-8.62,56.85h-.01Z"/>
    <path class="st0" d="M386.66,447.41c-7.95-2.43-18.69-6.36-30.63-12.44-22.75-11.6-54.63-33.67-77.31-72.94-9.42-16.31-15.47-32.51-19.24-47.71,15.2,3.77,31.4,9.82,47.71,19.24,11.85,6.85,22.12,14.52,31.02,22.53,6.16,27.21,17.33,48.94,27.21,64.11,7.69,11.79,15.33,20.91,21.24,27.21h0Z"/>
    <path class="st2" d="M384.73,455.08c-8.1,1.87-19.36,3.84-32.73,4.54-25.5,1.34-64.15-1.84-103.42-24.52-39.28-22.68-61.35-54.56-72.95-77.31-9.61-18.86-13.83-34.75-15.31-41.34,6.45-2.01,22.32-6.31,43.46-7.41,12.9-.68,29.17-.2,47.18,3.38,3.83,16.93,10.35,35.17,20.95,53.54,23.71,41.06,57.04,64.08,80.83,76.16,12.54,6.37,23.73,10.43,31.99,12.95h0Z"/>
  </g>
  <g class="st1">
    <g class="st1">
      <path d="M114.92,603.57c.21-.28.35-.6.42-.95.14-.78-.18-1.87-.95-3.28-3.04-4.3-5.86-8.26-8.47-11.86-1.13-1.55-2.24-3.11-3.33-4.66-1.1-1.55-2.14-3-3.12-4.34-.99-1.34-1.85-2.54-2.59-3.6s-1.29-1.87-1.64-2.44c-1.55.14-3.07.21-4.55.21s-3.04-.04-4.66-.11v14.93c0,1.98.03,3.92.11,5.82.07,1.91.18,3.6.32,5.08.14,1.84.28,3.53.42,5.08h-8.58c.07-1.55.18-3.25.32-5.08.07-1.48.14-3.18.21-5.08.07-1.91.11-3.85.11-5.82v-41.29c0-1.98-.04-3.93-.11-5.88-.07-1.94-.14-3.65-.21-5.13-.14-1.76-.25-3.42-.32-4.98h7.83c2.05-.07,4.06-.09,6.04-.05,1.98.04,3.99.16,6.04.37,3.18.35,6.12.85,8.84,1.48,2.72.64,5.38,1.94,7.99,3.92,2.26,1.69,4.01,3.81,5.24,6.35,1.23,2.54,1.92,5.15,2.06,7.83.21,3.18-.3,6.27-1.54,9.26-1.24,3-3.16,5.49-5.77,7.46-1.84,1.41-3.69,2.47-5.56,3.18-1.87.71-3.83,1.24-5.88,1.59.92,1.34,2.26,3.25,4.02,5.72,1.76,2.47,3.56,4.94,5.4,7.41,2.12,2.9,4.34,5.97,6.67,9.21l3.28,4.45,4.34,5.19h-12.39ZM86.01,569.58c1.55,0,3.14.02,4.76.05,1.62.04,3.25.02,4.87-.05,1.62-.07,3.21-.23,4.76-.48,1.55-.25,3.03-.69,4.45-1.32,3.39-1.55,5.88-3.97,7.46-7.25,1.59-3.28,2.38-6.76,2.38-10.43s-.79-6.72-2.38-9.16c-1.59-2.44-4.08-4.43-7.46-5.98-1.41-.63-2.9-1.08-4.45-1.32-1.55-.25-3.14-.41-4.76-.48-1.62-.07-3.25-.09-4.87-.05-1.62.04-3.18.05-4.66.05,0,1.55-.02,3.48-.05,5.77-.04,2.29-.05,4.68-.05,7.15v23.51Z"/>
    </g>
    <g class="st1">
      <path d="M215.29,603.46c0-.71-.07-1.48-.21-2.33-.14-.78-.32-1.68-.53-2.7-.21-1.02-.57-2.21-1.06-3.55l-7.52-18.95h-28.91l-7.62,18.95c-.49,1.34-.85,2.53-1.06,3.55-.21,1.02-.39,1.92-.53,2.7-.14.85-.21,1.62-.21,2.33h-6.99l2.96-7.62,26.26-65.75,5.61.11c4.66,11.65,8.86,22.17,12.6,31.55,1.55,4.02,3.11,7.98,4.66,11.86,1.55,3.88,2.96,7.39,4.24,10.54,1.27,3.14,2.33,5.77,3.18,7.89.85,2.12,1.38,3.39,1.59,3.81.35.92.72,1.8,1.11,2.65.39.85.76,1.66,1.11,2.43.42.85.88,1.69,1.38,2.54h-10.06ZM204.38,571.91l-12.81-32.19-12.92,32.19h25.73Z"/>
      <path d="M344.46,530.2l-2.54,7.52-22.98,65.75h-7.2c-3.18-8.89-6.14-17.29-8.89-25.2-1.2-3.32-2.4-6.71-3.6-10.16-1.2-3.46-2.33-6.74-3.39-9.85-1.06-3.11-2.05-5.93-2.96-8.47-.92-2.54-1.62-4.62-2.12-6.25l-20.96,59.93h-7.2c-4.02-11.65-7.69-22.16-11.01-31.55-1.41-4.02-2.81-7.98-4.18-11.86-1.38-3.88-2.61-7.41-3.71-10.59-1.1-3.18-2.01-5.82-2.75-7.94-.74-2.12-1.18-3.39-1.32-3.81-.35-.85-.69-1.71-1.01-2.59-.32-.88-.65-1.71-1.01-2.49-.35-.85-.74-1.66-1.16-2.44h11.12c-.07.71-.04,1.48.11,2.33.14.78.32,1.68.53,2.7.21,1.02.53,2.21.95,3.55l19.16,55.06,22.23-63.74,4.87.11v.11c.14.28.44,1.16.9,2.65.46,1.48,1.08,3.42,1.85,5.82l19.16,55.06,19.48-55.06c.42-1.34.72-2.54.9-3.6.18-1.06.33-1.98.48-2.75.14-.85.21-1.62.21-2.33l6.04.11Z"/>
    </g>
    <g class="st1">
      <path d="M427.16,603.46c0-.71-.07-1.48-.21-2.33-.14-.78-.32-1.68-.53-2.7-.21-1.02-.57-2.21-1.06-3.55l-7.52-18.95h-28.91l-7.62,18.95c-.49,1.34-.85,2.53-1.06,3.55-.21,1.02-.39,1.92-.53,2.7-.14.85-.21,1.62-.21,2.33h-6.99l2.96-7.62,26.26-65.75,5.61.11c4.66,11.65,8.86,22.17,12.6,31.55,1.55,4.02,3.11,7.98,4.66,11.86,1.55,3.88,2.96,7.39,4.24,10.54,1.27,3.14,2.33,5.77,3.18,7.89.85,2.12,1.38,3.39,1.59,3.81.35.92.72,1.8,1.11,2.65.39.85.76,1.66,1.11,2.43.42.85.88,1.69,1.38,2.54h-10.06ZM416.25,571.91l-12.81-32.19-12.92,32.19h25.73Z"/>
      <path d="M527.96,587.58c0,1.98.02,3.92.05,5.82.04,1.91.12,3.6.26,5.08.07,1.84.18,3.53.32,5.08h-.74l-5.08.11-.11-.11h-.11v-.21c-.42-.63-1.52-2.19-3.28-4.66-1.76-2.47-3.9-5.47-6.41-9-2.51-3.53-5.28-7.41-8.31-11.65-3.04-4.24-6.04-8.47-9-12.71s-5.77-8.24-8.42-12.02c-2.65-3.78-4.89-7-6.72-9.69v43.83c0,1.98.04,3.92.11,5.82.07,1.91.18,3.6.32,5.08.14,1.84.28,3.53.42,5.08h-6.99c.07-1.55.17-3.25.32-5.08.07-1.48.14-3.18.21-5.08.07-1.91.11-3.85.11-5.82v-41.29c0-1.98-.04-3.93-.11-5.88-.07-1.94-.14-3.65-.21-5.13-.14-1.76-.25-3.42-.32-4.98h6.25l41.93,59.29v-43.2c0-1.98-.04-3.93-.11-5.88-.07-1.94-.14-3.65-.21-5.14-.14-1.76-.25-3.42-.32-4.98h6.99c-.14,1.55-.28,3.21-.42,4.98-.14,1.48-.25,3.18-.32,5.08-.07,1.91-.11,3.85-.11,5.82v41.4Z"/>
      <path d="M620.5,603.46c0-.71-.07-1.48-.21-2.33-.14-.78-.32-1.68-.53-2.7-.21-1.02-.57-2.21-1.06-3.55l-7.52-18.95h-28.91l-7.62,18.95c-.5,1.34-.85,2.53-1.06,3.55-.21,1.02-.39,1.92-.53,2.7-.14.85-.21,1.62-.21,2.33h-6.99l2.96-7.62,26.26-65.75,5.61.11c4.66,11.65,8.86,22.17,12.6,31.55,1.55,4.02,3.11,7.98,4.66,11.86,1.55,3.88,2.96,7.39,4.24,10.54,1.27,3.14,2.33,5.77,3.18,7.89.85,2.12,1.38,3.39,1.59,3.81.35.92.72,1.8,1.11,2.65.39.85.76,1.66,1.11,2.43.42.85.88,1.69,1.38,2.54h-10.06ZM609.59,571.91l-12.81-32.19-12.92,32.19h25.73Z"/>
      <path d="M720.87,587.48c0,1.98.04,3.92.11,5.82.07,1.91.17,3.6.32,5.08.14,1.84.28,3.53.42,5.08h-8.58c.07-1.55.17-3.25.32-5.08.07-1.48.14-3.18.21-5.08.07-1.91.11-3.85.11-5.82v-20.86h-38.43v20.86c0,1.98.02,3.92.05,5.82.04,1.91.12,3.6.27,5.08.14,1.84.28,3.53.42,5.08h-8.47c.07-1.55.17-3.25.32-5.08.07-1.48.14-3.18.21-5.08.07-1.91.11-3.85.11-5.82v-41.29c0-1.98-.04-3.93-.11-5.88-.07-1.94-.14-3.65-.21-5.13-.14-1.76-.25-3.42-.32-4.98h8.47c-.14,1.55-.28,3.21-.42,4.98-.14,1.48-.23,3.18-.27,5.08-.04,1.91-.05,3.85-.05,5.82v16.41h38.43v-16.31c0-1.98-.04-3.93-.11-5.88-.07-1.94-.14-3.65-.21-5.13-.14-1.76-.25-3.42-.32-4.98h8.58c-.14,1.55-.28,3.21-.42,4.98-.14,1.48-.25,3.18-.32,5.08-.07,1.91-.11,3.85-.11,5.82v41.4Z"/>
    </g>
  </g>
</svg>