<?xml version="1.0" encoding="UTF-8"?>
<svg id="objects" xmlns="http://www.w3.org/2000/svg" viewBox="0 0 430.12 298.76">
  <defs>
    <style>
      .cls-1, .cls-2 {
        stroke-width: 0px;
      }

      .cls-2 {
        fill: #fff;
      }
    </style>
  </defs>
  <polygon class="cls-1" points="430.12 29.2 413.52 29.2 413.52 14.36 397.13 14.36 397.13 0 31.16 0 31.16 14.36 14.77 14.36 14.77 29.2 0 29.2 0 215.95 16.05 215.95 16.05 230.79 32.44 230.79 32.44 245.51 46.73 245.51 46.73 298.76 67.14 298.76 67.14 289.71 81.09 289.71 81.09 274.87 97.48 274.87 97.48 260.03 113.86 260.03 113.86 245.39 397.27 245.39 397.27 230.55 413.66 230.55 413.66 215.7 430.12 215.7 430.12 29.2"/>
  <polygon class="cls-2" points="393.11 211.94 393.11 226.91 109.71 226.91 109.71 241.42 93.32 241.42 93.32 256.26 76.93 256.26 76.93 271.11 67.14 271.11 67.14 226.91 36.6 226.91 36.6 212.18 20.41 212.18 20.41 32.97 35.32 32.97 35.32 18.49 392.98 18.49 392.98 32.97 409.71 32.97 409.71 211.94 393.11 211.94"/>
</svg>