<?xml version="1.0" encoding="UTF-8"?>
<svg id="Layer_1" data-name="Layer 1" xmlns="http://www.w3.org/2000/svg" viewBox="0 0 800 800">
  <defs>
    <style>
      .cls-1 {
        fill: #184387;
      }

      .cls-2 {
        fill: #173c80;
      }

      .cls-3 {
        fill: #fefefe;
      }

      .cls-4 {
        fill: #2c53a2;
      }

      .cls-5 {
        fill: #163c83;
      }
    </style>
  </defs>
  <g id="bnvN3B">
    <g>
      <rect class="cls-4" x=".13" width="800" height="800"/>
      <path class="cls-3" d="M486.8,126.67c51.04,2.79,139.21,17.86,169.46,65.54,57.22,90.18-83.32,172.75-132.87,232.72-44.87,54.29,32.8,38.28,61.46,42.03,34.97,4.57,71.13,39.27,80.43,72.91,16.62,60.15-23.43,125.21-86.79,130.18-1.75.51-1.75,1.77-1.69,3.29-63.07,3.28-126.87,2.05-190,0-16.36-4.47-33.19-4.7-50.01-8.32-92.89-19.98-180.14-107.83-199.07-200.93-3.42-16.84-2.4-34.9-7.59-50.75-2.49-6.23-2.54-13.79,0-20,5.23-22.84,5.76-46.59,12.4-69.26,39.78-135.78,167.41-190.81,297.6-197.4,14.69-3.14,31.98-3.16,46.67,0Z"/>
      <path class="cls-2" d="M386.8,673.33c63.21-1.61,126.77,1.19,190,0,.02.46,5.63,3.39,1.66,3.35h-199.98c-5.62-4.97,6.26-3.29,8.32-3.35Z"/>
      <path class="cls-5" d="M440.13,126.67l-8.32-3.35h63.31l-8.32,3.35c-14.55-.8-32.09-.74-46.67,0Z"/>
      <path class="cls-1" d="M130.13,393.33c.14,6.61.26,13.4,0,20-.16,3.93,2.56,13.99-3.3,13.32l-.05-44.97c5.33-5.72,3.31,9.89,3.35,11.66Z"/>
    </g>
  </g>
</svg>